<svg id="svg" xmlns="http://www.w3.org/2000/svg" xmlns:xlink="http://www.w3.org/1999/xlink" width="400" height="356.54596100278553" viewBox="0, 0, 400,356.54596100278553"><g id="svgg"><path id="path0" d="M28.357 30.537 C 19.013 34.607,16.909 42.949,21.097 59.325 C 25.092 74.943,27.663 78.726,56.923 112.029 L 75.567 133.250 88.396 179.995 C 105.322 241.675,109.449 252.543,122.645 270.197 C 127.872 277.190,128.177 278.001,129.862 289.445 C 133.481 314.017,134.522 316.802,141.387 320.259 C 161.646 330.463,189.011 335.297,208.197 332.060 C 217.560 330.481,231.686 320.933,246.619 306.089 L 254.242 298.513 253.451 283.161 C 252.364 262.069,252.156 262.633,266.191 248.655 C 285.641 229.284,312.839 191.868,316.936 178.846 C 321.229 165.203,326.830 152.399,332.286 143.760 C 334.792 139.792,339.913 129.511,343.667 120.913 C 353.384 98.660,355.824 95.455,366.982 90.297 C 379.277 84.614,380.798 82.801,378.979 75.995 C 375.028 61.213,354.251 57.818,333.148 68.506 C 324.271 73.002,303.656 94.707,282.071 122.284 C 280.032 124.889,278.030 127.018,277.622 127.017 C 276.785 127.014,268.524 107.857,268.524 105.920 C 268.524 95.917,243.752 59.516,231.935 52.153 C 222.180 46.076,194.986 54.188,194.986 63.175 C 194.986 68.273,190.634 69.202,183.589 65.608 C 172.947 60.179,147.928 70.327,145.205 81.178 C 144.556 83.760,144.305 83.821,137.726 82.977 C 120.093 80.715,106.964 86.903,106.964 97.475 C 106.964 101.631,105.853 101.352,101.053 95.992 C 98.500 93.141,89.134 83.287,80.239 74.095 C 71.344 64.903,59.981 52.368,54.987 46.240 C 39.549 27.297,37.954 26.356,28.357 30.537 M35.510 37.396 C 36.746 38.966,38.321 41.963,39.012 44.056 L 40.268 47.862 43.254 45.675 C 46.921 42.989,50.514 43.731,52.246 47.532 C 53.563 50.421,53.082 52.368,51.051 52.368 C 50.338 52.368,50.468 51.591,51.376 50.418 C 52.754 48.639,52.680 48.643,50.537 50.465 C 47.822 52.773,40.111 54.373,40.111 52.629 C 40.111 51.999,41.884 49.928,44.050 48.026 C 46.216 46.124,47.595 44.573,47.114 44.578 C 46.633 44.583,44.293 46.433,41.913 48.688 L 37.586 52.788 34.114 48.956 C 32.203 46.849,29.725 43.871,28.606 42.339 L 26.571 39.554 28.327 42.579 C 30.915 47.035,30.429 47.951,27.721 43.723 C 25.085 39.607,25.540 37.178,29.223 35.698 C 32.895 34.224,33.048 34.265,35.510 37.396 M29.526 49.561 C 31.366 50.212,31.463 50.126,30.084 49.070 C 28.647 47.971,28.694 47.839,30.421 48.130 C 31.526 48.316,32.502 48.969,32.591 49.582 C 32.680 50.195,33.782 51.557,35.040 52.609 C 37.282 54.485,37.247 54.523,33.239 54.559 C 30.991 54.579,28.276 54.932,27.206 55.343 C 25.880 55.851,25.518 55.674,26.067 54.785 C 26.550 54.003,26.178 53.482,25.135 53.482 C 24.005 53.482,23.398 52.464,23.398 50.566 C 23.398 47.559,23.720 47.506,29.526 49.561 M48.969 54.702 C 47.841 56.809,47.959 56.959,50.183 56.253 C 51.855 55.723,52.402 55.868,51.884 56.705 C 51.089 57.992,51.214 58.051,55.646 58.496 C 60.500 58.983,65.347 66.217,61.745 67.599 C 60.324 68.145,60.270 68.460,61.466 69.219 C 64.942 71.422,54.805 69.290,47.632 66.310 C 46.030 65.644,45.682 66.092,45.682 68.822 C 45.682 74.278,44.390 79.130,43.143 78.359 C 42.421 77.913,42.224 78.546,42.617 80.049 C 43.799 84.568,41.126 82.458,38.507 76.805 C 37.068 73.699,35.643 71.819,35.340 72.626 C 35.037 73.434,34.992 71.838,35.240 69.081 C 35.575 65.345,35.421 64.635,34.636 66.295 C 33.768 68.131,33.569 68.192,33.504 66.643 C 33.449 65.309,32.557 64.823,30.441 64.971 C 28.109 65.135,27.294 64.571,26.718 62.396 C 25.832 59.047,27.348 56.700,29.791 57.637 C 30.766 58.011,31.280 57.856,30.933 57.292 C 30.586 56.729,31.758 56.214,33.536 56.149 C 37.232 56.013,37.620 57.347,34.819 60.549 C 33.747 61.775,33.496 62.412,34.262 61.964 C 35.074 61.490,35.691 61.758,35.743 62.608 C 35.791 63.411,36.334 62.688,36.950 61.003 C 38.160 57.690,39.483 57.129,40.892 59.331 C 41.797 60.747,49.025 65.142,49.025 64.278 C 49.025 64.018,47.002 62.467,44.529 60.830 C 39.738 57.660,39.591 55.710,44.143 55.710 C 45.675 55.710,46.642 55.247,46.292 54.680 C 45.942 54.114,46.539 53.420,47.619 53.138 C 48.699 52.857,49.725 52.568,49.900 52.497 C 50.075 52.426,49.656 53.418,48.969 54.702 M234.949 62.333 C 247.835 73.687,254.333 83.415,259.619 99.263 C 260.930 103.192,263.746 111.091,265.877 116.816 C 268.686 124.364,269.659 128.629,269.416 132.330 L 269.081 137.434 259.053 143.302 C 245.993 150.944,246.240 150.981,246.240 141.373 C 246.240 132.786,247.470 130.905,258.466 122.673 C 262.152 119.914,264.967 115.292,263.721 114.046 C 263.332 113.657,261.218 114.787,259.024 116.558 C 245.631 127.365,246.211 128.042,247.025 102.564 C 247.679 82.078,246.866 74.652,243.971 74.652 C 242.816 74.652,241.976 85.894,241.179 111.978 C 240.300 140.775,237.670 162.674,235.091 162.674 C 234.597 162.674,232.379 160.150,230.163 157.066 C 224.970 149.837,222.525 148.926,214.469 151.218 C 207.043 153.331,207.469 153.697,203.422 141.726 C 200.409 132.812,200.203 133.219,208.286 132.080 C 211.005 131.697,214.982 130.552,217.125 129.535 C 219.993 128.174,221.138 128.039,221.467 129.024 C 222.916 133.373,228.905 128.812,227.756 124.235 C 227.203 122.031,226.752 121.634,226.054 122.735 C 225.343 123.856,225.099 123.679,225.087 122.036 C 225.072 120.144,224.625 120.324,221.881 123.329 C 218.565 126.960,211.044 128.832,203.310 127.953 C 199.368 127.505,199.162 126.019,197.766 87.974 L 196.926 65.084 199.649 61.918 C 201.615 59.633,204.523 58.191,210.100 56.738 C 223.618 53.216,224.941 53.514,234.949 62.333 M55.710 59.402 C 55.710 59.593,57.340 61.223,59.331 63.023 L 62.953 66.295 59.680 62.674 C 56.630 59.299,55.710 58.541,55.710 59.402 M215.599 62.844 C 206.218 66.985,203.486 74.932,203.303 98.607 C 203.222 109.025,202.758 119.680,202.271 122.284 C 201.735 125.154,201.804 127.019,202.445 127.019 C 204.922 127.019,230.882 94.969,234.520 87.420 C 242.807 70.222,231.666 55.752,215.599 62.844 M228.041 69.723 C 233.255 74.936,228.012 87.264,212.479 106.315 L 209.828 109.566 209.118 97.401 C 208.107 80.099,210.037 73.649,217.609 69.032 C 222.353 66.139,224.607 66.289,228.041 69.723 M188.506 71.343 L 191.883 74.720 191.119 86.663 C 190.115 102.373,192.101 128.000,195.066 137.601 C 197.688 146.088,197.408 147.741,193.065 149.415 C 187.201 151.675,175.207 153.513,173.641 152.392 C 172.514 151.586,172.626 151.477,174.095 151.949 C 175.167 152.294,176.045 152.059,176.045 151.427 C 176.045 150.795,175.167 150.422,174.095 150.599 C 173.022 150.775,171.589 150.570,170.909 150.143 C 169.716 149.393,169.877 156.878,171.080 158.081 C 173.160 160.160,187.850 157.035,194.735 153.049 L 199.499 150.291 204.888 161.775 C 211.168 175.158,211.168 174.656,204.895 171.070 C 197.514 166.851,190.885 167.619,184.828 173.396 L 181.912 176.177 176.113 169.704 C 162.501 154.509,158.057 141.228,150.948 94.497 C 149.145 82.647,149.148 82.571,151.547 79.326 C 158.831 69.475,181.698 64.535,188.506 71.343 M372.266 71.182 C 375.390 75.040,374.923 76.295,368.934 80.138 C 358.306 86.958,344.356 104.773,338.667 118.791 C 335.875 125.669,334.085 126.658,329.387 123.914 C 317.756 117.121,323.418 92.464,338.367 84.811 C 344.652 81.594,350.259 85.380,347.247 90.808 C 346.045 92.974,345.999 92.964,345.621 90.464 C 345.107 87.068,341.636 87.675,341.128 91.250 C 340.462 95.938,346.024 97.430,349.861 93.593 C 358.418 85.036,345.172 76.321,334.435 83.444 C 318.024 94.332,313.968 116.608,325.379 133.193 C 327.787 136.693,328.536 138.687,327.789 139.609 C 324.549 143.609,317.767 159.280,312.658 174.573 L 306.854 191.948 290.791 211.797 C 281.956 222.714,274.513 231.430,274.249 231.167 C 271.447 228.364,276.045 206.679,281.153 198.609 C 287.022 189.335,299.721 182.573,299.721 188.722 C 299.721 191.583,296.836 194.738,295.516 193.321 C 295.071 192.843,295.334 192.229,296.100 191.955 C 298.500 191.098,297.617 189.243,294.986 189.616 C 291.975 190.044,291.479 194.669,294.257 196.421 C 301.199 200.801,307.355 189.408,301.311 183.365 C 291.538 173.591,274.956 190.122,267.888 216.685 C 258.455 252.139,252.888 256.859,220.613 256.764 C 194.753 256.688,195.913 257.200,187.525 242.163 C 178.739 226.415,178.749 226.457,181.632 216.966 C 186.581 200.672,191.315 194.487,201.835 190.569 C 205.296 189.281,210.310 186.311,212.977 183.970 C 218.249 179.344,222.746 176.781,227.667 175.600 C 232.519 174.435,239.237 169.524,241.708 165.336 C 246.576 157.086,257.826 160.660,263.016 172.105 C 268.197 183.532,274.467 185.923,281.307 179.082 C 287.485 172.905,284.107 164.025,276.586 166.670 C 272.507 168.104,272.100 174.169,276.045 174.729 C 278.742 175.112,279.682 172.188,277.159 171.263 C 276.147 170.892,276.099 170.397,276.983 169.451 C 278.680 167.638,281.066 170.658,280.587 174.011 C 280.139 177.146,274.930 179.332,272.086 177.579 C 266.308 174.016,264.583 154.174,269.457 147.329 C 272.846 142.570,273.264 142.717,276.154 149.692 C 282.420 164.807,291.495 174.124,300.113 174.287 L 304.701 174.373 305.449 168.802 C 305.860 165.738,307.027 160.975,308.041 158.217 C 313.766 142.657,313.566 135.063,307.295 129.786 C 300.329 123.925,289.150 128.050,286.864 137.326 C 284.720 146.030,294.172 153.889,299.678 147.979 C 303.860 143.490,301.276 134.818,296.630 137.749 C 294.136 139.322,293.612 141.504,295.729 141.504 C 296.699 141.504,297.493 142.291,297.493 143.253 C 297.493 144.410,296.683 144.881,295.100 144.646 C 287.362 143.495,291.537 130.362,299.641 130.362 C 308.110 130.362,309.665 141.185,303.163 154.875 C 301.271 158.858,299.723 163.496,299.722 165.181 C 299.721 170.612,292.748 167.383,287.453 159.499 C 278.234 145.772,281.764 126.570,295.507 115.685 L 300.025 112.107 302.750 115.385 C 308.825 122.694,311.152 124.791,313.186 124.791 C 317.331 124.791,315.597 119.998,308.436 111.660 C 303.009 105.341,305.632 99.786,320.801 85.476 C 337.395 69.823,364.965 62.165,372.266 71.182 M72.452 75.238 L 77.402 80.282 74.873 84.988 C 71.877 90.565,64.743 98.541,63.692 97.489 C 59.919 93.717,65.068 76.072,69.197 78.623 C 71.198 79.860,70.229 82.252,67.967 81.660 C 66.389 81.247,65.738 81.626,65.738 82.956 C 65.738 86.333,70.695 84.615,71.101 81.097 C 72.028 73.056,62.118 76.817,60.792 85.009 C 60.170 88.848,59.835 89.342,58.931 87.744 C 57.680 85.532,54.406 85.221,51.085 86.998 C 46.286 89.567,48.122 87.005,53.599 83.490 C 57.750 80.827,59.967 78.439,61.493 74.991 C 64.217 68.833,66.210 68.878,72.452 75.238 M216.274 75.648 C 213.085 78.837,208.619 104.745,211.261 104.730 C 212.606 104.722,224.709 84.879,225.635 81.162 C 227.254 74.670,220.959 70.963,216.274 75.648 M168.802 75.452 C 148.760 80.321,154.317 110.683,179.703 135.009 C 190.494 145.349,195.428 146.452,191.016 137.537 C 186.969 129.358,185.898 120.716,187.207 106.791 C 189.561 81.744,183.735 71.824,168.802 75.452 M176.563 82.868 C 179.966 86.272,180.706 91.618,180.283 109.749 L 179.944 124.234 175.760 118.663 C 165.082 104.445,160.988 89.623,165.989 83.287 C 168.999 79.473,173.008 79.314,176.563 82.868 M249.347 91.643 C 249.548 96.086,249.253 104.485,248.690 110.306 C 247.495 122.687,247.840 123.478,252.578 119.222 C 260.905 111.742,261.350 105.664,254.573 91.948 C 249.440 81.561,248.890 81.529,249.347 91.643 M81.659 88.621 C 81.518 90.480,82.193 92.324,83.330 93.188 C 84.379 93.985,84.666 94.653,83.968 94.672 C 83.270 94.692,82.373 96.445,81.975 98.568 C 80.971 103.918,79.373 104.441,77.361 100.079 L 75.656 96.379 76.356 99.710 C 76.742 101.543,77.422 103.297,77.867 103.610 C 78.313 103.923,79.236 105.682,79.917 107.521 C 82.502 114.496,82.449 116.401,79.542 120.933 C 77.984 123.361,76.961 124.528,77.269 123.524 C 77.685 122.165,77.281 121.844,75.683 122.262 C 73.945 122.716,73.523 122.216,73.459 119.629 C 73.389 116.774,73.269 116.671,72.324 118.663 C 71.082 121.280,71.690 115.698,73.022 112.256 C 73.648 110.638,73.139 110.304,70.036 110.289 C 63.803 110.261,62.370 107.903,66.006 103.657 C 67.182 102.284,69.305 101.393,71.403 101.393 L 74.861 101.393 74.261 95.543 C 73.833 91.377,73.925 90.656,74.581 93.036 L 75.502 96.379 75.634 92.684 C 75.809 87.783,77.518 84.801,79.932 85.187 C 81.334 85.412,81.827 86.392,81.659 88.621 M140.924 88.498 C 143.662 89.642,144.847 90.850,144.847 92.499 C 144.847 97.456,152.803 130.940,157.172 144.368 C 159.684 152.090,161.574 158.556,161.371 158.736 C 155.745 163.739,140.631 168.399,139.071 165.612 C 137.252 162.361,132.454 164.697,133.414 168.366 C 134.703 173.298,159.062 168.690,161.204 163.109 C 162.184 160.554,164.294 161.344,166.510 165.094 L 168.598 168.629 163.401 173.015 C 159.354 176.431,158.050 178.366,157.507 181.765 C 156.716 186.711,156.431 186.722,146.518 182.204 C 131.430 175.327,124.718 163.219,113.007 121.750 C 105.190 94.072,117.935 78.893,140.924 88.498 M167.691 88.419 C 165.353 91.986,167.026 99.441,172.477 109.749 C 177.506 119.259,178.672 118.929,178.355 108.083 C 177.793 88.817,173.100 80.164,167.691 88.419 M57.382 90.158 C 57.382 91.026,56.630 91.942,55.710 92.193 C 54.250 92.591,54.246 92.505,55.678 91.510 C 56.580 90.884,56.977 90.032,56.562 89.617 C 55.351 88.406,52.368 90.021,52.368 91.887 C 52.368 93.942,56.886 94.200,58.830 92.256 C 59.870 91.216,60.167 92.468,60.167 97.890 C 60.167 105.535,58.878 105.773,53.689 99.088 C 49.194 93.297,48.548 91.127,50.826 89.461 C 53.386 87.589,57.382 88.014,57.382 90.158 M91.090 95.554 C 91.480 96.724,83.557 102.870,82.728 102.041 C 82.504 101.817,83.077 99.825,84.000 97.613 C 84.924 95.402,85.425 93.593,85.114 93.593 C 84.803 93.593,84.876 93.062,85.277 92.414 C 86.083 91.109,90.383 93.432,91.090 95.554 M125.059 93.716 C 111.734 100.312,111.771 122.571,125.159 153.649 C 128.880 162.287,132.353 165.859,130.988 159.644 C 129.899 154.686,133.997 137.837,139.323 125.370 C 150.145 100.041,143.239 84.717,125.059 93.716 M234.343 95.377 C 233.555 97.431,236.249 99.572,237.743 98.079 C 238.959 96.862,237.843 93.593,236.212 93.593 C 235.560 93.593,234.720 94.396,234.343 95.377 M256.260 105.509 C 256.266 110.082,255.690 111.952,253.517 114.423 C 251.258 116.991,250.761 117.189,250.732 115.533 C 250.712 114.425,251.173 113.812,251.755 114.172 C 253.745 115.402,255.408 110.048,254.908 104.020 C 254.364 97.468,253.359 95.566,251.767 98.082 C 250.934 99.400,250.727 99.266,250.713 97.400 C 250.686 93.648,252.054 93.355,254.226 96.648 C 255.527 98.621,256.255 101.793,256.260 105.509 M138.162 99.164 C 139.387 100.390,140.385 102.772,140.380 104.457 C 140.369 107.965,128.785 141.224,126.928 143.081 C 125.215 144.795,119.841 123.801,119.810 115.273 C 119.770 104.473,121.444 101.252,128.367 98.803 C 134.766 96.539,135.566 96.569,138.162 99.164 M88.579 101.393 C 87.963 102.391,90.422 102.972,94.503 102.794 C 95.310 102.759,95.689 103.011,95.346 103.354 C 95.003 103.697,95.721 104.679,96.943 105.534 C 102.162 109.190,94.980 110.733,87.429 107.578 C 82.980 105.719,82.887 105.478,85.515 102.600 C 87.568 100.352,89.755 99.490,88.579 101.393 M253.711 108.357 C 253.446 109.735,253.228 108.607,253.228 105.850 C 253.228 103.092,253.446 101.964,253.711 103.343 C 253.977 104.721,253.977 106.978,253.711 108.357 M125.820 105.764 C 121.924 109.660,121.385 117.612,124.331 127.744 C 126.569 135.443,127.345 135.100,132.321 124.214 C 139.563 108.371,135.302 96.281,125.820 105.764 M231.190 106.144 C 229.559 107.056,228.921 110.443,230.148 111.671 C 231.543 113.066,235.025 111.004,236.000 108.205 C 237.118 104.998,234.920 104.056,231.190 106.144 M75.969 109.749 C 75.271 111.281,74.882 112.535,75.105 112.535 C 75.327 112.535,76.331 111.281,77.335 109.749 C 78.339 108.217,78.728 106.964,78.199 106.964 C 77.670 106.964,76.667 108.217,75.969 109.749 M86.237 108.635 C 87.399 109.515,88.791 109.963,89.328 109.631 C 89.866 109.298,90.234 109.440,90.146 109.945 C 89.731 112.338,90.368 113.708,91.554 112.975 C 92.443 112.426,92.620 112.788,92.111 114.114 C 91.701 115.184,91.365 116.520,91.365 117.083 C 91.365 119.557,87.863 117.753,85.277 113.947 C 81.115 107.823,81.602 105.127,86.237 108.635 M107.400 120.056 C 107.798 122.967,109.618 129.586,111.444 134.765 C 115.526 146.347,115.548 147.103,111.699 143.548 C 110.014 141.992,106.314 139.157,103.477 137.250 C 96.361 132.466,94.521 125.243,100.641 126.119 C 103.090 126.469,104.816 130.362,102.523 130.362 C 101.829 130.362,101.550 129.895,101.902 129.325 C 102.722 127.999,100.634 126.668,99.161 127.578 C 97.615 128.534,99.886 132.591,101.968 132.591 C 104.159 132.591,105.331 127.409,103.609 125.334 C 101.953 123.339,97.892 123.167,96.045 125.014 C 92.201 128.857,95.584 134.892,105.556 141.981 C 115.485 149.039,118.224 153.760,112.390 153.760 C 110.472 153.760,104.934 154.848,100.084 156.177 C 89.525 159.071,89.545 159.083,85.348 147.287 C 80.810 134.529,81.010 134.238,90.682 139.494 C 101.443 145.342,105.040 153.253,96.563 152.431 C 92.764 152.063,90.412 147.075,94.038 147.075 C 95.104 147.075,95.509 147.707,95.110 148.747 C 94.698 149.823,95.134 150.418,96.337 150.418 C 98.913 150.418,98.146 145.551,95.490 145.045 C 90.977 144.184,88.591 149.713,92.002 153.124 C 95.736 156.858,104.735 153.686,104.735 148.635 C 104.735 146.399,98.763 140.669,92.782 137.167 C 82.845 131.349,83.569 129.111,98.598 119.176 C 106.867 113.710,106.528 113.676,107.400 120.056 M158.960 121.924 C 158.299 123.647,161.156 126.681,162.332 125.505 C 162.727 125.109,164.024 125.665,165.214 126.739 C 167.140 128.477,167.107 128.233,164.916 124.513 C 162.367 120.187,160.018 119.166,158.960 121.924 M263.452 121.506 C 262.871 122.457,260.301 124.713,257.742 126.520 C 252.043 130.542,250.031 133.796,249.009 140.641 L 248.223 145.905 255.010 142.514 C 265.462 137.291,268.029 132.310,265.291 122.563 C 264.639 120.244,264.331 120.067,263.452 121.506 M143.313 128.733 C 142.915 129.771,143.417 130.727,144.587 131.159 C 145.649 131.550,146.896 132.409,147.357 133.066 C 147.818 133.724,147.981 133.008,147.718 131.476 C 147.456 129.944,147.204 128.315,147.158 127.855 C 147.005 126.310,143.978 127.002,143.313 128.733 M261.838 128.004 C 261.838 128.545,260.710 129.297,259.331 129.675 C 257.275 130.238,257.120 130.552,258.466 131.417 C 259.561 132.121,260.391 132.028,260.956 131.139 C 261.527 130.241,261.810 130.211,261.821 131.048 C 261.865 134.225,257.055 138.518,255.632 136.571 C 254.591 135.148,254.125 135.048,253.682 136.153 C 253.218 137.312,253.083 137.301,253.013 136.100 C 252.964 135.273,254.630 132.891,256.713 130.808 C 260.577 126.943,261.838 126.254,261.838 128.004 M255.966 132.149 C 254.652 133.463,255.036 135.023,256.457 134.145 C 257.354 133.590,257.520 133.967,256.988 135.351 C 256.336 137.051,256.479 137.145,257.913 135.954 C 259.726 134.450,260.298 132.034,258.591 133.089 C 258.031 133.435,257.393 133.183,257.175 132.528 C 256.957 131.873,256.412 131.703,255.966 132.149 M166.253 133.914 C 163.067 137.100,166.419 141.431,170.008 138.765 C 171.684 137.520,171.887 136.757,170.951 135.229 C 169.382 132.668,167.911 132.256,166.253 133.914 M208.428 136.964 C 206.585 138.148,208.590 141.504,211.142 141.504 C 211.911 141.504,213.165 142.256,213.928 143.175 C 214.690 144.095,215.850 144.847,216.505 144.847 C 217.160 144.847,216.735 144.144,215.561 143.285 C 214.386 142.426,213.413 140.555,213.398 139.127 C 213.368 136.330,211.011 135.304,208.428 136.964 M227.298 142.061 C 227.298 144.473,227.749 144.938,229.805 144.646 C 231.450 144.412,232.312 143.524,232.312 142.061 C 232.312 140.599,231.450 139.711,229.805 139.477 C 227.749 139.185,227.298 139.649,227.298 142.061 M142.761 144.035 C 142.070 144.727,141.504 146.095,141.504 147.075 C 141.504 148.056,140.877 149.499,140.111 150.282 C 139.345 151.065,140.473 150.790,142.618 149.669 C 146.736 147.518,148.144 146.143,148.172 144.248 C 148.196 142.653,144.297 142.499,142.761 144.035 M220.347 145.635 C 221.733 145.901,223.739 145.891,224.804 145.612 C 225.869 145.333,224.735 145.115,222.284 145.128 C 219.833 145.140,218.961 145.368,220.347 145.635 M117.338 158.137 C 118.981 158.762,121.084 161.299,122.649 164.544 C 132.616 185.206,160.187 198.475,176.623 190.519 C 182.224 187.808,184.958 188.681,184.958 193.182 C 184.958 195.932,179.890 206.103,177.618 207.910 C 176.772 208.583,176.372 209.427,176.731 209.785 C 177.089 210.144,176.984 211.081,176.497 211.868 C 176.011 212.656,175.504 214.569,175.373 216.121 C 175.241 217.672,174.792 220.195,174.376 221.727 C 173.960 223.259,173.573 225.891,173.516 227.577 C 173.370 231.829,171.809 231.426,171.358 227.019 L 170.986 223.398 170.406 227.498 C 170.086 229.754,170.222 231.353,170.706 231.054 C 171.191 230.754,171.588 232.043,171.588 233.918 C 171.588 235.792,172.089 237.326,172.702 237.326 C 173.315 237.326,173.691 237.953,173.538 238.719 C 173.384 239.485,173.838 240.002,174.546 239.868 C 175.254 239.734,176.081 240.269,176.383 241.057 C 177.052 242.801,169.256 242.957,167.984 241.226 C 167.477 240.536,167.159 240.642,167.148 241.504 C 167.139 242.270,166.612 242.897,165.978 242.897 C 165.182 242.897,165.182 242.227,165.978 240.742 C 167.681 237.559,167.378 236.581,165.457 239.063 C 164.182 240.710,163.937 240.781,164.429 239.361 C 164.842 238.171,164.248 237.054,162.786 236.271 C 160.897 235.261,160.610 235.342,161.145 236.737 C 161.501 237.667,162.320 238.102,162.963 237.704 C 163.675 237.265,163.798 237.522,163.279 238.363 C 162.677 239.336,161.125 238.391,158.022 235.162 C 151.851 228.739,144.955 224.513,143.326 226.155 C 142.379 227.110,142.596 227.226,144.194 226.618 C 145.682 226.051,146.083 226.199,145.521 227.109 C 145.078 227.826,145.295 228.412,146.004 228.412 C 146.713 228.412,149.726 231.045,152.699 234.262 C 155.673 237.479,158.543 240.111,159.077 240.111 C 160.711 240.111,163.871 243.829,162.799 244.491 C 162.246 244.833,161.521 244.403,161.188 243.536 C 160.856 242.669,159.675 242.110,158.565 242.293 C 156.221 242.680,150.982 238.355,152.590 237.361 C 153.185 236.993,152.636 236.046,151.371 235.255 C 149.474 234.071,149.234 234.077,150.006 235.294 C 150.520 236.105,151.011 237.145,151.097 237.604 C 151.183 238.064,151.379 238.691,151.532 238.997 C 151.685 239.304,151.873 240.120,151.950 240.811 C 152.151 242.625,157.103 245.767,157.103 244.081 C 157.103 243.358,157.669 243.115,158.360 243.542 C 159.215 244.070,159.017 244.656,157.743 245.368 C 156.441 246.097,155.034 245.870,153.132 244.624 C 151.484 243.544,150.511 243.343,150.685 244.118 C 150.845 244.825,150.370 245.626,149.631 245.898 C 148.821 246.196,148.442 245.588,148.676 244.366 C 148.890 243.252,147.559 240.585,145.719 238.440 C 143.879 236.295,142.903 235.584,143.550 236.860 C 144.196 238.136,145.470 239.798,146.379 240.553 C 147.289 241.309,147.847 242.899,147.618 244.087 C 147.331 245.578,148.202 246.765,150.426 247.915 C 154.395 249.968,156.452 250.069,152.774 248.030 C 151.058 247.079,150.565 246.280,151.382 245.775 C 152.077 245.346,152.646 245.491,152.646 246.099 C 152.646 246.706,153.656 247.524,154.891 247.916 C 156.145 248.314,156.802 249.168,156.379 249.852 C 155.899 250.630,156.278 250.824,157.421 250.385 C 158.717 249.888,159.035 250.173,158.560 251.410 C 158.141 252.503,156.962 252.945,155.308 252.628 C 153.718 252.324,152.987 252.575,153.420 253.275 C 153.856 253.980,153.381 254.132,152.181 253.671 C 151.111 253.261,149.746 252.925,149.147 252.925 C 148.548 252.925,148.375 252.298,148.763 251.532 C 149.151 250.766,148.750 251.017,147.871 252.089 C 146.992 253.162,145.417 254.039,144.372 254.039 C 139.818 254.039,132.395 259.964,133.406 262.793 C 133.765 263.800,133.667 264.269,133.187 263.836 C 132.707 263.402,131.455 264.109,130.404 265.406 C 127.524 268.963,119.402 259.706,115.784 248.741 C 113.578 242.059,121.977 236.662,127.210 241.398 C 129.123 243.129,129.248 243.099,129.248 240.914 C 129.248 236.902,127.335 233.307,123.048 229.262 C 115.337 221.988,121.496 215.184,135.018 216.038 C 136.047 216.103,137.676 216.944,138.639 217.907 C 140.231 219.499,140.390 219.367,140.390 216.454 C 140.390 214.256,139.166 212.065,136.490 209.471 C 131.869 204.991,131.574 202.389,135.405 199.878 C 140.874 196.295,153.376 199.968,156.922 206.200 C 159.259 210.308,160.711 210.414,159.764 206.407 C 158.178 199.701,153.441 195.228,140.197 187.928 C 135.659 185.427,130.882 181.607,127.940 178.126 C 114.588 162.325,109.594 160.369,97.093 166.041 C 91.158 168.734,91.365 168.734,91.365 166.042 C 91.365 160.454,109.174 155.033,117.338 158.137 M228.603 158.947 C 234.056 163.882,227.656 171.588,218.104 171.588 C 214.689 171.588,214.172 171.120,212.060 166.121 L 209.750 160.653 215.460 158.968 C 223.037 156.732,226.150 156.727,228.603 158.947 M186.586 162.320 C 184.829 164.077,184.839 164.288,186.739 165.678 C 189.504 167.699,191.019 166.972,191.439 163.424 C 191.852 159.932,189.507 159.399,186.586 162.320 M249.582 167.594 C 249.582 170.456,240.916 176.106,227.041 182.291 C 198.760 194.898,193.287 198.584,188.285 208.387 C 182.995 218.757,185.780 233.217,195.652 246.633 L 199.631 252.040 217.086 251.607 C 247.344 250.855,254.101 245.165,265.670 210.687 C 269.014 200.722,272.320 191.882,273.018 191.041 C 274.730 188.978,273.679 187.605,269.791 186.827 C 265.162 185.901,255.978 176.486,254.110 170.752 C 252.658 166.293,249.582 164.148,249.582 167.594 M104.963 173.861 C 109.268 175.056,113.673 179.507,113.615 182.602 C 113.586 184.165,113.432 184.145,112.446 182.451 C 109.289 177.033,100.279 176.394,100.279 181.589 C 100.279 184.272,100.969 184.676,109.965 187.248 C 120.255 190.191,127.177 198.617,122.855 202.938 C 122.131 203.663,121.531 202.919,121.099 200.761 C 119.349 192.010,106.964 191.295,106.964 199.944 C 106.964 202.550,109.420 204.080,116.110 205.642 C 119.285 206.383,120.647 207.635,121.802 210.874 C 122.417 212.599,122.128 212.559,119.401 210.542 C 113.305 206.036,106.408 211.649,111.847 216.690 C 115.127 219.729,115.564 220.850,113.101 219.905 C 108.935 218.306,110.132 223.145,115.168 228.258 C 120.241 233.408,121.878 236.734,118.749 235.533 C 117.877 235.199,116.122 235.967,114.849 237.240 C 113.576 238.513,112.535 239.315,112.535 239.022 C 112.535 238.614,102.854 206.828,92.930 174.652 C 92.214 172.330,98.066 171.945,104.963 173.861 M150.566 174.195 C 148.869 176.239,150.185 179.595,152.508 179.148 C 153.579 178.942,154.318 177.707,154.318 176.122 C 154.318 172.963,152.404 171.980,150.566 174.195 M205.453 175.419 C 209.713 178.902,208.769 181.007,201.411 184.433 C 193.686 188.029,189.993 187.991,187.568 184.289 C 182.810 177.028,198.130 169.431,205.453 175.419 M174.243 178.323 C 175.827 179.795,174.167 182.547,170.232 184.971 C 162.679 189.625,158.275 184.578,164.971 178.943 C 168.403 176.056,171.575 175.844,174.243 178.323 M247.739 183.565 C 246.762 190.498,245.196 194.531,242.498 197.066 L 239.936 199.473 240.429 196.115 C 240.847 193.265,240.558 192.758,238.513 192.758 C 235.995 192.758,230.641 197.680,230.641 199.996 C 230.641 201.875,224.187 210.585,222.795 210.585 C 222.064 210.585,222.012 209.879,222.651 208.635 C 225.076 203.921,220.144 202.104,216.255 206.279 C 215.036 207.587,213.744 209.969,213.384 211.571 C 213.024 213.174,211.757 215.738,210.568 217.270 L 208.406 220.056 208.381 216.992 C 208.326 210.176,202.376 214.961,201.106 222.841 C 199.565 232.408,197.198 234.242,195.162 227.447 C 190.313 211.260,201.552 199.110,230.827 188.895 C 235.526 187.255,241.292 184.459,243.641 182.681 C 245.989 180.904,248.005 179.435,248.119 179.418 C 248.234 179.401,248.063 181.267,247.739 183.565 M264.922 194.708 C 263.976 195.780,261.099 202.423,258.527 209.471 C 250.642 231.078,248.006 234.690,235.507 241.020 C 225.925 245.873,207.621 247.255,208.801 243.037 C 209.080 242.041,209.655 238.969,210.078 236.212 C 210.983 230.323,213.442 225.070,215.293 225.070 C 216.279 225.070,216.272 225.399,215.265 226.407 C 212.686 228.985,213.632 235.010,216.844 236.474 C 220.770 238.263,223.374 235.087,224.415 227.240 C 225.174 221.522,227.729 216.156,229.694 216.156 C 230.258 216.156,230.157 217.205,229.471 218.488 C 227.597 221.990,229.040 226.184,232.120 226.184 C 236.376 226.184,238.343 223.755,240.548 215.776 C 242.911 207.223,245.125 203.796,245.125 208.691 C 245.125 215.566,251.690 211.265,254.706 202.413 C 256.598 196.859,260.712 192.758,264.390 192.758 C 266.445 192.758,266.492 192.927,264.922 194.708 M286.656 195.277 C 281.164 201.265,275.927 215.185,276.513 222.236 L 276.880 226.645 287.615 213.168 L 298.350 199.691 294.871 198.694 C 292.958 198.145,290.842 196.591,290.168 195.240 L 288.944 192.783 286.656 195.277 M167.548 202.192 C 167.203 203.091,167.179 204.469,167.495 205.256 C 167.811 206.042,168.109 205.528,168.157 204.113 C 168.214 202.465,168.708 201.826,169.531 202.335 C 170.328 202.827,170.515 202.640,170.023 201.843 C 168.963 200.129,168.304 200.222,167.548 202.192 M290.798 201.642 C 292.214 202.537,292.231 202.906,290.914 204.132 C 289.758 205.207,289.565 205.219,290.153 204.178 C 291.740 201.367,286.518 202.809,284.098 205.850 C 281.605 208.981,281.793 208.514,285.662 201.950 C 286.633 200.301,288.501 200.189,290.798 201.642 M169.949 205.254 C 171.156 208.399,166.786 215.050,164.435 213.649 C 163.633 213.171,158.215 218.709,158.251 219.971 C 158.270 220.631,158.802 220.282,159.434 219.197 C 160.066 218.111,161.019 217.493,161.551 217.822 C 162.084 218.151,162.840 217.903,163.231 217.270 C 163.622 216.637,164.381 216.391,164.917 216.722 C 165.453 217.053,167.221 215.056,168.845 212.283 C 172.105 206.721,173.196 205.798,171.624 209.933 C 170.856 211.951,171.003 212.778,172.208 213.241 C 173.093 213.580,173.808 214.500,173.799 215.285 C 173.786 216.383,173.561 216.364,172.824 215.201 C 172.156 214.148,171.635 214.063,171.104 214.923 C 170.685 215.601,170.836 216.156,171.441 216.156 C 172.045 216.156,172.349 217.660,172.117 219.499 C 171.884 221.337,172.088 222.841,172.569 222.841 C 173.598 222.841,173.890 221.118,173.890 215.042 C 173.890 208.393,173.637 207.426,171.354 205.360 C 169.528 203.707,169.350 203.694,169.949 205.254 M287.798 205.754 C 287.286 207.089,287.494 207.356,288.541 206.709 C 289.341 206.215,288.830 207.386,287.407 209.312 C 285.983 211.238,284.730 212.813,284.623 212.813 C 283.862 212.813,285.318 206.815,286.395 205.518 C 288.165 203.385,288.674 203.470,287.798 205.754 M143.488 213.014 C 143.235 216.274,142.650 219.771,142.188 220.786 C 141.528 222.232,142.120 222.799,144.927 223.416 C 146.896 223.848,150.683 226.208,153.343 228.660 L 158.178 233.117 159.312 230.135 C 159.936 228.495,160.406 225.807,160.358 224.161 C 160.255 220.654,159.800 221.702,158.769 227.823 C 158.133 231.599,157.856 231.946,156.877 230.196 C 155.184 227.172,156.454 219.083,159.235 215.178 L 161.663 211.767 158.547 211.158 C 153.235 210.119,147.715 208.698,145.790 207.875 C 144.236 207.210,143.876 208.015,143.488 213.014 M133.148 223.691 C 134.867 225.456,141.187 226.485,142.021 225.135 C 142.422 224.486,142.031 223.955,141.152 223.955 C 140.273 223.955,137.862 223.638,135.794 223.251 C 133.230 222.771,132.388 222.911,133.148 223.691 M165.183 226.741 C 165.196 229.192,165.424 230.064,165.691 228.678 C 165.957 227.292,165.947 225.286,165.668 224.221 C 165.389 223.156,165.171 224.290,165.183 226.741 M127.577 225.070 C 126.944 226.093,127.631 226.581,129.395 226.359 C 129.783 226.311,130.034 226.878,129.952 227.620 C 129.871 228.362,130.306 229.062,130.919 229.175 C 131.532 229.288,131.886 228.661,131.706 227.782 C 131.229 225.451,133.286 225.828,135.806 228.533 C 137.010 229.825,138.659 230.617,139.471 230.292 C 140.453 229.900,140.294 229.673,138.997 229.614 C 137.925 229.566,137.047 228.875,137.047 228.079 C 137.047 225.715,128.798 223.094,127.577 225.070 M137.783 236.705 C 137.309 237.940,137.502 238.291,138.364 237.758 C 139.256 237.207,139.406 237.608,138.849 239.059 C 138.406 240.213,138.412 240.790,138.861 240.340 C 139.311 239.891,141.217 240.909,143.098 242.603 L 146.518 245.682 143.603 242.340 C 142.000 240.501,140.194 238.065,139.591 236.925 C 138.600 235.054,138.425 235.033,137.783 236.705 M135.543 241.193 C 135.143 242.234,136.173 244.368,138.121 246.533 C 140.743 249.448,141.304 249.712,141.049 247.911 C 140.876 246.685,140.030 245.682,139.170 245.682 C 138.309 245.682,137.547 244.538,137.476 243.140 C 137.312 239.888,136.397 238.966,135.543 241.193 M128.395 246.289 C 126.393 248.100,124.012 249.582,123.102 249.582 C 120.761 249.582,121.046 251.533,123.501 252.312 C 124.629 252.670,126.707 254.191,128.117 255.692 L 130.680 258.421 133.910 256.121 C 135.686 254.856,138.498 253.453,140.158 253.003 L 143.175 252.184 139.670 250.357 C 137.742 249.352,135.235 247.285,134.099 245.763 L 132.033 242.995 128.395 246.289 M153.885 257.545 C 146.906 258.811,146.895 259.581,153.853 259.797 L 159.889 259.985 153.203 260.693 L 146.518 261.402 151.532 262.392 L 156.546 263.381 152.089 264.753 C 146.815 266.375,143.380 266.652,144.159 265.392 C 144.466 264.895,142.535 264.516,139.867 264.550 C 136.351 264.594,134.651 265.194,133.693 266.729 C 132.577 268.515,132.649 268.740,134.152 268.163 C 135.131 267.787,135.933 267.995,135.933 268.624 C 135.933 269.254,136.443 269.454,137.066 269.070 C 137.688 268.685,137.976 268.010,137.704 267.571 C 137.433 267.132,138.179 266.773,139.363 266.773 C 141.252 266.773,141.153 267.083,138.550 269.320 C 136.920 270.720,136.082 271.866,136.688 271.866 C 137.294 271.866,138.166 271.490,138.626 271.031 C 139.603 270.053,139.988 269.986,146.240 269.699 C 149.973 269.527,150.503 269.279,148.747 268.524 C 146.638 267.618,146.656 267.562,149.080 267.488 C 153.574 267.350,159.033 270.764,156.546 272.156 C 152.223 274.575,140.011 274.524,134.448 272.064 L 129.241 269.760 132.039 266.741 C 133.578 265.080,134.708 262.933,134.550 261.969 C 134.391 261.006,134.763 260.193,135.376 260.163 C 135.989 260.133,137.879 259.181,139.576 258.046 C 141.762 256.584,143.799 256.168,146.565 256.616 C 148.711 256.965,150.248 256.894,149.979 256.459 C 149.711 256.025,151.580 255.892,154.133 256.163 L 158.774 256.658 153.885 257.545 M186.767 257.896 C 187.111 258.792,188.415 259.850,189.665 260.247 C 191.463 260.817,191.616 261.172,190.398 261.943 C 189.336 262.616,190.003 262.924,192.545 262.936 C 195.027 262.947,195.974 263.369,195.443 264.228 C 194.899 265.109,195.569 265.329,197.606 264.940 C 199.229 264.630,200.557 264.727,200.557 265.156 C 200.557 265.586,202.039 265.849,203.850 265.741 C 205.661 265.633,207.757 265.925,208.507 266.388 C 210.296 267.494,210.769 270.866,209.098 270.598 C 206.139 270.122,201.427 272.138,202.958 273.225 C 204.006 273.968,203.619 274.096,201.671 273.649 C 200.139 273.298,196.880 272.966,194.429 272.911 L 189.972 272.811 193.872 271.309 C 197.162 270.042,196.845 268.909,193.387 269.575 C 191.173 270.001,187.129 268.404,187.775 267.359 C 188.149 266.754,189.012 266.603,189.692 267.023 C 190.372 267.444,193.722 267.843,197.136 267.910 C 200.550 267.977,204.095 268.490,205.014 269.049 C 206.447 269.921,206.471 269.802,205.183 268.213 C 204.357 267.194,202.853 266.425,201.840 266.504 C 195.501 267.000,188.968 266.184,190.529 265.091 C 191.838 264.175,191.656 264.074,189.694 264.626 C 187.339 265.288,186.579 264.372,187.082 261.477 C 187.170 260.972,186.720 260.881,186.082 261.276 C 185.444 261.670,185.261 262.585,185.676 263.308 C 186.109 264.065,185.999 264.230,185.415 263.696 C 184.126 262.516,183.945 256.267,185.200 256.267 C 185.718 256.267,186.424 257.000,186.767 257.896 M138.172 260.155 C 137.414 261.067,136.273 261.491,135.635 261.097 C 134.939 260.667,134.811 260.924,135.315 261.739 C 135.944 262.757,136.755 262.594,138.551 261.087 C 139.869 259.981,141.156 258.946,141.411 258.786 C 141.667 258.627,141.352 258.496,140.712 258.496 C 140.072 258.496,138.929 259.242,138.172 260.155 M140.235 261.759 L 137.604 263.908 140.705 263.580 C 144.060 263.224,146.215 261.888,143.640 261.760 C 142.707 261.714,142.974 261.290,144.290 260.724 C 146.024 259.979,146.113 259.749,144.692 259.688 C 143.687 259.645,141.682 260.577,140.235 261.759 M162.721 265.795 C 163.932 267.253,163.782 267.620,161.756 268.150 C 160.436 268.495,159.636 269.230,159.979 269.783 C 160.321 270.337,158.774 269.919,156.542 268.854 L 152.483 266.919 156.186 265.578 C 161.086 263.803,161.067 263.802,162.721 265.795 M184.192 269.976 C 183.770 270.659,184.163 270.868,185.155 270.487 C 186.077 270.134,187.466 270.236,188.242 270.716 C 189.146 271.274,188.616 271.588,186.769 271.588 C 185.183 271.588,183.314 270.898,182.614 270.056 C 181.915 269.213,181.716 268.524,182.173 268.524 C 182.629 268.524,182.323 267.646,181.493 266.574 C 180.236 264.952,180.396 264.977,182.444 266.723 C 183.798 267.877,184.585 269.341,184.192 269.976 M214.591 266.467 C 215.117 267.319,214.893 267.449,213.928 266.852 C 213.014 266.288,212.739 266.388,213.192 267.121 C 213.589 267.764,213.215 268.559,212.360 268.887 C 211.036 269.395,210.776 268.198,211.614 265.460 C 211.859 264.660,213.901 265.351,214.591 266.467 M222.006 267.507 C 218.788 268.764,216.156 270.158,216.156 270.604 C 216.156 273.309,233.534 286.277,241.681 289.652 C 244.209 290.698,245.125 291.807,245.125 293.815 C 245.125 296.419,244.843 296.305,239.286 291.444 C 227.725 281.330,208.656 275.807,209.196 282.728 C 209.694 289.107,214.924 300.065,221.114 307.697 C 227.447 315.505,228.418 319.445,222.227 312.213 C 216.035 304.979,200.378 298.216,198.877 302.127 C 198.380 303.424,200.198 311.683,203.475 323.015 C 204.028 324.925,203.875 325.464,202.945 324.890 C 200.815 323.573,197.579 316.331,196.055 309.471 C 195.187 305.564,194.048 303.064,193.137 303.064 C 191.095 303.064,191.288 306.576,193.872 316.435 C 196.512 326.508,196.509 326.462,194.479 326.462 C 193.475 326.462,192.590 324.873,192.151 322.284 C 190.676 313.568,186.849 300.666,185.099 298.504 C 181.969 294.640,168.899 308.242,166.532 317.827 C 165.157 323.394,162.068 321.072,161.714 314.206 C 161.412 308.337,158.501 296.291,157.015 294.762 C 155.652 293.358,147.772 301.018,143.983 307.429 L 141.074 312.350 138.561 300.359 C 137.178 293.763,135.896 286.785,135.712 284.852 L 135.376 281.337 143.733 280.666 C 148.329 280.298,153.501 279.420,155.226 278.717 C 159.277 277.064,159.363 277.081,158.705 279.387 C 158.392 280.484,158.708 280.278,159.428 278.918 C 160.964 276.014,165.824 274.526,167.571 276.425 C 168.497 277.432,168.413 277.542,167.234 276.869 C 165.996 276.163,165.834 276.539,166.465 278.656 C 167.567 282.354,167.880 295.171,166.852 294.536 C 165.975 293.993,165.632 296.342,165.973 300.557 C 166.323 304.875,164.452 303.271,161.686 296.884 C 160.223 293.505,158.840 290.928,158.612 291.156 C 158.384 291.384,159.706 294.897,161.550 298.964 C 163.394 303.031,164.918 307.748,164.936 309.446 C 164.965 312.091,165.134 312.254,166.111 310.576 C 166.738 309.499,166.936 308.108,166.551 307.484 C 166.166 306.861,166.309 306.489,166.869 306.658 C 167.428 306.826,169.318 305.209,171.068 303.064 L 174.249 299.164 170.750 302.379 L 167.251 305.595 167.564 302.656 C 167.736 301.040,168.291 299.343,168.797 298.884 C 169.303 298.425,169.333 298.714,168.864 299.525 C 168.167 300.733,168.419 300.746,170.254 299.600 C 171.593 298.764,172.328 297.328,172.078 296.033 C 171.849 294.842,172.196 292.867,172.850 291.646 C 173.752 289.960,173.714 289.625,172.694 290.256 C 171.725 290.855,171.549 290.348,172.064 288.440 C 172.542 286.668,172.045 287.082,170.559 289.694 C 168.046 294.108,167.694 293.834,169.441 288.825 C 170.316 286.315,170.288 284.743,169.338 282.968 C 168.398 281.213,168.376 280.204,169.256 279.323 C 169.926 278.654,170.481 276.827,170.491 275.265 C 170.500 273.702,171.022 271.671,171.651 270.752 C 172.486 269.530,172.671 270.429,172.339 274.095 C 172.088 276.852,172.113 278.150,172.394 276.978 C 172.814 275.225,173.101 275.127,174.014 276.421 C 174.862 277.624,175.002 277.433,174.606 275.611 C 174.322 274.300,174.567 272.545,175.151 271.711 C 175.849 270.714,176.037 272.773,175.699 277.729 C 175.416 281.872,175.504 285.460,175.893 285.700 C 176.752 286.231,177.206 282.484,177.384 273.404 L 177.517 266.585 180.501 269.637 C 187.388 276.682,202.074 277.210,211.539 270.751 C 214.606 268.658,216.947 266.673,216.740 266.339 C 216.534 266.006,218.951 265.617,222.110 265.476 L 227.855 265.220 222.006 267.507 M142.360 272.674 C 144.362 272.922,147.371 272.917,149.045 272.662 C 150.719 272.408,149.081 272.205,145.404 272.212 C 141.727 272.218,140.357 272.426,142.360 272.674 M244.011 272.946 C 244.011 273.539,243.339 273.767,242.518 273.452 C 240.132 272.536,238.060 275.735,239.998 277.344 C 241.081 278.242,241.814 278.289,242.306 277.491 C 243.605 275.391,245.125 276.263,245.125 279.109 C 245.125 280.641,244.860 281.894,244.536 281.894 C 242.477 281.894,230.549 274.865,231.339 274.117 C 233.488 272.085,244.011 271.111,244.011 272.946 M233.983 275.209 C 233.983 275.822,234.735 276.323,235.655 276.323 C 236.574 276.323,237.326 275.822,237.326 275.209 C 237.326 274.596,236.574 274.095,235.655 274.095 C 234.735 274.095,233.983 274.596,233.983 275.209 M184.623 281.169 C 184.297 284.326,183.697 287.965,183.291 289.256 C 182.637 291.336,183.093 291.677,187.263 292.237 C 189.853 292.584,194.907 294.406,198.493 296.286 C 205.713 300.071,206.116 299.942,202.585 294.983 C 200.275 291.739,199.312 284.199,200.629 279.666 C 201.009 278.357,200.220 278.064,196.997 278.314 C 194.733 278.489,191.156 277.912,189.048 277.031 L 185.216 275.430 184.623 281.169 M149.304 281.747 L 143.175 283.565 142.897 292.409 L 142.618 301.253 145.682 298.386 C 147.368 296.809,150.409 294.680,152.442 293.654 C 155.640 292.039,156.046 291.374,155.460 288.706 C 155.087 287.011,155.292 284.283,155.915 282.645 C 156.538 281.006,156.684 279.725,156.240 279.797 C 155.795 279.870,152.674 280.747,149.304 281.747 M165.221 288.022 C 165.230 291.086,165.446 292.208,165.702 290.514 C 165.958 288.820,165.951 286.313,165.687 284.943 C 165.422 283.572,165.213 284.958,165.221 288.022 M162.427 291.632 C 162.136 292.747,162.592 294.309,163.442 295.102 C 164.743 296.318,164.868 296.049,164.231 293.398 C 163.262 289.363,163.070 289.175,162.427 291.632 M236.420 298.694 L 240.111 301.845 236.769 304.643 C 234.930 306.182,233.096 307.459,232.693 307.481 C 231.812 307.529,221.727 291.950,221.727 290.541 C 221.727 289.188,231.893 294.829,236.420 298.694 M171.031 293.872 C 170.809 295.557,170.593 297.205,170.550 297.533 C 170.508 297.861,169.565 298.130,168.455 298.130 C 166.564 298.130,166.581 297.902,168.734 294.516 C 171.545 290.093,171.529 290.098,171.031 293.872 M231.661 300.392 C 230.671 301.585,230.627 302.382,231.504 303.259 C 233.043 304.798,236.212 303.645,236.212 301.547 C 236.212 299.225,233.252 298.474,231.661 300.392 M154.875 311.978 C 154.875 316.374,154.493 317.549,153.067 317.549 C 151.611 317.549,151.521 317.233,152.606 315.926 C 154.435 313.722,152.999 311.412,150.888 313.164 C 150.030 313.876,149.603 314.903,149.939 315.447 C 150.275 315.990,150.018 316.435,149.369 316.435 C 147.751 316.435,147.856 315.885,150.440 310.819 C 153.463 304.894,154.875 305.263,154.875 311.978 M182.540 316.992 C 182.594 324.246,181.774 325.232,176.890 323.792 L 172.722 322.563 175.554 316.481 C 180.631 305.577,182.458 305.710,182.540 316.992 M213.165 313.854 C 218.694 319.383,219.484 321.345,216.622 322.443 C 212.910 323.868,211.510 322.934,208.873 317.270 C 204.133 307.088,205.394 306.083,213.165 313.854 M178.273 314.763 C 178.273 315.682,178.774 316.435,179.387 316.435 C 180.000 316.435,180.501 315.682,180.501 314.763 C 180.501 313.844,180.000 313.092,179.387 313.092 C 178.774 313.092,178.273 313.844,178.273 314.763 M209.993 315.376 C 208.935 317.089,210.385 318.195,211.815 316.765 C 212.615 315.964,212.634 315.341,211.873 314.871 C 211.249 314.485,210.403 314.713,209.993 315.376 M175.673 319.139 C 174.742 321.564,177.863 323.733,179.878 322.061 C 181.906 320.377,180.900 317.549,178.273 317.549 C 177.178 317.549,176.008 318.264,175.673 319.139 M212.196 318.760 C 211.048 320.618,213.630 322.748,215.168 321.211 C 216.453 319.926,215.649 317.549,213.928 317.549 C 213.387 317.549,212.608 318.094,212.196 318.760 " stroke="none" fill="#000000" fill-rule="evenodd"></path></g></svg>