<svg id="svg" xmlns="http://www.w3.org/2000/svg" xmlns:xlink="http://www.w3.org/1999/xlink" width="400" height="483.3333333333333" viewBox="0, 0, 400,483.3333333333333"><g id="svgg"><path id="path0" d="M195.934 14.380 C 194.274 15.543,191.107 18.865,188.898 21.761 L 184.881 27.027 189.410 35.637 C 196.574 49.256,194.669 58.725,181.864 73.139 C 174.036 81.952,175.132 86.911,183.865 82.187 C 190.345 78.681,209.577 78.638,215.994 82.114 C 224.319 86.624,225.681 80.807,218.045 73.351 C 205.186 60.795,202.371 44.231,211.140 32.734 L 215.232 27.370 209.640 21.181 C 202.254 13.005,199.704 11.740,195.934 14.380 M177.450 35.319 C 174.807 39.595,174.592 41.125,175.994 45.691 C 177.334 50.059,177.153 52.067,175.010 56.584 C 172.420 62.041,168.316 64.655,170.479 59.470 C 174.678 49.403,174.864 48.501,173.108 46.744 C 170.993 44.629,168.177 50.673,168.190 57.296 C 168.201 62.459,171.016 72.728,172.420 72.724 C 174.164 72.720,183.093 58.662,184.153 54.250 C 184.693 52.004,186.264 49.868,187.643 49.502 C 189.857 48.915,189.840 48.816,187.500 48.661 C 186.042 48.564,184.848 47.853,184.848 47.081 C 184.848 46.309,186.042 45.365,187.500 44.984 C 189.495 44.462,189.308 44.247,186.742 44.115 C 182.647 43.904,182.421 42.684,185.985 40.015 C 188.415 38.196,188.363 38.098,185.373 38.850 C 181.964 39.708,179.080 35.023,181.052 31.832 C 181.572 30.991,181.671 30.303,181.274 30.303 C 180.876 30.303,179.155 32.560,177.450 35.319 M218.777 32.920 C 220.702 35.770,218.694 37.160,215.946 34.879 C 214.366 33.568,213.636 33.500,213.636 34.663 C 213.636 35.598,214.318 36.364,215.152 36.364 C 215.985 36.364,216.667 37.125,216.667 38.056 C 216.667 39.054,215.270 39.396,213.258 38.888 C 210.157 38.107,210.088 38.209,212.500 40.015 C 216.064 42.684,215.838 43.904,211.742 44.115 C 209.177 44.247,208.990 44.462,210.985 44.984 C 212.443 45.365,213.636 46.259,213.636 46.970 C 213.636 47.681,212.443 48.574,210.985 48.956 C 208.460 49.615,208.460 49.657,210.985 49.824 C 212.443 49.921,213.641 50.852,213.646 51.894 C 213.651 52.936,214.712 55.815,216.003 58.292 C 218.164 62.435,218.140 62.950,215.704 64.731 C 214.248 65.796,213.733 66.667,214.559 66.667 C 215.385 66.667,216.802 65.925,217.708 65.019 C 220.170 62.557,221.922 66.258,219.611 69.042 C 218.588 70.276,218.188 71.723,218.723 72.259 C 219.259 72.794,219.697 72.437,219.697 71.465 C 219.697 69.269,223.713 69.130,225.041 71.278 C 225.579 72.148,225.194 73.853,224.187 75.066 C 223.080 76.401,222.972 77.273,223.914 77.273 C 228.569 77.273,232.145 53.099,228.274 47.804 C 225.049 43.394,223.610 49.177,226.494 54.958 C 229.130 60.242,229.367 62.121,227.398 62.121 C 224.628 62.121,220.796 49.063,222.585 45.720 C 224.987 41.233,224.646 39.111,220.826 34.777 C 218.955 32.654,218.033 31.818,218.777 32.920 M185.457 89.155 C 178.667 92.343,177.273 94.593,177.273 102.362 C 177.273 110.345,181.010 111.800,200.905 111.562 C 221.035 111.321,222.727 110.414,222.727 99.853 C 222.727 87.953,201.187 81.770,185.457 89.155 M215.271 92.544 C 221.464 98.736,216.428 107.576,206.707 107.576 C 202.366 107.576,201.394 107.050,201.804 104.924 C 202.127 103.247,203.698 102.273,206.081 102.273 C 208.543 102.273,209.688 103.018,209.384 104.423 C 209.000 106.201,209.328 106.235,211.278 104.616 C 214.082 102.290,214.368 96.792,211.818 94.242 C 209.550 91.974,203.553 91.868,202.191 94.071 C 200.363 97.030,204.136 99.194,207.000 96.830 C 209.239 94.981,209.484 95.000,208.832 96.970 C 207.828 100.008,192.243 100.214,191.239 97.201 C 190.701 95.589,191.212 95.510,193.672 96.827 C 196.961 98.587,199.487 96.787,197.727 93.939 C 196.112 91.326,189.583 92.269,187.932 95.355 C 185.847 99.251,185.945 100.399,188.658 103.877 C 190.247 105.913,190.830 106.119,190.552 104.545 C 190.285 103.027,191.402 102.273,193.919 102.273 C 196.302 102.273,197.873 103.247,198.196 104.924 C 199.296 110.631,186.789 108.127,183.560 101.994 C 179.033 93.393,184.034 89.633,200.000 89.633 C 210.171 89.633,212.876 90.149,215.271 92.544 M61.742 97.091 C 57.903 99.327,58.266 107.028,62.313 109.193 C 67.371 111.901,72.727 108.775,72.727 103.116 C 72.727 96.804,67.324 93.840,61.742 97.091 M76.858 101.917 C 78.209 113.899,66.740 119.655,56.914 111.926 C 50.798 107.115,47.982 110.600,53.398 116.278 C 60.368 123.583,62.425 133.290,58.839 141.947 C 57.099 146.147,57.056 146.096,56.007 138.525 C 53.919 123.456,47.970 115.436,42.531 120.358 C 35.417 126.796,22.059 160.606,26.629 160.606 C 30.727 160.606,32.450 167.333,30.310 174.976 C 27.612 184.610,25.396 185.275,26.615 176.084 C 27.664 168.175,25.975 165.026,22.760 168.899 C 20.697 171.386,18.820 187.954,20.196 191.539 C 21.611 195.226,25.450 192.762,30.899 184.671 L 35.854 177.313 33.336 164.035 C 28.305 137.510,38.437 123.792,50.696 140.530 C 64.336 159.152,68.544 183.400,60.068 194.533 C 52.576 204.375,44.191 204.343,40.617 194.459 C 38.921 189.769,36.364 187.561,36.364 190.787 C 36.364 191.553,32.977 195.885,28.838 200.414 L 21.312 208.649 25.120 222.885 C 33.592 254.558,46.970 266.033,46.970 241.628 C 46.970 225.067,49.129 218.323,57.665 208.228 C 70.473 193.081,74.161 178.998,68.946 165.152 C 63.631 151.038,65.133 145.523,74.961 143.056 C 82.591 141.141,100.630 150.667,99.037 155.771 C 98.392 157.838,98.700 157.765,100.634 155.392 C 101.952 153.775,103.020 151.388,103.007 150.089 C 102.987 148.009,102.802 147.998,101.453 150.000 C 97.460 155.929,78.885 129.099,78.821 117.310 C 78.762 106.403,89.566 100.291,94.796 108.272 C 99.338 115.204,94.039 125.696,88.371 120.992 C 85.757 118.823,86.311 113.383,89.245 112.416 C 90.773 111.912,91.132 112.622,90.523 114.949 C 90.058 116.727,90.296 118.182,91.051 118.182 C 92.954 118.182,92.782 112.521,90.843 111.323 C 84.503 107.404,83.349 119.108,89.051 129.497 C 95.963 142.093,107.119 147.033,116.667 141.727 L 120.455 139.622 115.912 137.887 C 108.014 134.871,99.945 124.311,100.033 117.106 C 100.052 115.614,101.383 117.295,102.992 120.840 C 108.795 133.623,116.364 137.387,126.212 132.386 C 135.818 127.509,135.776 126.816,125.747 124.770 C 120.595 123.719,113.146 120.784,109.194 118.248 C 105.241 115.711,101.291 113.636,100.415 113.636 C 99.539 113.636,98.395 111.359,97.873 108.576 C 96.544 101.491,90.967 96.775,82.836 95.858 L 76.090 95.098 76.858 101.917 M306.559 97.663 C 300.909 100.121,299.225 102.883,297.744 112.121 C 296.025 122.843,289.889 132.864,283.139 135.972 C 276.132 139.198,275.964 139.999,281.793 142.414 C 292.642 146.907,304.957 138.969,309.811 124.354 C 312.455 116.394,311.241 110.606,306.927 110.606 C 304.158 110.606,302.953 114.166,304.829 116.804 C 306.039 118.507,306.177 118.412,305.512 116.336 C 304.414 112.912,306.746 111.569,309.024 114.314 C 311.212 116.949,308.656 122.727,305.303 122.727 C 300.320 122.727,298.176 111.132,302.381 106.926 C 307.706 101.602,316.192 106.307,317.646 115.390 C 319.191 125.042,300.860 154.099,295.368 150.704 C 293.155 149.336,293.682 152.123,296.253 155.392 C 298.405 158.127,298.538 158.139,298.147 155.565 C 297.450 150.969,309.567 143.182,317.414 143.182 C 329.062 143.182,333.083 150.553,328.030 162.645 C 322.144 176.734,325.893 192.389,339.076 208.761 C 347.724 219.503,350.000 226.868,350.000 244.115 L 350.000 254.747 354.155 254.267 C 359.567 253.643,368.292 237.205,371.957 220.729 L 374.500 209.301 366.473 199.285 C 358.960 189.909,358.365 189.488,357.174 192.709 C 352.538 205.242,340.685 203.821,333.518 189.872 C 325.907 175.056,344.180 130.783,356.618 133.905 C 364.555 135.897,366.769 147.540,362.814 166.494 L 360.480 177.685 364.615 183.653 C 370.849 192.648,374.584 194.863,376.221 190.535 C 377.752 186.486,376.244 172.866,373.959 170.114 C 370.647 166.122,369.273 168.169,370.172 175.758 C 371.206 184.490,370.683 185.090,367.463 178.863 C 364.008 172.182,364.465 164.289,368.469 161.484 L 371.787 159.160 369.043 150.413 C 363.335 132.220,353.892 116.946,349.415 118.664 C 345.904 120.011,340.983 131.339,340.942 138.168 C 340.904 144.621,338.651 147.018,337.314 142.028 C 334.823 132.734,337.289 121.972,343.548 114.829 C 347.651 110.146,344.659 106.994,340.274 111.379 C 330.576 121.077,314.880 111.912,319.659 99.341 C 321.424 94.700,315.202 93.904,306.559 97.663 M325.827 97.644 C 321.314 103.081,327.790 111.586,334.470 108.996 C 338.279 107.518,339.239 100.451,336.061 97.273 C 333.572 94.785,328.033 94.985,325.827 97.644 M286.672 118.460 C 282.773 121.193,276.544 123.710,271.141 124.737 C 260.315 126.794,260.174 127.238,268.980 131.516 C 280.341 137.036,289.139 133.221,293.846 120.735 C 297.043 112.257,295.997 111.925,286.672 118.460 M176.807 119.654 C 167.542 123.275,165.090 125.342,166.293 128.520 C 167.158 130.805,166.986 130.794,164.580 128.409 C 161.199 125.058,162.314 124.877,149.284 130.897 C 137.020 136.563,133.610 140.483,136.675 145.390 C 139.295 149.585,141.214 150.034,145.531 147.459 C 147.572 146.241,148.071 145.603,146.639 146.041 C 138.951 148.393,142.086 137.577,150.527 132.631 C 158.428 128.001,162.137 127.763,163.197 131.818 C 164.042 135.049,166.145 135.613,169.475 133.503 C 171.033 132.515,171.132 131.469,169.885 129.140 C 168.040 125.692,169.490 123.859,175.534 122.004 C 184.841 119.146,197.423 122.318,193.852 126.621 C 192.387 128.386,192.658 128.788,195.317 128.788 C 199.430 128.788,200.898 125.146,198.717 120.358 C 196.593 115.697,187.669 115.410,176.807 119.654 M204.314 120.358 C 202.132 125.146,203.601 128.788,207.714 128.788 C 210.372 128.788,210.644 128.386,209.179 126.621 C 206.325 123.182,212.601 120.751,222.264 121.552 C 231.957 122.356,236.535 125.688,233.301 129.585 C 231.577 131.662,231.598 132.266,233.431 133.426 C 236.933 135.642,239.119 135.072,240.202 131.659 C 241.038 129.026,242.024 128.632,245.859 129.399 C 256.111 131.450,265.287 142.422,259.990 146.296 C 257.666 147.996,257.668 148.196,260.023 149.100 C 263.047 150.260,268.182 146.077,268.182 142.454 C 268.182 135.659,244.219 123.664,239.384 128.039 C 237.129 130.080,236.892 129.984,237.001 127.073 C 237.290 119.303,207.576 113.199,204.314 120.358 M72.727 125.089 C 72.727 127.317,69.493 128.078,67.690 126.276 C 66.320 124.906,69.715 121.045,71.384 122.076 C 72.123 122.532,72.727 123.889,72.727 125.089 M328.788 125.089 C 328.788 126.290,327.765 127.273,326.515 127.273 C 324.233 127.273,323.400 124.074,325.211 122.263 C 326.625 120.849,328.788 122.558,328.788 125.089 M177.392 124.644 C 170.943 127.934,173.035 133.349,179.758 130.769 C 182.003 129.908,181.975 129.620,179.468 127.787 C 176.930 125.930,176.916 125.758,179.303 125.758 C 180.739 125.758,182.306 126.780,182.785 128.030 C 183.272 129.298,185.429 130.261,187.662 130.207 L 191.667 130.111 188.085 128.677 C 185.122 127.490,184.827 126.852,186.376 124.985 C 188.800 122.065,182.887 121.840,177.392 124.644 M216.654 124.985 C 218.204 126.852,217.908 127.490,214.946 128.677 L 211.364 130.111 215.368 130.207 C 217.601 130.261,219.759 129.298,220.245 128.030 C 220.725 126.780,222.291 125.758,223.727 125.758 C 226.114 125.758,226.100 125.930,223.562 127.787 C 220.327 130.152,223.744 132.496,228.030 130.851 C 233.851 128.617,226.412 122.727,217.770 122.727 C 215.293 122.727,215.102 123.115,216.654 124.985 M153.788 133.943 C 145.972 137.393,142.955 141.791,146.941 143.924 C 150.976 146.084,154.584 143.656,153.499 139.509 C 153.096 137.967,153.623 136.176,154.671 135.529 C 156.028 134.690,156.285 135.107,155.566 136.983 C 154.814 138.941,155.233 139.485,157.202 139.110 C 158.658 138.832,160.066 137.078,160.333 135.212 C 160.887 131.323,160.079 131.166,153.788 133.943 M178.030 134.700 C 142.732 144.401,116.398 170.594,107.765 204.590 C 105.714 212.663,104.761 214.626,104.107 212.125 C 103.621 210.264,104.032 207.436,105.020 205.840 C 108.674 199.943,97.337 197.558,93.268 203.367 C 89.403 208.885,89.955 228.822,94.001 229.880 L 97.093 230.689 94.001 232.855 C 92.301 234.046,90.931 236.175,90.957 237.586 C 91.002 239.955,91.159 239.949,93.018 237.500 C 94.125 236.042,96.490 234.848,98.273 234.848 C 100.744 234.848,101.515 233.923,101.515 230.959 C 101.515 227.857,100.945 227.250,98.699 227.962 C 94.206 229.388,91.932 225.228,93.067 217.660 C 94.010 211.373,98.439 204.545,101.574 204.545 C 103.576 204.545,103.400 206.600,101.212 208.788 C 99.798 210.202,99.865 210.606,101.515 210.606 C 103.205 210.606,103.253 210.989,101.755 212.487 C 100.257 213.986,99.621 213.960,98.633 212.360 C 97.041 209.785,95.455 213.465,95.455 219.731 C 95.455 225.109,97.489 226.537,100.649 223.377 C 103.591 220.435,102.208 217.236,99.108 219.809 C 97.855 220.848,96.970 220.956,96.970 220.068 C 96.970 217.659,100.692 215.222,102.585 216.392 C 105.240 218.032,105.866 245.214,103.272 246.204 C 100.938 247.096,98.485 245.914,98.485 243.898 C 98.485 243.140,99.626 242.957,101.021 243.492 C 102.976 244.243,103.323 243.856,102.536 241.806 C 101.974 240.343,101.515 238.861,101.515 238.512 C 101.515 236.887,96.949 238.108,96.802 239.773 C 96.456 243.685,97.313 249.321,98.588 251.515 C 99.686 253.407,99.916 253.322,99.954 251.010 C 100.005 247.943,103.209 248.263,104.269 251.442 C 104.717 252.786,104.246 253.058,102.848 252.261 C 101.160 251.300,101.122 251.463,102.652 253.111 C 105.156 255.809,105.050 257.576,102.383 257.576 C 99.323 257.576,93.939 250.257,93.939 246.097 C 93.939 244.175,93.183 242.136,92.259 241.564 C 91.071 240.830,90.876 242.469,91.594 247.157 C 93.822 261.709,97.068 265.231,104.641 261.314 C 108.625 259.254,109.091 259.255,109.091 261.325 C 109.091 262.596,108.117 263.636,106.926 263.636 C 102.780 263.636,99.663 268.390,100.632 273.235 C 102.194 281.048,113.221 294.275,117.135 293.033 C 120.054 292.107,120.195 292.271,118.369 294.471 C 114.347 299.317,129.519 317.097,137.118 316.442 C 140.233 316.174,143.376 317.196,146.152 319.379 C 151.548 323.624,154.047 323.744,149.860 319.557 C 147.981 317.678,146.997 315.209,147.445 313.496 C 147.861 311.907,147.669 310.606,147.018 310.606 C 146.368 310.606,143.246 308.234,140.080 305.335 C 135.579 301.212,133.873 300.438,132.250 301.786 C 130.698 303.074,129.732 303.066,128.421 301.754 C 127.092 300.425,127.336 300.000,129.428 300.000 C 131.711 300.000,131.862 299.606,130.303 297.727 C 128.124 295.102,124.852 294.758,123.461 297.008 C 121.581 300.050,132.842 309.460,136.208 307.659 C 139.086 306.119,141.868 307.627,139.858 309.637 C 137.237 312.258,130.170 310.277,125.108 305.503 C 119.244 299.973,118.300 296.387,122.142 294.237 C 124.163 293.106,124.274 292.283,122.779 289.490 C 121.058 286.276,120.832 286.238,118.090 288.720 C 114.710 291.779,111.869 290.171,108.233 283.140 C 104.010 274.973,106.302 264.094,111.211 269.003 C 114.219 272.011,113.609 275.089,110.064 274.790 C 106.748 274.509,106.924 275.861,110.985 281.860 C 114.650 287.274,117.111 288.034,117.945 284.010 C 118.720 280.272,115.404 277.456,113.596 280.316 C 112.811 281.559,112.157 281.807,112.144 280.867 C 112.077 275.901,116.420 275.758,119.438 280.627 C 131.562 300.183,170.997 324.242,190.927 324.242 C 197.368 324.242,193.371 321.818,181.459 318.499 C 106.077 297.498,82.743 215.764,136.742 161.869 C 200.504 98.231,310.265 156.178,294.620 245.218 C 287.825 283.893,247.363 321.212,212.227 321.212 C 209.321 321.212,208.890 321.617,210.299 323.026 C 213.295 326.023,238.530 319.157,250.734 312.026 C 261.154 305.937,264.052 304.736,261.027 307.760 C 260.093 308.695,259.743 310.570,260.251 311.927 C 261.052 314.068,260.836 314.120,258.617 312.314 C 257.211 311.171,256.005 310.489,255.938 310.799 C 255.870 311.110,255.674 313.312,255.502 315.694 C 255.329 318.076,253.891 320.974,252.305 322.134 C 248.799 324.697,250.035 324.852,255.203 322.497 C 257.309 321.538,259.432 319.493,259.921 317.953 C 260.621 315.747,261.410 315.475,263.639 316.668 C 269.753 319.940,289.086 303.161,286.952 296.435 C 286.325 294.460,286.599 293.906,287.829 294.666 C 290.916 296.574,302.784 282.956,305.229 274.699 C 307.159 268.180,297.189 262.111,294.083 267.914 C 292.857 270.204,293.171 270.657,295.924 270.565 C 300.649 270.408,301.082 277.207,296.830 284.773 C 292.850 291.855,289.913 293.363,286.362 290.150 C 282.377 286.543,278.717 291.191,282.367 295.223 C 285.755 298.967,285.516 300.325,280.682 304.834 C 264.061 320.337,256.867 311.250,272.610 294.638 C 283.192 283.471,288.766 274.828,293.267 262.605 C 294.745 258.589,296.471 254.709,297.102 253.982 C 297.732 253.255,297.913 251.551,297.504 250.194 C 297.023 248.598,297.466 248.797,298.759 250.758 C 299.858 252.424,301.780 253.968,303.030 254.189 C 304.716 254.486,304.594 254.034,302.561 252.440 C 300.977 251.199,300.453 249.899,301.320 249.363 C 302.145 248.853,303.294 249.201,303.873 250.137 C 305.469 252.720,307.525 248.623,307.553 242.803 C 307.577 237.550,303.750 235.755,302.038 240.217 C 300.811 243.414,302.859 245.141,304.605 242.380 C 305.380 241.154,306.025 240.867,306.037 241.742 C 306.050 242.617,305.242 244.152,304.242 245.152 C 299.931 249.463,299.113 246.904,299.177 229.306 C 299.213 219.591,299.463 212.773,299.732 214.154 C 300.002 215.536,301.536 216.667,303.141 216.667 C 304.747 216.667,306.061 217.327,306.061 218.134 C 306.061 218.941,305.038 219.209,303.788 218.730 C 301.040 217.675,300.721 221.327,303.333 223.939 C 306.546 227.152,307.576 225.913,307.576 218.837 C 307.576 212.498,307.309 212.002,304.396 212.926 C 301.629 213.805,301.347 213.474,302.222 210.377 C 303.001 207.624,302.868 207.333,301.638 209.091 C 300.257 211.063,300.043 211.025,300.023 208.802 C 299.950 200.742,308.633 206.454,310.065 215.407 C 311.508 224.431,314.205 222.555,312.987 213.374 C 311.699 203.665,309.820 200.000,306.131 200.000 C 300.894 200.000,298.485 201.801,298.485 205.718 C 298.485 210.379,297.418 209.720,296.466 204.471 C 296.088 202.384,294.682 198.055,293.343 194.850 C 290.324 187.624,290.271 186.456,293.134 190.241 C 295.293 193.096,295.360 193.077,295.406 189.611 C 295.441 187.069,296.110 186.291,297.727 186.912 C 300.762 188.076,300.584 186.583,296.986 180.682 C 293.644 175.200,291.712 174.511,290.264 178.284 C 288.900 181.838,292.075 184.766,294.084 181.806 C 295.337 179.958,295.530 180.096,295.140 182.558 C 294.166 188.704,290.066 186.049,282.305 174.246 C 275.583 164.023,274.778 162.048,276.687 160.463 C 278.376 159.062,279.342 159.039,280.670 160.367 C 281.999 161.696,281.769 162.121,279.722 162.121 C 275.955 162.121,277.536 165.801,281.558 166.393 C 285.473 166.969,285.845 164.218,282.498 159.440 C 279.200 154.731,275.318 152.900,272.646 154.794 C 270.866 156.055,270.953 156.186,273.106 155.494 C 274.851 154.932,275.758 155.437,275.758 156.968 C 275.758 160.102,270.975 158.519,262.983 152.739 C 253.739 146.053,249.301 135.400,258.023 140.831 C 261.118 142.758,261.204 142.718,259.192 140.284 C 256.860 137.463,246.660 131.818,243.894 131.818 C 241.020 131.818,243.009 138.572,246.054 139.153 C 248.253 139.573,248.689 139.082,247.914 137.061 C 247.077 134.879,247.286 134.740,249.118 136.260 C 251.922 138.587,250.401 142.925,247.140 141.902 C 245.796 141.481,239.583 139.290,233.333 137.033 C 217.820 131.433,193.632 130.412,178.030 134.700 M72.955 135.606 C 72.955 136.398,72.222 137.290,71.326 137.588 C 70.430 137.887,69.697 136.995,69.697 135.606 C 69.697 134.217,70.430 133.325,71.326 133.624 C 72.222 133.922,72.955 134.814,72.955 135.606 M325.871 135.265 C 325.684 137.077,323.606 136.726,322.955 134.773 C 322.621 133.773,323.167 133.227,324.167 133.561 C 325.167 133.894,325.934 134.661,325.871 135.265 M150.464 140.363 C 152.077 141.976,150.055 143.865,147.687 142.957 C 146.469 142.489,145.849 141.496,146.310 140.750 C 147.292 139.161,149.094 138.993,150.464 140.363 M36.725 142.669 C 33.774 145.620,36.181 168.182,39.447 168.182 C 41.324 168.182,45.677 151.879,45.180 146.707 C 44.655 141.230,40.262 139.132,36.725 142.669 M350.648 144.592 C 349.754 148.156,353.115 162.240,355.870 166.469 C 358.667 170.765,363.346 149.059,360.691 144.099 C 358.237 139.512,351.845 139.826,350.648 144.592 M195.030 143.666 L 190.817 144.150 194.784 148.864 C 197.899 152.567,198.632 154.829,198.196 159.399 C 197.742 164.153,198.065 165.042,199.957 164.254 C 201.231 163.724,206.875 162.536,212.500 161.613 C 223.247 159.850,224.206 158.846,220.369 153.367 C 217.498 149.269,215.165 148.965,216.173 152.821 C 217.490 157.859,208.890 158.641,206.978 153.658 C 206.520 152.465,206.765 149.860,207.522 147.869 C 209.016 143.939,204.851 142.538,195.030 143.666 M125.595 146.970 C 120.269 150.083,111.394 165.153,113.191 168.032 C 114.643 170.357,114.419 170.656,111.608 170.143 C 108.166 169.516,100.458 179.153,97.039 188.357 C 95.425 192.702,97.075 198.485,99.929 198.485 C 100.665 198.485,102.294 198.879,103.548 199.360 C 104.927 199.889,106.492 198.994,107.508 197.097 C 108.993 194.321,108.788 194.001,105.730 194.327 C 101.158 194.816,100.242 187.231,103.934 179.452 C 106.901 173.200,109.838 171.519,113.643 173.895 C 115.553 175.088,116.748 175.070,117.987 173.831 C 120.371 171.447,120.119 168.668,117.424 167.634 C 113.553 166.148,114.907 161.135,120.507 156.218 C 126.603 150.865,134.848 149.655,134.848 154.113 C 134.848 156.547,135.009 156.550,137.399 154.160 C 142.482 149.076,132.448 142.965,125.595 146.970 M173.485 147.629 L 167.424 149.682 174.386 149.841 C 182.415 150.024,186.364 153.276,186.364 159.706 C 186.364 164.759,177.953 174.014,175.547 171.608 C 174.505 170.566,175.270 168.808,177.913 166.164 C 182.689 161.388,182.774 159.932,178.451 156.904 C 168.977 150.268,165.452 154.753,171.212 166.112 C 173.691 171.001,175.728 176.239,175.738 177.753 C 175.764 181.370,188.560 171.159,191.763 164.965 C 198.438 152.058,188.431 142.567,173.485 147.629 M211.408 146.897 C 209.838 149.438,211.667 150.748,214.038 148.780 C 216.982 146.337,223.059 149.831,225.514 155.379 C 227.272 159.349,228.721 160.188,236.325 161.633 C 241.154 162.551,248.764 165.085,253.235 167.263 L 261.364 171.225 253.788 164.164 C 241.372 152.591,214.625 141.693,211.408 146.897 M266.572 148.662 C 265.195 151.234,265.355 152.359,267.377 154.343 C 269.186 156.119,269.763 156.235,269.419 154.753 C 267.854 148.010,282.505 153.199,287.127 161.024 C 289.745 165.456,289.733 165.642,286.657 168.016 C 281.958 171.642,285.681 176.824,290.540 173.421 C 294.193 170.863,299.279 175.657,300.917 183.201 C 301.385 185.357,302.031 187.973,302.352 189.015 C 302.673 190.057,302.275 190.909,301.468 190.909 C 300.660 190.909,300.170 191.761,300.379 192.803 C 300.587 193.845,299.564 194.602,298.106 194.487 C 295.170 194.254,294.851 195.186,296.809 198.277 C 298.761 201.357,306.671 197.214,307.303 192.781 C 308.274 185.973,296.178 168.514,291.686 170.237 C 289.151 171.210,288.510 168.907,290.904 167.428 C 292.909 166.188,289.632 160.068,282.587 151.894 C 276.168 144.447,269.543 143.110,266.572 148.662 M122.767 158.519 C 117.915 164.045,118.245 168.130,123.383 166.158 C 126.051 165.134,126.626 162.121,124.153 162.121 C 123.270 162.121,122.971 161.438,123.487 160.602 C 124.106 159.600,125.373 159.590,127.206 160.570 C 129.251 161.665,130.505 161.430,131.956 159.682 C 133.642 157.651,133.500 157.381,130.979 157.820 C 128.931 158.176,128.095 157.523,128.241 155.682 C 128.525 152.101,128.301 152.217,122.767 158.519 M51.563 158.837 C 51.537 159.947,49.462 165.533,46.953 171.250 C 42.467 181.472,42.433 181.735,44.961 187.035 C 51.001 199.702,61.846 184.042,57.699 168.641 C 56.004 162.345,51.646 155.382,51.563 158.837 M148.864 160.113 C 144.905 162.874,144.615 164.944,147.614 169.029 C 149.712 171.886,149.814 171.862,151.200 168.182 C 155.447 156.900,155.115 155.752,148.864 160.113 M157.741 160.985 C 153.914 171.214,153.924 171.266,159.383 169.423 C 165.939 167.210,165.729 167.633,162.952 162.262 C 160.061 156.671,159.414 156.513,157.741 160.985 M340.370 164.032 C 334.728 178.806,341.640 198.403,349.664 190.379 C 353.221 186.822,352.646 177.892,348.209 167.768 C 343.222 156.391,343.278 156.418,340.370 164.032 M225.318 170.833 L 223.039 176.515 227.574 177.001 C 233.552 177.641,233.971 176.979,231.653 170.568 C 229.179 163.727,228.151 163.770,225.318 170.833 M133.553 176.136 C 128.239 183.254,121.212 195.513,121.212 197.667 C 121.212 198.117,125.133 198.496,129.924 198.510 C 141.527 198.543,149.336 202.956,154.012 212.121 C 157.451 218.862,157.491 218.886,157.533 214.258 C 157.639 202.596,145.102 168.182,140.747 168.182 C 140.057 168.182,136.819 171.761,133.553 176.136 M210.047 170.485 C 207.468 177.204,208.832 180.166,213.842 178.729 C 220.262 176.888,220.266 176.869,215.334 172.144 C 211.619 168.585,210.866 168.349,210.047 170.485 M241.014 172.580 L 237.883 176.978 242.672 178.647 C 248.610 180.717,248.925 180.401,247.656 173.640 C 246.417 167.032,245.113 166.824,241.014 172.580 M157.197 173.831 C 154.072 174.158,151.544 175.236,151.579 176.228 C 151.687 179.302,157.078 188.397,157.941 186.963 C 164.126 176.691,165.923 172.554,164.015 172.982 C 163.390 173.122,160.322 173.504,157.197 173.831 M195.455 180.200 C 195.455 183.590,195.829 186.364,196.287 186.364 C 197.629 186.364,206.393 181.632,205.823 181.216 C 205.537 181.007,203.087 179.307,200.379 177.436 L 195.455 174.036 195.455 180.200 M256.818 178.106 C 252.026 182.064,252.081 182.239,259.470 186.468 C 261.663 187.723,262.125 187.387,262.142 184.523 C 262.153 182.619,262.574 179.527,263.076 177.652 C 264.247 173.284,262.502 173.411,256.818 178.106 M107.680 178.594 C 104.105 185.272,102.794 189.961,105.015 188.118 C 107.095 186.391,109.091 187.184,109.091 189.736 C 109.091 190.480,108.409 190.667,107.576 190.152 C 106.742 189.636,106.061 189.937,106.061 190.820 C 106.061 193.508,108.884 192.611,110.618 189.371 C 111.904 186.969,111.754 186.127,109.914 185.421 C 106.365 184.060,107.118 181.469,110.730 182.615 C 113.367 183.452,113.802 183.053,113.381 180.184 C 112.718 175.653,109.704 174.812,107.680 178.594 M166.580 179.924 C 165.431 182.216,164.210 184.698,163.866 185.441 C 163.327 186.605,171.143 185.422,172.419 184.147 C 173.268 183.298,170.892 175.758,169.776 175.758 C 169.167 175.758,167.728 177.633,166.580 179.924 M213.396 181.780 C 209.397 182.988,194.797 192.353,195.727 193.113 C 198.995 195.788,207.034 194.819,206.461 191.820 C 205.328 185.894,215.884 181.252,220.345 185.713 C 224.714 190.082,222.302 196.029,216.495 195.208 C 212.380 194.626,211.466 190.039,215.530 190.362 C 218.941 190.633,218.968 188.505,215.570 187.201 C 211.268 185.550,208.561 190.632,211.419 194.995 C 213.614 198.344,213.523 198.603,209.631 200.083 C 207.375 200.940,202.920 204.000,199.730 206.882 C 191.105 214.674,182.003 213.170,189.499 205.191 C 193.472 200.962,197.205 200.100,193.417 204.286 C 186.815 211.580,193.376 210.590,200.589 203.203 C 206.951 196.688,205.888 194.968,196.970 197.350 C 190.489 199.082,183.670 205.158,180.874 211.694 C 177.820 218.831,178.318 220.667,182.295 216.931 C 186.359 213.113,188.958 212.801,192.305 215.730 C 193.621 216.881,196.402 218.315,198.485 218.917 C 202.092 219.958,202.132 219.903,199.327 217.765 C 194.777 214.297,205.435 201.526,212.879 201.526 C 213.712 201.526,212.215 202.855,209.552 204.479 C 202.814 208.587,198.728 214.933,201.635 216.773 C 204.989 218.895,209.091 218.420,209.091 215.909 C 209.091 214.588,207.716 213.636,205.808 213.636 C 200.243 213.636,204.370 211.454,210.314 211.253 C 213.391 211.149,217.273 210.564,218.939 209.954 L 221.970 208.844 218.939 211.347 C 217.273 212.724,216.116 214.592,216.368 215.498 C 217.039 217.911,213.612 219.619,207.576 219.880 C 203.457 220.058,203.103 220.265,205.994 220.807 C 211.819 221.899,220.629 218.555,224.712 213.702 L 228.435 209.278 232.021 213.116 C 237.193 218.653,242.965 221.245,249.546 220.985 L 255.303 220.757 248.485 219.848 C 243.417 219.173,241.662 218.272,241.649 216.340 C 241.640 214.911,240.276 212.639,238.619 211.292 C 235.614 208.850,235.614 208.847,238.636 209.980 C 240.303 210.605,243.847 211.172,246.512 211.240 C 249.176 211.308,252.097 212.102,253.001 213.004 C 254.182 214.183,253.885 214.610,251.944 214.520 C 248.148 214.343,247.068 217.340,250.758 217.812 C 259.609 218.943,257.935 211.017,247.975 204.637 C 241.833 200.702,244.625 200.559,251.054 204.479 C 258.753 209.173,261.962 214.958,258.338 217.608 C 256.767 218.757,256.253 219.697,257.197 219.697 C 258.140 219.697,259.340 219.004,259.864 218.157 C 260.387 217.310,261.373 216.962,262.054 217.383 C 262.736 217.804,264.136 217.133,265.165 215.892 C 267.809 212.707,271.191 213.088,275.404 217.045 L 279.035 220.455 277.955 215.909 C 275.239 204.478,264.115 195.922,253.102 196.795 C 250.403 197.009,261.801 209.091,264.701 209.091 C 267.342 209.091,267.176 207.619,264.159 204.286 C 260.370 200.100,264.104 200.962,268.076 205.191 C 275.745 213.354,266.811 214.537,257.340 206.613 C 253.720 203.583,248.856 200.439,246.532 199.626 C 242.800 198.320,242.596 197.936,244.782 196.337 C 248.199 193.839,247.125 187.121,243.308 187.121 C 241.711 187.121,240.120 187.974,239.772 189.016 C 239.385 190.178,240.010 190.577,241.387 190.049 C 244.151 188.988,245.680 191.124,244.047 193.766 C 241.899 197.241,235.658 195.147,235.151 190.779 C 234.471 184.929,238.053 182.656,244.566 184.805 C 249.885 186.561,252.658 190.865,250.607 194.183 C 249.850 195.407,250.335 195.650,252.148 194.954 C 253.603 194.396,256.613 193.924,258.836 193.906 L 262.879 193.872 259.091 190.775 C 253.750 186.408,240.789 180.335,236.771 180.318 C 230.751 180.291,230.237 193.518,236.085 197.964 C 238.245 199.606,237.185 199.911,229.167 199.952 C 218.680 200.005,218.384 199.798,222.727 195.455 C 226.124 192.058,226.429 189.842,224.280 184.190 C 222.745 180.152,220.460 179.646,213.396 181.780 M181.818 186.216 C 181.818 188.876,185.220 196.970,186.338 196.970 C 187.628 196.970,192.990 189.391,192.167 188.730 C 190.400 187.312,181.818 185.228,181.818 186.216 M272.727 186.031 C 271.477 186.453,268.913 187.369,267.028 188.065 L 263.602 189.332 266.923 193.151 C 271.292 198.175,272.156 197.989,274.276 191.565 C 276.248 185.588,276.058 184.906,272.727 186.031 M163.258 191.243 C 159.018 192.702,158.302 195.161,160.487 200.758 C 161.527 203.419,162.080 202.986,165.032 197.202 C 168.917 189.589,168.838 189.322,163.258 191.243 M171.212 200.463 C 171.212 200.718,172.866 203.168,174.888 205.908 L 178.563 210.890 180.948 206.278 C 184.180 200.029,184.163 200.000,177.273 200.000 C 173.939 200.000,171.212 200.208,171.212 200.463 M274.242 200.833 C 274.242 201.291,275.316 203.741,276.628 206.278 L 279.013 210.890 282.688 205.908 C 287.312 199.641,287.457 200.000,280.303 200.000 C 276.970 200.000,274.242 200.375,274.242 200.833 M219.034 203.183 C 220.627 205.761,214.079 211.654,211.967 209.543 C 209.597 207.173,211.863 204.125,215.323 205.029 C 218.482 205.855,219.298 203.733,216.288 202.519 C 214.922 201.968,214.897 201.721,216.198 201.635 C 217.191 201.569,218.467 202.266,219.034 203.183 M244.297 204.554 C 248.463 208.434,246.076 211.856,241.072 209.178 C 237.916 207.489,236.930 204.484,238.889 202.525 C 240.348 201.066,240.692 201.195,244.297 204.554 M42.955 205.259 C 43.426 206.485,42.719 208.579,41.386 209.913 C 38.369 212.930,34.133 209.689,35.712 205.572 C 36.915 202.437,41.792 202.226,42.955 205.259 M360.606 206.656 C 360.606 210.981,357.009 212.816,354.487 209.778 C 352.046 206.837,353.762 203.030,357.528 203.030 C 359.764 203.030,360.606 204.022,360.606 206.656 M123.217 208.154 C 107.750 221.168,115.355 253.919,135.214 259.817 C 141.763 261.761,163.636 263.160,163.636 261.634 C 163.636 261.365,162.555 257.786,161.234 253.679 C 159.913 249.572,158.580 245.382,158.271 244.368 C 157.926 243.237,155.971 244.262,153.214 247.020 C 145.198 255.035,129.957 250.394,123.539 237.984 C 116.911 225.167,125.868 207.843,136.944 212.054 C 143.735 214.636,145.998 221.896,140.530 223.562 C 135.164 225.197,131.818 228.911,131.818 233.231 C 131.818 245.657,148.611 248.389,152.710 236.630 C 159.069 218.390,136.709 196.801,123.217 208.154 M168.561 214.706 C 164.127 215.560,164.354 216.661,169.856 221.011 C 175.061 225.126,175.051 225.130,176.459 218.561 C 177.582 213.317,177.070 213.067,168.561 214.706 M280.410 216.119 C 280.688 223.495,282.340 224.693,287.174 221.026 C 289.645 219.151,291.951 217.404,292.298 217.142 C 293.500 216.236,291.641 215.417,285.985 214.360 C 281.055 213.440,280.317 213.672,280.410 216.119 M34.832 218.920 C 37.131 221.690,35.788 225.758,32.576 225.758 C 29.796 225.758,28.094 222.176,29.336 218.939 C 30.444 216.052,32.446 216.045,34.832 218.920 M223.389 218.336 C 222.822 219.255,219.884 221.097,216.860 222.430 C 212.079 224.539,211.800 224.926,214.718 225.404 C 216.562 225.706,220.142 227.888,222.672 230.251 C 227.436 234.702,228.995 233.020,225.417 227.290 C 223.952 224.945,223.952 223.927,225.417 222.462 C 227.611 220.268,227.878 216.667,225.847 216.667 C 225.063 216.667,223.957 217.418,223.389 218.336 M228.788 217.478 C 228.788 217.924,229.900 219.986,231.260 222.062 C 233.558 225.569,233.548 226.040,231.112 228.731 C 226.717 233.588,230.018 234.901,234.743 230.176 C 237.521 227.397,240.750 225.750,243.444 225.738 C 247.123 225.722,246.467 225.080,238.802 221.193 C 229.366 216.408,228.788 216.194,228.788 217.478 M367.636 223.479 C 367.108 224.856,365.488 225.753,364.037 225.473 C 360.753 224.841,359.596 219.742,362.351 218.039 C 365.086 216.348,368.876 220.248,367.636 223.479 M183.408 220.365 C 179.206 225.428,186.805 241.703,196.266 247.902 C 200.551 250.709,211.281 251.413,219.937 249.454 C 224.646 248.388,225.608 248.620,226.326 250.994 C 226.790 252.531,226.914 250.865,226.601 247.292 C 225.296 232.421,214.551 225.441,198.839 229.256 C 187.730 231.953,184.848 231.038,184.848 224.814 C 184.848 222.222,185.698 221.212,187.879 221.212 C 189.545 221.212,190.909 221.934,190.909 222.817 C 190.909 223.699,190.227 224.000,189.394 223.485 C 188.561 222.970,187.879 223.327,187.879 224.279 C 187.879 225.231,188.731 225.726,189.773 225.379 C 190.814 225.032,191.667 223.441,191.667 221.843 C 191.667 218.170,186.062 217.167,183.408 220.365 M266.162 219.192 C 264.256 221.098,265.152 225.758,267.424 225.758 C 268.674 225.758,269.697 225.036,269.697 224.153 C 269.697 223.270,269.015 222.970,268.182 223.485 C 267.348 224.000,266.667 223.649,266.667 222.706 C 266.667 219.571,271.961 221.943,272.440 225.292 C 273.225 230.779,268.531 232.000,257.754 229.113 C 243.166 225.204,230.032 234.458,230.479 248.330 C 230.575 251.332,230.966 252.595,231.347 251.136 C 232.164 248.010,232.442 247.985,241.930 250.167 C 256.238 253.457,270.017 245.003,274.447 230.216 C 276.913 221.986,271.101 214.252,266.162 219.192 M194.305 225.693 C 193.257 227.395,192.575 228.778,192.790 228.765 C 195.072 228.631,206.233 224.414,204.545 224.323 C 203.295 224.256,200.909 223.840,199.242 223.399 C 197.231 222.867,195.571 223.638,194.305 225.693 M226.580 224.138 C 225.459 225.951,228.310 227.747,230.328 226.500 C 232.022 225.453,230.910 222.727,228.788 222.727 C 228.053 222.727,227.059 223.362,226.580 224.138 M253.788 224.120 L 249.242 225.154 255.032 226.302 C 258.216 226.934,261.863 227.850,263.136 228.339 C 265.141 229.108,265.180 228.792,263.422 225.977 C 261.280 222.547,260.968 222.487,253.788 224.120 M177.362 231.818 C 177.311 241.646,179.403 246.548,180.757 239.775 C 181.242 237.350,180.686 232.693,179.522 229.425 L 177.406 223.485 177.362 231.818 M309.992 226.687 C 309.417 228.186,307.945 228.842,306.185 228.381 C 304.082 227.831,303.135 228.574,302.640 231.161 C 302.088 234.049,302.682 234.774,305.907 235.148 C 310.650 235.699,311.741 240.236,309.184 248.772 C 307.155 255.545,302.513 258.775,299.000 255.859 C 297.014 254.211,296.754 254.446,297.203 257.483 C 297.952 262.552,303.496 264.214,307.863 260.678 C 313.317 256.262,314.098 234.018,308.872 231.925 L 305.303 230.495 308.712 230.399 C 311.079 230.332,312.121 229.377,312.121 227.273 C 312.121 223.611,311.263 223.375,309.992 226.687 M277.646 230.303 C 276.452 233.723,276.254 237.220,277.088 240.152 L 278.381 244.697 279.466 239.254 C 280.062 236.261,280.313 231.829,280.024 229.406 L 279.497 225.000 277.646 230.303 M168.489 230.610 C 162.759 234.149,162.715 233.985,170.218 237.120 L 175.886 239.488 175.526 233.380 C 175.115 226.427,175.204 226.462,168.489 230.610 M281.818 234.111 L 281.818 239.435 287.422 237.093 C 294.895 233.971,294.915 233.916,289.610 231.172 C 282.951 227.729,281.818 228.157,281.818 234.111 M217.022 236.395 L 221.970 240.973 217.424 240.148 C 213.438 239.426,213.298 239.509,216.288 240.825 C 220.472 242.668,220.642 244.842,216.766 246.916 C 212.019 249.457,205.351 248.727,199.962 245.076 C 192.487 240.011,192.916 238.617,201.892 238.791 C 207.444 238.898,208.017 238.769,203.788 238.363 C 194.343 237.457,192.965 236.666,196.358 234.097 C 201.592 230.136,211.439 231.232,217.022 236.395 M260.591 234.073 C 262.825 236.765,261.460 237.472,252.273 238.381 C 248.939 238.711,250.147 238.859,254.957 238.709 C 264.811 238.404,265.395 239.804,257.614 245.076 C 252.225 248.727,245.557 249.457,240.809 246.916 C 236.933 244.842,237.104 242.668,241.288 240.825 C 244.278 239.509,244.138 239.426,240.152 240.148 L 235.606 240.973 240.554 236.395 C 246.188 231.184,257.140 229.915,260.591 234.073 M183.333 239.814 C 183.333 241.250,184.015 242.424,184.848 242.424 C 185.682 242.424,186.417 243.617,186.483 245.076 C 186.552 246.594,186.924 246.934,187.354 245.872 C 187.767 244.852,187.032 242.485,185.719 240.611 C 183.770 237.828,183.333 237.682,183.333 239.814 M271.591 240.431 C 270.549 242.251,269.745 244.637,269.803 245.734 C 269.862 246.830,270.528 246.364,271.284 244.697 C 272.437 242.154,272.602 242.398,272.314 246.212 C 272.110 248.908,271.199 250.603,270.076 250.379 C 267.938 249.951,267.849 250.942,269.637 255.303 C 271.491 259.829,274.529 251.329,273.937 243.270 C 273.514 237.522,273.361 237.337,271.591 240.431 M170.595 246.823 L 166.484 251.114 169.984 252.051 C 178.260 254.268,180.283 253.425,178.560 248.482 C 176.350 242.143,175.290 241.922,170.595 246.823 M279.918 244.984 C 279.485 246.493,278.640 248.920,278.040 250.379 C 277.121 252.611,277.799 253.030,282.324 253.030 C 289.477 253.030,290.166 251.307,284.995 246.353 C 281.136 242.655,280.625 242.518,279.918 244.984 M183.429 248.574 C 183.338 252.247,187.599 260.024,187.947 256.818 C 188.037 255.985,188.340 254.107,188.619 252.644 C 188.899 251.182,188.500 250.374,187.733 250.848 C 186.966 251.322,185.705 250.132,184.932 248.203 L 183.525 244.697 183.429 248.574 M192.447 251.855 C 192.466 254.554,192.775 254.822,193.870 253.091 C 195.077 251.182,195.663 251.234,198.133 253.469 C 201.265 256.304,206.061 256.955,206.061 254.545 C 206.061 253.712,205.004 253.030,203.713 253.030 C 202.421 253.030,199.353 251.990,196.894 250.719 C 192.576 248.485,192.425 248.524,192.447 251.855 M260.606 250.758 C 258.523 251.949,255.625 252.947,254.167 252.977 C 252.708 253.006,251.515 253.712,251.515 254.545 C 251.515 256.955,256.311 256.304,259.443 253.469 C 261.913 251.234,262.498 251.182,263.706 253.091 C 264.804 254.827,265.110 254.569,265.128 251.894 C 265.155 247.921,265.442 247.993,260.606 250.758 M121.356 258.852 C 122.273 261.483,123.639 263.636,124.391 263.636 C 126.820 263.636,125.842 259.637,122.723 256.814 C 119.727 254.103,119.709 254.129,121.356 258.852 M208.652 257.576 C 207.679 261.296,202.217 261.592,196.928 258.212 L 193.182 255.818 196.759 258.970 C 202.204 263.767,211.364 263.368,211.364 258.333 C 211.364 253.792,209.759 253.344,208.652 257.576 M190.909 257.954 C 190.909 259.314,191.636 260.877,192.525 261.426 C 195.124 263.032,195.379 261.594,193.058 258.420 C 191.261 255.962,190.909 255.886,190.909 257.954 M216.098 257.269 C 215.688 257.934,215.919 259.397,216.614 260.520 C 218.319 263.279,222.929 261.380,221.782 258.391 C 220.835 255.924,217.355 255.237,216.098 257.269 M228.788 258.320 C 228.788 259.578,229.981 260.615,231.439 260.627 C 232.898 260.638,235.625 261.059,237.500 261.561 C 240.249 262.298,240.909 261.854,240.909 259.268 C 240.909 255.827,237.068 254.814,235.930 257.955 C 235.382 259.468,234.595 259.465,232.016 257.942 C 229.306 256.341,228.788 256.402,228.788 258.320 M259.670 258.662 C 258.102 259.815,254.639 260.574,251.975 260.348 C 249.312 260.123,246.641 260.430,246.041 261.030 C 245.441 261.630,247.769 262.121,251.215 262.121 C 256.146 262.121,257.296 262.603,256.613 264.381 C 255.451 267.410,260.029 269.032,262.935 266.620 C 264.194 265.575,264.884 264.379,264.467 263.962 C 264.051 263.545,262.543 264.154,261.117 265.314 C 258.843 267.164,258.641 267.110,259.480 264.871 C 260.006 263.466,259.963 262.044,259.385 261.710 C 258.806 261.376,259.186 261.310,260.227 261.564 C 263.090 262.262,266.667 260.518,266.667 258.424 C 266.667 255.949,263.201 256.067,259.670 258.662 M272.802 260.501 C 268.809 266.109,268.740 265.973,276.136 267.115 C 282.587 268.110,282.713 267.827,278.965 260.792 L 276.238 255.675 272.802 260.501 M178.069 262.046 C 174.946 268.085,174.965 268.114,181.439 267.115 C 188.721 265.991,188.680 266.050,185.376 261.515 C 181.770 256.564,180.870 256.630,178.069 262.046 M130.326 264.915 C 130.372 269.891,132.848 271.920,134.686 268.486 C 136.911 264.328,136.857 264.119,133.333 263.197 C 131.199 262.639,130.310 263.147,130.326 264.915 M198.088 264.850 C 198.934 267.109,198.735 267.166,196.459 265.314 C 195.033 264.154,193.525 263.545,193.109 263.962 C 191.692 265.379,196.920 268.525,199.223 267.641 C 202.128 266.527,202.177 264.215,199.320 263.118 C 197.750 262.516,197.399 263.010,198.088 264.850 M213.923 264.739 C 205.677 265.755,215.041 275.844,224.088 275.691 C 227.461 275.634,227.182 275.322,222.159 273.532 C 213.487 270.441,212.540 268.725,218.852 267.541 C 221.845 266.979,224.964 266.934,225.783 267.440 C 226.603 267.946,227.273 267.298,227.273 265.999 C 227.273 263.593,224.981 263.377,213.923 264.739 M229.924 264.513 C 227.773 266.678,228.793 268.384,231.689 267.465 C 235.016 266.409,242.424 267.936,242.424 269.677 C 242.424 270.881,236.400 273.564,231.061 274.739 C 228.928 275.209,229.308 275.458,232.342 275.582 C 237.283 275.783,244.119 272.183,246.728 268.005 C 248.276 265.528,248.060 265.149,245.089 265.135 C 243.207 265.126,239.280 264.725,236.364 264.244 C 233.447 263.763,230.549 263.884,229.924 264.513 M159.968 266.505 C 157.518 267.465,158.062 268.047,163.408 270.186 C 171.596 273.463,171.742 273.429,168.800 268.939 C 166.212 264.989,164.818 264.605,159.968 266.505 M143.490 270.407 C 146.282 274.243,148.485 275.321,148.485 272.851 C 148.485 272.086,148.899 270.381,149.405 269.063 C 150.123 267.190,149.281 266.667,145.546 266.667 L 140.768 266.667 143.490 270.407 M188.214 274.282 C 186.463 281.181,186.247 281.025,193.416 278.030 C 198.085 276.079,198.579 275.424,196.901 273.402 C 192.174 267.706,189.823 267.945,188.214 274.282 M201.739 269.559 C 197.541 272.153,214.719 280.527,223.485 280.159 C 225.152 280.089,223.196 279.120,219.138 278.006 C 215.081 276.892,209.960 274.254,207.759 272.146 C 205.156 269.651,203.052 268.747,201.739 269.559 M249.708 272.192 C 247.645 274.255,242.606 276.863,238.509 277.988 C 234.412 279.112,232.293 280.093,233.799 280.168 C 242.796 280.613,261.328 271.461,255.758 269.323 C 254.429 268.814,251.877 270.024,249.708 272.192 M262.251 271.832 L 258.785 275.521 263.408 277.912 C 269.727 281.180,270.087 281.013,268.900 275.379 C 267.414 268.325,266.169 267.661,262.251 271.832 M137.062 271.308 C 136.055 272.938,138.674 275.681,141.288 275.734 C 143.155 275.773,142.577 273.225,140.286 271.324 C 138.667 269.980,137.885 269.976,137.062 271.308 M152.591 272.727 C 151.887 275.419,152.545 275.758,158.475 275.758 C 166.522 275.758,166.872 274.807,159.897 271.892 C 153.303 269.137,153.537 269.110,152.591 272.727 M290.552 274.573 C 289.988 276.004,290.178 277.579,290.975 278.071 C 291.772 278.564,292.414 280.120,292.401 281.529 C 292.383 283.575,292.111 283.670,291.055 282.003 C 289.528 279.592,286.364 281.000,286.364 284.091 C 286.364 290.047,292.404 287.667,296.272 280.187 C 298.248 276.365,298.195 276.117,295.553 276.808 C 293.626 277.312,292.518 276.648,292.139 274.762 C 291.623 272.197,291.494 272.182,290.552 274.573 M133.041 279.694 C 133.907 281.279,137.675 285.556,141.415 289.198 L 148.214 295.819 147.971 290.774 C 147.451 279.992,163.854 279.871,170.425 290.607 C 173.424 295.508,173.660 295.593,182.317 294.906 C 192.877 294.068,194.423 292.921,189.457 289.607 C 187.408 288.240,183.769 285.476,181.370 283.466 C 177.271 280.031,175.806 279.801,157.065 279.647 C 146.096 279.556,135.849 278.882,134.293 278.148 C 131.846 276.993,131.677 277.201,133.041 279.694 M201.515 283.333 C 201.515 290.379,202.680 290.817,207.570 285.612 C 211.418 281.516,211.420 281.530,206.539 278.993 C 201.728 276.492,201.515 276.677,201.515 283.333 M250.000 279.188 C 247.917 280.129,245.898 281.136,245.514 281.425 C 244.690 282.047,253.266 289.260,254.924 289.339 C 255.549 289.369,256.061 286.667,256.061 283.333 C 256.061 276.809,255.746 276.594,250.000 279.188 M215.756 284.238 C 216.264 285.562,217.092 288.286,217.595 290.292 C 218.802 295.103,219.995 294.893,223.306 289.289 C 226.484 283.909,226.567 284.067,219.916 282.799 C 215.671 281.990,214.984 282.228,215.756 284.238 M235.227 283.051 C 229.339 283.618,229.343 283.597,233.934 290.352 L 237.564 295.695 239.359 290.259 C 241.661 283.282,241.199 282.475,235.227 283.051 M153.896 288.745 C 147.308 295.332,162.942 307.901,181.818 311.193 C 186.950 312.088,186.901 312.017,180.303 308.993 C 170.788 304.633,166.526 300.331,167.576 296.148 C 169.289 289.321,158.927 283.713,153.896 288.745 M243.182 296.434 C 239.418 297.851,231.573 298.757,222.482 298.824 C 211.044 298.909,208.010 299.368,208.607 300.923 C 209.027 302.018,208.337 304.986,207.074 307.518 C 203.862 313.957,207.228 313.681,213.955 306.954 C 219.639 301.270,231.957 298.017,235.265 301.326 C 237.091 303.151,237.060 303.162,228.313 303.705 C 224.616 303.935,221.342 305.311,219.222 307.524 L 215.909 310.984 221.029 310.036 C 226.866 308.956,242.840 301.344,248.485 296.953 C 252.969 293.465,251.461 293.318,243.182 296.434 M196.554 297.112 C 195.076 297.972,189.621 299.161,184.433 299.752 L 175.000 300.828 179.266 303.684 C 181.612 305.254,187.067 307.396,191.387 308.444 C 195.708 309.491,198.390 310.406,197.348 310.477 C 196.307 310.548,195.455 311.312,195.455 312.175 C 195.455 314.608,201.137 311.076,203.828 306.969 C 208.259 300.207,203.145 293.275,196.554 297.112 M273.737 297.980 C 271.731 299.986,272.786 301.817,275.379 300.830 C 277.456 300.039,277.634 300.220,276.201 301.664 C 274.813 303.063,273.862 303.086,272.264 301.759 C 270.625 300.399,269.573 300.655,267.529 302.915 C 265.021 305.686,265.052 305.901,268.210 307.591 C 271.759 309.490,280.303 303.392,280.303 298.959 C 280.303 296.905,275.525 296.192,273.737 297.980 M137.023 304.387 C 137.484 305.133,136.864 306.126,135.646 306.593 C 133.278 307.502,131.256 305.613,132.869 303.999 C 134.239 302.629,136.041 302.798,137.023 304.387 M109.318 314.152 C 107.289 316.312,105.906 319.840,105.781 323.174 C 105.248 337.343,119.885 336.622,122.199 322.365 C 123.928 311.710,116.226 306.799,109.318 314.152 M281.295 313.377 C 274.984 320.351,281.343 333.333,291.071 333.333 C 295.425 333.333,297.624 326.414,295.518 319.343 C 293.018 310.950,286.113 308.054,281.295 313.377 M150.759 315.549 C 151.041 319.379,157.576 322.427,157.576 318.728 C 157.576 317.267,156.725 316.669,155.380 317.185 C 153.984 317.721,153.464 317.299,153.952 316.027 C 154.374 314.927,153.777 313.666,152.624 313.223 C 151.222 312.685,150.605 313.454,150.759 315.549 M95.570 321.075 L 89.240 328.634 92.347 331.741 C 98.856 338.250,93.031 358.362,85.477 355.463 C 83.429 354.677,83.792 353.666,87.730 349.180 C 92.865 343.332,93.503 340.660,90.382 338.070 C 85.904 334.353,80.039 346.943,77.414 365.908 L 76.156 374.998 82.556 382.116 C 92.030 392.654,95.453 411.846,89.694 422.137 C 86.281 428.235,83.972 417.800,85.633 403.788 C 86.640 395.300,83.073 385.990,78.489 385.136 C 74.581 384.408,78.864 408.200,85.256 422.727 L 88.256 429.545 91.058 423.485 C 97.244 410.105,94.335 391.842,84.238 380.666 C 78.985 374.851,77.061 367.913,80.169 365.992 C 82.589 364.496,93.721 378.786,97.045 387.656 C 103.454 404.754,104.125 429.773,98.472 440.879 C 94.228 449.218,106.398 464.494,120.356 468.348 C 127.685 470.371,129.517 468.924,125.975 463.909 C 109.715 440.885,102.423 405.433,110.637 389.334 C 114.961 380.857,125.758 381.150,125.758 389.745 C 125.758 393.673,121.203 395.019,118.841 391.788 C 112.428 383.018,110.287 419.824,116.331 434.939 C 121.912 448.897,124.407 451.030,123.318 440.909 C 122.624 434.463,123.387 428.972,126.686 416.667 C 135.314 384.486,124.956 349.895,108.513 355.978 C 103.974 357.657,104.121 364.226,108.712 364.878 C 110.587 365.144,112.121 364.633,112.121 363.742 C 112.121 362.850,111.098 362.121,109.848 362.121 C 108.598 362.121,107.576 361.098,107.576 359.848 C 107.576 356.094,113.536 357.213,115.407 361.319 C 118.811 368.791,109.275 372.912,103.030 366.667 C 96.975 360.612,100.808 348.438,109.692 345.506 C 115.201 343.688,124.082 346.063,126.520 350.007 C 127.384 351.405,127.960 351.352,128.954 349.783 C 129.894 348.300,130.263 348.730,130.280 351.326 C 130.301 354.558,130.793 354.826,135.117 353.961 C 141.765 352.632,141.820 352.438,137.731 344.730 L 134.102 337.890 132.181 342.809 C 130.901 346.087,130.520 346.464,131.040 343.939 C 133.578 331.613,133.562 329.084,130.918 324.092 L 128.188 318.939 127.224 324.542 C 125.977 331.793,123.650 334.450,116.733 336.523 C 105.413 339.914,98.080 332.196,101.354 320.337 C 103.567 312.325,102.815 312.420,95.570 321.075 M250.464 314.611 C 249.469 315.016,249.034 316.334,249.496 317.539 C 250.086 319.077,249.608 319.452,247.896 318.794 C 246.288 318.177,245.455 318.672,245.455 320.244 C 245.455 324.045,251.992 320.858,252.282 316.915 C 252.415 315.112,252.467 313.690,252.398 313.756 C 252.329 313.822,251.459 314.207,250.464 314.611 M299.164 315.909 C 303.553 327.632,301.116 335.212,292.338 337.140 C 283.616 339.056,275.738 332.580,273.882 321.970 C 272.963 316.711,269.192 325.483,269.192 332.881 C 269.192 336.390,268.743 338.983,268.195 338.644 C 267.647 338.306,265.731 341.048,263.938 344.738 C 260.752 351.295,260.744 351.482,263.573 352.996 C 268.960 355.880,273.052 354.973,271.973 351.136 C 271.298 348.739,271.440 348.342,272.449 349.800 C 273.623 351.495,274.442 351.316,276.940 348.818 C 283.390 342.367,295.862 343.783,299.955 351.431 C 302.456 356.104,301.818 364.408,298.744 367.189 C 292.967 372.418,283.753 368.378,286.223 361.699 C 287.584 358.021,293.986 356.957,295.076 360.227 C 295.446 361.338,294.402 362.121,292.551 362.121 C 290.814 362.121,289.394 362.850,289.394 363.742 C 289.394 367.023,296.205 364.443,296.698 360.975 C 297.354 356.354,291.665 354.138,286.248 356.904 C 281.429 359.364,273.370 374.126,271.121 384.613 C 269.356 392.842,269.548 394.234,275.758 418.182 C 278.121 427.293,278.873 433.609,278.329 439.773 C 277.350 450.863,277.904 450.713,283.701 438.326 C 291.483 421.696,291.198 384.549,283.343 391.658 C 280.267 394.442,275.758 393.180,275.758 389.535 C 275.758 382.985,286.002 380.899,290.017 386.631 C 299.854 400.676,295.392 430.634,279.380 458.036 C 273.028 468.907,273.009 469.856,279.167 468.685 C 286.624 467.267,291.343 464.442,297.337 457.808 C 306.006 448.213,306.425 446.775,302.758 439.203 C 293.564 420.217,307.403 365.152,321.369 365.152 C 324.786 365.152,322.597 375.315,318.292 379.440 C 307.953 389.345,304.654 409.590,310.991 424.242 L 313.284 429.545 316.570 422.328 C 320.173 414.415,326.864 386.965,325.518 385.619 C 320.844 380.945,313.779 397.218,316.334 406.771 C 318.094 413.353,316.463 424.242,313.716 424.242 C 311.475 424.242,308.679 409.090,309.634 402.122 C 310.829 393.404,315.358 384.704,321.307 379.698 C 325.566 376.114,325.976 375.074,325.111 370.038 C 320.866 345.338,315.978 334.049,311.233 337.987 C 308.034 340.642,308.603 343.278,313.602 348.972 C 318.009 353.991,318.178 356.061,314.180 356.061 C 308.341 356.061,304.557 334.743,309.725 330.964 C 313.007 328.564,311.615 325.619,303.685 318.182 C 299.634 314.383,298.351 313.739,299.164 315.909 M118.121 317.352 C 122.210 322.278,115.320 329.606,110.826 325.112 C 108.994 323.280,108.893 322.094,110.305 318.995 C 112.264 314.696,115.375 314.042,118.121 317.352 M290.606 316.970 C 293.296 319.660,292.813 323.928,289.626 325.633 C 286.199 327.468,283.333 325.087,283.333 320.404 C 283.333 315.103,287.005 313.369,290.606 316.970 M159.288 321.732 C 157.972 323.317,158.517 324.179,161.754 325.636 C 164.878 327.041,165.469 327.054,164.134 325.689 C 163.157 324.690,162.719 322.934,163.159 321.785 C 164.187 319.108,161.497 319.071,159.288 321.732 M165.152 322.565 C 165.152 323.309,166.230 324.332,167.548 324.838 C 170.790 326.082,170.759 326.094,171.842 323.271 C 172.640 321.191,172.419 321.097,170.489 322.698 C 168.910 324.009,168.182 324.076,168.182 322.913 C 168.182 321.977,167.500 321.212,166.667 321.212 C 165.833 321.212,165.152 321.821,165.152 322.565 M240.043 324.280 C 240.043 326.252,240.783 327.064,242.115 326.553 C 243.255 326.115,244.862 325.758,245.687 325.758 C 246.511 325.758,246.163 324.735,244.913 323.485 C 241.784 320.356,240.043 320.640,240.043 324.280 M175.758 324.199 C 175.758 325.009,173.542 326.337,170.833 327.151 L 165.909 328.632 171.957 328.331 C 177.414 328.060,182.578 322.727,177.384 322.727 C 176.489 322.727,175.758 323.390,175.758 324.199 M230.941 325.097 C 232.133 326.289,234.182 326.852,235.493 326.349 C 239.342 324.872,238.240 323.199,233.326 323.059 C 229.378 322.947,229.061 323.217,230.941 325.097 M143.059 329.954 C 148.381 345.039,152.195 349.958,165.530 358.936 C 172.861 363.872,175.315 363.417,169.542 358.193 C 166.752 355.669,162.121 348.341,162.121 346.452 C 162.121 343.228,193.359 342.710,196.530 345.881 C 197.848 347.199,198.341 349.007,197.675 350.084 C 196.798 351.503,196.002 351.284,194.481 349.204 C 193.367 347.680,191.987 346.902,191.414 347.475 C 190.841 348.048,191.929 349.967,193.831 351.740 C 198.125 355.740,200.478 353.288,199.408 345.927 C 198.978 342.972,199.493 340.444,200.733 339.414 C 203.584 337.048,205.185 340.116,204.770 347.152 C 204.587 350.250,204.992 353.127,205.670 353.547 C 207.412 354.623,214.590 348.934,213.219 347.563 C 212.598 346.942,211.130 347.746,209.957 349.351 C 207.408 352.836,205.390 351.470,206.751 347.180 C 207.947 343.412,210.894 342.963,227.592 344.007 C 244.168 345.042,245.890 348.340,235.004 358.193 C 228.654 363.939,232.026 363.608,240.845 357.619 C 249.837 351.513,255.759 344.384,261.914 332.257 C 266.414 323.391,266.305 323.339,255.682 329.259 C 236.059 340.195,215.536 342.916,211.502 335.117 C 208.980 330.239,204.545 326.029,204.545 328.513 C 204.545 329.399,205.227 330.546,206.061 331.061 C 209.504 333.189,207.397 335.859,202.273 335.859 C 196.852 335.859,195.529 333.865,198.788 330.606 C 200.202 329.192,200.191 328.788,198.737 328.788 C 197.709 328.788,195.410 331.258,193.629 334.276 L 190.391 339.764 179.869 339.011 C 171.305 338.398,166.936 337.025,156.394 331.629 C 149.270 327.983,142.883 324.777,142.201 324.504 C 141.519 324.230,141.905 326.683,143.059 329.954 M225.973 326.515 C 226.372 328.644,227.890 329.644,231.074 329.876 C 233.566 330.058,234.583 329.798,233.333 329.299 C 232.083 328.801,229.788 327.288,228.233 325.939 C 225.592 323.647,225.443 323.685,225.973 326.515 M168.561 347.973 C 164.726 349.521,166.658 351.846,170.833 350.708 C 173.125 350.084,177.386 349.066,180.303 348.446 C 185.278 347.388,185.137 347.315,178.030 347.264 C 173.864 347.234,169.602 347.553,168.561 347.973 M223.485 348.447 C 226.818 349.050,231.420 350.062,233.712 350.694 C 236.230 351.389,237.879 351.249,237.879 350.341 C 237.879 348.262,232.344 346.979,224.242 347.180 L 217.424 347.349 223.485 348.447 M176.515 353.789 C 171.728 355.240,171.016 355.866,173.125 356.770 C 174.594 357.400,176.640 357.222,177.671 356.375 C 178.702 355.529,181.250 354.594,183.333 354.298 C 185.949 353.927,186.418 353.481,184.848 352.856 C 183.598 352.359,179.848 352.778,176.515 353.789 M219.521 353.171 C 217.960 354.160,218.301 354.505,220.854 354.522 C 222.740 354.535,225.607 355.372,227.224 356.382 C 229.910 358.059,233.406 357.143,231.519 355.256 C 229.624 353.361,221.461 351.943,219.521 353.171 M200.969 354.082 C 199.263 355.788,199.930 357.576,202.273 357.576 C 203.523 357.576,204.545 356.934,204.545 356.150 C 204.545 354.239,202.179 352.871,200.969 354.082 M177.652 361.610 C 176.610 362.030,175.758 363.340,175.758 364.520 C 175.758 366.970,179.650 367.434,181.061 365.152 C 185.048 358.699,194.325 366.853,195.424 377.777 C 196.706 390.516,209.091 389.463,209.091 376.615 C 209.091 367.156,219.567 358.812,223.485 365.152 C 224.885 367.417,228.788 366.979,228.788 364.556 C 228.788 359.351,216.432 359.188,211.295 364.325 C 208.451 367.168,207.576 369.645,207.576 374.842 C 207.576 378.580,206.894 382.061,206.061 382.576 C 205.227 383.091,204.545 382.449,204.545 381.150 C 204.545 379.851,203.523 378.788,202.273 378.788 C 201.023 378.788,200.000 379.851,200.000 381.150 C 200.000 386.846,197.290 381.134,196.603 373.992 C 195.539 362.918,187.472 357.647,177.652 361.610 M199.705 365.341 C 200.082 367.909,201.273 369.697,202.607 369.697 C 204.074 369.697,204.537 368.830,203.924 367.232 C 203.404 365.877,203.684 363.916,204.548 362.876 C 205.726 361.457,205.238 360.985,202.591 360.985 C 199.569 360.985,199.157 361.608,199.705 365.341 M181.128 369.589 C 180.649 370.362,181.802 371.215,183.690 371.483 C 185.577 371.750,187.794 373.504,188.617 375.379 C 190.248 379.096,192.424 379.938,192.424 376.852 C 192.424 371.148,183.650 365.507,181.128 369.589 M213.939 370.000 C 212.939 371.000,212.164 373.557,212.217 375.682 C 212.312 379.480,212.337 379.488,213.674 376.162 C 214.561 373.957,215.854 373.092,217.383 373.679 C 219.087 374.333,219.472 373.905,218.788 372.121 C 218.092 370.308,218.485 369.909,220.286 370.599 C 221.629 371.115,222.727 370.782,222.727 369.859 C 222.727 367.611,216.224 367.715,213.939 370.000 M200.543 396.591 C 201.059 399.716,201.581 407.386,201.703 413.636 L 201.925 425.000 203.268 411.364 C 204.681 397.021,204.089 390.909,201.288 390.909 C 200.185 390.909,199.927 392.869,200.543 396.591 M128.445 402.264 C 130.766 404.125,126.020 407.576,121.139 407.576 C 115.092 407.576,112.808 405.859,114.162 402.331 C 114.829 400.593,126.293 400.540,128.445 402.264 M287.605 403.409 C 286.917 408.257,275.065 409.371,273.844 404.702 C 273.162 402.092,273.920 401.594,279.329 401.101 C 282.781 400.787,286.165 400.410,286.848 400.265 C 287.531 400.119,287.872 401.534,287.605 403.409 M124.242 418.864 C 124.242 421.737,120.014 424.042,116.451 423.110 C 111.092 421.708,113.039 416.667,118.939 416.667 C 122.562 416.667,124.242 417.363,124.242 418.864 M287.879 419.697 C 287.879 422.054,286.869 422.727,283.333 422.727 C 280.833 422.727,278.788 422.442,278.788 422.094 C 278.788 421.745,278.374 420.381,277.868 419.063 C 277.134 417.151,278.053 416.667,282.414 416.667 C 286.869 416.667,287.879 417.227,287.879 419.697 M121.189 437.500 C 121.171 440.747,120.841 441.165,119.697 439.394 C 117.781 436.429,117.781 433.333,119.697 433.333 C 120.530 433.333,121.202 435.208,121.189 437.500 M283.310 435.227 C 283.257 439.552,280.350 441.766,280.326 437.500 C 280.313 435.208,280.985 433.333,281.818 433.333 C 282.652 433.333,283.323 434.186,283.310 435.227 " stroke="none" fill="#000000" fill-rule="evenodd"></path></g></svg>