<svg id="svg" xmlns="http://www.w3.org/2000/svg" xmlns:xlink="http://www.w3.org/1999/xlink" width="56" height="48.4814814814815" viewBox="0, 0, 400,431.4814814814815"><g id="svgg"><path id="path0" d="M266.274 74.351 C 250.006 80.300,249.245 112.734,265.166 121.569 C 284.762 132.443,305.931 106.388,294.750 85.156 C 289.200 74.616,277.593 70.212,266.274 74.351 M193.209 133.382 C 167.351 136.104,139.300 154.495,122.398 179.807 C 114.967 190.935,113.040 194.683,96.707 229.783 C 82.049 261.281,68.174 273.368,42.605 276.915 C 20.940 279.919,21.542 292.344,43.234 289.889 C 71.032 286.744,91.397 271.330,104.495 243.519 C 137.210 174.057,153.047 155.211,184.722 148.047 C 191.903 146.424,191.970 146.852,187.013 162.665 C 182.424 177.304,182.390 176.754,188.050 179.332 C 195.149 182.567,195.775 182.154,197.092 173.368 C 197.762 168.906,202.021 157.864,206.557 148.831 C 211.094 139.798,214.808 132.199,214.810 131.944 C 214.816 131.326,209.158 131.703,193.209 133.382 M253.338 133.796 C 251.567 135.198,249.944 140.495,249.224 147.222 C 246.548 172.235,244.407 176.679,234.340 178.119 C 220.691 180.071,215.146 183.110,209.041 191.984 L 203.450 200.110 196.006 194.037 C 172.769 175.077,160.862 173.639,144.731 187.843 C 114.884 214.126,155.427 284.815,234.342 344.084 C 262.205 365.010,307.407 386.834,307.407 379.360 C 307.407 370.776,280.010 307.982,267.523 287.948 C 259.006 274.283,258.920 274.211,254.475 277.124 C 248.754 280.872,248.712 281.099,257.138 262.759 C 265.511 244.534,272.140 224.451,277.854 200.000 C 280.116 190.324,282.524 181.782,283.206 181.018 C 284.283 179.810,313.833 187.290,315.815 189.272 C 316.733 190.190,283.379 247.667,274.810 259.932 C 267.567 270.299,266.861 276.407,272.452 280.323 C 279.567 285.306,289.379 272.820,291.278 256.368 C 292.054 249.648,329.127 181.734,335.877 174.668 C 337.289 173.189,340.444 172.948,345.644 173.921 C 354.328 175.547,359.259 173.639,359.259 168.653 C 359.259 163.721,355.975 161.776,343.519 159.333 C 326.878 156.069,293.706 145.142,278.429 137.892 C 264.030 131.059,258.034 130.080,253.338 133.796 M309.762 165.859 C 324.680 170.167,327.432 171.510,325.432 173.510 C 323.174 175.768,312.783 173.619,287.531 165.674 C 286.275 165.278,285.758 163.626,286.381 162.001 C 287.005 160.376,288.449 159.404,289.591 159.841 C 290.733 160.278,299.810 162.986,309.762 165.859 M256.836 199.330 C 259.203 205.498,246.632 246.296,242.365 246.296 C 241.471 246.296,240.724 245.671,240.703 244.907 C 240.682 244.144,237.062 239.401,232.660 234.368 L 224.655 225.218 218.863 231.590 C 211.284 239.930,211.258 236.387,218.746 215.694 C 225.334 197.486,226.509 196.591,244.040 196.414 C 253.180 196.321,255.921 196.946,256.836 199.330 M354.630 314.262 C 348.190 316.224,337.299 317.084,318.866 317.089 C 295.062 317.094,292.488 317.403,293.613 320.121 C 294.301 321.786,295.284 324.606,295.796 326.389 C 297.020 330.644,340.340 331.125,354.756 327.045 C 359.779 325.623,366.089 323.963,368.777 323.357 C 377.623 321.361,377.628 310.977,368.783 311.277 C 366.091 311.368,359.722 312.711,354.630 314.262 " stroke="none" fill="#fff" fill-rule="evenodd"></path></g></svg>