<svg id="svg" xmlns="http://www.w3.org/2000/svg" xmlns:xlink="http://www.w3.org/1999/xlink" width="60" height="56" viewBox="0, 0, 400,249.45454545454547"><g id="svgg"><path id="path0" d="M148.013 19.810 C 146.821 20.243,144.150 21.681,142.078 23.007 C 140.006 24.332,136.891 25.609,135.155 25.845 C 129.066 26.672,127.997 27.103,130.851 27.582 C 136.369 28.509,131.429 32.000,124.600 32.000 C 121.275 32.000,121.247 32.020,122.545 33.455 C 123.269 34.255,124.222 34.909,124.662 34.909 C 125.543 34.909,127.366 39.988,126.809 40.890 C 126.617 41.200,125.497 41.455,124.321 41.455 C 121.710 41.455,121.503 42.581,124.000 43.208 C 127.909 44.189,124.699 46.903,118.699 47.690 C 114.390 48.256,114.093 49.281,117.862 50.580 C 119.863 51.269,120.757 51.242,122.328 50.448 C 124.501 49.349,126.545 49.144,126.545 50.025 C 126.545 51.052,122.478 53.026,119.323 53.531 C 115.960 54.069,108.482 59.326,109.565 60.392 C 109.904 60.726,112.440 60.524,115.200 59.942 C 121.115 58.697,121.057 58.670,119.646 62.047 C 118.143 65.643,118.239 66.028,120.545 65.665 C 122.433 65.367,122.361 65.515,119.273 68.289 L 116.000 71.229 119.842 71.251 C 124.600 71.278,127.684 70.029,131.601 66.490 L 134.636 63.749 134.116 65.874 C 133.467 68.529,132.253 71.849,129.881 77.455 C 126.459 85.541,127.044 86.510,136.517 88.458 C 146.983 90.609,147.166 90.880,144.353 100.103 C 142.210 107.129,142.442 106.807,121.342 132.094 C 103.420 153.574,99.459 157.516,92.526 160.766 C 73.554 169.660,69.910 172.316,66.123 180.008 C 58.043 196.422,68.467 205.974,82.018 194.572 C 84.663 192.346,92.583 181.730,96.144 175.636 C 106.781 157.433,112.282 148.981,118.625 141.091 C 122.644 136.091,127.835 129.545,130.159 126.545 C 132.483 123.545,135.584 119.782,137.051 118.182 L 139.717 115.273 139.266 136.727 L 138.816 158.182 135.969 162.927 C 130.361 172.274,128.486 178.386,127.336 191.068 C 126.538 199.865,124.144 208.022,121.617 210.549 C 119.255 212.910,116.771 212.910,82.182 210.550 C 53.160 208.571,27.788 208.139,26.327 209.600 C 24.975 210.953,25.296 213.682,26.910 214.546 C 51.838 227.887,167.113 235.882,264.727 231.041 C 303.565 229.114,328.990 227.684,338.545 226.887 C 361.197 224.998,371.037 219.058,358.445 214.876 C 351.887 212.698,342.499 212.472,288.364 213.188 C 214.116 214.171,183.165 213.879,181.288 212.179 C 180.513 211.478,178.385 210.394,176.559 209.772 C 169.720 207.442,169.117 204.595,172.287 189.586 C 176.683 168.770,177.711 132.137,174.384 114.909 C 171.742 101.231,170.350 83.226,171.821 81.755 C 172.058 81.518,174.505 82.662,177.259 84.298 C 180.013 85.934,182.455 87.273,182.685 87.273 C 183.755 87.273,186.221 78.987,186.906 73.091 C 188.175 62.163,189.060 58.747,191.384 55.802 C 192.575 54.294,194.376 51.184,195.386 48.893 C 197.979 43.017,201.927 38.051,204.400 37.556 C 207.114 37.014,207.710 34.822,206.053 31.480 C 204.144 27.631,203.309 27.794,201.449 32.377 C 199.563 37.023,193.735 44.364,191.932 44.364 C 190.429 44.364,189.657 45.284,187.020 50.220 C 184.837 54.305,176.303 65.088,174.726 65.753 C 174.163 65.991,172.981 64.482,171.623 61.791 C 170.180 58.933,168.375 56.684,166.351 55.221 C 161.148 51.462,160.266 46.752,163.623 40.662 C 170.325 28.503,160.442 15.302,148.013 19.810 M182.364 67.989 C 180.569 73.367,179.478 74.421,178.191 72.017 C 177.097 69.972,177.810 68.052,180.957 64.568 C 184.213 60.964,184.487 61.628,182.364 67.989 M143.485 78.198 C 145.902 83.126,145.920 83.636,143.677 83.636 C 140.042 83.636,137.901 80.742,138.949 77.245 C 140.167 73.180,141.123 73.381,143.485 78.198 M158.479 138.000 C 158.970 140.300,160.369 146.390,161.589 151.533 C 163.697 160.421,163.766 161.198,162.994 167.219 C 162.547 170.703,162.182 180.277,162.182 188.495 C 162.182 212.616,161.833 213.455,151.790 213.455 C 140.905 213.455,133.818 209.146,133.818 202.529 C 133.818 195.851,139.368 180.434,145.483 170.123 C 152.609 158.108,156.364 145.926,156.364 134.822 C 156.364 132.266,157.676 134.238,158.479 138.000 " stroke="none" fill="#fff" fill-rule="evenodd"></path></g></svg>