<svg id="svg" xmlns="http://www.w3.org/2000/svg" xmlns:xlink="http://www.w3.org/1999/xlink" width="56" height="48" viewBox="0, 0, 400,487.32394366197184"><g id="svgg"><path id="path0" d="M155.222 66.813 C 117.886 85.204,92.463 219.822,107.726 318.310 L 111.437 342.254 96.073 362.513 C 83.337 379.308,79.862 382.319,75.752 380.119 C 62.806 373.190,65.086 382.640,78.679 392.254 C 93.603 402.808,101.429 402.466,91.672 391.685 C 88.024 387.653,89.006 385.342,100.561 370.777 L 113.552 354.401 121.171 376.496 C 125.361 388.649,129.720 400.767,130.857 403.426 C 132.730 407.807,129.925 408.336,100.969 409.060 C 74.798 409.715,69.014 410.624,69.014 414.085 C 69.014 417.735,77.059 418.186,128.169 417.396 C 169.194 416.762,198.979 417.833,225.352 420.890 C 291.620 428.571,352.477 426.149,354.479 415.751 C 355.316 411.404,354.319 410.796,348.876 412.337 C 319.342 420.698,197.444 414.093,205.356 404.560 C 220.117 386.774,233.791 310.009,233.830 244.709 L 233.857 198.592 243.744 186.154 C 251.075 176.932,255.968 173.461,262.671 172.727 C 285.273 170.253,326.761 134.792,326.761 117.948 C 326.761 107.406,307.406 86.623,294.594 83.407 C 273.493 78.111,247.512 116.494,246.447 154.537 C 246.125 166.062,244.341 171.730,238.915 178.469 L 231.805 187.299 228.429 167.593 C 215.057 89.538,187.132 51.094,155.222 66.813 M183.491 79.013 L 190.141 84.786 181.126 80.421 C 169.203 74.648,164.572 74.909,153.956 81.948 L 145.070 87.841 152.974 80.540 C 162.562 71.683,174.368 71.093,183.491 79.013 M176.607 85.913 C 191.381 96.262,205.499 136.190,211.166 183.658 L 214.397 210.717 171.283 266.189 L 128.169 321.660 126.265 309.421 C 110.685 209.269,143.666 62.840,176.607 85.913 M296.664 93.302 C 321.555 106.090,323.861 119.629,304.349 138.436 C 288.498 153.714,259.920 169.974,262.993 161.966 C 265.683 154.956,262.233 151.210,257.035 155.497 C 249.832 161.437,254.950 137.313,265.393 116.101 C 277.064 92.395,284.436 87.020,296.664 93.302 M128.116 139.492 C 115.970 187.324,112.823 254.000,119.676 318.310 L 121.027 330.986 117.755 319.718 C 108.212 286.854,114.419 173.940,128.347 127.039 C 135.360 103.425,135.209 111.559,128.116 139.492 M218.566 166.813 C 220.944 180.589,222.440 194.008,221.892 196.634 C 221.343 199.260,218.748 188.099,216.125 171.831 C 213.501 155.563,210.666 139.085,209.823 135.211 L 208.292 128.169 211.268 134.968 C 212.905 138.708,216.189 153.038,218.566 166.813 M222.635 299.280 C 218.954 335.312,208.400 378.842,199.371 395.234 L 192.867 407.042 169.700 407.860 L 146.534 408.678 140.828 399.409 C 134.420 388.999,120.197 346.469,122.391 344.276 C 124.027 342.640,125.239 345.807,129.702 363.380 C 131.472 370.352,135.494 382.077,138.638 389.437 L 144.356 402.817 169.014 402.817 L 193.672 402.817 199.390 389.437 C 212.292 359.243,219.161 319.089,221.918 257.746 C 223.844 214.904,223.988 214.069,224.835 240.845 C 225.325 256.338,224.335 282.634,222.635 299.280 M211.328 309.859 C 207.806 340.338,202.093 364.409,193.776 383.803 L 188.039 397.183 168.567 397.183 L 149.096 397.183 143.359 383.803 C 133.533 360.883,128.681 335.477,132.964 329.364 C 134.975 326.495,153.732 302.041,174.648 275.023 L 212.676 225.898 213.548 254.498 C 214.027 270.228,213.028 295.141,211.328 309.859 M95.070 427.250 C 73.349 428.138,67.606 429.235,67.606 432.496 C 67.606 435.999,77.522 436.620,133.440 436.620 C 175.299 436.620,214.025 438.271,239.778 441.154 C 297.786 447.648,354.930 444.404,354.930 434.618 C 354.930 431.197,352.301 430.849,340.141 432.660 C 319.985 435.663,259.314 434.731,235.211 431.049 C 212.894 427.640,136.304 425.563,95.070 427.250 " stroke="none" fill="#fff" fill-rule="evenodd"></path></g></svg>