<?xml version="1.0" standalone="no"?>
<!DOCTYPE svg PUBLIC "-//W3C//DTD SVG 20010904//EN"
 "http://www.w3.org/TR/2001/REC-SVG-20010904/DTD/svg10.dtd">
<svg version="1.0" xmlns="http://www.w3.org/2000/svg"
 width="56" height="48" viewBox="0 0 1219.000000 999.000000"
 preserveAspectRatio="xMidYMid meet">

<g transform="translate(0.000000,999.000000) scale(0.100000,-0.100000)"
fill="#ffffff" stroke="none">
<path d="M5832 9612 l-293 -127 3 -114 3 -113 125 -1 c69 0 105 -2 80 -4 -31
-3 -40 -7 -30 -14 10 -5 -11 -8 -60 -7 -72 1 -73 1 -25 8 l50 7 -50 1 c-58 2
-90 -12 -65 -28 19 -12 0 -13 -20 0 -11 7 -16 35 -18 115 -2 59 -8 103 -13 99
-5 -3 -9 0 -9 5 0 6 5 11 10 11 6 0 10 5 10 11 0 8 -4 8 -15 -1 -9 -7 -15 -36
-18 -78 l-3 -67 -2 74 c-2 65 -4 72 -19 66 -58 -21 -420 -180 -430 -188 -7 -5
-12 -12 -11 -15 2 -20 -3 -32 -12 -27 -6 4 -8 10 -5 15 3 5 -8 4 -25 -2 -18
-6 -34 -17 -37 -24 -3 -8 -9 -11 -15 -8 -5 3 -30 -2 -56 -12 -26 -9 -41 -19
-34 -22 6 -2 11 -13 11 -25 -1 -17 -2 -18 -6 -5 -10 38 -43 29 -301 -81 -142
-61 -272 -111 -288 -111 -22 0 -32 -7 -41 -27 -7 -15 -13 -33 -13 -41 0 -7 -5
-10 -10 -7 -6 4 -8 10 -5 15 3 4 -5 6 -17 3 -49 -11 -614 -258 -625 -272 -7
-9 -12 -23 -13 -31 0 -13 1 -13 10 0 8 12 10 9 10 -13 l0 -28 275 1 c267 1
275 2 275 21 0 19 -7 20 -255 17 -220 -2 -255 -4 -258 -18 -3 -10 -5 -9 -6 5
-1 17 -3 18 -11 5 -8 -13 -10 -12 -10 3 0 16 20 17 275 17 l275 0 0 -25 c0
-22 3 -24 19 -15 14 7 21 6 24 -3 3 -6 6 -2 6 11 1 12 -3 22 -9 22 -5 0 -7 7
-4 15 4 8 11 15 16 15 6 0 8 -7 4 -15 -4 -11 1 -15 17 -15 18 0 19 2 7 11 -10
7 -11 9 -2 7 8 -2 13 -8 12 -13 -1 -5 7 -12 17 -16 15 -6 15 -8 2 -8 -18 -1
-48 -31 -31 -31 6 0 14 5 17 10 4 6 11 7 17 4 6 -4 15 0 20 7 7 11 11 11 15 2
7 -18 43 -16 43 1 0 8 6 17 13 19 7 4 6 6 -5 6 -9 1 -19 -5 -21 -11 -4 -10 -8
-10 -15 1 -5 7 -14 11 -19 8 -5 -3 -15 -2 -23 4 -10 5 23 9 93 9 l108 0 187
81 c103 45 189 85 190 90 2 5 9 9 17 9 7 0 18 6 24 14 9 11 7 15 -11 21 l-23
8 24 4 c23 5 24 6 18 91 -2 48 -2 123 3 167 6 66 7 49 8 -102 2 -136 5 -183
14 -183 20 0 549 230 596 259 l42 26 -2 57 c-1 32 2 61 5 65 4 3 7 -24 7 -60
0 -37 3 -67 7 -67 4 0 67 26 140 57 129 56 167 82 101 69 -27 -4 -29 -4 -15 5
11 6 30 9 44 6 13 -2 41 4 61 15 20 10 28 17 17 14 -11 -3 -36 -2 -55 3 -27 6
-18 8 45 8 71 1 91 5 175 41 84 36 95 43 93 64 -2 21 -2 21 6 3 5 -11 7 -23 4
-27 -2 -4 3 -5 11 -2 14 5 16 33 16 186 0 139 -3 179 -12 176 -9 -3 -15 -46
-19 -144 l-5 -139 -1 152 c-1 144 -5 174 -21 172 -4 0 -139 -58 -300 -127z
m345 31 c-3 -10 -5 -2 -5 17 0 19 2 27 5 18 2 -10 2 -26 0 -35z m-660 -285
c-2 -13 -4 -5 -4 17 -1 22 1 32 4 23 2 -10 2 -28 0 -40z m-4 -100 c-4 -22 -3
-29 5 -24 17 10 15 -10 -3 -28 -9 -9 -14 -31 -13 -58 l1 -43 7 45 7 45 1 -47
c2 -37 -2 -48 -13 -48 -11 0 -15 11 -15 39 0 21 -2 54 -5 72 -4 26 -3 30 4 14
9 -18 10 -17 10 8 1 20 -3 26 -11 21 -7 -4 -4 2 7 14 26 27 26 27 18 -10z
m-409 -13 c3 -8 3 -15 0 -15 -3 0 -12 7 -20 15 -13 13 -13 15 -1 15 8 0 17 -7
21 -15z m354 1 c-7 -8 -14 -10 -16 -5 -5 12 -82 11 -82 -1 0 -15 -157 -13
-163 3 -3 10 -9 10 -26 0 -28 -17 -48 -16 -55 2 -5 13 19 15 175 15 154 0 178
-2 167 -14z m-378 -10 c0 -11 -19 -15 -25 -6 -3 5 1 10 9 10 9 0 16 -2 16 -4z
m758 -3 c-10 -2 -26 -2 -35 0 -10 3 -2 5 17 5 19 0 27 -2 18 -5z m-838 -12 c0
-5 -9 -11 -20 -14 -22 -6 -28 8 -7 16 19 8 27 8 27 -2z m663 -8 c-13 -2 -33
-2 -45 0 -13 2 -3 4 22 4 25 0 35 -2 23 -4z m70 0 c-7 -2 -19 -2 -25 0 -7 3
-2 5 12 5 14 0 19 -2 13 -5z m-896 -245 c-2 -13 -4 -3 -4 22 0 25 2 35 4 23 2
-13 2 -33 0 -45z m-647 -111 c12 -4 11 -6 -2 -6 -10 -1 -18 -6 -18 -12 0 -6 9
-8 20 -4 11 4 20 2 20 -4 0 -6 -10 -11 -22 -12 -22 -1 -23 -1 -2 -7 18 -6 21
-15 22 -69 0 -35 -3 -65 -8 -68 -5 -3 -8 22 -7 56 2 45 -2 63 -12 67 -12 4
-13 -7 -9 -59 3 -35 2 -75 -2 -89 -5 -15 -8 28 -9 105 0 72 3 125 7 119 4 -6
14 -14 22 -17z m670 9 c0 -2 -7 -7 -16 -10 -8 -3 -12 -2 -9 4 6 10 25 14 25 6z
m-13 -72 c-3 -3 -12 -4 -19 -1 -8 3 -5 6 6 6 11 1 17 -2 13 -5z m-660 -66 c-2
-13 -4 -3 -4 22 0 25 2 35 4 23 2 -13 2 -33 0 -45z m13 -93 c11 -13 10 -14 -4
-9 -9 3 -16 10 -16 15 0 13 6 11 20 -6z m-63 -57 c-3 -8 -6 -5 -6 6 -1 11 2
17 5 13 3 -3 4 -12 1 -19z"/>
<path d="M6200 9511 c0 -158 3 -201 14 -210 17 -14 155 -61 176 -60 8 1 4 5
-10 9 -17 5 -19 8 -7 9 9 1 27 -5 38 -11 17 -10 23 -10 26 0 4 9 46 11 176 10
l172 -2 -160 -3 c-88 -2 -163 -7 -167 -11 -5 -5 33 -8 84 -7 51 1 69 0 41 -2
-29 -2 -53 -8 -53 -13 0 -6 -9 -10 -21 -10 -11 0 -18 3 -16 8 3 4 -15 7 -39 8
l-44 1 32 -20 c37 -22 344 -157 359 -157 5 0 9 36 9 80 0 65 -3 80 -15 80 -14
0 -14 3 0 30 8 16 15 54 15 85 0 54 9 66 35 47 12 -8 13 -22 2 -39 -5 -8 -4
-13 2 -13 16 0 13 -25 -3 -39 -11 -10 -13 -4 -12 35 1 25 -2 48 -7 51 -4 3 -7
-19 -5 -49 2 -38 7 -53 18 -54 8 -1 20 -2 25 -3 6 -1 72 -2 148 -1 112 1 140
-2 153 -15 14 -13 13 -15 -5 -15 -12 0 -21 5 -21 10 0 16 -262 9 -268 -7 -2
-9 10 -14 40 -15 l43 -1 -40 -4 c-22 -3 -43 -7 -47 -11 -4 -4 -8 -45 -10 -91
-2 -83 -2 -83 27 -99 22 -11 385 -169 573 -249 9 -4 12 40 12 199 l0 205 -41
19 c-23 10 -58 18 -79 19 -21 0 -36 4 -33 9 3 4 -4 5 -15 2 -11 -4 -23 -2 -27
3 -3 7 0 8 9 5 9 -3 16 -2 16 4 0 5 -12 13 -27 17 -15 3 -30 11 -33 16 -8 13
-348 159 -370 159 -10 0 -22 5 -25 10 -3 6 -11 10 -18 10 -6 0 -1 -7 11 -16
22 -15 30 -44 12 -44 -5 0 -7 6 -4 14 3 7 -2 16 -12 20 -12 4 -15 2 -10 -9 3
-8 1 -15 -4 -15 -5 0 -10 15 -12 33 l-3 32 -295 127 c-162 70 -298 127 -302
127 -5 1 -8 -88 -8 -198z m1023 -262 c-8 -8 -16 -8 -30 0 -16 9 -14 10 12 11
21 0 26 -3 18 -11z m-466 -15 c-3 -3 -12 -4 -19 -1 -8 3 -5 6 6 6 11 1 17 -2
13 -5z m316 -1 c-7 -2 -19 -2 -25 0 -7 3 -2 5 12 5 14 0 19 -2 13 -5z m47 -3
c0 -5 -2 -10 -4 -10 -3 0 -8 5 -11 10 -3 6 -1 10 4 10 6 0 11 -4 11 -10z m125
0 c-11 -5 -27 -9 -35 -9 -9 0 -8 4 5 9 11 5 27 9 35 9 9 0 8 -4 -5 -9z m-542
-17 c-13 -2 -33 -2 -45 0 -13 2 -3 4 22 4 25 0 35 -2 23 -4z"/>
<path d="M6805 9240 c-3 -6 0 -17 8 -25 8 -7 12 -25 10 -38 -3 -16 1 -26 11
-30 15 -6 21 18 18 73 0 8 5 18 11 22 8 5 7 8 -4 8 -9 0 -20 -7 -23 -16 -3 -8
-11 -12 -17 -8 -8 4 -7 9 2 15 10 6 10 9 2 9 -6 0 -15 -5 -18 -10z"/>
<path d="M7480 8955 l-1 -195 23 0 c22 1 22 1 4 15 -11 8 -15 15 -9 15 15 0
34 -25 31 -41 -2 -7 44 -33 117 -65 180 -80 202 -85 343 -84 67 0 122 -4 122
-9 0 -5 -21 -7 -47 -6 -63 3 -80 -8 -23 -16 l45 -6 -54 -1 c-41 -2 -52 1 -48
11 4 10 -4 14 -24 14 l-29 0 23 -15 c12 -8 27 -21 32 -27 17 -20 136 -67 156
-62 10 3 20 0 22 -7 2 -6 4 3 4 21 0 17 -5 30 -11 29 -6 -2 -8 -1 -3 1 4 3 5
9 2 13 -3 5 3 8 12 7 14 -1 18 -10 18 -46 0 -44 2 -47 45 -68 40 -20 312 -138
490 -213 69 -28 92 -29 84 -2 -5 14 -3 13 10 -2 9 -11 19 -16 23 -13 4 4 1 13
-5 19 -7 7 -12 29 -12 50 0 21 -5 38 -11 38 -6 0 -9 38 -8 108 1 60 -1 114 -5
120 -4 7 -3 12 2 12 9 0 25 -37 23 -52 -2 -16 18 -7 22 10 3 9 5 -64 6 -164
l1 -181 168 -71 c92 -39 209 -90 260 -112 52 -22 109 -41 128 -42 21 -1 31 -5
27 -12 -3 -6 -3 -8 2 -4 4 4 15 2 24 -5 14 -10 14 -10 3 5 -8 10 -9 18 -3 22
6 4 8 13 4 21 -3 10 1 15 12 15 9 0 14 -4 10 -9 -3 -5 -1 -12 5 -16 7 -4 10
50 10 159 0 146 -2 166 -16 166 -13 0 -14 -3 -5 -14 8 -9 11 -57 8 -147 l-3
-134 -2 140 c-2 95 -5 135 -12 125 -7 -11 -10 -6 -10 22 0 45 22 32 -273 160
-175 75 -247 102 -294 107 -34 4 -59 3 -57 -1 3 -4 0 -8 -5 -8 -6 0 -11 7 -11
15 0 8 -7 15 -15 15 -9 0 -12 6 -8 18 5 14 3 15 -8 5 -7 -7 -22 -13 -34 -12
-18 0 -18 1 -2 8 11 4 -5 7 -37 7 -30 0 -50 -4 -43 -8 8 -5 4 -8 -10 -8 -13 0
-23 4 -23 9 0 6 -85 9 -215 8 -118 -1 -215 1 -215 5 0 4 129 9 287 10 l287 3
-287 123 c-158 68 -295 125 -305 127 -9 2 -25 6 -34 10 -17 7 -18 -3 -16 -129
1 -74 -2 -139 -6 -143 -4 -4 -7 -1 -6 7 1 8 2 76 1 150 l-1 135 -127 55 c-116
51 -129 59 -134 85 -5 24 -7 25 -8 8 0 -13 -6 -23 -12 -23 -6 0 -77 29 -158
63 -80 35 -160 67 -178 70 l-31 6 -2 -194z m40 165 c10 -6 11 -10 3 -10 -7 0
-13 -9 -13 -19 0 -11 -4 -23 -10 -26 -6 -4 -10 5 -10 19 0 14 6 26 13 26 8 0
7 4 -3 10 -8 5 -10 10 -5 10 6 0 17 -5 25 -10z m-1 -297 c1 -7 -3 -13 -9 -13
-5 0 -10 15 -9 33 0 27 2 29 9 12 5 -11 9 -26 9 -32z m648 5 c2 -18 0 -20 -7
-8 -12 18 -13 30 -2 30 4 0 9 -10 9 -22z m20 -100 c-2 -13 -4 -3 -4 22 0 25 2
35 4 23 2 -13 2 -33 0 -45z m-9 -105 c8 -23 7 -33 -1 -36 -8 -3 -13 9 -14 35
-1 45 0 45 15 1z m32 -59 c0 -2 -21 -4 -47 -4 -27 0 -43 4 -36 8 12 8 83 4 83
-4z m-96 -9 c4 -12 -5 -15 -57 -13 l-62 2 53 3 c28 2 52 8 52 14 0 14 7 11 14
-6z m613 9 c-3 -3 -12 -4 -19 -1 -8 3 -5 6 6 6 11 1 17 -2 13 -5z m50 -18 c4
-3 -126 -5 -288 -4 l-294 2 240 6 c267 6 333 5 342 -4z m-627 -46 c0 -5 -4
-10 -10 -10 -5 0 -10 5 -10 10 0 6 5 10 10 10 6 0 10 -4 10 -10z m1317 -452
c-2 -35 -3 -7 -3 62 0 69 1 97 3 63 2 -35 2 -91 0 -125z"/>
<path d="M6833 9123 c-7 -3 -13 -11 -13 -20 0 -12 2 -12 16 2 18 17 16 25 -3
18z"/>
<path d="M6825 9050 c3 -5 10 -10 16 -10 5 0 9 5 9 10 0 6 -7 10 -16 10 -8 0
-12 -4 -9 -10z"/>
<path d="M3480 8580 c13 -10 11 -11 -7 -7 -16 4 -23 0 -23 -10 0 -11 6 -14 22
-10 12 4 29 1 37 -6 12 -10 14 -9 8 6 -4 11 -3 16 3 12 6 -3 10 -1 10 4 0 6
-6 11 -14 11 -8 0 -23 3 -33 6 -15 5 -16 4 -3 -6z"/>
<path d="M4350 8580 c-8 -5 -10 -10 -5 -10 6 0 17 5 25 10 8 5 11 10 5 10 -5
0 -17 -5 -25 -10z"/>
<path d="M4177 8560 c-5 -19 -14 -19 -316 -17 l-311 2 -1 -30 c0 -16 0 -75 1
-130 1 -55 -1 -97 -4 -94 -3 3 -7 64 -8 135 -1 71 -4 119 -6 106 -2 -12 -7
-20 -12 -17 -10 6 -7 -233 4 -260 6 -16 6 -17 -3 -5 -9 13 -11 13 -11 -2 0
-10 6 -18 13 -18 8 0 7 -4 -3 -11 -12 -8 -12 -10 -1 -7 8 2 16 17 18 33 6 39
13 45 13 12 0 -16 6 -27 13 -27 26 0 588 247 614 270 20 17 23 24 12 30 -11 7
-10 13 5 29 16 18 17 21 4 21 -9 0 -18 -9 -21 -20z m3 -39 c0 -6 -4 -13 -10
-16 -5 -3 -10 1 -10 9 0 9 5 16 10 16 6 0 10 -4 10 -9z"/>
<path d="M8820 8570 c8 -5 20 -10 25 -10 6 0 3 5 -5 10 -8 5 -19 10 -25 10 -5
0 -3 -5 5 -10z"/>
<path d="M3415 8560 c-19 -8 -19 -9 3 -9 12 -1 22 4 22 9 0 6 -1 10 -2 9 -2 0
-12 -4 -23 -9z"/>
<path d="M3405 8541 c-69 -5 -100 -15 -225 -69 -203 -88 -263 -115 -277 -125
-10 -7 -13 -52 -13 -165 0 -85 -2 -153 -4 -151 -3 3 -6 70 -7 151 -2 127 -4
145 -17 140 -11 -4 -12 -7 -4 -10 15 -5 16 -42 1 -42 -7 0 -9 -52 -8 -155 1
-101 5 -155 12 -152 6 2 11 11 13 21 1 10 6 21 10 24 4 4 5 -5 2 -20 -11 -57
0 -55 283 67 151 65 286 124 302 132 l27 14 0 174 c0 96 -3 174 -7 173 -5 -1
-44 -4 -88 -7z m-538 -434 c-2 -23 -3 -1 -3 48 0 50 1 68 3 42 2 -26 2 -67 0
-90z"/>
<path d="M4215 8541 c-3 -2 -5 -10 -5 -18 0 -17 41 -17 65 1 17 12 16 14 -18
18 -21 2 -40 2 -42 -1z"/>
<path d="M8817 8472 c8 -5 13 -47 16 -127 l3 -120 2 128 c2 115 0 127 -15 127
-13 0 -14 -3 -6 -8z"/>
<path d="M2530 8192 l-295 -128 0 -74 0 -75 130 -6 c319 -16 350 -17 285 -9
l-65 7 70 -1 c39 -1 70 -5 70 -11 0 -6 -89 -10 -245 -10 -158 -1 -200 1 -120
4 l125 5 -130 6 -130 5 -3 27 c-2 15 -13 35 -25 44 l-22 16 23 -5 c33 -8 28
18 -8 33 -27 11 -39 8 -130 -30 -54 -24 -97 -47 -94 -51 2 -4 48 -5 102 -3 53
3 95 3 92 0 -4 -3 -34 -6 -69 -8 -89 -3 -87 -18 3 -18 l74 0 7 30 c6 25 9 29
21 19 8 -6 14 -24 14 -40 0 -15 5 -31 10 -34 6 -4 10 -53 10 -116 0 -67 4
-109 10 -109 6 0 36 11 68 24 88 36 437 188 440 191 2 2 -1 13 -8 24 -9 17 -8
21 5 21 9 0 14 -4 10 -9 -10 -18 16 -23 34 -7 10 9 24 16 32 16 8 0 16 11 17
25 1 13 2 28 3 32 5 31 -3 343 -8 343 -5 -1 -141 -58 -303 -128z m73 -259
c-24 -2 -62 -2 -85 0 -24 2 -5 4 42 4 47 0 66 -2 43 -4z m201 -6 c-9 -5 -32
-4 -52 1 -37 10 -36 10 15 8 33 -1 46 -4 37 -9z m-521 -4 c-7 -2 -21 -2 -30 0
-10 3 -4 5 12 5 17 0 24 -2 18 -5z"/>
<path d="M9508 8113 c-2 -132 0 -181 10 -191 17 -19 15 -32 -5 -26 -10 3 -4
-3 12 -15 37 -25 562 -252 591 -255 11 -2 26 -6 32 -10 8 -5 11 32 10 129 0
75 -5 138 -9 141 -31 19 12 29 49 11 15 -7 26 -7 30 -2 11 16 52 16 75 0 20
-14 17 -15 -45 -15 -37 0 -70 5 -73 10 -3 6 -9 10 -13 10 -10 0 -2 -293 7
-303 9 -9 581 -257 594 -257 4 0 8 78 9 173 l2 172 6 -155 c5 -146 6 -149 8
-47 1 78 5 107 15 107 8 0 7 4 -3 10 -13 9 -13 11 0 21 11 8 12 12 3 16 -17 6
-17 19 0 26 9 3 13 -24 15 -114 2 -80 0 -119 -7 -119 -6 0 -11 -10 -11 -23 0
-13 -3 -27 -7 -31 -4 -3 -8 -13 -9 -21 -3 -23 24 -5 29 18 2 13 5 6 6 -16 1
-31 7 -41 33 -57 18 -11 52 -22 75 -26 24 -3 43 -10 43 -15 0 -5 8 -9 18 -9
14 0 15 2 2 10 -10 6 61 10 209 10 218 0 223 0 218 -20 -3 -11 -1 -20 4 -20 6
0 8 49 7 117 l-3 117 -90 39 c-434 189 -504 217 -536 217 -17 0 -29 5 -29 13
0 14 -296 147 -327 147 -10 0 -25 4 -33 10 -9 6 -17 5 -22 -3 -5 -8 -8 -7 -8
5 0 20 -32 32 -62 23 -15 -4 -19 -3 -10 3 11 7 10 11 0 20 -18 15 -120 62
-134 62 -7 0 -14 -15 -16 -34 -2 -19 -1 -33 3 -30 4 2 10 0 14 -6 3 -5 -3 -10
-15 -10 -16 0 -20 5 -16 25 3 14 0 25 -5 25 -5 0 -9 -7 -9 -15 0 -8 -4 -15 -9
-15 -6 0 -9 18 -9 41 0 22 -4 44 -8 48 -5 5 -49 25 -99 46 -49 21 -113 48
-141 61 -40 18 -270 117 -351 151 -9 4 -13 -39 -15 -174z m212 -183 c-69 -3
-105 -7 -81 -8 58 -3 47 -12 -19 -17 -51 -4 -52 -3 -34 16 15 17 30 19 138 17
l121 -2 -125 -6z m400 0 c20 -6 21 -8 5 -8 -11 0 -33 4 -50 8 -27 7 -27 8 -5
8 14 0 36 -4 50 -8z m180 0 c0 -5 -7 -10 -16 -10 -8 0 -12 5 -9 10 3 6 10 10
16 10 5 0 9 -4 9 -10z m-740 -10 c0 -5 -2 -10 -4 -10 -3 0 -8 5 -11 10 -3 6
-1 10 4 10 6 0 11 -4 11 -10z m693 3 c-7 -2 -19 -2 -25 0 -7 3 -2 5 12 5 14 0
19 -2 13 -5z m-169 -13 c-5 -5 -63 -11 -129 -13 l-120 -3 132 -2 c95 -1 132 1
135 10 3 7 7 6 11 -5 6 -16 -15 -17 -283 -17 -160 0 -290 4 -290 8 0 5 48 7
108 6 66 -2 99 1 87 6 -19 8 -19 9 3 9 12 1 22 -3 22 -9 0 -5 12 -10 28 -10
21 0 24 2 12 10 -10 6 35 10 135 12 83 2 152 5 155 6 2 1 0 -2 -6 -8z m290
-15 c4 -11 -1 -15 -19 -15 -14 0 -25 5 -25 11 0 5 5 7 10 4 6 -3 10 -1 10 4 0
16 17 13 24 -4z m-240 -39 c-3 -8 -1 -17 5 -21 7 -4 10 -43 9 -103 -1 -89 -2
-92 -8 -37 l-6 60 -5 -50 c-4 -34 -6 -15 -7 58 -1 63 2 107 8 107 5 0 7 -6 4
-14z m693 -160 c-2 -5 -9 -12 -17 -14 -8 -3 -10 0 -5 8 6 10 4 12 -8 7 -10 -3
-17 -2 -17 3 0 5 11 9 25 8 14 -1 24 -7 22 -12z"/>
<path d="M10131 7814 c0 -11 3 -14 6 -6 3 7 2 16 -1 19 -3 4 -6 -2 -5 -13z"/>
<path d="M2195 8030 c3 -5 11 -10 16 -10 6 0 7 5 4 10 -3 6 -11 10 -16 10 -6
0 -7 -4 -4 -10z"/>
<path d="M10130 8008 c0 -18 18 -34 28 -24 3 4 -2 14 -11 23 -16 16 -17 16
-17 1z"/>
<path d="M2855 7940 c-3 -6 1 -7 9 -4 18 7 21 14 7 14 -6 0 -13 -4 -16 -10z"/>
<path d="M1893 7905 c-26 -12 -62 -25 -79 -28 -17 -3 -78 -27 -137 -53 l-107
-47 0 -203 c0 -112 2 -204 4 -204 2 0 71 29 153 64 81 35 215 92 297 127 102
43 150 69 154 81 3 13 10 17 23 13 18 -6 19 1 19 105 0 84 -4 115 -15 126 -8
8 -12 21 -9 29 4 8 1 15 -5 15 -6 0 -11 -7 -11 -15 0 -12 -17 -15 -96 -15 -76
0 -94 3 -86 13 19 22 -54 17 -105 -8z m74 9 c-3 -3 -12 -4 -19 -1 -8 3 -5 6 6
6 11 1 17 -2 13 -5z m-47 -30 c0 -2 -12 -4 -27 -4 -21 0 -24 3 -14 9 13 8 41
5 41 -5z m65 6 c4 -6 -7 -10 -25 -10 -18 0 -29 4 -25 10 3 6 15 10 25 10 10 0
22 -4 25 -10z m138 -7 c-24 -2 -62 -2 -85 0 -24 2 -5 4 42 4 47 0 66 -2 43 -4z
m67 -7 c0 -8 6 -17 13 -19 7 -4 6 -6 -4 -6 -9 -1 -19 8 -22 19 -3 11 -1 20 4
20 5 0 9 -6 9 -14z m13 -43 c-7 -2 -13 -22 -13 -43 0 -21 6 -41 13 -43 7 -3 5
-6 -5 -6 -15 -1 -18 8 -18 49 0 41 3 50 18 49 10 0 12 -3 5 -6z m-12 -150 c-9
-15 -10 -12 -10 17 0 29 1 32 10 18 7 -12 7 -24 0 -35z"/>
<path d="M1547 7740 c3 -11 0 -20 -6 -20 -8 0 -11 -45 -11 -147 0 -80 -2 -144
-5 -142 -2 3 -5 76 -6 162 0 86 -5 157 -10 157 -4 0 -34 -12 -66 -26 -32 -14
-164 -71 -293 -126 -129 -56 -238 -105 -241 -110 -4 -6 -6 -50 -5 -100 1 -58
-1 -81 -6 -67 -12 32 -15 34 -35 18 -15 -12 -16 -12 -10 4 4 10 8 33 8 50 1
21 3 25 6 12 9 -36 23 -41 23 -7 0 18 0 35 1 39 0 4 -5 9 -12 12 -7 2 -9 -1
-4 -9 5 -8 3 -11 -6 -8 -8 3 -13 11 -11 17 3 17 -19 13 -88 -15 -48 -19 -65
-22 -71 -13 -6 10 -13 9 -31 -3 -13 -9 -33 -17 -43 -20 -11 -2 -20 -8 -21 -13
0 -6 -4 -17 -8 -27 -4 -9 -6 -31 -4 -50 l3 -33 131 0 c84 0 130 -4 128 -10 -3
-6 -52 -9 -129 -7 -108 3 -125 1 -125 -12 0 -9 8 -16 18 -16 13 0 14 2 3 9 -8
5 30 8 95 8 l109 0 -95 -7 -95 -7 113 0 c95 0 112 3 112 16 0 9 7 3 16 -14 8
-16 18 -32 22 -35 4 -3 5 -133 2 -290 l-5 -285 -3 288 c-1 158 -6 287 -10 287
-5 0 -7 -105 -4 -234 3 -128 1 -255 -4 -282 -7 -36 -10 26 -14 231 -3 154 -2
282 3 283 4 2 7 9 7 15 0 9 -37 11 -137 7 l-138 -5 -3 -298 -2 -298 22 -9 c16
-6 18 -9 6 -9 -25 -1 -29 -67 -26 -376 l3 -270 123 -3 c75 -2 122 -7 122 -13
0 -6 -4 -7 -10 -4 -5 3 -10 1 -10 -4 0 -6 -5 -11 -11 -11 -5 0 -8 3 -6 8 3 4
-42 7 -99 7 -77 0 -104 -3 -104 -12 0 -7 5 -13 10 -13 6 0 10 5 10 10 0 6 5
10 11 10 5 0 7 -5 4 -10 -5 -8 29 -10 104 -9 103 1 111 3 111 21 0 10 3 17 8
15 4 -3 6 132 4 299 -2 167 1 304 6 304 4 0 8 -126 7 -280 0 -154 3 -280 7
-280 4 0 9 125 11 278 l3 277 1 -290 c1 -192 -2 -294 -9 -302 -6 -7 -7 -13 -2
-14 5 0 0 -4 -11 -9 -19 -8 -19 -9 2 -9 33 -1 39 -22 13 -43 -20 -16 -17 -22
10 -20 3 0 4 -72 2 -161 -4 -263 -8 -287 -10 -59 -2 201 -3 212 -21 212 -14 0
-18 5 -14 20 3 11 12 20 19 20 8 0 14 4 14 8 0 7 -263 5 -287 -3 -16 -5 -19
-600 -3 -610 10 -6 8 -40 -3 -51 -9 -9 -9 -565 -1 -616 l7 -37 121 -4 121 -3
-127 -2 -128 -2 0 -287 c0 -159 3 -305 6 -325 7 -40 20 -50 26 -20 3 15 13 16
93 11 l90 -5 -87 -2 c-118 -3 -116 -22 2 -22 55 0 90 4 90 10 0 6 11 3 25 -6
14 -9 25 -13 25 -9 0 9 -22 30 -40 38 -8 4 1 4 20 1 19 -3 31 -2 25 3 -6 5 -8
111 -5 298 4 206 7 276 14 242 9 -51 3 -573 -7 -583 -3 -3 -67 -5 -142 -5
l-135 2 2 -303 3 -303 125 -5 c69 -3 119 -7 113 -8 -7 -1 -13 -6 -13 -11 0 -6
9 -8 20 -6 13 2 20 -2 20 -11 0 -11 -24 -14 -135 -14 l-135 0 0 -305 0 -305
133 -2 132 -2 -127 -3 c-105 -3 -128 -6 -128 -18 0 -8 7 -15 15 -15 11 0 13
-8 9 -30 -5 -23 -2 -31 12 -36 11 -3 34 -12 52 -20 30 -13 32 -12 32 6 0 25
-4 25 64 -5 31 -14 63 -25 71 -25 21 0 28 19 13 38 -12 15 -11 16 4 3 16 -12
17 -10 14 32 -2 33 1 47 11 51 24 10 39 7 23 -4 -10 -7 77 -10 270 -9 157 0
292 -1 300 -3 8 -1 -120 -5 -285 -8 l-300 -5 0 -27 c0 -14 -3 -29 -6 -32 -9
-9 1 -54 15 -64 13 -11 551 -242 586 -252 l25 -7 -3 171 c-3 222 -5 231 -44
245 -39 14 -47 14 -28 0 12 -9 11 -9 -5 -4 -11 4 -33 11 -50 16 l-30 8 31 -2
c62 -6 22 19 -151 92 l-175 73 -2 222 -3 221 -94 0 c-66 0 -96 4 -99 13 -2 6
1 12 8 12 6 0 8 -4 5 -10 -3 -5 -1 -10 5 -10 18 0 6 24 -18 35 -24 11 -24 26
-1 33 12 3 12 2 0 -6 -9 -7 16 -10 79 -11 115 -2 133 -11 24 -12 -43 -1 -71
-3 -61 -6 9 -2 17 -9 17 -14 0 -5 30 -8 68 -7 l67 1 -65 7 -65 7 62 1 c62 2
62 2 68 35 3 17 4 158 3 312 l-3 280 -60 5 c-43 4 -55 8 -42 14 10 5 35 6 57
3 l39 -5 6 52 c3 28 5 173 3 321 l-3 270 -75 6 -75 5 65 3 c36 2 68 3 73 2 4
0 7 8 7 19 0 11 -3 19 -7 19 -5 -1 -51 0 -103 1 -64 1 -87 5 -70 10 24 8 24
11 -2 14 -10 1 -14 67 -16 288 -2 253 -1 287 13 282 8 -4 15 -10 15 -16 0 -5
3 -7 8 -5 4 3 7 -122 7 -276 l0 -282 83 -3 82 -3 -2 303 -3 303 -69 0 c-48 0
-70 4 -72 13 -1 7 0 8 3 2 2 -5 11 -10 19 -10 9 0 12 5 8 11 -4 8 0 9 15 4 11
-3 31 -3 44 1 19 7 15 10 -28 20 l-50 12 57 1 c46 1 57 -2 61 -16 13 -57 17
141 15 677 l-3 605 -86 5 c-70 4 -84 7 -73 17 9 9 15 9 19 2 10 -16 135 -9
135 8 0 7 -3 12 -7 12 -5 -1 -28 0 -53 1 l-45 3 55 6 55 6 5 270 5 269 65 27
c40 17 66 34 69 45 3 15 1 16 -12 6 -11 -9 -55 -12 -158 -10 l-144 3 -3 35
c-3 28 -1 33 9 23 10 -10 64 -13 202 -13 103 0 186 -4 183 -9 -5 -8 118 33
184 61 19 9 45 25 56 36 12 12 24 18 27 16 3 -3 6 82 7 190 0 117 -3 196 -9
196 -5 0 -7 -9 -4 -20z m3 -336 c0 -2 -7 -4 -15 -4 -8 0 -15 4 -15 10 0 5 7 7
15 4 8 -4 15 -8 15 -10z m-669 -93 c-8 -5 -10 -14 -6 -21 5 -9 4 -11 -3 -6
-18 11 -14 36 6 36 13 0 14 -2 3 -9z m-16 -690 c-3 -6 12 -10 35 -9 23 0 44
-2 47 -6 4 -3 -27 -5 -68 -5 -41 1 -65 3 -54 6 11 3 24 9 30 14 12 12 18 12
10 0z m-102 -18 c-24 -2 -62 -2 -85 0 -24 2 -5 4 42 4 47 0 66 -2 43 -4z m130
-20 c-7 -2 -19 -2 -25 0 -7 3 -2 5 12 5 14 0 19 -2 13 -5z m-85 -20 c-38 -2
-98 -2 -135 0 -38 2 -7 3 67 3 74 0 105 -1 68 -3z m242 -624 c0 -7 -11 -8 -29
-4 -17 3 -38 2 -48 -3 -21 -12 -75 -4 -67 9 8 13 144 11 144 -2z m0 -29 c0 -5
-21 -9 -47 -8 l-48 1 45 7 c25 4 46 8 48 8 1 1 2 -2 2 -8z m-103 -6 c-3 -3
-12 -4 -19 -1 -8 3 -5 6 6 6 11 1 17 -2 13 -5z m-70 -371 c-2 -101 0 -183 4
-183 5 0 9 -5 9 -11 0 -8 -5 -8 -15 1 -13 10 -15 50 -14 254 1 190 3 228 11
181 5 -33 7 -142 5 -242z m30 -215 c-3 -7 -5 -2 -5 12 0 14 2 19 5 13 2 -7 2
-19 0 -25z m-7 -23 c19 -14 29 -25 23 -25 -7 0 -14 -9 -16 -20 -4 -17 -5 -17
-4 2 2 26 -10 48 -24 48 -11 0 -12 -26 -1 -33 4 -2 1 -2 -5 -1 -7 2 -13 -4
-13 -14 0 -12 -9 -18 -33 -19 l-32 -2 29 16 c23 12 26 17 15 25 -11 8 -9 8 5
4 17 -6 18 -2 13 31 -4 21 -3 32 1 25 5 -6 23 -23 42 -37z m-80 -14 c0 -6 -42
-9 -96 -8 -94 2 -95 2 -91 -20 2 -13 0 -23 -4 -23 -5 0 -9 14 -9 30 l0 30 100
0 c55 0 100 -4 100 -9z m70 -41 c0 -5 -4 -10 -10 -10 -5 0 -10 5 -10 10 0 6 5
10 10 10 6 0 10 -4 10 -10z m-100 -616 c-84 -8 -180 -8 -180 -1 0 4 48 6 108
5 59 -1 91 -3 72 -4z m30 -24 c0 -5 -5 -10 -11 -10 -5 0 -7 5 -4 10 3 6 8 10
11 10 2 0 4 -4 4 -10z m56 -5 c20 -19 4 -20 -22 0 -12 9 -14 14 -6 15 7 0 20
-7 28 -15z m30 -16 c-3 -17 -6 -159 -6 -316 0 -156 -3 -282 -7 -280 -5 3 -6
142 -3 309 3 196 1 306 -5 310 -6 4 -2 8 9 8 15 0 17 -5 12 -31z m48 22 c4 -5
-3 -7 -14 -4 -23 6 -26 13 -6 13 8 0 17 -4 20 -9z m-74 -35 c0 -3 -4 -8 -10
-11 -5 -3 -10 -1 -10 4 0 6 5 11 10 11 6 0 10 -2 10 -4z m26 -638 c-6 -4 -8
-10 -4 -13 3 -3 13 1 22 10 20 20 126 37 126 21 0 -7 -17 -10 -43 -8 -30 3
-49 -1 -59 -12 -17 -16 -68 -30 -68 -17 0 4 6 19 13 34 10 22 13 23 18 9 4 -9
1 -20 -5 -24z m41 26 c-3 -3 -12 -4 -19 -1 -8 3 -5 6 6 6 11 1 17 -2 13 -5z
m-49 -71 c-10 -2 -26 -2 -35 0 -10 3 -2 5 17 5 19 0 27 -2 18 -5z m4 -23 c2
-5 1 -123 -2 -262 -4 -216 -7 -253 -20 -253 -8 0 -19 -4 -23 -10 -5 -6 -6 -2
-3 8 3 10 6 133 6 273 0 244 1 254 19 254 11 0 21 -4 23 -10z m8 -530 c0 -5
-5 -10 -11 -10 -5 0 -7 5 -4 10 3 6 8 10 11 10 2 0 4 -4 4 -10z m-2 -112 c-2
-6 -10 -14 -16 -16 -7 -2 -10 2 -6 12 7 18 28 22 22 4z m-30 -275 c-2 -133 -1
-243 3 -243 4 0 8 109 8 242 1 133 4 244 6 247 3 2 5 -99 5 -225 0 -126 3
-246 6 -266 5 -27 3 -38 -6 -38 -7 0 -10 7 -6 15 3 8 1 15 -4 15 -16 0 -21
-19 -10 -37 11 -17 30 -18 248 -15 130 1 233 0 230 -3 -3 -3 -113 -6 -244 -6
-173 0 -241 -3 -247 -12 -6 -8 -7 -7 -4 3 2 8 0 25 -4 38 -5 12 -5 22 -1 22 4
0 5 116 2 259 -4 217 -3 258 9 253 11 -4 13 -48 9 -249z m-193 -334 c4 -5 39
-9 78 -9 96 0 116 -6 109 -33 -5 -21 -5 -21 -13 1 -8 21 -15 22 -112 22 -76 0
-108 4 -116 13 -9 11 -5 14 19 15 16 0 32 -4 35 -9z m48 4 c-7 -2 -19 -2 -25
0 -7 3 -2 5 12 5 14 0 19 -2 13 -5z m64 1 c-3 -3 -12 -4 -19 -1 -8 3 -5 6 6 6
11 1 17 -2 13 -5z m50 0 c-3 -3 -12 -4 -19 -1 -8 3 -5 6 6 6 11 1 17 -2 13 -5z
m375 -1 c-50 -2 -134 -2 -185 0 -50 1 -9 3 93 3 102 0 143 -2 92 -3z m-357
-103 c3 -5 1 -10 -4 -10 -6 0 -11 5 -11 10 0 6 2 10 4 10 3 0 8 -4 11 -10z"/>
<path d="M875 3600 c0 -138 3 -250 8 -250 4 0 7 113 7 250 0 138 -3 250 -7
250 -5 0 -8 -113 -8 -250z"/>
<path d="M658 2603 c7 -3 16 -2 19 1 4 3 -2 6 -13 5 -11 0 -14 -3 -6 -6z"/>
<path d="M11450 7372 c0 -66 3 -82 15 -82 8 0 15 5 15 10 0 6 -5 10 -10 10 -6
0 -10 17 -8 40 3 55 15 50 20 -7 4 -39 1 -51 -15 -64 -12 -10 -18 -23 -14 -33
10 -24 -22 -28 -217 -24 -193 3 -201 -1 -91 -46 l60 -24 3 -46 3 -46 -35 0
c-20 0 -36 -4 -36 -10 0 -5 16 -10 35 -10 l35 0 0 -215 0 -215 101 0 c80 0
104 -3 117 -16 34 -35 23 -39 -89 -36 -60 2 -109 7 -109 13 0 5 5 9 10 9 6 0
10 5 10 10 0 6 -6 10 -14 10 -22 0 -26 -49 -26 -356 l0 -294 104 0 c83 0 105
-3 110 -15 6 -17 -9 -21 -19 -5 -5 8 -11 8 -20 0 -7 -6 -19 -8 -26 -6 -8 2
-38 7 -66 11 -47 5 -53 4 -52 -12 0 -11 3 -13 6 -5 2 6 12 12 21 12 15 0 15
-2 2 -10 -10 -7 11 -10 70 -12 l85 -2 -105 -5 -105 -6 0 -305 0 -305 23 3 c23
3 30 -12 10 -24 -7 -4 -8 -3 -4 4 5 8 2 10 -8 6 -14 -5 -14 -8 1 -22 12 -12
18 -13 21 -4 2 6 8 12 13 12 4 0 6 -7 3 -15 -4 -9 -19 -15 -35 -15 l-29 0 0
-300 0 -300 112 0 c61 0 109 -3 105 -6 -3 -4 -52 -6 -109 -6 -57 0 -95 -2 -85
-5 9 -2 17 -11 17 -19 0 -21 145 -20 166 1 9 8 21 15 27 15 7 0 4 -7 -7 -15
-16 -12 -4 -14 104 -14 68 0 125 -3 128 -6 3 -3 -38 -5 -91 -5 l-96 0 4 -40
c3 -22 0 -40 -5 -40 -6 0 -11 -86 -13 -207 -3 -190 -3 -187 -3 40 l1 247 -117
0 c-105 0 -118 2 -119 18 0 14 -2 14 -9 -3 -5 -11 -9 -305 -9 -652 l0 -633 22
0 c20 -1 21 -2 5 -14 -28 -21 -11 -26 76 -24 l81 1 -65 7 -65 7 68 1 c38 1 67
-2 67 -8 0 -5 7 -7 16 -3 31 12 -2 22 -81 26 l-80 3 93 2 92 2 0 303 c0 166
-3 312 -6 325 -4 12 -13 22 -21 22 -10 0 -14 -7 -10 -20 5 -19 0 -20 -84 -20
-87 0 -89 0 -89 24 0 24 2 24 68 23 85 -2 91 -21 8 -24 -43 -2 -55 1 -41 7 19
8 19 9 -2 9 -14 1 -23 -5 -23 -14 0 -12 15 -15 74 -15 69 0 75 1 71 20 -3 14
2 20 15 20 46 0 45 -7 42 305 -1 162 1 295 5 295 4 0 8 -129 8 -287 0 -249 2
-288 15 -288 8 0 19 -6 23 -12 4 -7 15 -13 22 -13 8 0 15 -4 15 -10 0 -11 -32
-1 -42 14 -5 7 -8 5 -8 -6 0 -9 6 -19 13 -21 9 -4 9 -6 -1 -6 -7 -1 -21 6 -30
15 -12 13 -17 14 -20 4 -3 -7 3 -17 12 -22 20 -12 41 -48 26 -48 -5 0 -10 7
-10 15 0 8 -4 15 -10 15 -6 0 -10 -110 -10 -311 0 -189 4 -308 9 -304 5 3 13
0 17 -6 5 -8 0 -10 -18 -6 -18 5 -25 3 -25 -8 0 -8 4 -15 9 -15 4 0 8 -137 8
-305 l0 -305 26 0 c20 0 24 -4 19 -19 -4 -13 0 -23 11 -29 15 -8 15 -10 0 -15
-9 -4 -16 -18 -16 -32 0 -16 -6 -25 -15 -25 -8 0 -15 -4 -15 -9 0 -12 33 -4
110 27 65 27 118 66 102 76 -4 3 -15 -4 -22 -15 -20 -27 -120 -28 -120 -1 0
14 2 15 10 2 9 -13 10 -13 10 0 0 12 2 13 9 1 7 -10 10 -10 13 -1 3 10 8 10
25 0 18 -12 23 -11 37 3 15 15 11 16 -56 20 l-73 3 88 2 87 2 0 2236 c0 1609
3 2241 11 2256 8 15 8 26 0 42 -6 11 -12 58 -13 104 l-3 83 -80 34 c-44 19
-89 35 -100 35 -12 0 -26 5 -33 12 -9 9 -12 -6 -12 -70z m40 37 c0 -4 -7 -6
-15 -3 -8 4 -15 10 -15 15 0 4 7 6 15 3 8 -4 15 -10 15 -15z m6 -167 c-4 -3
-14 2 -23 11 -10 9 -12 17 -6 17 6 0 14 -6 16 -12 3 -8 6 -4 7 7 2 18 3 18 7
2 3 -10 2 -21 -1 -25z m54 5 c22 -4 21 -5 -4 -4 -17 1 -31 9 -33 17 -3 10 -2
11 4 4 4 -7 19 -14 33 -17z m120 -2 l0 -25 -92 2 -93 2 88 3 c67 3 87 7 87 18
0 10 -18 15 -67 18 l-68 3 73 2 c71 2 72 2 72 -23z m-180 -295 c0 -215 -2
-259 -14 -263 -13 -5 -15 32 -14 251 0 148 4 240 8 217 l8 -40 -1 48 c-1 47
-10 61 -21 31 -3 -9 -6 -137 -6 -285 0 -208 3 -269 13 -270 10 0 10 -2 0 -6
-15 -5 -17 -23 -4 -23 15 0 25 42 11 50 -8 5 -7 9 4 13 11 4 16 1 17 -11 1 -9
2 -24 3 -32 1 -12 20 -16 86 -20 80 -5 85 -6 86 -27 1 -22 -2 -23 -67 -23 -38
0 -69 4 -69 9 0 5 27 7 60 5 49 -3 60 -1 60 12 0 13 -13 15 -74 13 -40 -1 -78
1 -84 5 -7 4 -15 -10 -21 -36 -10 -42 -10 -42 -6 -5 3 30 0 37 -13 37 -16 0
-17 25 -14 307 3 311 6 339 39 311 10 -8 13 -71 13 -268z m30 -381 c0 -5 -4
-8 -9 -4 -6 3 -14 -3 -20 -12 -9 -16 -10 -16 -11 -1 0 15 12 25 33 27 4 1 7
-4 7 -10z m-70 -329 c0 -165 -3 -300 -7 -300 -5 0 -7 135 -5 300 1 165 5 300
7 300 3 0 5 -135 5 -300z m40 264 c0 -8 -4 -12 -10 -9 -6 4 -11 -88 -13 -257
l-2 -263 -3 267 c-2 259 -1 269 26 277 1 1 2 -6 2 -15z m-3 -397 c-1 -67 -3
-9 -3 128 0 138 2 192 3 122 2 -71 2 -183 0 -250z m13 -157 c0 -11 -6 -20 -14
-20 -18 0 -29 16 -21 30 11 18 35 11 35 -10z m170 -27 c-1 -27 -1 -28 -13 -6
-9 17 -16 19 -29 12 -13 -7 -18 -7 -18 1 0 6 -3 9 -7 7 -5 -3 -28 -1 -53 3
-39 7 -35 8 38 9 l82 1 0 -27z m-125 -2 c-23 -4 -15 -7 35 -12 64 -6 64 -6
-19 -5 -59 1 -86 -3 -88 -11 -3 -7 0 -13 5 -13 7 0 10 -101 9 -287 l-1 -288
-6 265 -5 265 -3 -272 c-2 -235 -4 -273 -17 -273 -8 0 -15 -6 -15 -14 0 -16
27 -29 35 -16 3 5 -3 11 -12 13 -15 4 -15 5 -2 6 9 0 22 -5 28 -13 15 -18 4
-66 -15 -66 -8 0 -13 3 -13 8 3 16 -1 32 -8 32 -5 0 -7 -140 -5 -312 1 -172 0
-310 -2 -307 -3 3 -6 148 -6 323 -1 267 -3 318 -16 323 -17 6 -19 24 -1 21 9
-2 12 65 12 310 0 171 3 312 8 312 4 0 8 -138 9 -307 l2 -308 6 275 c3 151 8
280 13 287 4 6 3 14 -3 18 -33 20 12 54 70 53 35 -1 35 -1 5 -7z m-165 -639
c0 -5 -25 -10 -56 -11 -37 -1 -54 1 -49 8 7 13 105 15 105 3z m10 -27 c-7 -14
-17 -25 -22 -25 -5 0 -1 13 8 30 21 35 33 31 14 -5z m130 14 c0 -14 -17 -10
-23 5 -4 10 -1 13 9 9 7 -3 14 -9 14 -14z m150 11 c0 -5 -7 -7 -15 -4 -8 4
-15 1 -15 -5 0 -6 7 -11 15 -11 8 0 15 -8 15 -17 0 -15 -2 -16 -10 -3 -9 13
-11 13 -20 0 -7 -11 -10 -11 -10 -2 0 9 -10 11 -34 7 -19 -4 -36 -2 -40 3 -3
5 0 10 7 9 37 -1 67 4 67 12 0 4 -20 7 -45 5 -24 -2 -47 1 -50 6 -4 6 21 10
64 10 39 0 71 -4 71 -10z m-250 -40 c0 -5 -5 -10 -11 -10 -5 0 -7 5 -4 10 3 6
8 10 11 10 2 0 4 -4 4 -10z m120 6 c0 -11 -19 -15 -25 -6 -3 5 1 10 9 10 9 0
16 -2 16 -4z m-73 -418 c-1 -68 -3 -13 -3 122 0 135 2 190 3 123 2 -68 2 -178
0 -245z m23 107 c0 -220 -2 -255 -15 -255 -8 0 -15 5 -15 10 0 6 5 10 10 10 6
0 10 88 10 245 0 135 2 245 5 245 3 0 5 -115 5 -255z m-5 -285 c-17 -6 -16 -7
6 -14 13 -4 52 -7 87 -6 50 1 62 -2 62 -14 0 -9 5 -16 11 -16 6 0 9 7 5 15 -3
8 -1 15 4 15 6 0 10 -9 10 -20 0 -13 -7 -20 -20 -20 -11 0 -20 7 -20 15 0 23
-98 21 -117 -2 -14 -17 -14 -17 -9 -1 4 13 -2 20 -19 24 -14 3 -25 9 -25 13 0
14 23 30 33 24 6 -4 2 -9 -8 -13z m3 -51 c3 -12 2 -12 -6 0 -8 11 -10 11 -15
0 -4 -10 -6 -8 -6 4 -1 21 21 18 27 -4z m-123 -4 c6 -2 -16 -4 -47 -4 -32 -1
-58 3 -58 8 0 8 79 5 105 -4z m120 -554 c-5 -24 -9 -31 -17 -23 -8 8 -8 18 0
37 8 16 13 98 14 223 l3 197 3 -200 c1 -110 0 -215 -3 -234z m90 -91 c3 -5 -1
-10 -9 -10 -9 0 -16 5 -16 10 0 6 4 10 9 10 6 0 13 -4 16 -10z m87 -15 c5 -25
4 -25 -63 -25 -38 0 -69 4 -69 9 0 5 26 7 58 6 46 -2 59 1 59 12 0 11 -9 14
-29 11 -15 -3 -28 -1 -28 4 0 4 15 8 34 8 28 0 34 -4 38 -25z m-152 -25 c-8
-5 -17 -7 -19 -4 -3 3 1 9 9 14 8 5 17 7 19 4 3 -3 -1 -9 -9 -14z m-25 -50 c3
-5 -1 -10 -9 -10 -9 0 -16 5 -16 10 0 6 4 10 9 10 6 0 13 -4 16 -10z m4 -272
c-2 -139 0 -262 4 -273 6 -18 15 -20 94 -18 49 1 80 -1 71 -3 -10 -3 -18 -10
-18 -15 0 -5 -7 -9 -15 -9 -8 0 -15 5 -15 11 0 8 -18 10 -55 7 -47 -4 -57 -2
-74 18 -18 21 -20 39 -21 278 -1 231 1 256 16 256 15 0 16 -24 13 -252z m181
-330 c0 -5 -40 -8 -90 -8 l-90 0 0 -269 c0 -178 -4 -272 -10 -276 -8 -5 -7
-11 1 -21 6 -8 9 -18 5 -21 -22 -22 -27 38 -22 272 3 138 7 261 10 275 2 14 5
29 5 33 1 4 10 11 21 15 26 9 170 9 170 0z"/>
<path d="M11474 6910 c0 -113 2 -159 3 -102 2 56 2 148 0 205 -1 56 -3 10 -3
-103z"/>
<path d="M11470 5950 c0 -5 5 -10 10 -10 6 0 10 5 10 10 0 6 -4 10 -10 10 -5
0 -10 -4 -10 -10z"/>
<path d="M11477 5243 c-4 -3 -7 -11 -7 -17 0 -6 5 -5 12 2 6 6 9 14 7 17 -3 3
-9 2 -12 -2z"/>
<path d="M11474 3630 c0 -113 2 -159 3 -102 2 56 2 148 0 205 -1 56 -3 10 -3
-103z"/>
<path d="M11474 2910 c0 -113 2 -159 3 -102 2 56 2 148 0 205 -1 56 -3 10 -3
-103z"/>
<path d="M7865 7328 c2 -23 0 -23 -169 -28 -159 -5 -171 -6 -168 -24 2 -11 -1
-15 -7 -11 -7 3 -11 -2 -11 -14 0 -12 -7 -21 -15 -21 -11 0 -15 -12 -15 -50 0
-41 3 -50 18 -50 16 0 17 -17 17 -219 0 -121 -3 -214 -6 -209 -4 6 -8 3 -10
-8 -2 -10 -3 82 -1 204 2 155 0 222 -7 222 -8 0 -11 -74 -9 -247 3 -240 4
-248 23 -248 13 0 19 -7 19 -18 -1 -9 2 -17 7 -17 5 0 9 4 9 9 0 5 9 11 20 14
18 5 20 14 20 91 l0 86 144 0 c129 0 145 -2 149 -17 4 -16 5 -16 6 -1 1 11 19
23 57 34 101 32 154 114 154 239 0 110 -34 171 -120 213 -14 6 -32 16 -40 21
-8 5 -23 12 -32 15 -11 3 -18 15 -18 31 0 14 -4 25 -8 25 -5 0 -8 -10 -7 -22z
m-295 -66 c0 -5 57 -12 128 -16 70 -3 141 -8 157 -10 17 -2 20 -1 8 1 -13 2
-23 8 -23 13 0 5 -60 11 -132 13 -108 2 -100 3 47 3 100 1 162 -2 140 -6 -31
-6 -34 -8 -15 -10 14 -2 34 -2 45 -2 17 2 18 0 5 -8 -11 -8 -5 -10 27 -8 23 1
45 -1 49 -5 4 -4 -100 -6 -232 -5 -192 2 -217 3 -124 8 l115 6 -105 3 c-58 2
-108 3 -112 2 -5 0 -8 6 -8 14 0 8 7 15 15 15 8 0 15 -4 15 -8z m-42 -42 c-2
-29 -17 -43 -19 -17 -1 6 -5 1 -9 -13 -8 -24 -8 -24 -9 -2 -1 12 6 25 14 28 8
4 15 12 15 20 0 8 2 14 5 14 3 0 4 -13 3 -30z m-11 -72 c-3 -7 -5 -2 -5 12 0
14 2 19 5 13 2 -7 2 -19 0 -25z m335 -3 c10 -4 13 -31 13 -103 l0 -97 -144 0
-143 0 1 98 c0 53 0 99 1 102 0 7 254 6 272 0z m70 -32 c26 -24 25 -116 -2
-143 -35 -35 -41 -25 -39 70 2 93 7 104 41 73z"/>
<path d="M6389 7319 c-14 -21 -19 -21 -309 -23 -187 0 -296 -5 -297 -11 -2 -6
66 -11 188 -11 105 -1 193 -5 196 -8 4 -3 13 -6 22 -5 12 0 11 3 -4 10 -16 7
-13 8 10 3 17 -3 64 -5 105 -5 41 1 72 0 70 -3 -3 -3 -34 -6 -68 -7 -37 -1
-61 -6 -59 -12 4 -14 50 -17 59 -3 5 8 8 7 8 -1 0 -9 17 -13 49 -13 l49 0 7
46 c8 54 -5 75 -26 43z m8 -71 c-3 -8 -6 -5 -6 6 -1 11 2 17 5 13 3 -3 4 -12
1 -19z"/>
<path d="M7202 7320 c-11 -18 -25 -20 -174 -22 -140 -3 -163 -5 -161 -18 2
-10 -5 -16 -17 -17 -22 -2 -27 13 -7 20 14 6 3 7 -132 13 -129 7 -145 2 -106
-31 15 -14 22 -25 15 -25 -7 0 -11 -2 -8 -5 3 -3 29 0 57 7 32 7 55 8 59 2 12
-16 52 -15 52 2 0 9 -6 14 -13 11 -8 -3 -29 -2 -48 2 -30 7 -25 8 34 12 42 3
66 0 63 -6 -2 -5 -9 -9 -15 -7 -6 1 -11 -3 -11 -9 0 -7 10 -9 26 -5 16 4 23 3
20 -3 -4 -5 -2 -12 4 -16 5 -3 10 0 10 9 0 21 7 22 132 16 l113 -5 -115 -5
c-113 -6 -112 -6 50 -7 100 -1 157 2 145 7 -16 7 -17 9 -3 9 9 1 20 -3 23 -9
3 -5 12 -10 18 -10 7 0 6 4 -3 10 -13 9 -13 10 0 11 8 0 4 5 -10 9 l-25 8 28
1 c24 1 27 5 27 36 0 39 -9 44 -28 15z m-539 -61 c-8 -8 -16 -8 -30 0 -16 9
-14 10 12 11 21 0 26 -3 18 -11z m440 4 c-40 -2 -107 -2 -150 0 -43 1 -10 3
72 3 83 0 118 -2 78 -3z"/>
<path d="M1733 7303 c-22 -8 -14 -33 10 -34 12 -1 26 -1 31 0 13 3 36 -20 36
-35 0 -9 -11 -14 -30 -14 -16 0 -30 -3 -30 -6 0 -30 404 -473 418 -459 3 3 16
-5 29 -17 13 -12 23 -16 23 -10 0 7 -4 12 -10 12 -5 0 -10 5 -10 11 0 5 5 7
10 4 8 -5 10 30 9 106 -2 134 8 120 -178 253 -139 99 -151 106 -191 106 -19 0
-29 4 -25 11 14 21 -64 82 -92 72z m477 -334 c0 -5 -4 -9 -10 -9 -5 0 -11 -37
-13 -82 l-3 -83 -1 97 c0 78 2 95 13 91 8 -3 14 -9 14 -14z m-9 -202 c-6 -6
-14 -7 -18 -2 -5 4 -2 10 5 12 6 3 13 14 13 26 2 20 2 20 6 -2 3 -13 0 -28 -6
-34z"/>
<path d="M4423 7297 c-61 -17 -63 -27 -7 -29 42 -1 44 -2 14 -6 -29 -4 -32 -6
-15 -12 15 -7 10 -9 -20 -9 -31 0 -36 2 -20 9 18 8 18 9 -6 9 -14 1 -34 -5
-44 -13 -16 -12 4 -14 145 -15 91 -1 166 -4 169 -7 2 -2 -75 -4 -171 -4 -97 0
-189 -3 -206 -6 -29 -6 -30 -7 -41 -98 -8 -64 -9 -112 -2 -161 6 -38 11 -73
11 -77 0 -5 6 -8 13 -8 8 0 34 -13 58 -30 50 -34 101 -46 245 -59 56 -5 115
-16 132 -25 42 -22 51 -65 23 -112 -12 -19 -21 -36 -21 -37 0 -1 33 0 73 3
l73 5 -14 -27 -13 -28 -187 0 c-106 0 -181 4 -174 9 10 6 6 10 -15 14 -15 3
-37 9 -48 12 -16 6 -17 5 -5 -4 13 -9 13 -11 0 -11 -9 0 -21 5 -27 11 -13 13
-105 7 -110 -8 -3 -8 22 -11 87 -10 51 1 94 -1 97 -5 2 -5 -41 -8 -95 -8 -111
0 -122 -7 -96 -59 17 -33 52 -50 64 -31 6 10 17 9 51 -4 106 -43 307 -29 401
27 70 42 91 86 89 182 -1 50 2 66 9 55 8 -12 10 -9 10 12 0 14 -6 29 -12 31
-10 4 -9 8 2 16 10 7 11 11 3 11 -7 0 -13 11 -13 25 0 13 -14 40 -31 60 -39
44 -122 70 -267 84 -115 11 -161 30 -177 75 -12 35 8 73 54 100 25 14 52 19
107 19 63 0 82 -4 141 -34 53 -26 73 -43 90 -74 l22 -39 21 48 c11 27 25 69
32 95 6 25 15 49 20 52 5 3 -4 6 -20 7 -17 0 -48 10 -71 21 -45 24 -81 27 -99
9 -9 -9 -12 -9 -12 0 0 7 -29 12 -82 15 l-83 3 100 2 c106 2 115 12 27 31 -65
14 -124 13 -179 -2z m135 -54 c-15 -2 -42 -2 -60 0 -18 2 -6 4 27 4 33 0 48
-2 33 -4z m147 -3 c-16 -6 -12 -9 20 -12 33 -4 29 -5 -19 -6 -55 -2 -58 -1
-40 13 10 8 28 14 39 14 l20 0 -20 -9z"/>
<path d="M10535 7301 c-11 -5 -29 -19 -40 -32 -11 -13 -13 -18 -5 -11 8 6 26
12 42 12 22 0 26 -4 21 -17 -3 -12 0 -10 12 5 9 13 14 29 11 37 -6 17 -12 17
-41 6z"/>
<path d="M5005 7289 c-4 -6 2 -13 14 -16 12 -3 21 -9 21 -14 0 -5 7 -9 15 -9
8 0 15 -5 15 -11 0 -6 19 -9 48 -7 38 2 47 6 46 21 -1 9 3 17 10 16 29 -4 46
2 46 16 0 12 -18 15 -104 15 -64 0 -107 -4 -111 -11z m125 -28 c0 -5 -9 -7
-20 -4 -13 3 -20 0 -20 -8 0 -9 -3 -10 -8 -3 -4 6 -14 14 -22 17 -8 3 4 6 28
6 23 1 42 -3 42 -8z m17 -13 c-3 -8 -6 -5 -6 6 -1 11 2 17 5 13 3 -3 4 -12 1
-19z"/>
<path d="M7385 7290 c-6 -10 31 -29 50 -25 6 1 7 0 4 -2 -4 -2 -8 -150 -8
-329 l-2 -326 21 4 c21 3 21 5 20 303 0 224 -4 301 -13 307 -9 6 -8 15 5 37 9
16 14 32 10 35 -9 10 -80 7 -87 -4z"/>
<path d="M7483 7278 c-6 -7 -13 -20 -16 -29 -4 -13 -1 -16 13 -12 11 3 16 11
13 19 -3 8 0 14 6 14 6 0 11 5 11 10 0 14 -16 12 -27 -2z"/>
<path d="M900 7252 c0 -17 9 -19 113 -19 l112 0 -90 7 -90 7 95 -2 c52 -1 106
-5 120 -9 21 -5 22 -5 5 4 -15 7 -10 9 25 5 25 -3 52 0 60 5 9 6 -48 9 -159 9
-95 1 -177 3 -182 7 -5 3 -9 -3 -9 -14z"/>
<path d="M1740 7245 c7 -8 17 -15 22 -15 5 0 3 7 -6 15 -8 8 -18 15 -22 15 -3
0 -1 -7 6 -15z"/>
<path d="M5813 7242 c17 -19 17 -20 -3 -25 -20 -5 -20 -10 -18 -304 l3 -298
73 -3 72 -3 0 106 0 105 105 0 c68 0 105 4 105 11 0 6 9 8 23 4 l22 -6 -22 20
c-24 20 -30 41 -13 41 6 0 10 5 10 11 0 5 -4 7 -10 4 -5 -3 -10 -2 -10 3 0 6
7 12 15 16 11 4 15 -2 15 -25 0 -20 -4 -28 -12 -23 -7 4 -8 3 -4 -4 15 -25 26
-10 26 33 0 42 -2 45 -19 36 -14 -8 -20 -7 -25 4 -4 12 -26 15 -106 15 l-100
0 0 100 0 99 112 3 c104 3 113 5 115 23 l3 20 -10 -20 c-9 -19 -10 -19 -7 -1
3 31 25 30 30 -1 l4 -28 2 31 c1 35 17 55 37 47 10 -4 12 0 8 11 -7 17 -34 22
-34 6 0 -14 -53 -46 -57 -35 -2 6 -62 9 -155 7 -84 -2 -150 -1 -148 2 3 2 67
7 143 9 76 3 141 8 144 11 13 12 32 6 27 -9 -5 -11 -2 -13 10 -9 19 7 21 20 4
27 -7 2 -94 5 -193 6 -176 2 -179 2 -162 -17z m154 1 c-20 -2 -52 -2 -70 0
-17 2 0 4 38 4 39 0 53 -2 32 -4z"/>
<path d="M10496 7239 c-21 -11 -41 -18 -44 -15 -3 3 0 6 6 6 7 0 12 5 12 12 0
7 -6 5 -17 -4 -10 -9 -29 -19 -43 -23 -24 -8 -44 -21 -175 -118 l-65 -48 0
-124 c0 -113 -2 -124 -17 -118 -11 4 -12 8 -5 11 14 4 17 152 4 152 -5 0 -8
-24 -7 -52 l3 -53 -8 45 c-6 39 -7 35 -8 -37 l-2 -81 27 3 c19 2 58 34 133
111 154 158 307 355 248 318 -8 -5 -9 0 -6 14 4 12 5 22 4 22 -1 0 -19 -9 -40
-21z m24 -9 c0 -5 -5 -10 -11 -10 -5 0 -7 5 -4 10 3 6 8 10 11 10 2 0 4 -4 4
-10z"/>
<path d="M11020 7249 c0 -5 3 -9 8 -10 4 0 24 -2 44 -4 21 -2 40 0 43 6 4 5
43 8 88 7 l82 -2 -85 -6 c-82 -6 -80 -6 47 -8 97 -2 133 1 136 11 4 10 6 10 6
0 1 -18 18 -16 25 2 5 14 -18 16 -194 15 -115 -1 -200 -5 -200 -11z"/>
<path d="M1780 7240 c0 -5 5 -10 11 -10 5 0 7 5 4 10 -3 6 -8 10 -11 10 -2 0
-4 -4 -4 -10z"/>
<path d="M5046 7225 c-3 -9 -6 -151 -6 -316 l0 -300 73 3 72 3 0 300 0 300
-60 3 c-33 2 -62 8 -66 13 -4 6 -9 4 -13 -6z"/>
<path d="M6713 7223 l-103 -4 1 -322 c0 -189 4 -314 9 -302 8 19 9 18 9 -4 1
-23 1 -24 100 -19 l100 5 -6 -48 c-4 -36 -2 -52 11 -64 13 -14 16 -14 16 -2 0
9 -6 18 -12 20 -10 4 -10 6 0 6 6 1 12 9 12 19 0 14 -2 15 -10 2 -8 -12 -10
-9 -10 12 0 43 21 56 82 50 41 -3 50 -2 42 8 -8 8 -44 11 -118 8 -58 -1 -106
0 -106 4 0 4 -21 9 -47 11 -47 3 -47 3 10 5 l57 2 0 105 0 105 30 0 31 0 -3
68 c-3 65 -4 67 -31 70 l-28 3 3 97 3 97 28 3 c21 3 27 9 27 26 0 20 4 22 28
18 15 -3 21 -7 15 -9 -10 -4 -9 -8 1 -19 11 -11 49 -14 170 -14 143 0 158 -2
176 -20 11 -11 22 -20 25 -20 3 0 5 23 5 51 l0 51 -200 -4 c-110 -2 -200 0
-200 5 0 4 -3 6 -7 5 -5 -1 -54 -4 -110 -5z"/>
<path d="M6200 7190 l0 -30 85 0 c73 0 88 -3 102 -20 26 -31 33 -25 33 30 l0
50 -110 0 -110 0 0 -30z"/>
<path d="M10142 7018 c-7 -9 -6 -17 3 -25 10 -9 13 -6 13 13 0 28 -2 29 -16
12z"/>
<path d="M6232 6985 c-6 -14 -16 -25 -22 -25 -6 0 -10 -28 -10 -68 0 -55 4
-71 20 -85 11 -9 20 -24 20 -32 0 -8 5 -15 10 -15 6 0 10 48 10 125 0 69 -4
125 -8 125 -5 0 -14 -11 -20 -25z"/>
<path d="M7046 6985 c-6 -24 -10 -25 -89 -26 -79 -1 -172 -15 -119 -18 18 -1
22 -7 22 -32 0 -17 -7 -37 -15 -45 -13 -14 -15 -13 -15 4 0 11 6 23 13 25 8 4
7 6 -3 6 -12 1 -12 3 -2 10 11 7 11 9 -2 14 -13 5 -16 -1 -16 -33 0 -41 16
-62 31 -39 6 10 9 8 9 -8 0 -22 4 -23 79 -23 82 0 111 -12 111 -47 0 -8 6 -13
13 -11 13 5 23 183 12 225 -7 30 -21 29 -29 -2z"/>
<path d="M9960 6905 c-85 -58 -218 -145 -294 -193 -77 -47 -151 -96 -164 -109
-14 -13 -29 -23 -33 -23 -5 0 -9 -4 -9 -10 0 -5 6 -8 13 -6 6 1 9 1 5 -1 -5
-3 -9 -21 -9 -41 -1 -20 -3 -28 -6 -17 -14 70 -11 65 -41 52 -24 -10 -528
-294 -559 -314 -8 -6 -13 -53 -15 -151 l-3 -142 81 0 81 0 104 63 c160 98 322
206 347 233 13 13 27 24 32 24 6 0 10 5 10 11 0 8 -6 7 -17 -2 -16 -12 -16
-12 0 8 16 18 18 38 15 162 -2 78 -1 141 3 141 3 0 10 -5 17 -12 9 -9 12 -9
12 0 0 7 -6 12 -12 12 -9 0 -8 4 2 10 9 6 106 10 228 9 l214 0 52 41 c60 45
146 136 121 126 -14 -5 -16 6 -14 94 1 55 5 100 10 100 5 0 9 5 9 11 0 5 -4 8
-9 4 -5 -3 -11 2 -13 10 -2 12 -44 -12 -158 -90z m-483 -603 c-12 -12 -14 0
-14 85 l0 98 7 -90 6 -90 4 115 4 115 3 -109 c3 -84 0 -113 -10 -124z"/>
<path d="M2230 6836 l0 -135 33 -31 c17 -17 48 -40 68 -50 19 -10 41 -26 48
-34 17 -20 28 -20 28 -1 0 8 -3 12 -7 10 -3 -2 -12 0 -20 6 -10 5 62 9 193 9
114 0 207 3 207 8 0 4 -24 20 -53 36 -28 16 -149 94 -269 173 -119 78 -219
143 -222 143 -3 0 -6 -61 -6 -134z"/>
<path d="M4248 6693 c-13 -3 -18 -15 -18 -44 l0 -39 60 0 c64 0 76 10 35 28
-13 6 -27 23 -31 37 -6 25 -12 27 -46 18z"/>
<path d="M4842 6660 c0 -14 2 -19 5 -12 2 6 2 18 0 25 -3 6 -5 1 -5 -13z"/>
<path d="M5650 6625 c0 -8 5 -15 10 -15 6 0 10 7 10 15 0 8 -4 15 -10 15 -5 0
-10 -7 -10 -15z"/>
<path d="M6398 6618 c-5 -26 0 -48 11 -48 4 0 7 8 7 18 1 9 3 23 5 31 2 7 -1
15 -7 18 -6 2 -14 -7 -16 -19z"/>
<path d="M7216 6631 c-4 -5 -2 -12 3 -15 5 -4 12 -2 15 3 4 5 2 12 -3 15 -5 4
-12 2 -15 -3z"/>
<path d="M7497 6612 c-9 -2 -15 -8 -11 -13 3 -6 -5 -7 -20 -3 -19 4 -26 2 -26
-9 0 -10 10 -13 35 -11 19 1 34 -1 34 -4 -3 -20 3 -25 12 -12 9 13 10 13 6 0
-2 -8 -10 -14 -16 -12 -14 3 -15 -44 -1 -53 6 -3 10 -15 10 -26 0 -16 7 -19
50 -19 50 0 69 17 30 27 -18 5 -25 26 -21 61 1 8 -7 16 -18 19 -12 3 -21 9
-21 13 0 4 -10 10 -22 14 -19 5 -20 8 -8 15 18 12 11 19 -13 13z"/>
<path d="M2422 6588 c2 -6 10 -14 18 -16 7 -3 10 0 6 7 -4 6 -3 11 3 11 5 0
13 -5 16 -10 4 -6 69 -10 171 -9 104 1 162 5 158 11 -4 6 3 5 15 -1 11 -7 21
-8 21 -2 0 17 -28 20 -220 21 -145 0 -191 -3 -188 -12z m335 -4 c-3 -3 -12 -4
-19 -1 -8 3 -5 6 6 6 11 1 17 -2 13 -5z"/>
<path d="M4700 6588 c0 -4 -13 -5 -29 -2 -16 3 -37 2 -47 -4 -13 -7 -3 -9 37
-8 30 0 57 5 61 11 5 6 8 5 8 -2 0 -7 12 -13 26 -13 23 0 24 2 10 15 -14 15
-66 17 -66 3z"/>
<path d="M4770 6596 c0 -2 7 -6 15 -10 8 -3 15 -1 15 4 0 6 -7 10 -15 10 -8 0
-15 -2 -15 -4z"/>
<path d="M5050 6583 c0 -15 102 -12 107 4 3 9 -12 11 -51 10 -35 -1 -56 -6
-56 -14z"/>
<path d="M5171 6589 c-1 -14 17 -16 158 -12 111 2 162 0 167 -8 4 -8 9 -7 15
2 7 11 9 11 9 -1 0 -13 -32 -15 -240 -12 l-240 3 0 -34 c0 -25 -6 -39 -22 -50
-13 -8 -19 -18 -15 -23 4 -4 111 -9 238 -10 184 -1 233 1 244 12 9 9 16 10 20
4 7 -12 25 -4 25 11 0 5 -10 14 -22 20 -21 9 -21 9 -2 6 16 -4 21 0 19 17 0
11 1 26 4 31 3 6 8 -14 11 -44 l5 -55 45 -2 c26 -1 49 -9 56 -18 20 -28 24
-18 24 59 l0 75 -57 1 c-32 1 -64 1 -70 0 -7 -1 -13 3 -13 8 0 5 17 12 38 14
20 2 -59 4 -176 3 -133 -1 -214 3 -216 9 -3 6 -5 3 -5 -6z m346 -75 c-3 -3
-12 -4 -19 -1 -8 3 -5 6 6 6 11 1 17 -2 13 -5z"/>
<path d="M5628 6593 c-25 -6 -22 -20 4 -19 12 0 23 7 26 14 4 12 0 13 -30 5z"/>
<path d="M5800 6586 c0 -19 46 -22 53 -3 4 9 6 9 6 0 1 -9 35 -11 136 -7 86 3
135 1 135 -6 0 -6 -65 -11 -167 -12 l-168 -3 -3 -35 c-2 -19 -8 -40 -14 -47
-5 -7 -7 -16 -5 -20 3 -5 88 -8 189 -8 l183 0 5 53 c3 30 2 56 -2 58 -4 3 -8
11 -8 17 0 7 6 3 12 -8 6 -11 11 -42 10 -70 -1 -38 1 -44 7 -25 l8 25 5 -25
c3 -16 6 -4 8 30 l3 55 6 -55 6 -55 80 -1 c112 -2 115 -2 115 -20 0 -9 6 -14
13 -11 8 2 12 26 12 73 l0 69 -127 5 c-69 3 -130 9 -135 14 -4 5 6 7 25 4 17
-2 32 -1 32 4 0 5 -64 9 -142 9 -79 1 -173 3 -210 6 -58 4 -68 2 -68 -11z"/>
<path d="M7200 6590 c-8 -5 -13 -10 -10 -11 3 0 13 -2 23 -4 9 -2 17 3 17 11
0 16 -9 18 -30 4z"/>
<path d="M7550 6590 c0 -5 5 -10 10 -10 6 0 10 5 10 10 0 6 -4 10 -10 10 -5 0
-10 -4 -10 -10z"/>
<path d="M9547 6593 c-18 -18 4 -21 137 -22 120 -1 145 1 150 14 5 13 -12 15
-123 15 -94 0 -131 -3 -134 -12 -4 -10 -7 -10 -14 0 -5 7 -12 9 -16 5z m196
-10 c-13 -2 -33 -2 -45 0 -13 2 -3 4 22 4 25 0 35 -2 23 -4z"/>
<path d="M9846 6585 c-3 -9 0 -15 9 -15 8 0 15 5 15 10 0 6 5 10 11 10 5 0 7
-4 4 -10 -3 -5 -2 -10 3 -10 6 0 12 7 16 15 4 11 -2 15 -23 15 -16 0 -31 -7
-35 -15z"/>
<path d="M11260 6585 c0 -12 13 -15 60 -15 47 0 60 3 60 15 0 12 -13 15 -60
15 -47 0 -60 -3 -60 -15z"/>
<path d="M11390 6585 c0 -10 9 -15 28 -14 16 1 20 3 10 6 -10 2 -18 9 -18 14
0 5 -4 9 -10 9 -5 0 -10 -7 -10 -15z"/>
<path d="M6230 6581 c0 -5 29 -9 65 -8 84 3 85 17 0 17 -36 0 -65 -4 -65 -9z"/>
<path d="M6370 6580 c0 -5 5 -10 10 -10 6 0 10 5 10 10 0 6 -4 10 -10 10 -5 0
-10 -4 -10 -10z"/>
<path d="M6970 6583 c0 -5 47 -8 104 -8 57 0 102 3 99 8 -2 4 -49 7 -104 7
-54 0 -99 -3 -99 -7z"/>
<path d="M2626 6560 l-220 -5 50 -41 c78 -64 362 -264 376 -264 6 0 20 -7 30
-17 10 -9 18 -11 18 -5 0 6 -6 13 -12 15 -10 4 -10 6 -1 6 14 1 6 31 -9 31 -5
0 -6 -4 -3 -10 3 -5 1 -10 -4 -10 -7 0 -11 52 -11 152 0 83 3 149 6 145 3 -3
5 -64 5 -136 -2 -124 1 -137 27 -128 4 1 9 -18 12 -43 l5 -45 145 -96 c131
-87 289 -179 308 -179 4 0 0 5 -8 10 -10 7 9 10 64 10 73 0 78 -1 73 -20 -6
-22 8 -28 16 -7 3 7 6 5 6 -5 1 -13 -7 -18 -24 -18 -22 0 -24 3 -16 18 10 18
4 19 -61 14 -31 -3 -19 -22 15 -23 l32 -1 -30 -7 -30 -7 43 -27 c24 -15 54
-32 68 -37 32 -13 57 -12 27 0 -33 14 -30 53 5 68 21 9 22 11 5 8 -18 -3 -23
1 -23 17 0 16 3 18 9 8 7 -11 9 -11 13 0 10 29 27 -27 18 -57 -5 -17 -9 -22
-9 -11 -1 21 -22 18 -29 -3 -3 -8 0 -10 8 -5 9 5 11 4 6 -3 -4 -7 -1 -12 8
-12 9 0 17 -4 17 -10 1 -5 2 -15 3 -22 0 -7 19 -24 41 -39 58 -39 544 -300
566 -304 11 -2 24 -7 29 -10 6 -3 10 -2 10 4 0 5 -9 13 -20 16 -11 3 -20 11
-20 17 0 6 3 9 6 5 4 -3 12 0 20 7 9 10 14 50 17 132 l3 119 2 -149 c3 -191
13 -222 71 -218 8 0 59 -22 113 -49 54 -27 106 -49 117 -49 10 0 24 -6 30 -14
7 -8 26 -18 42 -21 17 -4 32 -12 35 -19 8 -20 206 -113 211 -99 2 7 11 9 19 6
13 -5 13 -7 2 -14 -10 -7 -9 -9 5 -9 23 0 22 19 -5 41 -11 11 -16 19 -10 19 7
0 12 7 12 15 0 9 -6 12 -17 9 -15 -5 -15 -4 -3 5 26 18 1 25 -88 24 -86 -1
-87 -1 -47 13 22 7 52 14 67 14 35 0 98 -30 98 -47 0 -7 5 -13 10 -13 6 0 10
-7 10 -15 0 -8 -5 -15 -11 -15 -5 0 -7 5 -3 12 5 7 3 8 -6 3 -10 -6 -9 -11 5
-21 12 -9 16 -21 13 -38 -3 -14 0 -29 6 -34 26 -19 594 -290 619 -296 25 -6
27 -4 27 23 0 23 -4 29 -15 25 -17 -7 -20 -24 -5 -24 6 0 10 -4 10 -10 0 -5
-7 -7 -15 -4 -11 5 -15 22 -15 68 0 49 3 63 15 63 8 0 15 -9 15 -19 0 -11 -4
-16 -10 -13 -6 4 -10 -7 -10 -25 0 -21 4 -30 13 -28 9 3 13 44 15 147 2 96 -1
140 -8 136 -6 -4 -10 6 -10 24 0 16 -5 32 -10 34 -6 3 -5 4 2 3 7 -1 15 -13
19 -27 l6 -24 5 25 c3 14 6 -70 7 -187 l1 -211 68 -32 67 -32 -67 -30 c-37
-17 -69 -35 -71 -42 -3 -8 73 -11 292 -11 l296 1 -282 -3 c-188 -2 -283 -7
-283 -14 0 -5 -6 -7 -12 -3 -9 5 -9 2 1 -9 12 -15 42 -17 281 -17 247 0 269 1
273 18 4 16 5 16 6 0 1 -22 21 -24 21 -2 0 9 7 14 18 12 9 -2 17 -10 17 -18 0
-13 -45 -15 -318 -18 -184 -2 -316 1 -313 6 3 5 -2 18 -10 28 -10 12 -17 15
-20 8 -3 -7 -13 -10 -22 -7 -9 2 -26 -3 -37 -12 -19 -14 -19 -15 7 -5 22 7 29
6 37 -8 5 -9 13 -14 16 -10 4 4 14 1 21 -7 11 -10 14 -51 14 -174 0 -89 2
-161 4 -161 2 0 86 36 187 81 101 45 231 101 289 126 125 54 130 57 130 95 0
25 2 27 13 16 8 -7 17 -20 20 -28 9 -18 1 68 -8 95 -6 16 -5 17 4 5 5 -8 11
-12 13 -10 2 3 1 77 -2 165 -4 88 -7 150 -8 139 -3 -28 -32 -55 -32 -30 0 10
5 14 10 11 6 -3 10 2 10 11 0 10 -3 14 -7 11 -3 -4 -13 -1 -22 6 -9 7 -54 31
-101 52 -47 21 -177 80 -289 132 -112 51 -210 93 -217 93 -8 0 -31 9 -53 21
-24 12 -48 18 -60 14 -12 -3 -29 -1 -38 5 -15 8 -12 9 12 4 28 -6 29 -5 10 9
-11 8 -30 17 -42 21 -13 4 -23 11 -23 15 0 5 -57 34 -127 66 -71 32 -173 80
-227 107 -55 26 -100 47 -102 46 -1 -2 -4 -51 -6 -109 -2 -76 1 -110 10 -118
21 -20 14 -32 -15 -25 -37 10 -48 23 -50 64 l-3 35 17 -34 17 -34 8 29 c5 16
8 59 7 96 -2 54 -5 67 -20 71 -9 3 -19 15 -21 28 -2 20 -43 44 -270 156 -248
122 -268 134 -268 158 0 18 -7 28 -26 35 -33 13 -34 13 -34 -4 0 -22 -17 -28
-41 -15 -12 6 -19 7 -16 2 2 -4 1 -17 -4 -28 -6 -16 -8 -12 -8 16 -1 34 -5 38
-43 53 -35 14 -80 17 -295 16 -233 0 -253 1 -253 17 0 13 3 14 12 5 8 -8 55
-12 153 -11 123 2 131 3 70 9 -38 5 -112 9 -162 11 -67 3 -93 7 -93 16 0 15
-2 16 -32 4 l-23 -9 0 136 0 135 -100 55 c-55 31 -189 106 -299 169 -109 62
-204 113 -212 113 -7 0 -16 5 -19 10 -3 6 -9 9 -13 8 -4 -1 -106 -5 -226 -8z
m262 -97 c-1 -69 -2 -73 -8 -33 l-7 45 -3 -45 -3 -45 -4 39 c-3 21 0 43 6 49
6 6 11 24 11 39 0 15 2 28 5 28 3 0 4 -35 3 -77z m1317 -643 c4 -6 -2 -23 -12
-38 -14 -21 -19 -54 -23 -152 l-6 -125 -2 135 c-2 125 0 137 18 150 14 10 17
17 8 27 -7 9 -7 13 0 13 6 0 14 -5 17 -10z m-18 -237 c-2 -32 -3 -6 -3 57 0
63 1 89 3 58 2 -32 2 -84 0 -115z m660 -133 c-1 -11 -5 -20 -9 -20 -10 0 -10
4 -2 24 8 22 13 20 11 -4z m13 -110 c0 -5 -4 -10 -10 -10 -5 0 -10 5 -10 10 0
6 5 10 10 10 6 0 10 -4 10 -10z m-279 -62 c0 -10 2 -10 6 0 2 6 11 12 19 12 7
0 11 -6 8 -14 -4 -11 2 -14 25 -11 35 5 38 0 16 -21 -13 -14 -17 -14 -30 -1
-8 9 -28 18 -45 22 -16 4 -30 11 -30 16 0 14 30 11 31 -3z m234 -5 c16 -12 16
-14 3 -10 -10 4 -55 9 -100 13 -46 3 -85 8 -87 10 -2 2 34 4 80 4 62 -1 89 -5
104 -17z m380 9 c-2 -3 -60 -7 -127 -9 -82 -2 -125 -7 -131 -16 -6 -8 -7 -6
-3 7 5 15 2 17 -14 13 -11 -3 -20 -1 -20 4 0 6 62 9 150 8 83 -1 148 -4 145
-7z m123 -1 c6 -3 -16 -6 -49 -7 -32 0 -59 3 -59 7 0 10 93 10 108 0z m-401
-43 c-3 -8 -6 -5 -6 6 -1 11 2 17 5 13 3 -3 4 -12 1 -19z m426 15 c-13 -2 -33
-2 -45 0 -13 2 -3 4 22 4 25 0 35 -2 23 -4z m-459 -11 c2 -4 1 -14 -3 -21 -6
-9 -10 -7 -14 8 -5 20 7 29 17 13z m613 -244 c-2 -29 -3 -6 -3 52 0 58 1 81 3
53 2 -29 2 -77 0 -105z m20 -130 c-3 -8 -6 -5 -6 6 -1 11 2 17 5 13 3 -3 4
-12 1 -19z m640 -140 c-2 -13 -4 -3 -4 22 0 25 2 35 4 23 2 -13 2 -33 0 -45z
m9 -43 c-4 -24 -16 -30 -16 -7 0 12 4 22 9 22 5 0 8 -7 7 -15z m-566 -91 c0
-2 -7 -4 -15 -4 -8 0 -15 4 -15 10 0 5 7 7 15 4 8 -4 15 -8 15 -10z m393 -1
c-56 -2 -151 -2 -210 0 -59 1 -13 3 102 3 116 0 164 -2 108 -3z"/>
<path d="M6708 6563 l-98 -4 0 -27 c0 -15 -7 -38 -16 -50 -8 -12 -13 -25 -11
-30 5 -6 72 -7 207 -3 30 1 40 4 31 10 -10 6 -12 23 -9 60 3 28 2 50 -1 49 -3
-1 -50 -4 -103 -5z"/>
<path d="M6856 6558 c-6 -4 -6 -8 -1 -8 6 0 3 -5 -5 -10 -10 -6 -11 -10 -2
-10 7 0 12 -15 12 -40 0 -25 5 -40 13 -41 6 0 83 -1 169 -2 144 -2 158 -4 172
-22 13 -18 15 -18 21 -4 3 9 5 43 3 75 l-3 59 -184 5 c-100 3 -188 2 -195 -2z"/>
<path d="M7437 6553 c-4 -3 -7 -19 -7 -35 0 -21 -7 -32 -25 -40 -38 -17 -30
-28 20 -28 l45 0 2 53 2 52 3 -47 c3 -28 10 -48 19 -52 7 -3 14 -1 14 4 0 6
-4 10 -10 10 -5 0 -10 20 -10 45 0 40 -2 45 -23 45 -13 0 -27 -3 -30 -7z"/>
<path d="M9510 6420 c0 -77 3 -140 7 -140 9 0 290 203 338 245 l40 34 -192 1
-193 0 0 -140z"/>
<path d="M8812 6180 c1 -16 6 -30 10 -30 4 0 8 -11 8 -25 0 -14 -4 -25 -9 -25
-5 0 -6 -29 -4 -64 5 -59 -6 -92 -22 -66 -3 5 -3 10 2 10 7 0 7 56 3 208 0 6
-4 12 -9 12 -13 0 -472 -243 -467 -247 2 -3 108 -4 235 -3 127 0 231 -3 231
-7 0 -17 -286 -24 -359 -9 -36 7 -42 6 -35 -5 6 -11 5 -11 -9 0 -14 11 -23 12
-43 2 -32 -14 -54 -15 -34 0 11 8 9 9 -10 4 -14 -4 -29 -12 -35 -18 -7 -7 -4
-8 8 -4 11 4 16 3 12 -3 -3 -6 -20 -10 -37 -10 -35 0 -88 -28 -88 -47 0 -7 -5
-13 -11 -13 -5 0 -8 -3 -6 -7 3 -5 1 -17 -4 -28 -7 -18 -8 -17 -8 5 -1 15 4
31 11 38 23 23 -27 5 -130 -47 -56 -28 -111 -51 -122 -51 -11 0 -20 -5 -20
-10 0 -6 -73 -46 -162 -90 -173 -84 -171 -83 -205 -124 -21 -23 -23 -37 -23
-129 0 -56 5 -109 10 -117 6 -10 10 -11 10 -2 0 6 8 12 18 12 16 -1 16 -1 0
-11 -10 -5 -18 -19 -18 -29 0 -10 -4 -22 -10 -25 -12 -7 -14 -85 -2 -85 16 0
22 13 11 26 -8 10 -6 13 10 11 11 0 19 -4 18 -7 -1 -3 1 -7 4 -10 9 -7 149 62
149 73 0 4 -9 6 -20 2 -12 -4 -29 1 -42 11 -22 16 -16 15 27 -2 11 -4 13 -2 9
9 -3 9 -22 17 -45 19 -36 3 -39 1 -40 -22 -2 -23 -2 -23 -6 -2 -2 12 -9 22
-14 22 -5 0 -9 4 -9 10 0 5 54 9 130 9 117 -1 132 1 156 20 15 12 35 21 45 21
33 0 259 123 259 140 0 9 11 23 25 30 18 10 22 16 13 22 -8 4 -8 8 -2 8 20 0
24 -13 8 -31 -15 -16 -14 -17 6 -12 59 15 606 321 615 343 4 8 8 33 11 55 3
30 2 35 -5 20 -11 -24 -13 0 -3 27 6 15 10 12 21 -14 11 -24 11 -33 3 -36 -19
-6 -3 -22 21 -22 34 0 71 29 57 45 -8 10 -7 16 6 23 13 7 6 9 -27 9 -24 0 -34
-2 -21 -4 25 -5 31 -23 7 -23 -8 0 -15 -9 -15 -20 0 -11 -4 -20 -10 -20 -6 0
-6 9 0 25 5 14 6 25 1 25 -5 0 -6 56 -4 125 4 88 2 129 -6 139 -9 11 -9 15 1
19 8 4 6 6 -5 6 -13 1 -17 -6 -15 -29z m-435 -261 c7 -7 74 -10 207 -7 108 1
196 0 196 -4 0 -5 -107 -8 -237 -8 -137 0 -232 4 -224 9 7 5 23 6 35 4 17 -4
18 -3 6 6 -8 6 -10 11 -4 11 5 0 15 -5 21 -11z m-199 -84 c-6 -14 -13 -23 -15
-21 -5 5 15 46 22 46 3 0 -1 -11 -7 -25z m9 -192 c-2 -32 -3 -8 -3 52 0 61 1
87 3 58 2 -29 2 -78 0 -110z m-45 -30 c2 -62 0 -113 -4 -113 -5 0 -7 62 -7
138 2 154 7 143 11 -25z m48 -63 c0 -5 -2 -10 -4 -10 -3 0 -8 5 -11 10 -3 6
-1 10 4 10 6 0 11 -4 11 -10z m-669 -37 c-8 -15 -10 -15 -11 -2 0 17 10 32 18
25 2 -3 -1 -13 -7 -23z m-11 -83 c-9 -5 -11 -22 -8 -54 3 -25 2 -46 -2 -46 -4
0 -8 39 -9 88 l-1 87 17 -33 c13 -27 14 -35 3 -42z m10 -120 c0 -5 -4 -10 -9
-10 -6 0 -13 5 -16 10 -3 6 1 10 9 10 9 0 16 -4 16 -10z m29 -69 c0 -10 -2
-11 -6 -3 -2 6 -9 12 -14 12 -6 0 -7 -4 -4 -10 3 -5 1 -10 -4 -10 -12 0 -15
23 -5 33 11 10 34 -5 33 -22z m38 -3 c-3 -8 -6 -5 -6 6 -1 11 2 17 5 13 3 -3
4 -12 1 -19z m-70 -33 c0 -8 -4 -15 -9 -15 -4 0 -8 7 -8 15 0 8 4 15 8 15 5 0
9 -7 9 -15z"/>
<path d="M3515 6182 c-9 -9 -5 -201 4 -206 5 -3 12 1 15 10 10 26 7 162 -4
169 -16 10 -12 25 5 19 11 -5 15 -30 17 -112 l3 -107 204 -3 c160 -2 208 -6
224 -17 l21 -15 -22 0 c-12 0 -22 4 -22 8 0 5 -20 10 -45 10 -35 2 -43 -1 -39
-12 4 -11 25 -15 91 -14 l85 0 -41 19 c-23 10 -41 22 -41 27 0 5 -12 14 -27
21 -16 7 -102 51 -193 99 -169 88 -225 114 -235 104z"/>
<path d="M870 5970 c0 -5 5 -10 10 -10 6 0 10 5 10 10 0 6 -4 10 -10 10 -5 0
-10 -4 -10 -10z"/>
<path d="M8498 5933 c12 -2 32 -2 45 0 12 2 2 4 -23 4 -25 0 -35 -2 -22 -4z"/>
<path d="M8922 5925 c-18 -20 6 -20 32 0 20 15 20 15 0 15 -10 -1 -25 -7 -32
-15z"/>
<path d="M7333 5470 c-67 -32 -179 -84 -248 -116 -69 -31 -123 -60 -120 -62 3
-3 111 -4 240 -3 149 1 235 -2 235 -8 0 -15 -41 -25 -49 -12 -8 12 -400 9
-436 -4 -16 -6 -17 -5 -5 4 24 17 -1 12 -45 -9 -37 -18 -38 -19 -13 -20 14 0
28 6 31 13 2 6 8 9 12 5 16 -15 -9 -30 -45 -26 -30 3 -36 0 -32 -12 5 -13 3
-13 -11 -1 -15 12 -17 12 -11 -3 3 -9 1 -16 -5 -16 -6 0 -11 -9 -11 -20 0 -11
7 -20 15 -20 8 0 15 5 15 10 0 6 -5 10 -11 10 -5 0 -7 5 -4 10 18 30 25 -2 25
-119 0 -94 -3 -131 -12 -134 -10 -4 -10 -6 0 -6 17 -1 15 -31 -3 -31 -12 0
-15 19 -15 110 0 67 4 110 10 110 15 0 12 17 -5 24 -13 5 -15 -14 -15 -133 0
-134 1 -139 20 -134 11 3 20 0 20 -6 0 -6 -3 -10 -7 -10 -18 3 -33 -2 -33 -10
0 -5 10 -7 23 -4 22 5 22 5 2 -10 -11 -9 -24 -17 -28 -17 -4 0 -6 90 -5 201 3
196 3 200 -17 196 -11 -3 -149 -65 -307 -138 l-288 -133 0 -150 c0 -91 5 -163
12 -183 l12 -33 276 0 c160 0 281 4 290 10 12 8 10 10 -10 11 l-25 1 25 8 c14
5 -103 9 -270 11 l-295 4 285 5 c284 5 285 5 245 23 -22 10 -58 26 -80 36
l-40 19 80 38 c44 21 95 49 114 61 19 13 41 23 51 23 9 0 148 65 309 145 l292
145 -3 57 -3 58 -47 0 c-25 0 -50 3 -54 8 -4 4 17 7 47 7 31 0 61 -6 68 -12
10 -11 12 -8 9 11 -1 14 -10 26 -18 28 -13 4 -13 3 0 -6 9 -7 10 -11 3 -11
-16 0 -26 17 -13 25 6 4 10 54 10 120 0 81 4 115 13 118 6 3 3 6 -8 6 -11 0
-75 -26 -142 -59z m-296 -236 c-3 -3 -12 -4 -19 -1 -8 3 -5 6 6 6 11 1 17 -2
13 -5z m-787 -634 c0 -5 -4 -10 -10 -10 -5 0 -10 5 -10 10 0 6 5 10 10 10 6 0
10 -4 10 -10z m30 0 c0 -5 -4 -10 -10 -10 -5 0 -10 5 -10 10 0 6 5 10 10 10 6
0 10 -4 10 -10z m335 -4 c17 -2 -50 -3 -147 -3 -98 0 -178 2 -178 6 0 6 266 4
325 -3z m115 6 c0 -5 -13 -7 -30 -4 -16 2 -30 6 -30 8 0 2 14 4 30 4 17 0 30
-4 30 -8z"/>
<path d="M4846 5505 c4 -8 11 -15 16 -15 6 0 5 6 -2 15 -7 8 -14 15 -16 15 -2
0 -1 -7 2 -15z"/>
<path d="M4185 5490 c-3 -5 -1 -10 4 -10 6 0 11 5 11 10 0 6 -2 10 -4 10 -3 0
-8 -4 -11 -10z"/>
<path d="M4858 5273 c7 -3 16 -2 19 1 4 3 -2 6 -13 5 -11 0 -14 -3 -6 -6z"/>
<path d="M7672 5271 c-22 -13 12 -35 35 -22 16 9 15 10 -7 11 -23 1 -23 2 -5
10 13 6 15 9 5 9 -8 0 -21 -3 -28 -8z"/>
<path d="M4738 5243 c12 -2 32 -2 45 0 12 2 2 4 -23 4 -25 0 -35 -2 -22 -4z"/>
<path d="M11017 5210 c-14 -17 -27 -19 -93 -17 -49 2 -81 -1 -88 -8 -6 -7 -18
-10 -28 -7 -14 3 -18 -2 -17 -24 0 -16 3 -23 6 -16 2 6 12 12 21 12 15 0 15
-2 2 -11 -11 -7 -12 -12 -3 -15 13 -6 6 -34 -8 -34 -5 0 -10 8 -10 18 -1 9 -5
4 -9 -13 -6 -24 -8 -17 -9 33 -1 42 -5 62 -13 63 -11 0 -321 0 -355 -1 -17 0
-16 -18 2 -36 13 -13 15 -57 15 -270 l0 -254 70 0 70 0 0 40 0 39 103 3 102 3
3 68 3 67 -99 0 c-118 0 -113 -4 -111 117 l2 83 101 2 c194 4 330 -3 347 -18
8 -8 19 -14 22 -14 4 0 7 47 7 105 0 58 -3 105 -8 105 -4 0 -15 -9 -25 -20z
m-190 -136 c-3 -3 -12 -4 -19 -1 -8 3 -5 6 6 6 11 1 17 -2 13 -5z"/>
<path d="M2362 5190 c-10 -16 -23 -20 -72 -20 l-60 0 0 -70 0 -70 65 0 c54 0
66 -3 75 -20 21 -39 30 -9 30 96 0 77 -3 104 -13 104 -7 0 -18 -9 -25 -20z"/>
<path d="M3312 5098 c2 -71 7 -113 14 -115 6 -2 14 5 17 16 4 17 15 20 78 23
l74 3 3 73 3 72 -65 0 c-73 0 -96 6 -96 26 0 8 -7 14 -15 14 -13 0 -15 -17
-13 -112z"/>
<path d="M3960 5196 c0 -23 -24 -26 -221 -26 -173 0 -189 -1 -189 -17 0 -10
-5 -25 -11 -33 -8 -12 -10 -9 -6 13 3 18 0 26 -7 24 -15 -5 -21 -127 -5 -127
7 0 9 9 5 25 -4 14 -2 25 4 25 5 0 10 -7 10 -15 0 -8 9 -24 20 -35 19 -19 20
-33 20 -210 l0 -190 70 0 70 0 0 195 0 195 115 0 c105 0 115 -2 125 -20 21
-40 30 -8 28 101 -1 82 -5 109 -15 109 -7 0 -13 -6 -13 -14z m-413 -102 c-3
-3 -12 -4 -19 -1 -8 3 -5 6 6 6 11 1 17 -2 13 -5z"/>
<path d="M877 4938 c0 -143 4 -262 7 -265 3 -4 6 111 6 255 0 143 -3 263 -7
265 -5 3 -7 -112 -6 -255z"/>
<path d="M8025 5186 c-22 -7 -60 -27 -84 -44 -24 -18 -49 -32 -55 -32 -18 0
-50 -119 -50 -185 0 -33 9 -83 19 -111 16 -45 25 -55 74 -81 60 -33 193 -62
199 -44 2 5 9 8 16 5 18 -7 34 16 39 56 3 23 4 18 3 -15 l-1 -49 61 -16 c33
-9 69 -23 81 -31 14 -10 41 -13 92 -11 65 3 71 5 71 25 0 47 -46 123 -93 154
-60 40 -194 64 -212 39 -15 -20 -29 -21 -22 -2 4 10 -7 16 -41 21 -63 9 -121
34 -132 56 -17 31 -11 74 13 97 12 12 52 29 87 38 63 15 108 38 59 28 -22 -4
-21 -3 3 9 22 10 25 16 16 25 -9 9 -9 12 4 12 11 0 15 -9 14 -32 -1 -34 7 -40
72 -58 50 -13 122 -73 122 -102 0 -39 23 -10 61 77 45 105 47 119 19 110 -12
-4 -42 4 -76 19 -78 36 -166 57 -203 50 -28 -6 -31 -10 -31 -45 0 -21 -3 -40
-7 -42 -5 -3 -6 17 -5 44 l4 49 -39 -1 c-21 0 -56 -6 -78 -13z m162 -12 c-3
-3 -12 -4 -19 -1 -8 3 -5 6 6 6 11 1 17 -2 13 -5z m-7 -24 c0 -5 -4 -10 -10
-10 -5 0 -10 5 -10 10 0 6 5 10 10 10 6 0 10 -4 10 -10z m-37 -325 c-7 -21
-13 -19 -13 6 0 11 4 18 10 14 5 -3 7 -12 3 -20z m44 -11 c-3 -3 -12 -4 -19
-1 -8 3 -5 6 6 6 11 1 17 -2 13 -5z m-37 -24 c0 -5 -5 -10 -11 -10 -5 0 -7 5
-4 10 3 6 8 10 11 10 2 0 4 -4 4 -10z m7 -56 c-3 -3 -12 -4 -19 -1 -8 3 -5 6
6 6 11 1 17 -2 13 -5z m3 -24 c0 -5 -7 -7 -15 -4 -8 4 -15 8 -15 10 0 2 7 4
15 4 8 0 15 -4 15 -10z"/>
<path d="M8678 5192 c-51 -3 -61 -15 -28 -32 19 -10 20 -21 20 -270 l0 -260
55 0 c30 0 55 -3 55 -7 0 -5 -24 -7 -52 -6 -29 2 -47 0 -40 -3 6 -3 12 -12 12
-20 0 -17 37 -19 42 -2 3 9 9 8 22 -5 17 -16 15 -17 -27 -17 -27 0 -47 5 -50
13 -3 6 -6 -6 -6 -28 -1 -49 27 -111 65 -146 32 -29 64 -43 64 -29 0 6 -3 10
-8 10 -8 0 -5 73 4 99 4 11 9 9 24 -7 15 -16 20 -35 20 -75 0 -48 3 -55 23
-61 38 -10 256 -7 301 5 80 20 145 93 161 182 l7 37 -68 0 c-68 0 -69 -1 -91
-35 -41 -63 -187 -83 -291 -39 -43 17 -42 17 -42 -3 0 -21 -13 -9 -15 15 -1 9
-7 30 -14 45 -6 16 -11 36 -12 45 0 11 -3 12 -6 5 -2 -7 -12 -13 -21 -13 -15
0 -15 2 -2 10 13 8 16 55 20 285 4 230 8 278 20 286 13 9 12 10 -2 5 -10 -3
-18 -1 -18 3 0 11 -59 17 -122 13z m52 -586 c0 -3 -4 -8 -10 -11 -5 -3 -10 -1
-10 4 0 6 5 11 10 11 6 0 10 -2 10 -4z m83 -59 c3 -8 1 -20 -4 -28 -6 -10 -9
-7 -9 14 0 29 5 35 13 14z"/>
<path d="M9180 5176 c0 -8 7 -16 15 -20 13 -4 15 -37 15 -206 l0 -200 -52 0
c-28 0 -49 -2 -46 -5 4 -4 53 -13 86 -14 8 -1 12 -18 12 -51 0 -27 5 -50 10
-50 6 0 10 -5 10 -11 0 -20 29 -39 60 -39 25 0 31 4 28 18 -2 11 -16 19 -43
23 l-40 6 48 2 c42 1 47 -1 48 -21 1 -22 1 -22 9 2 4 14 8 46 9 71 l1 46 50
-5 c33 -3 50 -1 50 7 0 6 -15 11 -34 11 -69 0 -66 -9 -66 211 0 168 2 201 15
205 8 4 15 12 15 20 0 11 -21 14 -100 14 -79 0 -100 -3 -100 -14z"/>
<path d="M9530 5176 c0 -7 9 -16 20 -19 19 -5 20 -14 20 -266 l0 -261 70 0
c69 0 75 3 71 36 -2 15 46 24 121 24 56 0 60 -2 78 -32 l19 -33 80 3 81 4 -16
29 c-15 31 -12 49 10 49 7 0 23 11 36 25 13 14 18 25 12 25 -8 0 -12 29 -12
98 0 92 1 96 15 68 9 -16 14 -51 13 -80 l-1 -51 -7 50 -7 50 -1 -63 c-2 -56 0
-62 13 -49 11 12 15 50 18 174 l3 158 2 -167 c1 -123 -1 -168 -10 -168 -6 0
-9 -3 -6 -6 13 -13 46 18 62 56 31 78 13 244 -30 276 -8 7 -24 10 -34 7 -16
-4 -20 -14 -19 -47 1 -39 2 -40 9 -11 6 25 8 20 8 -25 0 -38 -2 -49 -8 -35 -7
18 -8 16 -12 -10 -2 -16 -4 15 -4 70 l0 100 -34 17 c-31 16 -67 18 -297 18
-217 0 -263 -2 -263 -14z m488 -137 c86 -30 89 -177 4 -211 -15 -5 -84 -12
-154 -14 -162 -5 -158 -9 -158 132 l0 104 139 0 c76 0 152 -5 169 -11z"/>
<path d="M1750 5156 c0 -8 5 -18 10 -21 6 -4 10 -99 10 -253 0 -282 3 -295 63
-300 32 -3 36 -1 31 15 -5 16 -4 16 11 -2 l17 -20 -4 20 c-2 16 -14 21 -53 26
l-50 6 58 1 57 2 0 -31 0 -30 -62 2 -63 3 -3 -105 c-1 -57 -7 -108 -12 -113
-6 -6 -10 -16 -10 -23 0 -10 45 -13 215 -13 l215 0 0 31 c0 16 4 28 9 25 5 -3
7 -15 4 -26 -4 -16 -2 -19 11 -14 24 9 23 104 -1 104 -15 0 -15 -2 -4 -9 12
-8 12 -12 -2 -26 -16 -15 -17 -14 -17 14 0 25 4 31 23 32 18 1 16 3 -8 9 -16
4 -84 8 -151 9 l-121 1 -6 68 c-3 38 -3 87 0 110 l6 42 121 0 c92 0 127 4 142
15 34 26 46 19 41 -25 -2 -22 0 -40 4 -40 5 0 9 54 9 120 0 66 -3 120 -8 120
-4 0 -6 -34 -4 -75 4 -66 2 -75 -13 -75 -14 0 -15 3 -5 15 10 12 10 15 -3 15
-9 0 -17 -11 -20 -27 -2 -16 -4 -2 -4 30 0 31 -2 60 -5 62 -3 3 -62 6 -132 6
l-126 0 0 99 0 99 128 3 c123 3 127 4 130 26 2 14 10 22 23 22 16 0 19 7 19
46 0 41 -2 45 -15 34 -13 -11 -13 -15 -3 -21 10 -6 8 -9 -6 -9 -13 0 -17 5
-13 20 5 20 0 20 -214 20 -184 0 -219 -2 -219 -14z m437 -58 c-3 -8 -6 -5 -6
6 -1 11 2 17 5 13 3 -3 4 -12 1 -19z m-347 -504 c0 -2 -7 -4 -15 -4 -8 0 -15
4 -15 10 0 5 7 7 15 4 8 -4 15 -8 15 -10z"/>
<path d="M2750 5155 c0 -9 7 -18 15 -21 8 -4 15 -11 15 -18 0 -6 -39 -116 -86
-245 -71 -189 -84 -235 -73 -242 10 -6 10 -9 2 -9 -14 0 -61 -95 -87 -177 -10
-28 -26 -63 -37 -77 -33 -41 -26 -46 71 -46 73 0 90 3 90 15 0 8 -4 15 -10 15
-17 0 -11 42 17 112 l26 68 74 0 c70 0 74 1 71 21 -3 21 -8 22 -123 21 -66 0
-108 2 -92 5 15 2 27 9 27 14 0 5 5 9 11 9 5 0 7 -4 4 -10 -3 -5 -1 -10 4 -10
6 0 11 5 11 10 0 6 5 10 11 10 5 0 7 -5 3 -11 -4 -8 14 -10 62 -9 92 4 94 3
95 -22 0 -22 1 -22 8 -3 l8 20 5 -20 c3 -17 5 -16 9 7 4 18 2 25 -7 21 -6 -2
-15 0 -18 6 -3 5 7 12 24 16 16 4 30 11 30 16 0 5 46 8 103 8 56 -1 92 -4 80
-6 -13 -2 -20 -10 -17 -17 4 -10 -13 -13 -68 -15 -98 -3 -101 -11 -4 -11 57 0
82 4 93 15 8 9 18 13 21 10 4 -3 0 -10 -7 -15 -11 -6 -10 -9 5 -13 10 -2 -33
-5 -96 -6 -112 0 -114 0 -94 18 17 13 35 17 78 14 33 -2 56 1 56 7 0 6 -29 10
-69 10 -75 0 -87 -7 -97 -58 l-6 -31 57 -3 57 -3 30 -75 c23 -58 27 -79 19
-92 -22 -35 -13 -38 99 -38 117 0 127 5 91 44 -11 12 -33 56 -50 98 -17 42
-39 94 -51 115 -11 21 -20 45 -20 53 0 9 -34 98 -75 199 -41 101 -82 208 -92
238 -16 52 -16 55 0 64 32 18 20 39 -23 39 -33 0 -40 -3 -40 -20 0 -13 -6 -20
-17 -19 -11 0 -13 3 -5 6 17 7 15 23 -2 23 -8 0 -17 -8 -19 -17 -4 -14 -5 -12
-6 5 -1 19 -6 22 -46 22 -34 0 -45 -4 -45 -15z m112 -195 c6 0 9 -3 5 -6 -3
-4 0 -18 7 -33 7 -14 17 -48 21 -76 4 -27 18 -78 31 -114 13 -35 24 -67 24
-72 0 -5 -14 -9 -31 -9 -23 0 -30 -4 -26 -14 6 -14 -12 -26 -39 -26 -9 0 -12
5 -9 11 4 6 13 8 21 5 8 -3 14 0 14 5 0 6 -9 9 -20 6 -11 -3 -20 -1 -20 4 0 5
-22 9 -50 9 -27 0 -50 4 -50 10 0 5 21 62 47 127 44 109 48 127 53 228 l5 110
3 -82 c2 -53 7 -83 14 -83z m28 52 c0 -54 -4 -91 -8 -84 -5 7 -8 29 -7 50 1
20 -3 40 -9 44 -7 5 -7 8 2 8 6 0 12 12 12 26 0 14 -4 23 -10 19 -5 -3 -10 1
-10 10 0 10 5 13 12 9 8 -5 9 -2 5 10 -4 10 -3 15 3 11 6 -3 10 -50 10 -103z
m-215 -392 c-4 -6 -11 -8 -16 -5 -5 4 -12 -1 -15 -9 -7 -18 -34 -22 -34 -5 0
5 5 7 10 4 6 -3 13 1 16 9 3 9 15 16 26 16 10 0 16 -5 13 -10z m155 0 c0 -5
-4 -10 -9 -10 -5 0 -17 -3 -27 -7 -13 -5 -15 -3 -9 7 7 11 -2 12 -43 7 -31 -4
-52 -2 -52 3 0 6 32 10 70 10 40 0 70 -4 70 -10z m-83 -26 c-3 -3 -12 -4 -19
-1 -8 3 -5 6 6 6 11 1 17 -2 13 -5z"/>
<path d="M2206 5055 c-3 -8 -1 -15 4 -15 6 0 10 7 10 15 0 8 -2 15 -4 15 -2 0
-6 -7 -10 -15z"/>
<path d="M10853 4865 c-13 -12 -23 -31 -24 -41 0 -18 -1 -18 -9 1 -6 13 -9 15
-9 5 -1 -13 -2 -13 -11 0 -8 13 -10 13 -10 -2 0 -9 6 -19 13 -21 10 -4 10 -6
0 -6 -22 -2 -15 -41 7 -41 27 0 25 -28 -2 -33 -21 -4 -21 -4 3 -6 27 -1 51
-22 62 -54 16 -44 27 1 27 109 0 123 -5 132 -47 89z m-26 -91 c-3 -3 -12 -4
-19 -1 -8 3 -5 6 6 6 11 1 17 -2 13 -5z"/>
<path d="M2195 4795 c0 -14 6 -25 13 -25 8 0 12 9 10 22 -4 30 -23 33 -23 3z"/>
<path d="M10798 4743 c7 -3 16 -2 19 1 4 3 -2 6 -13 5 -11 0 -14 -3 -6 -6z"/>
<path d="M3592 4611 c-25 -15 14 -33 65 -29 36 2 49 8 51 21 3 14 -5 17 -50
17 -29 0 -59 -4 -66 -9z m65 -17 c-3 -3 -12 -4 -19 -1 -8 3 -5 6 6 6 11 1 17
-2 13 -5z"/>
<path d="M8356 4604 c-8 -21 -8 -24 5 -24 5 0 8 4 5 9 -8 13 16 20 46 14 14
-3 29 0 32 6 5 7 -8 11 -37 11 -32 0 -47 -5 -51 -16z"/>
<path d="M9581 4603 c-1 -21 3 -23 53 -23 31 0 58 5 62 12 5 8 2 9 -9 5 -10
-3 -17 -2 -17 3 0 5 10 11 23 13 12 2 0 4 -28 5 -39 0 -44 -2 -25 -8 14 -4 21
-9 15 -11 -27 -6 -41 -3 -47 11 -5 12 -7 11 -8 -5 l-1 -20 -9 20 c-8 19 -9 19
-9 -2z"/>
<path d="M9981 4612 c-6 -2 -7 -10 -4 -18 4 -11 19 -14 58 -13 38 2 52 6 48
15 -4 11 -80 23 -102 16z"/>
<path d="M10444 4608 c-5 -8 -2 -9 9 -5 9 3 19 2 22 -3 3 -5 -3 -11 -12 -13
-10 -3 9 -5 42 -5 42 0 54 2 40 8 -17 7 -17 9 -2 9 9 1 17 6 17 11 0 14 -107
13 -116 -2z"/>
<path d="M6140 4590 c0 -5 5 -10 10 -10 6 0 10 5 10 10 0 6 -4 10 -10 10 -5 0
-10 -4 -10 -10z"/>
<path d="M6190 4590 c0 -5 3 -10 8 -10 4 0 5 -22 4 -48 -3 -32 1 -52 10 -59 7
-6 69 -36 138 -66 223 -98 451 -197 455 -197 3 0 5 78 5 173 0 121 4 177 12
185 9 9 9 15 -1 25 -11 10 -13 9 -8 -5 6 -16 -16 -17 -294 -18 -260 0 -300 2
-305 15 -7 17 -24 21 -24 5z"/>
<path d="M6857 4586 c8 -7 6 -13 -10 -21 -21 -10 -22 -17 -24 -183 l-2 -172
27 -14 c70 -39 457 -203 532 -225 95 -29 91 -37 88 176 l-3 186 -210 94 c-265
119 -324 143 -347 143 -10 0 -29 6 -41 13 -12 6 -17 8 -10 3z m-8 -92 c-10
-13 -10 -17 0 -24 17 -10 12 -173 -6 -191 -8 -8 -11 21 -12 120 -1 84 2 131 9
131 5 0 11 8 11 18 1 9 4 4 6 -11 3 -16 -1 -35 -8 -43z m11 -253 c0 -9 -20
-37 -20 -29 0 3 -2 13 -5 21 -4 8 0 14 10 14 8 0 15 -3 15 -6z"/>
<path d="M8380 4589 c0 -5 23 -9 52 -9 28 0 49 2 47 4 -9 8 -99 13 -99 5z"/>
<path d="M10100 4583 c0 -9 -21 -13 -71 -13 l-70 0 48 -90 c45 -85 47 -92 31
-104 -30 -22 -21 -36 25 -36 56 0 87 9 87 26 0 8 5 14 10 14 6 0 10 -9 10 -20
0 -17 7 -20 45 -20 32 0 45 4 45 14 0 8 -7 16 -15 19 -8 4 -26 25 -41 49 -27
42 -28 43 -36 18 -7 -22 -7 -21 -5 7 2 18 0 30 -5 27 -12 -8 -9 -58 5 -73 10
-11 9 -13 -5 -8 -13 5 -18 1 -18 -13 0 -11 -3 -20 -8 -20 -4 0 -8 26 -9 58 -1
47 0 52 7 27 l9 -30 -3 35 c-2 19 -6 44 -10 55 -8 20 -7 20 8 1 9 -11 16 -16
16 -10 -1 15 -49 100 -50 87z"/>
<path d="M3577 4468 c-2 -57 -7 -113 -11 -125 -8 -23 -8 -23 88 -23 98 0 111
6 81 36 -11 12 -15 40 -15 115 l0 99 -69 0 -70 0 -4 -102z"/>
<path d="M5190 4491 c-96 -43 -205 -92 -242 -109 l-68 -31 0 -196 0 -195 28 6
c34 7 400 162 502 212 l75 37 3 178 2 177 -62 0 c-57 0 -80 -8 -238 -79z"/>
<path d="M7877 4563 c-2 -5 -14 -38 -26 -75 -21 -63 -21 -95 -1 -83 13 8 41
-6 33 -18 -3 -6 -1 -7 6 -3 6 4 40 -4 75 -18 63 -26 184 -37 172 -17 -4 5 3 7
14 4 11 -3 20 0 20 6 0 6 -9 11 -20 11 -11 0 -20 4 -20 9 0 5 12 6 28 2 17 -5
26 -14 24 -24 -7 -38 126 -9 205 45 43 29 85 91 97 141 l6 27 -73 0 c-69 0
-75 -2 -85 -25 -12 -26 -78 -65 -112 -65 -11 0 -23 -6 -26 -14 -3 -8 -16 -12
-32 -9 -15 1 -21 0 -14 -3 17 -8 15 -21 -3 -21 -8 0 -15 8 -15 16 0 12 -22 23
-74 39 -40 13 -88 36 -107 52 -33 28 -63 38 -72 23z m290 -160 c3 -7 -3 -9
-16 -6 -12 3 -21 10 -21 15 0 13 32 6 37 -9z"/>
<path d="M9570 4480 c0 -79 -2 -91 -20 -102 -11 -7 -20 -18 -20 -25 0 -10 28
-13 110 -13 90 0 110 3 110 15 0 8 -9 19 -20 25 -18 9 -20 21 -20 100 l0 90
-70 0 -70 0 0 -90z"/>
<path d="M10430 4481 c0 -66 -4 -92 -15 -101 -8 -7 -15 -19 -15 -26 0 -11 22
-14 105 -14 78 0 105 3 105 13 0 7 -9 18 -20 25 -18 11 -20 23 -20 102 l0 90
-70 0 -70 0 0 -89z"/>
<path d="M5500 4396 c0 -91 4 -166 9 -166 4 0 7 12 4 28 -3 23 -2 24 6 7 7
-14 9 30 8 134 -1 113 -5 155 -14 159 -10 3 -13 -34 -13 -162z m17 82 c-3 -7
-5 -2 -5 12 0 14 2 19 5 13 2 -7 2 -19 0 -25z"/>
<path d="M6161 4514 c0 -11 3 -14 6 -6 3 7 2 16 -1 19 -3 4 -6 -2 -5 -13z"/>
<path d="M2372 4490 c-10 -17 -23 -20 -77 -20 l-65 0 0 -75 0 -75 70 0 c55 0
71 -3 79 -17 5 -10 12 -16 14 -13 5 5 11 164 8 203 -1 23 -13 22 -29 -3z"/>
<path d="M8811 4433 c0 -25 4 -43 10 -43 5 0 8 -4 4 -9 -3 -5 -1 -12 5 -16 6
-4 9 13 8 47 -1 44 -2 47 -6 18 l-6 -35 -6 40 -7 40 -2 -42z"/>
<path d="M4850 4330 c-13 -8 -12 -10 3 -10 9 0 17 5 17 10 0 12 -1 12 -20 0z"/>
<path d="M4570 4220 c-124 -54 -247 -104 -275 -110 -50 -12 -101 -52 -90 -70
3 -6 -1 -10 -10 -10 -9 0 -13 5 -10 10 3 6 2 10 -4 10 -5 0 -12 -8 -14 -17 -4
-17 -5 -17 -6 0 0 9 -3 17 -5 17 -12 0 -173 -73 -186 -84 -8 -8 -22 -16 -30
-19 -8 -3 -3 -6 13 -6 16 -1 26 3 22 9 -3 6 1 10 10 10 10 0 15 -7 13 -17 -2
-12 3 -17 15 -15 9 2 17 -1 17 -6 0 -5 -33 -10 -72 -10 -44 -1 -68 2 -59 7 7
5 23 7 35 5 20 -4 20 -4 1 5 -13 5 -29 4 -47 -5 -15 -8 -33 -14 -40 -14 -25 0
-281 -119 -299 -139 -11 -11 -19 -30 -20 -43 0 -22 -1 -22 -9 -3 -5 12 -8 -67
-9 -191 0 -176 2 -211 14 -211 12 0 14 35 14 209 -1 115 2 212 5 215 3 4 6
-93 6 -215 0 -121 3 -223 8 -226 4 -2 34 -6 67 -7 l60 -3 22 44 c13 25 31 70
42 100 l19 55 196 79 196 80 0 133 0 133 -30 -6 c-19 -4 -30 -2 -30 5 0 6 3
10 8 10 19 -3 25 2 12 11 -12 8 -10 10 8 10 15 0 21 -4 16 -12 -5 -8 -2 -9 9
-5 14 5 17 0 17 -34 0 -22 4 -38 9 -34 5 3 12 -5 14 -17 3 -17 5 -14 6 10 0
17 -3 32 -9 32 -5 0 -10 9 -10 20 0 13 7 20 20 20 12 0 20 -7 20 -17 0 -15 -2
-16 -10 -3 -5 8 -12 11 -16 7 -4 -3 -1 -13 6 -22 8 -10 10 -29 6 -59 -9 -55 3
-146 19 -152 7 -3 41 8 77 25 36 16 150 64 254 106 104 42 195 79 202 82 36
15 -12 18 -258 15 -239 -2 -269 -1 -264 13 5 11 -2 15 -27 16 l-34 1 30 7 c17
4 32 4 35 0 18 -22 63 -27 265 -27 146 0 203 3 170 8 -27 5 -115 9 -195 10
-80 0 -163 4 -184 8 -22 4 85 7 236 7 152 0 274 -4 271 -8 -3 -5 -21 -6 -39
-2 -40 7 -46 -10 -6 -18 15 -4 45 1 69 11 48 19 57 32 18 24 -21 -3 -24 -1
-19 13 5 12 9 13 14 5 17 -27 24 21 25 175 1 90 -1 140 -5 115 l-7 -45 -1 41
c-2 41 -15 56 -45 53 -7 0 -113 -45 -237 -99z m267 -132 c-2 -13 -4 -3 -4 22
0 25 2 35 4 23 2 -13 2 -33 0 -45z m-627 -78 c0 -5 -7 -10 -15 -10 -8 0 -15 5
-15 10 0 6 7 10 15 10 8 0 15 -4 15 -10z m-20 -34 c0 -3 -7 -3 -15 0 -8 4 -15
13 -15 21 0 12 2 12 15 -1 8 -8 15 -17 15 -20z m25 -6 c3 -5 1 -10 -4 -10 -6
0 -11 5 -11 10 0 6 2 10 4 10 3 0 8 -4 11 -10z m-45 -10 c0 -5 -2 -10 -4 -10
-3 0 -8 5 -11 10 -3 6 -1 10 4 10 6 0 11 -4 11 -10z m-145 -10 c3 -5 1 -10 -4
-10 -6 0 -11 5 -11 10 0 6 2 10 4 10 3 0 8 -4 11 -10z m59 -6 c10 -25 7 -30
-15 -31 -20 -2 -20 -1 -4 11 17 13 17 14 -1 24 -16 10 -16 11 -3 12 9 0 20 -7
23 -16z"/>
<path d="M7520 4285 c0 -13 -4 -14 -20 -5 -11 6 -20 7 -20 2 0 -5 10 -14 23
-21 l22 -12 -22 5 -23 4 0 -153 c0 -113 -3 -155 -12 -158 -9 -4 -8 -6 3 -6 8
-1 23 5 33 12 16 12 16 14 2 26 -22 19 -20 34 3 19 12 -7 18 -20 15 -35 -4
-19 0 -23 21 -23 14 0 25 5 25 10 0 6 5 10 11 10 8 0 7 -5 -2 -16 -8 -10 -24
-14 -46 -12 -18 2 -33 0 -33 -4 0 -15 73 -8 92 9 18 16 18 16 12 0 -6 -16 11
-18 247 -17 314 1 289 1 289 -7 0 -5 -123 -6 -272 -3 -150 3 -289 3 -308 0
-33 -5 -28 -8 80 -52 63 -26 149 -61 190 -77 41 -16 124 -50 184 -75 101 -42
146 -50 146 -25 0 5 4 9 10 9 12 0 9 -22 -4 -31 -10 -8 37 -30 228 -108 l139
-56 23 -67 c27 -79 65 -152 74 -139 3 6 45 11 93 12 67 1 85 5 77 14 -5 6 -7
14 -4 17 3 3 5 87 5 187 0 163 5 201 24 171 3 -5 0 -10 -7 -10 -10 0 -10 -2 0
-9 11 -6 13 -47 12 -187 -2 -99 1 -187 5 -197 10 -24 -4 -36 -16 -14 -11 19
-29 14 -29 -8 0 -9 6 -12 17 -8 13 5 15 2 10 -11 -4 -10 -7 -23 -8 -29 0 -7
-4 -2 -9 9 -7 17 -19 23 -57 25 -61 5 -103 0 -103 -11 0 -16 133 -209 148
-215 10 -3 12 0 8 10 -3 9 0 15 9 15 17 0 20 16 5 25 -9 6 -7 51 6 114 9 42
12 18 5 -36 -4 -29 -4 -53 1 -53 11 0 10 -38 -2 -61 -7 -12 -7 -19 -1 -19 6 0
8 -7 5 -15 -4 -8 -1 -15 6 -15 8 0 10 34 8 120 -2 66 0 120 4 120 4 0 9 -62
10 -137 l3 -137 60 -42 c85 -60 201 -116 233 -112 18 2 31 13 41 32 11 24 11
45 -4 143 -19 127 -16 194 10 223 25 28 62 25 135 -11 54 -28 65 -38 82 -78
23 -56 80 -171 84 -171 1 0 2 101 2 225 0 219 -1 226 -22 241 -21 16 -21 16 4
11 24 -6 24 -5 5 8 -11 8 -24 18 -30 22 -5 5 -21 13 -35 20 -14 6 -144 68
-289 137 -145 69 -268 126 -272 126 -5 0 -9 -98 -9 -217 0 -119 -2 -214 -5
-212 -2 3 -5 96 -5 207 -1 192 -2 202 -21 202 -10 0 -19 5 -19 10 0 6 5 10 10
10 32 0 -50 49 -186 110 l-156 70 -105 0 c-88 0 -102 2 -91 14 8 9 17 11 25 5
7 -7 13 -5 16 3 4 10 6 10 6 1 1 -15 39 -17 59 -4 10 6 6 11 -17 19 -18 6 -29
7 -26 2 5 -7 -14 -8 -57 -1 -5 0 -8 6 -8 11 0 6 11 8 25 4 50 -12 24 14 -41
41 -55 23 -67 26 -75 14 -11 -18 -12 -32 -1 -25 10 6 9 -30 0 -40 -10 -9 -46
5 -45 19 3 82 3 81 -90 117 -49 18 -106 41 -128 50 -126 56 -377 160 -385 160
-6 0 -10 -7 -10 -15z m-4 -96 l1 -44 -5 45 -6 45 -6 -45 -7 -45 -1 48 c-2 35
2 48 11 45 7 -3 12 -23 13 -49z m-19 -151 c-3 -7 -5 -2 -5 12 0 14 2 19 5 13
2 -7 2 -19 0 -25z m600 -103 c-1 0 -99 2 -217 5 l-215 5 210 5 c130 3 213 1
217 -5 4 -5 6 -10 5 -10z m23 15 c0 -5 -2 -10 -4 -10 -3 0 -8 5 -11 10 -3 6
-1 10 4 10 6 0 11 -4 11 -10z m105 -1 c4 -5 -3 -19 -16 -30 -26 -23 -33 -24
-26 -5 4 9 -1 17 -11 19 -10 3 -5 5 11 6 16 0 26 5 22 11 -3 6 -2 10 4 10 5 0
13 -5 16 -11z m-75 -9 c0 -5 -5 -10 -11 -10 -5 0 -7 5 -4 10 3 6 8 10 11 10 2
0 4 -4 4 -10z m120 0 c0 -5 -7 -10 -16 -10 -8 0 -12 -4 -9 -10 3 -5 1 -10 -4
-10 -13 0 -13 3 -5 24 7 17 34 22 34 6z m-100 -30 c0 -5 -5 -10 -11 -10 -5 0
-7 5 -4 10 3 6 8 10 11 10 2 0 4 -4 4 -10z m-26 -92 c-9 -98 -15 -100 -12 -5
2 42 7 77 11 77 5 0 5 -33 1 -72z m43 -50 c-2 -13 -4 -3 -4 22 0 25 2 35 4 23
2 -13 2 -33 0 -45z m-32 -60 c6 -4 2 -8 -7 -8 -10 0 -18 7 -18 17 0 9 3 12 8
7 4 -5 12 -12 17 -16z m-5 -22 c0 -3 -4 -8 -10 -11 -5 -3 -10 -1 -10 4 0 6 5
11 10 11 6 0 10 -2 10 -4z m1340 -300 c0 -2 -7 -6 -15 -10 -8 -3 -15 -1 -15 4
0 6 7 10 15 10 8 0 15 -2 15 -4z m-10 -76 c4 0 7 -11 6 -25 -2 -34 -16 -32
-17 3 l-1 27 -9 -25 c-7 -21 -8 -20 -4 9 3 18 6 41 6 50 1 9 4 4 6 -11 2 -16
8 -28 13 -28z m-322 -17 c-159 -2 -288 -7 -288 -12 0 -13 67 -21 170 -19 l95
2 -100 6 c-72 4 -41 6 115 6 141 0 186 -2 130 -6 l-85 -6 98 -2 c63 -1 96 2
92 8 -3 6 1 10 10 10 10 0 13 -5 9 -12 -5 -8 -2 -9 11 -4 21 8 65 -18 65 -39
0 -22 -17 -18 -23 5 -5 19 -14 20 -300 20 -260 0 -296 2 -301 16 -3 9 -4 20 0
25 3 5 130 8 297 7 l292 -3 -287 -2z m332 -211 c-1 -98 -2 -105 -15 -82 -17
29 -20 86 -5 95 6 3 9 27 8 53 l-1 47 -7 -45 -7 -45 -1 41 c-1 22 1 44 4 47
18 17 24 -13 24 -111z"/>
<path d="M9472 3055 c0 -16 2 -22 5 -12 2 9 2 23 0 30 -3 6 -5 -1 -5 -18z"/>
<path d="M8143 4018 c-2 -25 14 -58 28 -58 6 0 3 7 -6 16 -11 11 -13 20 -6 27
10 10 4 37 -8 37 -4 0 -7 -10 -8 -22z"/>
<path d="M4170 3785 c0 -25 5 -45 10 -45 6 0 10 -14 10 -32 0 -17 3 -29 6 -26
9 9 -7 148 -17 148 -5 0 -9 -20 -9 -45z"/>
<path d="M3190 3614 c-157 -74 -290 -141 -296 -149 -6 -8 -14 -12 -17 -8 -4 3
-7 1 -7 -5 0 -7 5 -12 10 -12 19 0 11 -79 -10 -100 -11 -11 -22 -20 -25 -20
-3 0 -4 26 -4 58 1 31 4 45 6 29 2 -15 9 -25 14 -22 5 4 9 2 9 -4 0 -5 -6 -11
-12 -14 -7 -2 -10 -8 -6 -12 12 -13 28 5 28 31 0 14 -4 22 -10 19 -5 -3 -10 3
-10 14 0 13 -7 21 -17 21 -21 0 -282 -122 -283 -132 0 -9 271 -15 277 -5 2 4
10 7 16 7 7 0 4 -5 -6 -11 -9 -6 -15 -15 -11 -20 4 -6 11 -6 20 2 11 9 18 9
26 1 9 -9 9 -12 0 -12 -7 0 -12 -8 -12 -17 1 -15 4 -14 20 6 11 13 20 18 20
12 0 -6 22 -12 53 -13 l52 -1 -60 -6 c-59 -6 -60 -7 -63 -38 -2 -22 -9 -33
-19 -33 -12 0 -13 3 -4 13 8 10 7 21 -2 40 -12 27 -37 45 -37 26 0 -6 -64 -9
-177 -8 -166 2 -175 3 -138 16 26 9 41 10 43 3 2 -6 53 -10 133 -10 106 0 129
3 129 14 0 12 -25 15 -136 18 -125 3 -141 1 -183 -19 -25 -13 -51 -23 -57 -23
-6 0 -56 -22 -112 -50 l-102 -49 0 -120 c0 -103 3 -125 21 -155 22 -38 25 -78
14 -174 l-7 -62 157 0 c119 0 154 -3 149 -12 -15 -24 53 31 98 80 98 104 178
257 178 339 0 28 5 55 11 59 8 4 9 -4 5 -27 -5 -28 -3 -26 11 11 19 53 28 61
108 101 59 29 99 36 122 21 32 -20 41 -105 23 -203 -6 -29 -11 -82 -11 -118
-1 -68 12 -91 53 -91 42 0 233 112 306 179 l32 30 0 122 c0 67 3 119 7 116 13
-14 18 -111 8 -147 -8 -25 -8 -25 12 -5 11 11 17 22 14 25 -8 6 -6 48 1 56 5
4 8 -21 9 -68 0 -10 4 -18 9 -18 8 0 100 140 100 153 0 4 -21 7 -48 7 -34 0
-52 -5 -64 -19 -9 -11 -14 -22 -11 -25 4 -3 1 -6 -5 -6 -15 0 -16 17 -2 25 8
5 8 11 0 20 -9 11 -7 12 9 8 12 -3 21 -1 21 6 0 7 13 9 35 6 26 -3 35 0 35 10
0 11 -9 14 -35 9 -19 -3 -35 -1 -35 4 0 12 -35 22 -48 13 -5 -3 -12 -16 -16
-28 -7 -23 -8 -23 -227 -23 -168 0 -219 3 -219 13 0 8 -4 7 -10 -3 -6 -9 -10
-10 -10 -3 0 6 -17 14 -37 16 -21 2 79 4 222 5 172 2 255 6 245 12 -13 8 -12
10 3 10 11 0 17 -6 15 -12 -4 -10 -54 -14 -189 -18 l-184 -6 188 -2 187 -2 10
26 c16 40 13 464 -2 463 -7 0 -141 -61 -298 -135z m-305 -294 c-3 -5 -1 -10 4
-10 6 0 11 -5 11 -11 0 -8 -5 -8 -15 1 -13 11 -12 30 1 30 3 0 2 -4 -1 -10z
m58 -27 c-7 -2 -19 -2 -25 0 -7 3 -2 5 12 5 14 0 19 -2 13 -5z m380 0 c-68 -2
-178 -2 -245 0 -68 1 -13 3 122 3 135 0 190 -2 123 -3z m207 -3 c0 -5 -5 -10
-11 -10 -5 0 -7 5 -4 10 3 6 8 10 11 10 2 0 4 -4 4 -10z m-757 -17 c-23 -2
-64 -2 -90 0 -26 2 -7 3 42 3 50 0 71 -1 48 -3z m77 -100 c-7 -23 -8 -18 -8
27 0 45 1 50 8 28 5 -16 5 -40 0 -55z m25 -39 l-15 -29 0 27 c0 14 6 28 13 31
18 7 19 3 2 -29z"/>
<path d="M4172 3700 c0 -19 2 -27 5 -17 2 9 2 25 0 35 -3 9 -5 1 -5 -18z"/>
<path d="M9510 3361 l0 -61 115 0 c63 0 115 4 115 8 0 6 -160 86 -222 110 -4
2 -8 -24 -8 -57z"/>
<path d="M600 3275 c0 -13 16 -15 102 -13 70 2 103 7 106 16 3 9 -22 12 -102
12 -89 0 -106 -3 -106 -15z m98 -2 c-16 -2 -40 -2 -55 0 -16 2 -3 4 27 4 30 0
43 -2 28 -4z"/>
<path d="M3647 3283 c-4 -3 -7 -11 -7 -17 0 -6 5 -5 12 2 6 6 9 14 7 17 -3 3
-9 2 -12 -2z"/>
<path d="M8663 3283 c9 -2 17 -8 17 -11 0 -11 84 -7 90 3 3 6 -22 11 -60 12
-36 1 -57 -1 -47 -4z"/>
<path d="M9513 3082 l2 -207 39 -59 c21 -33 63 -86 94 -118 l55 -58 168 0 168
0 -6 103 c-5 95 -4 104 17 130 13 16 31 27 46 27 l24 0 0 116 0 115 -114 54
c-63 30 -127 57 -143 61 -15 4 -37 13 -48 20 -26 19 -45 17 -21 -1 18 -13 4
-15 -130 -13 l-149 2 125 6 c69 3 118 8 108 12 -9 4 -27 4 -40 1 -16 -3 -19
-2 -9 5 10 7 6 10 -14 10 -19 0 -23 -3 -14 -9 9 -5 -7 -8 -41 -7 -54 1 -54 1
-15 8 l40 7 -48 2 c-28 0 -46 -3 -42 -8 3 -6 -6 -6 -24 -1 l-30 8 2 -206z"/>
<path d="M3068 3263 c7 -3 16 -2 19 1 4 3 -2 6 -13 5 -11 0 -14 -3 -6 -6z"/>
<path d="M11210 3028 l0 -223 -176 -75 c-96 -41 -178 -78 -180 -82 -3 -4 128
-8 290 -8 l296 0 0 305 0 305 -115 0 -115 0 0 -222z"/>
<path d="M2212 3125 c-2 -17 -4 -18 -12 -5 -5 8 -10 10 -10 3 0 -6 -8 -10 -17
-8 -10 2 -115 -44 -233 -103 l-215 -107 -3 -44 c-7 -96 13 -111 110 -86 106
26 322 107 339 126 9 10 19 16 23 14 3 -3 2 1 -4 7 -5 7 -10 49 -10 95 0 69 2
81 15 77 8 -4 15 -10 15 -16 0 -5 -4 -6 -10 -3 -17 11 -12 -124 5 -141 13 -14
15 -9 13 43 l-1 58 -7 -45 -7 -45 -1 47 c-1 25 3 48 9 50 6 2 9 24 6 53 -2 28
-4 41 -5 30z"/>
<path d="M10132 3083 c0 -16 4 -33 8 -38 5 -6 11 -28 13 -50 2 -23 4 -12 4 25
-1 36 -3 71 -5 78 -7 22 -19 13 -20 -15z"/>
<path d="M10170 2990 c0 -128 -14 -113 159 -172 154 -52 194 -60 226 -48 25 9
26 13 23 72 l-3 63 -195 97 c-107 53 -198 97 -202 98 -5 0 -8 -49 -8 -110z"/>
<path d="M3511 3054 c0 -11 3 -14 6 -6 3 7 2 16 -1 19 -3 4 -6 -2 -5 -13z"/>
<path d="M10132 2983 c-2 -53 0 -61 14 -56 9 3 12 8 5 12 -5 4 -11 29 -14 56
-3 48 -3 48 -5 -12z"/>
<path d="M5322 2910 c-12 -19 -23 -20 -227 -20 l-215 0 0 -70 0 -70 215 0
c201 0 216 -1 232 -19 9 -11 20 -18 25 -15 4 3 8 52 8 110 0 77 -3 104 -13
104 -7 0 -18 -9 -25 -20z"/>
<path d="M6947 2910 c-11 -13 -29 -20 -52 -20 -19 0 -35 -4 -35 -10 0 -5 -6
-7 -14 -4 -11 4 -13 0 -9 -16 4 -16 8 -18 14 -8 6 8 9 -4 9 -34 0 -41 -3 -47
-22 -51 -13 -2 6 -7 40 -12 38 -5 66 -13 69 -21 3 -8 11 -14 19 -14 11 0 14
22 14 105 0 58 -3 105 -8 105 -4 0 -15 -9 -25 -20z"/>
<path d="M8542 2910 c-11 -19 -23 -20 -181 -20 -94 0 -172 -4 -176 -9 -3 -6
-18 -6 -38 0 -17 5 -70 9 -117 9 -49 0 -91 5 -97 11 -6 6 -19 9 -29 7 -16 -3
-18 -13 -15 -93 3 -95 13 -122 35 -92 11 14 29 17 108 17 98 0 139 13 123 40
-7 11 -10 9 -16 -6 -5 -12 -8 1 -8 39 -1 32 3 57 9 57 6 0 8 -10 4 -24 -6 -25
11 -70 24 -62 4 2 6 -155 6 -350 -2 -263 -5 -358 -14 -369 -9 -11 -9 -15 -1
-15 6 0 11 6 11 13 1 7 6 5 14 -5 10 -14 28 -18 78 -18 72 0 85 6 63 30 -12
13 -15 62 -17 266 l-3 249 -63 0 c-41 0 -62 4 -62 12 0 6 5 15 10 18 6 3 10 1
10 -4 0 -6 10 -11 23 -11 18 0 19 2 7 10 -12 8 -9 10 13 10 15 0 27 -4 27 -8
0 -5 7 -9 15 -9 8 0 15 6 15 14 0 9 -17 13 -60 13 -33 0 -60 3 -60 8 0 4 28 7
62 7 l63 0 3 48 3 47 109 0 c99 0 111 -2 122 -20 7 -11 16 -20 20 -20 5 0 8
52 8 115 0 63 -3 115 -8 115 -4 0 -13 -9 -20 -20z"/>
<path d="M4220 2890 c-8 -5 -23 -11 -34 -14 -15 -5 -17 -14 -14 -51 2 -25 0
-45 -4 -45 -5 0 -8 25 -8 55 l0 55 -170 0 c-130 0 -170 -3 -170 -13 0 -7 9
-18 20 -25 18 -11 20 -23 20 -112 l0 -100 70 0 70 0 0 55 0 55 80 0 c45 0 80
4 80 10 0 5 7 7 15 4 9 -4 15 0 15 10 0 9 5 16 10 16 6 0 10 -6 10 -13 0 -25
36 -47 77 -47 43 0 64 -16 82 -63 10 -26 13 -27 81 -27 67 0 70 1 70 23 0 47
-30 123 -62 156 -35 36 -54 45 -136 67 -60 16 -80 17 -102 4z"/>
<path d="M4710 2876 c0 -8 5 -18 10 -21 6 -3 10 -52 10 -112 l0 -106 59 6 58
5 9 -37 c7 -26 9 4 10 117 0 113 -3 152 -12 152 -7 0 -15 -6 -17 -12 -3 -8 -6
-6 -6 5 -1 14 -11 17 -61 17 -46 0 -60 -3 -60 -14z m137 -173 c-2 -16 -4 -5
-4 22 0 28 2 40 4 28 2 -13 2 -35 0 -50z"/>
<path d="M5547 2778 c3 -62 6 -119 8 -125 3 -9 27 -13 75 -13 l70 0 0 51 0 50
161 -3 161 -3 24 -28 c13 -15 24 -37 24 -48 0 -15 7 -19 33 -20 22 -1 25 -3
10 -6 -12 -2 -27 -11 -33 -19 -10 -12 -7 -14 21 -15 l34 -1 -38 -8 c-21 -4
-44 -16 -51 -26 -13 -17 -32 -20 -163 -25 -81 -3 -156 -4 -165 -1 -11 3 -18
14 -18 28 0 23 -3 24 -70 24 -48 0 -72 -4 -75 -12 -2 -7 -6 -131 -7 -276 l-3
-262 98 0 c76 0 97 3 97 14 0 7 -9 16 -20 19 -19 5 -20 14 -20 155 l0 150 168
4 c146 4 173 7 219 27 54 24 67 41 64 79 -2 17 2 22 15 20 12 -2 19 4 21 17 1
11 0 14 -3 8 -10 -22 -34 -14 -34 10 0 47 -12 67 -39 68 -21 1 -22 2 -6 6 11
3 26 10 33 15 9 8 12 2 13 -23 0 -19 3 -28 6 -22 3 10 8 9 19 -2 9 -8 12 -19
9 -25 -3 -5 -2 -10 4 -10 16 0 19 24 4 38 -19 20 -17 43 5 36 14 -5 15 -4 2 5
-20 14 -28 14 -33 -1 -2 -7 -3 0 -1 15 2 18 0 26 -7 21 -8 -4 -8 0 0 14 13 24
15 45 4 39 -5 -3 -8 16 -9 42 l-1 46 10 -37 c6 -21 14 -38 19 -38 34 0 -33
105 -85 133 -40 21 -55 22 -298 25 l-256 3 4 -113z"/>
<path d="M6330 2877 c0 -7 5 -18 11 -24 15 -15 17 -35 18 -153 1 -68 5 -100
10 -90 6 8 7 18 5 22 -3 4 24 8 60 8 l66 0 0 55 0 55 155 0 155 0 0 70 0 70
-240 0 c-190 0 -240 -3 -240 -13z"/>
<path d="M7340 2880 c0 -6 6 -19 12 -30 11 -17 8 -33 -15 -98 -15 -42 -30 -85
-34 -94 -5 -16 2 -18 54 -18 32 0 64 5 70 11 8 8 13 8 17 0 19 -31 26 -1 26
114 l0 125 -65 0 c-37 0 -65 -4 -65 -10z"/>
<path d="M7503 2883 c-22 -4 -23 -9 -23 -91 0 -60 3 -82 10 -72 8 13 10 13 10
-1 0 -9 -3 -19 -7 -23 -5 -4 -8 -38 -8 -76 0 -37 3 -64 6 -58 7 11 20 -30 24
-77 2 -16 8 -49 13 -73 8 -32 7 -45 -2 -48 -6 -2 -13 -14 -13 -27 -1 -12 -8
-26 -15 -32 -15 -12 -20 -45 -7 -45 5 0 9 8 9 17 0 14 3 13 16 -5 8 -12 26
-22 40 -22 20 0 29 -10 50 -57 30 -69 42 -123 25 -123 -6 0 -11 -7 -11 -15 0
-12 19 -15 110 -15 101 0 110 2 110 19 0 10 -6 21 -14 24 -13 5 -46 81 -157
366 -27 69 -52 128 -56 132 -5 4 -23 9 -42 11 -19 2 -37 9 -39 17 -3 9 0 11 8
6 10 -6 12 -4 7 8 -5 13 -1 17 18 17 14 0 25 2 25 4 0 17 -58 145 -63 139 -4
-3 -7 -28 -7 -53 0 -30 -6 -52 -15 -60 -9 -8 -15 -8 -15 -2 0 6 4 12 9 14 11
4 20 118 10 118 -4 0 -10 -12 -12 -27 -3 -21 -4 -18 -5 12 -2 51 6 82 23 89
10 3 12 0 8 -11 -4 -11 -2 -14 8 -11 18 6 25 38 7 37 -7 -1 -23 -4 -35 -6z
m25 -238 c1 -14 -3 -25 -8 -25 -12 0 -13 -27 -1 -32 4 -1 5 -12 1 -23 -6 -16
-9 -11 -17 25 -7 35 -5 49 6 62 9 10 16 18 16 18 0 0 2 -11 3 -25z"/>
<path d="M6822 2818 c-2 -28 2 -38 13 -38 8 0 15 8 15 18 0 14 -2 14 -9 3 -7
-11 -11 -6 -14 20 l-4 34 -1 -37z"/>
<path d="M7500 2820 c0 -5 5 -10 10 -10 6 0 10 5 10 10 0 6 -4 10 -10 10 -5 0
-10 -4 -10 -10z"/>
<path d="M6190 2713 c5 -2 10 -17 9 -31 0 -24 -1 -25 -9 -7 -8 19 -9 19 -9 -1
-1 -12 6 -25 15 -28 12 -5 15 1 12 31 -2 20 -9 38 -16 39 -7 1 -8 0 -2 -3z"/>
<path d="M11443 2633 c-7 -3 -13 -13 -13 -24 0 -18 -11 -19 -291 -19 -258 0
-289 2 -275 15 12 13 54 15 268 13 l253 -2 -255 -6 -255 -6 273 -1 c233 -2
272 0 272 13 0 12 -43 14 -300 14 -295 -1 -300 -1 -300 -21 0 -12 -5 -19 -12
-16 -7 2 -12 10 -10 16 1 8 -8 6 -27 -4 -17 -8 -38 -15 -48 -15 -10 0 -54 -16
-98 -36 -44 -19 -96 -42 -115 -49 -141 -55 -331 -145 -353 -167 -27 -27 -27
-28 -27 -173 0 -111 3 -144 13 -142 9 1 13 45 17 157 l6 155 2 -177 c2 -162 4
-178 20 -179 52 -3 80 6 323 113 25 11 95 41 155 67 l109 46 5 188 c3 113 1
192 -4 198 -6 6 -6 9 2 9 14 0 13 16 12 -205 0 -124 3 -175 10 -165 5 8 10 12
10 9 0 -11 60 7 145 44 264 113 433 186 458 198 24 11 27 17 27 66 0 29 5 53
10 53 6 0 10 8 10 18 0 13 2 14 9 4 7 -11 9 -11 14 0 5 14 -16 20 -40 11z
m-608 -52 c-6 -21 -25 -29 -25 -11 0 6 5 10 10 10 6 0 10 8 10 17 0 9 3 14 6
10 3 -3 3 -15 -1 -26z m-5 -181 c0 -136 -2 -150 -17 -149 -11 0 -13 3 -5 6 15
6 17 133 2 133 -6 0 -10 33 -10 80 0 64 3 80 15 80 13 0 15 -23 15 -150z
m-683 -272 c-2 -35 -3 -7 -3 62 0 69 1 97 3 63 2 -35 2 -91 0 -125z"/>
<path d="M2265 2619 c-4 -6 -4 -13 0 -17 3 -3 10 0 14 7 6 9 11 10 15 2 5 -7
41 -10 99 -10 72 2 83 3 52 9 l-40 8 48 -1 c26 0 47 -5 47 -10 0 -5 7 -6 16
-3 9 3 12 2 9 -4 -4 -6 -12 -10 -18 -9 -7 1 -67 1 -134 0 l-123 -1 0 -39 c0
-93 86 -96 220 -7 49 33 81 67 73 78 -7 13 -271 10 -278 -3z m88 -6 c-7 -2
-19 -2 -25 0 -7 3 -2 5 12 5 14 0 19 -2 13 -5z"/>
<path d="M3870 2612 c0 -12 3 -12 15 -2 10 9 15 9 15 1 0 -6 17 -11 40 -11 29
0 40 4 40 16 0 12 -11 15 -55 13 -40 -2 -55 -6 -55 -17z m83 1 c-7 -2 -19 -2
-25 0 -7 3 -2 5 12 5 14 0 19 -2 13 -5z"/>
<path d="M4387 2623 c-17 -16 -3 -23 51 -22 31 0 51 3 43 6 -11 5 -11 7 0 14
9 6 -4 9 -37 9 -28 0 -54 -3 -57 -7z"/>
<path d="M4500 2612 c0 -20 -5 -22 -63 -22 -58 0 -65 -2 -84 -28 -20 -27 -78
-52 -122 -52 -19 0 -26 -10 -22 -32 0 -4 -8 -5 -19 -3 -17 3 -20 -2 -20 -36 0
-22 6 -47 14 -54 12 -12 13 -9 9 25 -4 26 -2 40 6 40 6 0 11 -12 12 -27 1
-103 22 -161 94 -273 19 -30 35 -57 35 -61 0 -4 15 -17 34 -28 43 -27 176 -31
176 -6 0 8 -7 15 -15 15 -14 0 -53 62 -143 231 l-52 95 36 13 c44 16 100 64
121 104 15 29 20 103 9 115 -3 3 -6 -4 -6 -16z"/>
<path d="M4740 2621 c0 -5 7 -12 16 -15 8 -3 12 -2 9 4 -3 6 -1 10 4 10 6 0
11 -4 11 -10 0 -5 11 -10 24 -10 24 0 37 -18 35 -48 -1 -10 -4 -6 -8 8 -6 22
-12 25 -51 25 l-45 0 -3 -250 c-1 -146 -6 -253 -12 -259 -6 -6 -10 -16 -10
-23 0 -16 106 -18 116 -2 3 6 15 9 25 6 17 -5 19 1 19 44 0 27 -4 49 -10 49
-5 0 -10 -18 -10 -40 0 -22 -4 -40 -10 -40 -5 0 -10 20 -10 45 0 41 2 45 25
45 24 0 25 -3 25 -60 l0 -60 225 0 c191 0 227 -2 231 -15 15 -39 24 -5 24 95
0 61 -3 110 -8 110 -4 0 -13 -9 -20 -20 -12 -19 -23 -20 -232 -20 -121 0 -220
-4 -220 -8 0 -4 -9 -8 -20 -9 -21 -2 -28 23 -8 29 7 3 12 30 14 69 l2 64 -6
-57 c-11 -85 -17 -77 -17 23 0 49 3 89 8 89 4 0 7 -5 7 -12 0 -6 3 -8 7 -4 5
4 -1 14 -11 21 -18 13 -18 16 -2 39 18 29 21 78 6 107 -8 13 -7 19 0 19 6 0 4
7 -4 16 -9 8 -16 24 -16 35 0 10 -5 19 -11 19 -5 0 -7 -4 -4 -10 3 -6 -4 -10
-17 -10 -18 0 -20 2 -8 10 11 7 5 10 -22 10 -21 0 -38 -4 -38 -9z m111 -154
c-10 -9 -11 -8 -5 6 3 10 9 15 12 12 3 -3 0 -11 -7 -18z"/>
<path d="M5560 2615 c0 -12 12 -15 53 -13 l52 1 -45 7 -45 7 52 1 c33 1 53 -2
56 -10 3 -8 6 -6 6 5 1 14 -8 17 -64 17 -51 0 -65 -3 -65 -15z"/>
<path d="M6387 2616 c-5 -12 6 -16 46 -19 l52 -3 -62 -2 -63 -2 -2 -52 c0 -29
-2 -145 -3 -258 -2 -142 -6 -205 -14 -208 -6 -2 -11 -10 -11 -18 0 -12 40 -14
240 -14 l240 0 0 65 c0 64 0 65 28 65 20 0 23 -3 12 -9 -8 -6 -18 -7 -22 -5
-4 3 -8 -12 -8 -34 0 -28 4 -39 15 -39 8 0 15 6 15 14 0 7 -4 13 -10 13 -16 0
-12 27 5 34 12 4 15 -5 15 -49 l0 -55 45 0 c31 0 47 -5 51 -15 4 -8 12 -15 20
-15 11 0 14 23 14 110 0 87 -3 110 -14 110 -7 0 -16 -9 -19 -19 -6 -24 -49
-28 -279 -23 l-178 4 0 109 0 109 131 0 c133 0 167 -8 171 -38 1 -9 4 33 7 93
4 61 5 112 4 114 -1 1 -12 -4 -25 -13 -18 -13 -50 -16 -154 -16 l-132 0 -7 40
-7 40 -48 0 c-33 0 -50 -5 -53 -14z m40 -2 c-3 -3 -12 -4 -19 -1 -8 3 -5 6 6
6 11 1 17 -2 13 -5z m50 0 c-3 -3 -12 -4 -19 -1 -8 3 -5 6 6 6 11 1 17 -2 13
-5z"/>
<path d="M7310 2620 c13 -8 13 -10 -1 -10 -21 0 -32 -25 -114 -245 -78 -210
-114 -295 -126 -295 -5 0 -9 -7 -9 -15 0 -12 17 -15 90 -15 71 0 90 3 90 14 0
8 -5 16 -12 18 -14 5 -2 54 32 133 l19 45 96 0 95 0 0 60 0 60 -75 0 c-41 0
-75 2 -75 4 0 3 18 50 39 105 21 55 36 102 33 105 -3 3 -26 6 -50 6 -58 0 -51
8 10 11 35 2 45 6 41 17 -5 11 -7 11 -14 0 -7 -10 -9 -10 -9 0 0 7 -14 12 -37
12 -28 0 -34 -3 -23 -10z"/>
<path d="M7560 2613 c0 -10 4 -14 8 -8 4 6 11 13 16 18 5 4 2 7 -7 7 -10 0
-17 -8 -17 -17z"/>
<path d="M9738 2621 c7 -4 30 -6 52 -5 36 2 38 1 23 -14 -12 -12 -18 -13 -21
-4 -6 19 -21 14 -15 -6 4 -18 87 -74 146 -99 67 -29 120 -14 130 37 12 56 6
60 -117 62 l-111 2 98 3 c67 3 97 7 97 16 0 7 4 6 10 -3 8 -13 10 -12 10 3 0
16 -12 18 -157 16 -86 0 -151 -4 -145 -8z m229 -8 c-20 -2 -52 -2 -70 0 -17 2
0 4 38 4 39 0 53 -2 32 -4z"/>
<path d="M7471 2594 c0 -11 3 -14 6 -6 3 7 2 16 -1 19 -3 4 -6 -2 -5 -13z"/>
<path d="M11465 2590 c-3 -5 1 -10 9 -10 9 0 16 5 16 10 0 6 -4 10 -9 10 -6 0
-13 -4 -16 -10z"/>
<path d="M1533 2584 c18 -6 24 -24 7 -24 -16 0 -9 -332 8 -338 10 -3 12 35 10
179 -3 175 -4 184 -23 186 -16 1 -16 1 -2 -3z"/>
<path d="M3859 2508 c-1 -46 0 -146 1 -223 2 -156 -5 -215 -26 -215 -8 0 -14
-7 -14 -15 0 -12 19 -15 110 -15 87 0 110 3 110 14 0 7 -9 16 -20 19 -19 5
-20 14 -20 156 l0 150 78 3 77 3 3 63 3 62 -81 0 -80 0 0 40 0 40 -70 0 -70 0
-1 -82z"/>
<path d="M5167 2570 c-15 -18 -29 -20 -152 -20 l-135 0 0 -70 0 -70 133 0 c72
0 137 -4 143 -8 6 -4 14 -17 18 -29 17 -52 26 -16 26 97 0 66 -3 120 -8 120
-4 0 -15 -9 -25 -20z"/>
<path d="M1570 2380 l0 -199 29 -15 c15 -8 119 -54 230 -101 177 -75 211 -86
269 -89 37 -1 73 2 80 7 9 7 12 3 12 -17 0 -18 -5 -26 -17 -27 -11 0 -4 -7 16
-15 18 -8 39 -21 46 -28 7 -6 75 -38 151 -71 77 -32 200 -86 274 -118 74 -33
150 -61 168 -62 19 -2 43 -12 55 -23 17 -16 595 -272 613 -272 2 0 3 92 2 205
l-3 206 -185 79 c-102 44 -192 80 -200 80 -8 1 -33 9 -55 20 -48 23 -70 26
-35 4 20 -12 21 -14 5 -11 -11 3 -29 8 -39 13 -14 5 -17 4 -12 -4 4 -7 1 -12
-8 -12 -23 0 -20 21 4 27 19 5 19 6 -3 24 -13 10 -34 20 -48 24 -19 4 -26 0
-36 -21 -11 -23 -10 -25 5 -18 9 4 30 9 46 12 27 4 28 4 15 -19 -11 -20 -14
-21 -17 -6 -2 9 -8 17 -14 17 -6 0 -8 -9 -5 -21 4 -14 2 -18 -6 -11 -7 5 -25
8 -42 7 -16 -1 -40 4 -52 12 -19 11 -22 10 -26 -10 -4 -19 -4 -18 -6 6 -1 24
3 27 29 27 24 0 30 4 31 23 1 19 2 19 6 3 4 -15 7 -16 15 -5 8 12 9 11 5 -1
-2 -8 -14 -21 -28 -28 l-24 -13 24 3 c13 2 29 11 35 21 9 15 6 22 -17 41 -22
18 -505 233 -609 272 -17 6 -18 -6 -20 -162 -1 -93 -3 -150 -5 -126 -3 31 -8
42 -21 42 -14 0 -14 -2 -3 -9 12 -8 12 -12 -2 -26 -16 -15 -17 -14 -17 14 0
25 4 31 20 31 20 0 21 5 19 121 0 66 -3 118 -6 115 -3 -3 -16 6 -30 18 -21 20
-583 267 -605 266 -5 0 -8 -90 -8 -200z m629 -140 c-4 -3 -10 -44 -12 -90 -2
-66 -3 -58 -4 35 0 106 1 116 12 90 7 -16 9 -32 4 -35z m8 -272 c-3 -8 -6 -5
-6 6 -1 11 2 17 5 13 3 -3 4 -12 1 -19z m558 -13 c0 -14 -3 -25 -7 -25 -5 0
-8 9 -8 21 0 12 -4 17 -11 14 -13 -9 -242 -7 -358 2 -83 6 -84 6 -78 -15 4
-17 1 -22 -16 -22 -16 0 -18 3 -9 12 20 20 14 31 -13 24 -14 -4 -25 -2 -25 4
0 6 91 10 263 10 l262 0 0 -25z m-523 -27 c-6 -6 -15 -8 -19 -4 -4 4 -1 11 7
16 19 12 27 3 12 -12z m396 5 c-60 -2 -156 -2 -215 0 -60 1 -11 3 107 3 118 0
167 -2 108 -3z m234 -16 c-12 -6 -22 -14 -22 -19 0 -13 28 -9 33 5 3 6 6 -53
6 -132 1 -126 -1 -142 -14 -131 -17 14 -20 24 -5 15 6 -4 10 35 10 109 0 88
-3 115 -12 114 -9 -2 -15 -36 -18 -113 l-5 -110 -5 136 -5 136 30 0 c27 0 28
-1 7 -10z m-5 -149 c-2 -13 -4 -3 -4 22 0 25 2 35 4 23 2 -13 2 -33 0 -45z m0
-85 c-3 -10 -5 -4 -5 12 0 17 2 24 5 18 2 -7 2 -21 0 -30z"/>
<path d="M6162 2555 c0 -16 2 -22 5 -12 2 9 2 23 0 30 -3 6 -5 -1 -5 -18z"/>
<path d="M11456 2555 c-3 -9 0 -15 9 -15 9 0 12 6 9 15 -4 8 -7 15 -9 15 -2 0
-5 -7 -9 -15z"/>
<path d="M7487 2353 c-11 -10 -8 -43 3 -43 6 0 10 11 10 25 0 26 -2 29 -13 18z"/>
<path d="M9960 2269 c-74 -33 -160 -70 -190 -83 -200 -84 -236 -100 -247 -109
-7 -5 -13 -27 -13 -47 0 -21 -5 -40 -11 -42 -8 -3 -7 -8 3 -18 12 -13 12 -17
-2 -31 -15 -14 -16 -12 -17 18 -1 18 3 36 8 39 5 3 9 20 8 37 0 26 -2 28 -8
12 -5 -11 -6 -24 -3 -29 3 -5 0 -6 -6 -2 -6 3 -13 -2 -15 -11 -4 -15 -5 -15
-6 2 0 12 4 26 10 32 7 7 3 10 -14 8 -29 -3 -147 -55 -147 -64 0 -4 34 -6 74
-4 62 1 74 -1 69 -13 -3 -8 -13 -14 -22 -14 -14 0 -14 2 -1 10 19 14 -109 1
-130 -12 -10 -6 -6 -7 15 -3 23 5 27 4 18 -6 -7 -7 -22 -9 -40 -4 -27 6 -27 7
-9 21 24 17 17 18 -21 3 -22 -8 -25 -12 -13 -21 12 -8 11 -9 -3 -4 -27 9 -106
-17 -258 -83 l-134 -58 -3 -206 c-1 -114 -1 -207 2 -207 2 0 30 12 62 26 33
15 120 52 194 84 266 113 335 144 345 156 6 7 19 14 30 17 18 4 18 5 -2 6 -23
1 -23 3 -23 124 0 84 -4 127 -12 137 -11 12 -10 12 5 1 14 -11 17 -31 19 -105
1 -78 2 -84 8 -41 l7 50 1 -67 c1 -40 -2 -68 -8 -68 -5 0 -10 -4 -10 -10 0 -5
7 -10 15 -10 12 0 15 23 18 128 l3 127 2 -132 c1 -73 6 -133 11 -133 22 0 556
235 577 254 21 19 22 22 8 35 -14 12 -15 11 -9 -8 5 -18 2 -21 -23 -21 -17 0
-32 6 -36 15 -3 9 0 15 10 15 8 0 12 -4 9 -10 -3 -5 3 -10 14 -10 14 0 19 5
15 15 -6 15 -64 21 -77 8 -4 -4 -99 -7 -211 -7 -159 -1 -207 -4 -220 -15 -12
-10 -20 -11 -27 -4 -7 7 -2 13 18 19 28 8 28 8 -12 15 -22 4 96 6 263 5 l302
-1 0 178 c0 135 -3 177 -12 176 -7 0 -74 -28 -148 -60z m-557 -336 c-7 -2 -21
-2 -30 0 -10 3 -4 5 12 5 17 0 24 -2 18 -5z m440 0 c-46 -2 -120 -2 -165 0
-46 1 -9 3 82 3 91 0 128 -2 83 -3z m-356 -85 c-3 -7 -5 -2 -5 12 0 14 2 19 5
13 2 -7 2 -19 0 -25z"/>
<path d="M1545 2200 c3 -5 8 -10 11 -10 2 0 4 5 4 10 0 6 -5 10 -11 10 -5 0
-7 -4 -4 -10z"/>
<path d="M4287 2137 c-11 -29 -9 -43 4 -30 6 6 9 19 7 29 -3 18 -4 18 -11 1z"/>
<path d="M6820 2066 c0 -2 7 -6 15 -10 8 -3 15 -1 15 4 0 6 -7 10 -15 10 -8 0
-15 -2 -15 -4z"/>
<path d="M10127 1984 c-3 -18 -1 -24 9 -20 7 3 14 0 16 -6 3 -8 10 -8 24 1 19
11 19 11 -1 9 -15 -2 -19 2 -18 20 4 31 -23 28 -30 -4z"/>
<path d="M2131 1961 c-18 -12 0 -21 28 -14 17 4 19 8 9 14 -16 11 -20 11 -37
0z"/>
<path d="M9938 1963 c12 -2 32 -2 45 0 12 2 2 4 -23 4 -25 0 -35 -2 -22 -4z"/>
<path d="M8818 1763 c7 -3 16 -2 19 1 4 3 -2 6 -13 5 -11 0 -14 -3 -6 -6z"/>
<path d="M8555 1665 c-121 -52 -251 -109 -290 -127 -69 -31 -108 -58 -85 -58
6 0 4 -7 -5 -17 -15 -15 -15 -17 -1 -25 17 -9 23 -82 8 -92 -4 -2 -6 14 -4 36
5 46 -15 69 -35 42 -10 -14 -12 -11 -11 15 1 17 -1 33 -3 35 -2 2 -53 -16
-112 -42 -90 -38 -110 -43 -118 -31 -7 11 -9 11 -9 -4 0 -12 -17 -26 -47 -40
-27 -12 -58 -29 -71 -38 -21 -15 -21 -17 -5 -23 15 -6 15 -8 3 -16 -12 -8 -10
-10 8 -10 13 0 20 4 17 10 -3 6 1 10 10 10 9 0 13 -4 10 -10 -4 -7 49 -10 152
-9 87 1 148 4 136 6 -13 2 -23 9 -23 14 0 14 -78 11 -83 -3 -3 -10 -7 -10 -19
0 -8 7 -31 12 -49 13 -19 0 -61 0 -93 0 -37 0 -54 4 -46 9 7 5 84 8 169 9 86
0 150 -3 144 -5 -20 -9 -15 -24 7 -24 11 0 20 -6 21 -12 0 -7 4 -3 9 10 10 23
25 29 35 12 3 -5 0 -10 -8 -10 -8 0 -17 -6 -20 -14 -5 -12 -50 -15 -273 -16
-257 -1 -269 -1 -308 -23 -33 -18 -42 -29 -44 -55 -2 -17 -9 -32 -15 -32 -7 0
-6 -4 3 -10 8 -5 12 -11 9 -14 -10 -11 -31 12 -23 25 12 20 12 50 0 46 -7 -2
-12 -70 -14 -201 -2 -185 -1 -197 14 -181 10 10 13 20 8 23 -6 4 -10 27 -11
52 -1 25 1 34 4 21 4 -18 7 -21 13 -10 6 8 9 -1 8 -28 0 -23 2 -46 6 -51 4 -6
75 20 178 64 167 72 204 82 192 49 -4 -8 -1 -15 6 -15 8 0 11 9 8 25 -4 21 2
27 49 50 29 14 56 25 58 25 3 0 34 14 69 30 39 19 66 38 69 50 5 20 27 28 27
10 0 -17 17 -12 203 68 177 75 181 77 142 83 -36 6 -37 6 -10 9 22 2 25 4 10
7 -11 3 -26 10 -32 15 -9 7 -13 7 -13 -1 0 -6 -17 -11 -40 -11 -22 0 -40 5
-40 10 0 6 -33 10 -79 10 -44 0 -83 5 -86 10 -4 7 55 10 172 9 98 -1 168 -4
156 -6 -13 -2 -23 -9 -23 -14 0 -13 21 -11 50 6 14 8 48 15 75 15 52 0 135 31
135 50 0 5 8 10 18 10 17 0 19 13 21 185 2 148 0 185 -11 185 -7 0 -22 2 -33
5 -12 3 -109 -34 -240 -90z m266 67 c-11 -4 -11 -6 0 -13 12 -8 12 -10 0 -18
-11 -7 -11 -10 0 -15 9 -3 6 -5 -5 -3 -14 1 -19 10 -20 33 -1 26 2 30 19 26
13 -4 15 -7 6 -10z m4 -179 c-4 -65 -7 -128 -7 -140 0 -13 -4 -23 -9 -23 -5 0
-9 63 -9 140 0 124 2 140 17 140 14 0 15 -12 8 -117z m-688 -185 c-3 -8 -6 -5
-6 6 -1 11 2 17 5 13 3 -3 4 -12 1 -19z m19 -17 c-7 -11 42 -44 54 -36 6 3 10
1 10 -4 0 -6 -4 -11 -10 -11 -5 0 -10 -7 -10 -15 0 -12 25 -15 138 -18 l137
-3 -145 -1 c-164 -1 -161 0 -154 -85 3 -27 1 -48 -3 -48 -5 0 -9 19 -11 42 -5
71 -21 66 -20 -6 1 -37 -2 -69 -6 -73 -3 -3 -6 28 -6 71 0 74 1 77 21 71 14
-5 20 -3 18 7 -3 26 1 39 12 32 7 -4 9 2 7 17 -2 20 -8 24 -36 22 -27 -1 -31
1 -21 13 6 8 8 14 3 14 -5 0 -2 5 6 10 19 12 23 12 16 1z m81 -67 c-3 -3 -12
-4 -19 -1 -8 3 -5 6 6 6 11 1 17 -2 13 -5z"/>
<path d="M3511 1545 l2 -195 30 -15 c16 -8 36 -15 43 -15 7 0 30 -10 51 -22
36 -22 49 -23 273 -25 139 -1 225 1 210 7 -17 5 -19 8 -7 9 9 1 17 4 17 9 0
10 -284 2 -288 -9 -5 -13 -91 -11 -154 2 -90 20 -31 27 227 28 l240 0 6 68 6
68 0 -82 c0 -46 -4 -80 -8 -77 -5 3 -9 1 -9 -4 0 -17 13 -22 28 -9 13 10 14 9
10 -3 -4 -12 -35 -15 -184 -18 -98 -1 -204 -3 -234 -5 l-55 -2 218 -94 c136
-59 221 -90 225 -84 4 6 16 13 27 16 18 4 18 5 -2 6 -22 1 -23 5 -21 74 l2 72
3 -67 c3 -53 7 -68 19 -68 13 0 15 13 13 70 -1 39 0 73 4 76 7 8 -3 37 -17 46
-7 5 -6 8 2 8 8 0 16 -10 20 -22 5 -21 6 -21 13 -2 7 16 8 17 8 2 1 -16 12
-18 86 -18 50 0 85 4 85 10 0 6 10 10 23 9 21 0 21 -1 2 -9 -13 -6 15 -9 80
-8 55 0 91 4 80 8 -11 4 -41 6 -67 5 -28 -1 -45 2 -41 8 3 5 19 6 36 3 17 -3
27 -3 23 1 -8 8 -186 14 -186 7 0 -3 10 -9 23 -14 19 -7 16 -9 -18 -9 -26 -1
-35 2 -26 8 8 5 9 11 3 15 -6 4 -16 -2 -21 -11 -10 -17 -12 -17 -25 0 -16 21
-26 22 -26 2 0 -22 -17 -18 -23 4 -4 18 2 19 126 20 72 1 132 3 134 5 2 2 -38
21 -89 43 -62 27 -97 48 -105 63 -17 35 -62 57 -49 25 4 -10 -1 -14 -17 -12
-12 1 -22 -4 -23 -10 -1 -7 -2 -16 -3 -19 0 -4 -8 -1 -16 6 -13 11 -13 15 -3
21 9 6 9 9 1 9 -6 0 -18 6 -25 13 -7 7 -42 25 -78 41 -336 146 -525 226 -533
226 -5 0 -7 -7 -4 -14 4 -11 1 -13 -11 -9 -14 6 -15 4 -5 -8 7 -9 12 -71 13
-178 0 -90 3 -168 5 -172 3 -4 -4 -5 -16 -2 -14 4 -17 8 -9 13 9 6 9 9 -1 13
-11 4 -11 7 -2 14 9 6 11 49 9 158 -5 202 -5 195 -17 195 -7 0 -9 -65 -8 -195z
m699 -155 c0 -5 -4 -10 -10 -10 -5 0 -10 5 -10 10 0 6 5 10 10 10 6 0 10 -4
10 -10z m-5 -30 c3 -5 1 -10 -4 -10 -6 0 -11 5 -11 10 0 6 2 10 4 10 3 0 8 -4
11 -10z m-5 -30 c0 -5 -5 -10 -11 -10 -5 0 -7 5 -4 10 3 6 8 10 11 10 2 0 4
-4 4 -10z m-13 -177 c-2 -16 -4 -5 -4 22 0 28 2 40 4 28 2 -13 2 -35 0 -50z"/>
<path d="M8145 1470 c3 -5 8 -10 11 -10 2 0 4 5 4 10 0 6 -5 10 -11 10 -5 0
-7 -4 -4 -10z"/>
<path d="M3730 1300 c0 -5 7 -10 15 -10 8 0 15 5 15 10 0 6 -7 10 -15 10 -8 0
-15 -4 -15 -10z"/>
<path d="M8593 1296 c-13 -6 -23 -14 -23 -18 0 -11 1 -11 46 12 24 12 32 19
19 18 -11 0 -30 -5 -42 -12z"/>
<path d="M7695 1281 c-3 -5 8 -9 25 -9 16 1 30 5 30 10 0 11 -47 10 -55 -1z"/>
<path d="M4214 1261 c-2 -2 -4 -50 -5 -105 0 -56 -3 -95 -6 -88 -2 6 -11 12
-19 12 -47 0 31 -40 361 -183 296 -128 285 -124 285 -97 0 16 4 20 16 16 9 -3
20 -6 26 -6 6 0 8 -9 5 -19 -2 -10 -2 -23 2 -29 3 -5 53 -31 111 -56 l104 -46
188 0 c103 0 188 -3 188 -8 0 -4 -19 -6 -42 -5 -34 2 -38 1 -18 -6 19 -6 5 -9
-53 -12 -85 -4 -118 7 -40 14 27 2 10 4 -36 4 -77 0 -82 -1 -60 -14 l24 -14
-25 7 c-14 3 -21 3 -17 -2 10 -11 339 -15 332 -4 -2 4 -25 5 -50 2 -25 -2 -45
-1 -45 4 0 5 24 10 53 11 79 2 79 2 72 13 -5 7 70 10 230 10 130 -1 239 0 241
2 3 4 -245 113 -464 205 l-33 14 3 -116 c2 -63 -1 -114 -6 -112 -5 2 -8 49 -7
105 1 56 -2 102 -7 102 -17 0 -22 -13 -9 -28 9 -12 9 -14 0 -9 -9 6 -13 -11
-16 -60 -3 -57 -4 -53 -4 23 0 88 0 91 21 87 18 -3 17 -1 -4 9 -14 7 -27 16
-30 20 -10 13 -588 258 -608 258 -11 0 -30 9 -43 19 -14 10 -54 32 -89 47 -64
28 -69 29 -293 34 -126 3 -231 3 -233 1z m623 -138 c-3 -10 -5 -4 -5 12 0 17
2 24 5 18 2 -7 2 -21 0 -30z m34 -48 c3 28 6 -19 7 -102 1 -84 -2 -153 -7
-153 -5 0 -8 12 -8 28 0 15 -2 88 -5 162 -3 74 -2 108 1 75 l7 -60 5 50z m-34
-167 c-2 -24 -4 -5 -4 42 0 47 2 66 4 43 2 -24 2 -62 0 -85z m680 -175 c-2
-16 -4 -5 -4 22 0 28 2 40 4 28 2 -13 2 -35 0 -50z m-17 -63 c0 -11 -4 -20 -9
-20 -5 0 -7 9 -4 20 3 11 7 20 9 20 2 0 4 -9 4 -20z"/>
<path d="M7165 1066 c-262 -114 -367 -166 -337 -166 6 0 12 -5 12 -11 0 -5 -4
-7 -10 -4 -6 4 -10 -32 -10 -99 0 -95 2 -106 18 -105 10 0 12 3 5 6 -20 7 -18
170 2 189 13 14 15 13 15 -5 0 -12 -4 -21 -10 -21 -5 0 -10 -5 -10 -11 0 -5 5
-7 10 -4 6 3 10 -3 10 -14 0 -12 -6 -21 -12 -21 -10 0 -10 -2 0 -8 8 -6 12
-28 11 -63 -2 -52 -15 -79 -39 -79 -6 0 -8 -5 -5 -10 4 -6 16 -8 28 -5 16 5
18 4 8 -3 -11 -8 -10 -12 5 -21 17 -10 16 -11 -7 -5 -24 5 -26 3 -27 -35 -1
-23 2 -41 8 -41 5 0 7 7 3 16 -4 12 -2 15 8 12 8 -3 13 -11 12 -17 -5 -19 30
-11 102 24 l70 33 -75 2 c-54 2 -66 4 -45 9 17 4 57 6 90 4 56 -2 58 -2 25 8
-19 6 -56 9 -82 6 -26 -2 -45 0 -42 5 7 12 131 10 155 -2 15 -8 19 -8 17 2 -2
9 -32 15 -98 19 -85 5 -79 5 57 6 l152 2 123 54 c68 30 133 57 146 61 22 7 22
9 22 212 0 157 -3 204 -12 203 -7 0 -139 -56 -293 -123z m-305 -486 c0 -5 -4
-10 -10 -10 -5 0 -10 5 -10 10 0 6 5 10 10 10 6 0 10 -4 10 -10z"/>
<path d="M6685 860 c-60 -26 -184 -80 -275 -119 -90 -39 -167 -76 -170 -81 -3
-5 -17 -14 -30 -20 -24 -10 -23 -10 5 -4 17 3 31 10 33 14 2 5 128 9 283 9
153 0 279 3 279 6 0 3 0 59 0 125 0 66 -3 120 -7 119 -5 0 -57 -22 -118 -49z"/>
<path d="M5160 646 c0 -2 7 -6 15 -10 8 -3 15 -1 15 4 0 6 -7 10 -15 10 -8 0
-15 -2 -15 -4z"/>
<path d="M5578 638 c-16 -5 -28 -14 -28 -19 0 -5 121 -8 285 -7 193 1 282 5
275 12 -5 5 -29 9 -52 7 -25 -1 -45 3 -50 11 -8 10 -11 10 -15 1 -2 -7 -17
-13 -31 -12 l-27 1 25 8 25 8 -27 1 c-16 1 -28 -3 -28 -9 0 -6 -61 -9 -167 -8
l-168 2 165 6 165 6 -160 1 c-88 1 -172 -3 -187 -9z"/>
<path d="M6241 634 c-19 -9 -44 -13 -56 -10 -12 3 -30 -1 -41 -9 -16 -12 -72
-14 -314 -15 l-295 0 5 -67 5 -67 295 -127 c162 -69 299 -123 303 -119 4 4 9
16 10 27 0 11 8 20 17 19 13 -1 15 22 16 169 l2 170 308 0 309 0 -302 -2 -303
-3 0 -170 c0 -168 0 -171 -22 -180 -19 -8 -17 -8 12 -5 19 2 82 25 140 50 58
26 121 53 140 60 19 8 103 43 185 79 l150 65 5 60 c3 34 2 61 -2 61 -5 0 -7 6
-5 13 4 20 -516 21 -562 1z m107 -1 c-16 -2 -40 -2 -55 0 -16 2 -3 4 27 4 30
0 43 -2 28 -4z m290 0 c-49 -2 -127 -2 -175 0 -49 1 -9 3 87 3 96 0 136 -2 88
-3z m-474 -38 c-4 -15 -2 -25 5 -25 6 0 11 -5 11 -11 0 -8 -5 -8 -15 1 -16 13
-20 42 -8 53 12 12 13 7 7 -18z m9 -308 c9 -6 8 -7 -3 -4 -12 3 -15 23 -16 98
l0 94 3 -90 c2 -55 9 -93 16 -98z"/>
<path d="M7080 640 c0 -5 5 -10 10 -10 6 0 10 5 10 10 0 6 -4 10 -10 10 -5 0
-10 -4 -10 -10z"/>
<path d="M5250 599 c0 -8 215 -99 232 -99 9 0 12 13 10 45 -2 25 0 45 4 45 5
0 9 -16 9 -37 0 -21 5 -37 13 -39 7 -1 8 0 2 3 -5 2 -10 17 -9 31 l1 27 8 -25
8 -25 1 25 c0 14 -3 30 -7 37 -7 12 -272 24 -272 12z"/>
</g>
</svg>
