<svg id="svg" xmlns="http://www.w3.org/2000/svg" xmlns:xlink="http://www.w3.org/1999/xlink" width="400" height="364" viewBox="0, 0, 400,364.3333333333333"><g id="svgg"><path id="path0" d="M223.523 2.629 C 223.423 2.791,222.783 3.029,222.101 3.157 C 216.052 4.292,209.208 10.311,205.415 17.833 C 204.090 20.460,203.771 20.712,199.591 22.439 C 187.602 27.394,181.926 35.065,181.910 46.333 C 181.896 55.950,184.299 60.087,194.142 67.392 C 210.412 79.468,215.373 89.109,215.470 108.833 C 215.511 117.087,215.712 117.934,218.227 120.449 C 224.542 126.764,230.060 115.980,232.561 92.441 C 232.878 89.462,233.168 87.057,233.207 87.096 C 233.246 87.135,233.510 88.952,233.794 91.134 C 235.036 100.667,239.035 102.330,240.513 93.928 C 242.139 84.675,245.215 71.964,246.010 71.211 C 246.926 70.342,246.129 77.578,244.821 82.000 C 241.615 92.844,245.010 96.622,250.539 88.364 C 252.473 85.475,253.719 84.459,252.696 86.604 C 247.109 98.321,246.467 101.204,249.303 101.827 C 250.965 102.192,252.644 101.482,262.051 96.435 C 267.065 93.746,272.677 90.927,274.523 90.171 C 297.298 80.847,305.760 59.810,291.851 47.094 C 289.851 45.266,288.740 44.596,284.238 42.503 C 281.424 41.196,281.163 40.655,281.784 37.436 C 284.930 21.153,278.801 6.459,267.623 3.484 C 261.309 1.804,252.481 4.505,247.516 9.638 C 245.769 11.443,245.490 11.391,242.264 8.656 C 239.386 6.216,234.561 3.564,232.246 3.149 C 231.557 3.025,230.910 2.791,230.810 2.629 C 230.572 2.243,223.762 2.243,223.523 2.629 M352.186 23.484 C 347.839 25.076,346.012 29.392,346.477 36.965 C 346.608 39.092,346.742 41.433,346.774 42.167 L 346.833 43.500 344.390 44.713 C 337.086 48.340,336.365 54.684,342.446 61.815 L 343.568 63.129 339.201 65.758 C 336.799 67.204,334.300 68.750,333.649 69.194 C 332.080 70.262,332.128 70.302,332.100 67.917 C 331.971 56.667,324.696 50.938,320.689 58.931 C 318.654 62.990,319.333 68.943,322.337 73.384 C 323.514 75.124,323.712 74.904,318.623 77.507 L 315.078 79.321 315.241 77.244 C 316.129 65.960,307.099 64.218,303.608 75.000 C 303.071 76.656,302.898 78.086,302.870 81.067 C 302.850 83.212,302.683 85.116,302.500 85.297 C 302.059 85.735,295.357 88.713,291.167 90.333 C 289.333 91.041,285.225 92.688,282.037 93.992 C 278.849 95.295,273.759 97.188,270.727 98.197 C 258.057 102.415,251.286 105.900,242.809 112.565 C 241.172 113.851,238.783 115.619,237.500 116.493 C 221.289 127.533,201.707 146.743,200.524 152.766 C 200.481 152.986,200.083 154.292,199.639 155.667 C 198.533 159.097,198.446 169.015,199.486 173.000 C 199.845 174.375,200.108 175.612,200.070 175.750 C 200.031 175.887,200.159 176.000,200.353 176.000 C 200.547 176.000,200.613 176.150,200.500 176.333 C 200.387 176.517,200.462 176.667,200.667 176.667 C 200.872 176.667,200.947 176.817,200.833 177.000 C 200.720 177.183,200.811 177.333,201.036 177.333 C 201.261 177.333,201.357 177.421,201.249 177.529 C 201.047 177.731,201.586 178.444,203.792 180.897 C 212.704 190.802,232.228 181.267,236.684 164.833 C 244.859 134.681,258.267 119.702,289.481 105.847 C 292.183 104.648,294.464 103.667,294.549 103.667 C 294.635 103.667,297.601 102.318,301.142 100.670 C 317.069 93.255,322.254 93.057,326.982 99.685 C 332.833 107.888,338.957 109.673,342.209 104.124 C 345.637 98.275,341.669 91.495,334.534 91.012 C 328.215 90.584,330.076 84.333,336.522 84.333 C 339.831 84.333,342.332 85.797,342.334 87.733 C 342.336 91.566,347.799 96.651,351.232 96.016 C 360.745 94.258,358.687 82.603,348.528 80.705 C 345.030 80.051,344.200 78.000,346.583 75.897 C 347.454 75.129,349.468 73.247,351.058 71.715 C 354.322 68.570,354.193 68.573,355.962 71.600 C 362.748 83.211,374.277 81.735,377.690 68.819 C 378.596 65.389,378.578 65.399,382.134 66.306 C 384.105 66.809,385.358 66.952,386.382 66.791 C 398.100 64.948,401.945 47.545,391.019 45.798 C 387.960 45.309,386.959 43.127,387.653 38.462 C 389.374 26.893,378.920 20.531,369.396 27.350 C 366.713 29.272,365.802 29.182,362.478 26.664 C 358.487 23.642,354.836 22.514,352.186 23.484 M148.167 43.480 C 142.255 44.860,138.679 47.366,136.508 51.650 C 135.504 53.632,135.561 53.632,132.633 51.644 C 125.612 46.876,115.113 45.640,107.919 48.733 C 103.726 50.537,100.966 56.615,98.985 68.407 C 97.554 76.928,97.559 76.919,92.531 79.331 C 78.510 86.058,73.339 103.423,82.934 111.559 C 87.521 115.449,88.511 117.677,86.776 120.203 C 86.287 120.917,85.442 122.150,84.900 122.945 C 80.661 129.160,81.969 136.648,88.402 142.978 C 95.558 150.020,103.459 150.765,117.546 145.727 C 122.131 144.087,123.349 143.751,132.667 141.559 C 151.851 137.044,164.257 138.022,176.433 145.008 C 183.690 149.172,187.985 149.681,190.122 146.629 C 191.632 144.473,190.714 143.002,183.722 136.363 C 180.939 133.721,178.731 131.491,178.815 131.408 C 178.898 131.324,181.037 132.389,183.567 133.774 C 190.830 137.752,191.249 137.777,190.846 134.212 C 190.242 128.870,186.679 121.974,183.000 119.024 C 181.910 118.150,182.667 118.150,184.380 119.024 C 187.275 120.501,190.454 124.232,192.786 128.892 C 194.157 131.631,194.387 131.847,195.314 131.268 C 196.789 130.347,196.971 128.323,195.995 123.699 C 195.249 120.168,195.180 117.063,195.807 115.333 C 196.319 113.925,196.503 114.345,196.835 117.667 C 197.725 126.579,199.304 133.185,200.972 134.970 C 206.690 141.091,214.179 116.927,211.511 100.969 C 209.195 87.120,201.702 78.349,187.333 72.669 C 181.693 70.439,181.755 70.511,180.156 64.339 C 177.371 53.594,172.016 47.457,162.667 44.297 C 158.872 43.014,151.854 42.619,148.167 43.480 M369.442 48.645 C 371.677 49.494,371.963 54.655,369.881 56.563 C 367.807 58.463,363.691 57.969,362.506 55.678 C 360.120 51.065,364.398 46.727,369.442 48.645 M303.185 104.205 C 295.874 105.524,287.896 109.360,281.333 114.709 C 280.325 115.531,276.800 118.287,273.500 120.834 C 259.141 131.914,254.678 136.293,256.883 137.139 C 257.491 137.373,259.458 136.470,265.500 133.185 C 269.235 131.154,270.667 130.623,270.667 131.268 C 270.667 131.566,267.944 133.635,262.667 137.349 C 254.819 142.871,253.928 145.190,259.200 146.370 C 261.218 146.821,261.668 146.726,267.847 144.531 C 274.848 142.045,290.800 140.369,294.659 141.714 C 296.752 142.444,294.995 142.742,280.167 144.176 C 259.465 146.178,252.594 149.513,257.931 154.968 C 258.655 155.709,261.379 155.797,264.755 155.189 C 272.567 153.783,273.255 154.966,265.711 156.834 C 254.137 159.699,249.544 162.323,249.514 166.087 L 249.500 167.833 252.000 167.805 C 253.656 167.785,256.019 167.393,259.000 166.642 C 265.818 164.925,268.420 165.168,284.052 168.986 C 298.149 172.428,306.275 177.841,315.908 190.205 C 320.039 195.507,321.792 197.972,326.233 204.725 C 329.999 210.449,331.610 211.404,337.833 211.596 C 350.212 211.978,358.699 205.504,358.905 195.522 C 358.995 191.151,359.596 189.980,362.088 189.313 C 369.621 187.298,372.722 185.849,375.663 182.967 C 381.366 177.382,381.797 167.981,376.804 158.086 C 374.772 154.059,373.825 149.333,375.050 149.333 C 375.228 149.333,375.297 149.211,375.204 149.061 C 375.111 148.911,375.418 147.973,375.886 146.977 C 381.526 134.973,378.889 127.780,366.500 121.382 C 358.962 117.489,357.228 116.951,351.667 116.777 C 345.495 116.584,345.514 116.589,341.798 114.204 C 327.974 105.328,315.236 102.029,303.185 104.205 M144.167 141.682 C 127.556 143.879,116.071 153.490,113.316 167.500 C 113.100 168.600,112.632 170.281,112.276 171.235 L 111.630 172.971 108.731 173.850 C 98.987 176.806,93.839 183.271,93.880 192.500 C 93.913 199.937,97.049 205.230,102.500 207.050 C 105.384 208.013,105.260 207.922,104.450 208.489 C 104.078 208.750,103.187 209.834,102.470 210.898 C 101.753 211.963,101.017 212.944,100.833 213.078 C 100.611 213.241,100.611 213.327,100.833 213.333 C 101.017 213.339,100.955 213.477,100.697 213.641 C 100.438 213.805,100.188 214.290,100.141 214.719 C 100.094 215.149,100.032 215.500,100.003 215.500 C 99.743 215.500,99.542 217.745,99.564 220.417 C 99.598 224.488,99.678 225.333,100.031 225.333 C 100.186 225.333,100.233 225.539,100.137 225.790 C 100.041 226.042,100.188 226.474,100.465 226.751 C 100.742 227.027,100.875 227.347,100.762 227.460 C 100.648 227.574,100.739 227.667,100.964 227.667 C 101.189 227.667,101.281 227.815,101.169 227.997 C 101.057 228.178,102.135 229.507,103.566 230.950 C 107.774 235.194,112.766 237.111,120.757 237.553 C 125.559 237.818,125.483 237.762,126.334 241.725 C 130.455 260.935,140.434 267.934,159.376 264.901 C 164.539 264.074,164.254 264.006,167.678 266.879 C 177.010 274.709,186.275 276.568,194.721 272.306 C 199.981 269.651,205.480 262.863,206.186 258.152 C 206.469 256.264,206.717 256.137,211.016 255.670 C 223.201 254.349,230.348 248.743,233.770 237.825 C 237.383 226.296,234.791 213.409,226.217 200.282 C 225.181 198.696,224.333 197.303,224.333 197.188 C 224.333 196.563,221.056 192.146,219.661 190.892 C 215.993 187.594,208.210 187.262,204.895 190.262 C 203.329 191.679,203.202 192.407,202.964 201.333 C 202.709 210.886,201.639 217.333,200.308 217.333 C 200.151 217.333,200.055 212.946,200.095 207.583 C 200.171 197.270,200.157 197.163,198.567 195.417 C 196.244 192.866,193.444 194.820,188.041 202.761 C 184.870 207.422,183.836 208.495,183.459 207.514 C 183.069 206.497,183.757 205.095,186.937 200.422 C 190.941 194.540,191.869 192.914,192.341 190.960 C 193.138 187.655,190.980 185.564,187.516 186.285 C 186.591 186.478,183.283 187.169,180.167 187.820 C 165.276 190.932,161.193 189.422,174.879 185.865 C 186.908 182.738,188.228 180.639,180.167 177.458 C 178.883 176.951,177.308 176.229,176.667 175.852 L 175.500 175.167 177.333 175.060 C 178.342 175.001,180.704 175.203,182.584 175.509 C 194.588 177.466,193.308 168.591,179.490 154.058 C 169.885 143.956,158.126 139.837,144.167 141.682 M264.749 172.011 C 258.093 172.850,252.388 175.159,250.077 177.947 C 246.031 182.831,246.411 183.502,254.333 185.463 C 259.749 186.803,264.032 188.317,267.500 190.117 C 273.940 193.460,273.931 193.711,267.450 191.615 C 259.831 189.151,254.854 189.946,256.669 193.337 C 256.853 193.681,258.465 194.819,260.252 195.865 C 264.194 198.172,268.094 201.930,269.473 204.749 C 270.715 207.286,270.434 207.787,268.995 205.605 C 266.273 201.478,256.023 195.741,254.828 197.675 C 254.372 198.414,255.161 200.154,257.732 204.075 C 260.872 208.866,261.992 211.095,261.997 212.564 C 262.005 215.106,261.276 214.352,254.140 204.432 C 245.121 191.894,241.660 189.201,238.376 192.167 C 236.403 193.950,236.562 195.155,239.689 202.081 C 244.487 212.711,243.514 226.643,236.994 240.667 C 229.464 256.861,230.268 270.234,239.308 279.171 C 243.938 283.748,249.687 285.348,256.131 283.854 C 260.410 282.861,261.049 283.299,264.651 289.686 C 270.144 299.424,272.295 301.419,278.310 302.352 C 285.977 303.542,293.376 300.294,298.494 293.493 C 300.666 290.608,300.515 290.647,303.715 292.156 C 310.937 295.563,317.709 293.988,324.368 287.355 C 331.889 279.863,333.575 273.853,331.042 263.552 C 329.388 256.820,329.400 257.457,330.917 257.174 C 332.575 256.863,336.707 252.665,338.318 249.653 C 342.625 241.602,336.337 227.919,324.984 220.636 C 321.377 218.323,321.565 218.748,321.496 212.733 C 321.382 202.789,318.946 197.246,311.352 189.645 C 299.676 177.957,279.158 170.194,264.749 172.011 M66.500 184.666 C 52.707 185.648,45.276 190.619,47.607 197.305 L 47.966 198.336 46.566 198.086 C 34.174 195.871,19.963 201.655,14.424 211.167 C 9.665 219.340,10.130 222.667,16.035 222.667 C 18.511 222.667,18.656 222.306,13.855 228.063 C 4.398 239.403,2.667 243.810,2.667 256.546 C 2.667 267.393,3.826 272.220,6.770 273.628 C 11.650 275.963,31.102 276.604,44.081 274.858 C 48.067 274.322,51.420 273.976,51.533 274.088 C 51.646 274.201,51.892 276.665,52.081 279.563 C 52.499 285.988,52.553 286.082,55.997 286.277 C 67.053 286.901,78.260 283.223,85.562 276.572 C 89.421 273.058,90.104 273.014,90.480 276.260 C 91.238 282.798,91.525 283.184,95.414 282.895 C 103.439 282.300,112.258 277.480,120.419 269.228 C 124.943 264.654,125.334 263.981,124.702 261.853 C 124.480 261.109,124.282 260.313,124.261 260.083 C 124.240 259.854,124.072 259.667,123.889 259.667 C 123.706 259.667,123.642 259.580,123.748 259.474 C 123.854 259.368,123.523 258.268,123.012 257.029 C 122.501 255.791,121.079 251.762,119.850 248.076 C 117.134 239.923,117.927 240.608,111.086 240.509 C 104.781 240.417,101.340 239.724,96.235 237.517 C 92.802 236.033,92.860 235.984,90.983 242.000 C 89.518 246.699,88.193 249.702,86.725 251.655 L 85.856 252.811 85.657 251.822 C 85.548 251.278,85.664 248.058,85.915 244.667 C 86.611 235.273,86.134 227.712,84.814 227.205 C 84.565 227.110,83.612 227.548,82.695 228.179 C 77.937 231.451,76.168 232.533,72.586 234.360 C 70.433 235.458,67.373 236.858,65.786 237.472 L 62.900 238.588 62.817 240.456 C 62.653 244.161,60.217 247.799,55.283 251.706 C 53.568 253.065,53.662 252.734,55.832 249.761 C 58.338 246.330,59.528 241.797,58.210 240.703 C 57.066 239.753,51.122 241.371,46.333 243.935 L 44.167 245.096 45.333 244.044 C 47.119 242.434,53.023 237.975,53.893 237.579 C 55.347 236.916,54.546 235.554,51.571 233.631 L 49.563 232.333 50.728 232.333 C 53.311 232.333,59.667 234.471,59.667 235.340 C 59.667 235.922,60.782 235.693,65.245 234.196 C 76.201 230.521,79.566 226.890,77.656 220.800 C 77.232 219.446,76.977 218.245,77.091 218.131 C 77.281 217.941,80.812 219.349,84.833 221.218 C 88.113 222.743,89.523 222.092,92.184 217.823 C 96.101 211.538,96.028 210.657,91.199 205.906 C 85.996 200.786,84.543 197.734,83.492 189.716 C 82.780 184.287,83.104 184.512,75.908 184.453 C 72.750 184.426,68.517 184.523,66.500 184.666 M131.912 268.432 C 127.662 270.284,119.566 281.880,114.822 292.908 C 111.731 300.096,111.756 300.344,115.873 303.026 C 118.351 304.640,118.266 304.274,117.021 307.990 C 113.566 318.304,114.432 329.386,119.329 337.492 C 123.937 345.121,124.739 350.351,122.370 357.323 C 120.746 362.101,120.715 362.063,126.094 361.913 C 133.591 361.705,143.666 359.018,153.000 354.738 C 154.192 354.191,155.884 353.433,156.761 353.053 C 159.180 352.003,163.735 348.923,165.673 347.026 C 167.974 344.772,167.668 344.648,172.014 349.606 C 173.915 351.774,174.358 351.785,178.000 349.750 C 181.335 347.886,186.089 343.384,188.296 340.000 C 190.887 336.025,196.000 324.157,196.000 322.115 C 196.000 321.706,196.204 321.641,196.917 321.824 C 202.086 323.152,204.945 322.113,206.352 318.397 C 209.167 310.959,208.455 299.820,204.208 284.840 C 202.254 277.949,202.533 278.155,196.943 279.488 C 193.104 280.403,187.983 280.998,183.881 281.005 C 178.910 281.013,178.727 281.292,180.969 285.453 C 182.787 288.825,183.823 291.641,184.174 294.167 L 184.406 295.833 182.374 292.780 C 174.584 281.071,167.717 282.637,166.792 296.333 L 166.578 299.500 168.563 301.509 C 170.535 303.504,171.946 305.941,172.611 308.500 L 172.958 309.833 171.562 308.179 C 166.207 301.833,165.966 301.790,163.176 306.708 C 162.071 308.655,159.592 313.029,157.667 316.428 C 155.742 319.827,154.129 322.572,154.084 322.527 C 154.039 322.482,154.384 321.333,154.851 319.973 C 158.104 310.502,162.328 288.824,162.332 281.583 C 162.334 277.382,162.193 277.268,159.143 279.014 C 157.188 280.132,153.992 281.317,150.667 282.155 C 149.475 282.456,148.200 282.778,147.833 282.871 C 147.467 282.965,148.186 282.434,149.432 281.693 C 157.477 276.903,157.137 273.866,148.330 271.840 C 145.674 271.229,141.313 270.115,138.640 269.364 C 133.295 267.864,133.234 267.855,131.912 268.432 " stroke="none" fill="#fff" fill-rule="evenodd" ></path></g></svg>