<?xml version="1.0" standalone="no"?>
<!DOCTYPE svg PUBLIC "-//W3C//DTD SVG 20010904//EN"
 "http://www.w3.org/TR/2001/REC-SVG-20010904/DTD/svg10.dtd">
<svg version="1.0" xmlns="http://www.w3.org/2000/svg"
 width="56" height="48" viewBox="0 0 328.000000 235.000000"
 preserveAspectRatio="xMidYMid meet">

<g transform="translate(0.000000,235.000000) scale(0.100000,-0.100000)"
fill="#ffffff" stroke="none">
<path d="M1573 2180 c-55 -33 -146 -199 -202 -368 -45 -136 -66 -230 -81 -372
-18 -158 -27 -155 -51 18 -15 112 -20 116 -133 109 -100 -5 -212 -37 -336 -94
-86 -39 -130 -77 -130 -110 0 -28 -9 -29 -54 -2 -31 18 -40 19 -72 9 -34 -12
-74 -59 -74 -88 0 -8 9 -26 19 -41 16 -23 20 -48 22 -171 3 -155 -8 -201 -49
-214 -33 -11 -126 -85 -146 -117 -15 -24 -24 -29 -42 -25 -28 7 -62 -5 -91
-33 -18 -17 -23 -33 -23 -71 0 -41 4 -52 29 -73 18 -15 48 -27 80 -31 68 -9
75 -21 106 -178 9 -49 44 -77 109 -89 33 -6 72 -8 87 -5 15 3 76 -1 136 -9
130 -17 161 -10 192 46 12 20 21 43 21 51 0 28 20 37 48 22 64 -33 283 2 439
72 65 28 76 29 93 8 51 -61 228 -65 292 -7 18 16 22 15 76 -11 82 -41 162 -64
279 -82 107 -17 163 -14 183 11 21 26 35 17 53 -35 27 -76 47 -85 170 -75 56
5 140 9 187 9 130 2 169 27 185 121 4 22 13 61 22 87 13 42 19 49 51 58 20 5
46 10 57 10 11 0 33 10 48 23 22 17 30 34 34 69 5 42 3 50 -25 78 -29 28 -48
35 -99 30 -16 -1 -26 6 -32 23 -5 13 -38 46 -72 73 -107 84 -142 121 -136 146
3 13 9 79 13 148 4 79 12 132 20 145 30 42 7 103 -46 125 -32 13 -61 7 -102
-22 -33 -23 -48 -17 -48 18 0 49 -72 95 -235 150 -56 19 -109 28 -177 32 -135
7 -166 -1 -184 -43 -8 -19 -14 -53 -14 -75 0 -56 -17 -50 -23 8 -19 191 -83
416 -163 571 -68 130 -121 191 -167 191 -7 0 -27 -9 -44 -20z m105 -56 c21
-25 58 -84 81 -131 47 -94 117 -297 132 -383 21 -118 39 -279 39 -352 0 -68
10 -101 27 -85 7 8 31 149 39 232 8 87 22 110 69 118 42 7 193 -8 245 -25 51
-15 196 -78 216 -93 10 -7 17 -25 16 -43 0 -22 6 -37 21 -47 29 -20 40 -19 83
10 45 31 61 31 91 3 27 -25 29 -54 7 -79 -13 -15 -17 -46 -20 -150 -2 -74 -8
-136 -14 -144 -8 -10 -4 -23 15 -50 14 -21 25 -41 25 -46 0 -4 14 -10 30 -14
17 -4 37 -17 46 -30 8 -13 32 -34 54 -49 25 -16 40 -35 45 -56 6 -29 8 -30 65
-30 34 0 62 -5 68 -13 21 -25 24 -65 7 -95 -15 -24 -28 -31 -88 -43 l-71 -14
-14 -45 c-8 -25 -18 -69 -22 -99 -14 -88 -29 -98 -173 -104 -67 -4 -147 -10
-177 -16 -97 -16 -122 -1 -151 88 -36 115 -59 136 -70 68 -9 -56 -20 -62 -109
-60 -104 3 -226 34 -327 83 -44 22 -83 40 -86 40 -2 0 -21 -13 -42 -30 -35
-28 -44 -30 -118 -30 -77 0 -82 1 -124 36 l-44 36 -61 -27 c-104 -47 -239 -85
-323 -91 -92 -7 -132 4 -137 37 -4 31 -26 35 -37 7 -5 -13 -19 -49 -32 -81
-30 -80 -45 -88 -139 -75 -41 5 -128 13 -192 16 -141 8 -141 8 -164 120 -3 15
-12 50 -20 78 l-15 52 -71 13 c-63 13 -74 18 -90 45 -15 25 -16 36 -7 63 12
33 35 44 85 40 54 -4 64 0 64 25 0 17 16 38 54 70 29 25 59 46 67 46 22 1 43
21 72 72 22 38 25 51 17 72 -5 15 -9 43 -9 64 0 20 -1 62 -3 92 -2 30 0 65 4
77 5 15 1 29 -13 46 -27 35 -24 71 6 91 32 21 38 20 85 -9 22 -14 44 -25 49
-25 20 0 41 32 35 55 -4 18 2 28 28 47 103 76 404 165 470 139 20 -7 28 -19
32 -43 28 -181 64 -329 82 -335 7 -2 15 53 23 159 12 167 37 313 72 428 70
225 180 420 237 420 12 0 37 -19 60 -46z"/>
<path d="M1559 2068 c-11 -18 -39 -73 -63 -123 -175 -364 -203 -875 -68 -1265
60 -174 96 -230 149 -230 l23 0 0 825 c0 551 -3 825 -10 825 -6 0 -19 -15 -31
-32z"/>
<path d="M1640 1275 c0 -899 -4 -840 55 -813 47 21 128 222 172 428 26 122 26
524 -1 655 -35 175 -94 357 -146 450 -43 75 -63 105 -71 105 -5 0 -9 -342 -9
-825z"/>
<path d="M1097 1504 c-4 -4 -28 -8 -55 -9 -54 -2 -178 -40 -204 -63 -10 -8
-18 -24 -18 -34 0 -18 -1 -18 -16 -4 -19 20 -28 20 -44 1 -7 -8 -18 -15 -26
-15 -26 0 -25 -23 4 -88 16 -37 32 -75 36 -85 10 -31 33 -30 145 6 61 20 147
44 192 53 44 10 83 23 85 28 2 6 -4 56 -14 111 -18 99 -18 100 -48 103 -16 2
-33 0 -37 -4z"/>
<path d="M2045 1478 c-11 -35 -25 -202 -17 -210 5 -5 40 -14 78 -18 78 -10
268 -55 301 -72 28 -14 39 -5 47 37 4 20 16 56 27 81 32 76 29 82 -68 129 -18
8 -40 12 -49 8 -10 -4 -22 0 -30 11 -17 24 -113 49 -131 34 -10 -8 -17 -8 -25
0 -16 16 -127 16 -133 0z"/>
<path d="M520 1297 c0 -16 41 -57 57 -57 6 0 16 -7 23 -15 10 -12 5 -17 -25
-29 -35 -15 -36 -17 -33 -63 3 -41 7 -50 32 -62 l28 -13 -27 -22 -27 -22 16
-49 17 -48 -27 -22 c-23 -19 -26 -27 -21 -58 6 -41 48 -137 59 -137 5 0 8 13
8 28 0 36 5 40 35 34 22 -4 25 -10 25 -43 0 -22 2 -39 5 -39 12 0 145 140 145
153 0 7 -20 28 -45 46 -25 18 -53 43 -61 56 -14 21 -14 27 -1 45 16 23 27 17
27 -15 0 -12 9 -34 21 -49 17 -21 24 -24 35 -15 16 13 20 104 4 94 -5 -3 -21
6 -34 22 -24 28 -25 28 -54 11 -45 -27 -55 -23 -48 16 6 29 3 37 -21 54 -26
19 -27 22 -12 37 20 20 51 13 79 -17 26 -28 46 -14 25 18 -12 19 -14 37 -9 70
7 46 -5 74 -33 74 -11 0 -14 -11 -12 -42 4 -55 -15 -60 -40 -10 -26 52 -111
104 -111 69z"/>
<path d="M2653 1287 c-18 -12 -40 -37 -50 -54 -10 -18 -21 -33 -24 -33 -4 0
-16 -3 -26 -6 -12 -4 -14 -3 -6 3 20 14 21 74 1 86 -35 23 -67 -44 -34 -72 14
-12 12 -40 -7 -78 -16 -35 -1 -39 33 -9 57 47 109 20 56 -29 -27 -25 -32 -40
-16 -50 12 -8 1 -35 -15 -35 -7 0 -18 7 -25 15 -16 20 -47 14 -66 -13 -9 -13
-22 -21 -31 -20 -9 2 -20 -11 -29 -37 -19 -55 -19 -55 31 -55 l46 0 -36 -37
c-19 -20 -35 -40 -35 -44 0 -4 20 -22 45 -40 25 -18 55 -48 66 -66 30 -47 53
-44 44 6 -6 35 -4 39 19 43 32 6 36 2 36 -34 0 -19 4 -28 13 -25 6 2 17 -3 24
-12 10 -14 14 -14 35 7 31 29 46 28 58 -4 14 -36 13 -38 -21 -51 -20 -8 -28
-16 -23 -24 5 -9 -5 -11 -39 -7 -54 6 -83 -13 -48 -31 24 -14 323 -15 336 -2
6 5 24 11 40 13 23 2 31 9 33 27 4 24 3 24 -63 19 -40 -4 -73 -12 -84 -22 -12
-11 -34 -16 -72 -15 -51 2 -52 2 -15 8 31 5 42 13 57 41 26 48 24 75 -8 95
-16 10 -40 31 -55 46 -33 36 -49 31 -90 -29 -33 -48 -50 -44 -25 5 14 27 22
69 19 104 -1 9 -13 21 -27 27 -22 10 -23 14 -13 44 6 18 15 39 21 46 7 9 3 20
-16 40 -32 34 -34 42 -7 42 23 0 33 30 28 81 -2 25 -10 37 -30 47 -16 7 -28
16 -28 20 1 4 21 20 45 35 46 29 59 58 28 56 -10 0 -32 -10 -50 -22z m-122
-354 c-19 -27 -45 -31 -37 -5 3 9 8 29 12 44 l6 28 18 -22 c16 -21 17 -24 1
-45z"/>
<path d="M1115 1249 c-33 -10 -78 -24 -100 -30 -84 -23 -184 -61 -195 -74 -8
-10 -8 -19 0 -34 12 -24 30 -28 30 -7 0 19 22 26 81 26 53 0 56 -3 73 -72 8
-35 -28 -62 -69 -52 l-27 7 30 12 c39 17 46 30 30 57 l-13 23 -3 -22 c-4 -25
-48 -46 -89 -41 -22 2 -28 -1 -28 -17 0 -12 8 -21 20 -23 11 -2 25 -13 30 -25
9 -20 16 -22 90 -19 59 3 87 8 107 23 15 10 31 19 36 19 18 0 96 46 100 59 5
14 -37 12 -99 -4 -21 -5 -27 -2 -37 20 -15 32 -15 45 -2 45 6 0 10 -6 10 -14
0 -21 28 -27 73 -15 38 10 43 9 60 -12 26 -32 39 -13 26 36 -14 52 -15 52 -42
28 -37 -34 -97 -39 -97 -8 0 18 56 45 92 45 31 0 40 26 11 37 -19 7 -119 -42
-127 -63 -6 -17 -26 -19 -26 -3 0 15 24 34 83 64 26 14 47 32 47 40 0 18 -1
18 -75 -6z"/>
<path d="M2020 1220 c0 -6 8 -13 18 -16 9 -3 41 -17 70 -31 63 -31 72 -54 42
-106 -24 -40 -45 -46 -76 -22 -18 14 -18 14 8 15 59 0 70 18 44 69 -17 32 -87
67 -113 56 -17 -7 -17 -8 2 -14 36 -11 105 -51 105 -61 0 -5 -13 -16 -30 -25
-29 -15 -30 -14 -65 20 -38 39 -38 39 -54 -35 -8 -36 -7 -48 4 -59 12 -13 17
-12 36 5 21 19 21 19 18 -6 -4 -22 4 -29 56 -54 47 -23 75 -30 130 -31 39 -1
78 2 88 7 12 6 23 5 32 -2 8 -7 18 -9 24 -6 11 7 43 97 36 104 -2 3 -18 -1
-34 -8 -37 -15 -69 -5 -83 26 -9 20 -17 24 -35 19 -29 -7 -31 17 -3 45 16 16
33 20 96 20 130 0 83 26 -141 79 -97 23 -175 27 -175 11z m257 -205 c34 -17
57 -53 26 -40 -10 4 -27 10 -38 13 -20 5 -35 20 -35 35 0 11 14 9 47 -8z"/>
<path d="M2286 1101 c-6 -9 7 -13 87 -27 33 -6 37 -4 37 15 0 19 -6 21 -59 21
-33 0 -62 -4 -65 -9z"/>
<path d="M1178 1001 c-20 -10 -49 -28 -64 -40 -22 -17 -40 -21 -106 -21 -98 0
-138 -17 -138 -60 0 -34 16 -48 23 -20 5 18 14 20 91 20 93 0 112 6 200 63 53
33 62 36 75 23 30 -31 51 -125 33 -152 -4 -6 -25 -14 -47 -17 -91 -15 -134
-26 -206 -52 -78 -28 -109 -28 -109 0 0 11 6 14 24 9 15 -3 59 6 115 25 50 17
115 35 144 39 l52 8 -1 52 c-1 29 -5 56 -9 60 -3 4 -21 -2 -38 -13 -96 -57
-131 -68 -209 -68 l-78 0 0 -38 c0 -46 -11 -50 -28 -11 -11 26 -11 25 -8 -14
2 -23 10 -55 18 -70 13 -27 18 -29 63 -27 56 3 96 12 237 55 118 36 126 43
108 106 -7 26 -18 65 -24 88 -21 77 -49 89 -118 55z"/>
<path d="M1964 875 c-18 -45 -18 -62 4 -74 35 -18 240 -62 277 -59 33 3 40 7
46 31 12 45 2 54 -74 72 -40 9 -104 28 -144 41 -39 13 -76 24 -83 24 -6 0 -18
-16 -26 -35z"/>
<path d="M431 789 c-13 -17 -34 -36 -47 -41 -34 -16 -38 -41 -14 -87 20 -41
32 -47 100 -54 19 -2 5 -5 -32 -5 -51 -2 -77 3 -107 19 -24 12 -48 18 -60 14
-11 -3 -29 0 -41 7 -17 11 -22 11 -30 -2 -16 -24 -7 -45 20 -45 14 0 35 -6 47
-13 25 -14 320 -17 342 -3 26 17 6 36 -33 33 -29 -3 -41 1 -53 17 -8 12 -23
21 -33 21 -26 0 -31 13 -17 44 14 31 24 32 57 6 33 -26 43 -25 34 3 -9 29 -83
117 -97 116 -7 0 -23 -14 -36 -30z"/>
<path d="M798 752 c-42 -20 -108 -76 -108 -93 0 -10 15 -10 70 3 7 2 20 -9 29
-24 22 -37 2 -58 -55 -58 -23 0 -45 -4 -48 -9 -4 -5 13 -25 36 -45 38 -33 47
-36 104 -36 84 0 91 9 75 103 -21 120 -40 178 -60 177 -3 0 -22 -8 -43 -18z"/>
<path d="M1300 759 c-53 -23 -238 -76 -302 -89 -67 -12 -68 -13 -67 -44 0 -17
8 -71 18 -119 19 -100 28 -110 94 -105 40 3 42 5 48 38 l6 35 11 -28 c11 -25
15 -27 54 -21 66 9 139 34 145 50 3 8 17 14 33 14 40 0 90 28 90 51 0 10 -11
47 -24 81 -13 35 -31 81 -39 103 -16 43 -28 50 -67 34z"/>
<path d="M2379 758 c-18 -15 -32 -62 -50 -167 -12 -69 -11 -75 6 -87 11 -8 44
-14 79 -14 55 0 65 3 99 33 49 44 47 57 -6 57 -60 0 -81 17 -67 54 10 27 13
28 55 21 36 -5 45 -3 45 8 0 19 -65 76 -106 93 -40 17 -37 17 -55 2z"/>
<path d="M1875 736 c-21 -33 -78 -204 -72 -219 2 -7 22 -21 43 -31 22 -11 47
-23 57 -28 29 -14 108 -40 167 -54 75 -18 117 -17 128 2 8 15 10 15 15 0 9
-23 36 -20 47 7 10 24 33 156 34 201 1 29 0 29 -108 53 -59 13 -151 39 -203
57 l-94 33 -14 -21z"/>
<path d="M485 553 c-11 -2 -40 -11 -63 -20 -41 -14 -44 -17 -38 -47 3 -17 9
-53 14 -81 15 -90 22 -96 105 -93 l72 3 2 98 c1 102 -6 117 -40 77 -21 -25
-33 -25 -47 -1 -8 16 -5 23 16 39 28 20 18 32 -21 25z"/>
<path d="M2710 551 c0 -5 9 -15 20 -21 24 -13 26 -33 4 -51 -14 -11 -19 -10
-34 9 -34 42 -41 28 -38 -75 l3 -98 65 -3 c57 -3 67 0 82 19 10 11 18 33 18
48 0 14 7 48 15 75 21 68 17 71 -107 102 -18 4 -28 2 -28 -5z"/>
<path d="M657 533 c-4 -3 3 -19 14 -35 25 -34 19 -58 -15 -58 -18 0 -26 6 -28
22 -2 12 -9 23 -15 26 -10 3 -13 -16 -13 -72 0 -84 14 -108 72 -120 52 -10
125 -7 136 7 6 7 19 41 28 75 19 68 14 81 -29 82 -22 0 -71 24 -113 56 -17 13
-34 20 -37 17z"/>
<path d="M2560 530 c0 -5 -6 -10 -13 -10 -7 0 -20 -9 -29 -19 -9 -11 -42 -28
-73 -37 -32 -10 -59 -23 -61 -29 -2 -5 6 -39 19 -75 l22 -65 55 -3 c76 -5 126
12 145 48 20 40 21 150 0 150 -8 0 -17 -11 -21 -25 -4 -18 -13 -25 -29 -25
-34 0 -38 14 -15 52 22 37 25 48 10 48 -5 0 -10 -4 -10 -10z"/>
</g>
</svg>
