<svg id="svg" xmlns="http://www.w3.org/2000/svg" xmlns:xlink="http://www.w3.org/1999/xlink" width="56" height="48" viewBox="0, 0, 400,311"><g id="svgg"><path id="path0" d="M11.750 48.196 C 3.019 52.022,-3.574 77.349,2.563 83.486 C 4.951 85.874,12.419 86.625,12.099 84.445 C 11.784 82.302,11.675 82.309,35.916 82.986 L 58.250 83.611 105.000 98.871 C 132.953 107.995,152.180 114.521,152.820 115.101 C 153.515 115.731,157.901 117.092,165.320 118.979 C 175.075 121.461,207.292 131.126,207.928 131.761 C 208.224 132.057,206.801 133.830,196.895 145.500 L 188.195 155.750 185.223 155.575 C 181.922 155.381,175.961 153.592,172.479 151.751 C 171.230 151.091,169.093 150.314,167.729 150.024 C 166.366 149.734,163.956 148.894,162.373 148.156 L 159.497 146.815 158.560 147.821 C 157.203 149.277,158.235 150.893,161.306 152.118 C 164.794 153.510,171.208 155.905,175.000 157.232 C 178.042 158.297,178.239 158.459,178.080 159.757 C 177.914 161.111,177.958 161.137,179.955 160.869 C 181.686 160.637,182.000 160.732,182.000 161.486 C 182.000 161.977,182.315 162.639,182.701 162.959 C 183.086 163.279,183.541 164.094,183.710 164.771 C 184.231 166.846,185.904 166.310,188.845 163.125 C 190.305 161.544,191.500 159.875,191.500 159.417 C 191.500 158.959,195.606 153.999,200.625 148.395 C 205.644 142.790,210.571 137.245,211.574 136.072 L 213.398 133.940 218.554 136.527 C 225.205 139.865,226.134 140.483,225.562 141.188 C 224.511 142.485,225.387 145.596,227.394 147.694 C 228.475 148.825,232.459 153.800,236.247 158.750 C 240.036 163.700,243.332 168.002,243.574 168.309 C 243.865 168.680,242.877 169.698,240.631 171.339 C 234.089 176.120,227.650 181.865,215.758 193.530 C 207.449 201.682,202.749 205.906,200.500 207.244 C 198.713 208.308,195.864 210.156,194.170 211.351 C 191.592 213.170,190.024 213.797,184.535 215.204 C 175.609 217.493,171.112 219.776,163.152 226.063 C 156.817 231.065,151.704 234.185,148.956 234.724 C 148.245 234.864,147.434 235.489,147.154 236.114 C 146.561 237.436,147.285 237.407,109.587 237.625 C 83.936 237.773,86.229 237.084,86.717 244.500 C 87.854 261.784,89.237 263.802,102.120 266.965 C 134.615 274.942,161.303 275.008,215.750 267.245 C 252.770 261.967,257.681 260.642,255.975 256.388 C 253.501 250.216,243.843 239.013,241.896 240.056 C 241.403 240.319,241.000 240.429,241.000 240.300 C 241.000 239.996,249.438 234.934,260.250 228.750 C 272.982 221.468,277.876 217.610,284.512 209.627 C 288.655 204.642,291.379 202.447,293.750 202.179 C 294.575 202.086,295.475 201.639,295.750 201.187 C 296.025 200.734,297.004 199.663,297.926 198.807 C 298.848 197.951,300.152 196.313,300.824 195.167 C 301.496 194.021,302.867 192.458,303.870 191.693 C 304.873 190.928,308.430 187.703,311.775 184.526 C 320.609 176.137,319.869 176.638,324.954 175.597 C 326.383 175.304,326.782 174.908,327.425 173.145 C 327.963 171.669,328.626 170.862,329.650 170.438 C 330.452 170.105,332.917 168.735,335.127 167.393 C 343.735 162.165,344.827 162.114,346.067 166.881 C 346.586 168.877,348.559 173.940,350.450 178.131 C 354.945 188.093,357.358 194.647,358.561 200.160 C 359.554 204.709,360.558 207.447,362.718 211.500 C 363.377 212.738,364.401 214.988,364.994 216.500 C 365.997 219.059,372.248 232.590,373.807 235.577 C 374.188 236.307,374.500 237.894,374.500 239.104 C 374.500 240.735,374.871 241.813,375.937 243.276 C 376.727 244.362,377.530 245.756,377.721 246.375 C 378.198 247.923,379.691 247.888,379.394 246.336 L 379.171 245.172 385.372 245.150 C 388.894 245.137,391.793 244.907,392.083 244.617 C 392.419 244.281,393.179 244.268,394.302 244.578 C 396.215 245.106,398.266 244.388,399.204 242.861 C 399.913 241.706,398.827 240.960,396.976 241.330 C 396.220 241.481,394.605 241.164,393.202 240.589 C 391.853 240.035,390.091 239.437,389.285 239.259 C 386.517 238.648,384.185 236.499,383.597 234.018 C 383.301 232.771,382.711 230.284,382.286 228.492 C 381.860 226.701,380.827 220.851,379.989 215.492 C 378.102 203.428,377.687 201.966,373.754 193.538 C 368.759 182.836,365.608 171.674,364.497 160.750 C 363.420 150.158,362.044 146.863,354.999 138.000 C 346.447 127.241,345.500 125.973,345.500 125.272 C 345.500 124.887,344.853 124.050,344.062 123.411 C 341.146 121.057,339.578 115.355,340.585 110.774 L 341.250 107.750 341.605 110.500 C 341.800 112.013,342.114 114.560,342.303 116.162 C 342.696 119.498,343.471 119.072,343.508 115.500 C 343.536 112.668,344.076 113.483,345.447 118.429 C 346.035 120.551,347.163 123.020,348.174 124.398 C 349.122 125.692,350.256 127.537,350.694 128.500 C 351.203 129.619,351.384 129.799,351.196 129.000 C 351.035 128.313,350.025 125.817,348.951 123.454 C 346.525 118.112,346.515 117.635,348.866 119.232 C 351.477 121.006,351.735 120.828,350.243 118.283 C 349.014 116.185,348.974 115.903,349.495 113.025 C 349.935 110.603,349.900 109.399,349.327 107.117 C 347.851 101.241,347.500 99.442,347.500 97.753 C 347.500 94.304,344.365 80.103,342.779 76.366 C 342.252 75.124,340.943 73.720,338.935 72.241 C 335.432 69.663,336.027 69.894,332.500 69.737 C 330.739 69.658,328.807 69.144,327.127 68.307 C 323.939 66.718,324.213 66.718,322.749 68.298 C 322.077 69.024,320.600 69.808,319.398 70.077 C 317.227 70.563,314.500 72.650,314.500 73.826 C 314.500 74.177,314.081 74.689,313.568 74.964 C 310.704 76.496,310.022 82.030,310.619 98.895 C 310.831 104.900,310.761 106.364,310.291 105.722 C 308.796 103.677,300.005 104.894,293.250 108.081 C 284.293 112.307,281.902 112.832,264.163 114.474 C 258.161 115.029,250.213 115.967,246.500 116.557 C 242.787 117.147,237.050 117.691,233.750 117.767 C 230.450 117.842,227.300 118.082,226.750 118.301 C 226.200 118.519,227.550 116.593,229.750 114.021 C 231.950 111.448,234.163 109.284,234.669 109.210 C 235.886 109.032,237.363 107.670,238.815 105.385 C 241.106 101.779,239.805 99.726,235.583 100.286 C 233.149 100.609,233.037 100.571,232.721 99.311 C 232.355 97.856,230.500 97.432,230.500 98.803 C 230.500 99.378,230.251 99.500,229.625 99.233 C 229.144 99.027,227.380 98.679,225.706 98.459 C 224.032 98.238,220.238 97.136,217.274 96.009 C 208.306 92.599,202.130 92.646,203.448 96.114 C 203.852 97.175,204.330 97.392,206.843 97.655 C 208.452 97.823,212.690 99.000,216.259 100.271 C 220.690 101.848,223.891 102.670,226.343 102.861 C 232.355 103.327,232.366 104.466,226.427 111.477 L 221.750 116.998 219.197 116.700 C 217.136 116.460,216.585 116.557,216.338 117.201 C 216.169 117.641,215.687 118.000,215.266 118.000 C 214.845 118.000,214.500 118.330,214.500 118.732 C 214.500 119.135,214.050 119.706,213.500 120.000 C 212.950 120.294,212.500 120.868,212.500 121.274 C 212.500 121.681,212.289 122.404,212.031 122.882 C 211.774 123.359,211.059 124.819,210.443 126.125 C 209.827 127.431,209.154 128.500,208.947 128.500 C 208.740 128.500,208.227 128.844,207.807 129.265 C 207.120 129.951,204.368 129.152,180.960 121.472 C 165.118 116.275,154.462 113.024,153.820 113.192 C 153.171 113.362,134.692 107.565,106.006 98.194 L 59.250 82.919 50.375 76.934 C 45.494 73.642,41.500 71.060,41.500 71.196 C 41.500 71.333,45.211 73.970,49.747 77.058 C 54.283 80.146,57.901 82.766,57.786 82.880 C 57.519 83.148,13.980 81.999,13.051 81.700 C 11.163 81.092,13.926 65.090,16.954 59.091 C 18.597 55.837,18.866 55.619,20.012 56.625 C 20.403 56.969,20.335 56.782,19.861 56.209 C 19.386 55.637,19.081 55.075,19.183 54.959 C 21.911 51.866,15.886 46.384,11.750 48.196 M25.500 60.213 C 25.500 60.350,26.850 61.380,28.500 62.500 C 30.150 63.620,31.500 64.425,31.500 64.287 C 31.500 64.150,30.150 63.120,28.500 62.000 C 26.850 60.880,25.500 60.075,25.500 60.213 M33.500 65.720 C 33.500 65.857,35.188 67.108,37.250 68.500 C 39.313 69.892,41.000 70.918,41.000 70.780 C 41.000 70.643,39.313 69.392,37.250 68.000 C 35.188 66.608,33.500 65.582,33.500 65.720 M241.859 126.845 C 251.835 128.546,265.738 128.777,272.149 127.350 C 275.069 126.700,278.083 126.498,284.149 126.549 C 288.605 126.587,292.892 126.448,293.677 126.241 C 294.877 125.925,294.473 126.493,291.135 129.808 C 288.471 132.454,286.851 134.532,286.208 136.128 C 285.062 138.972,284.144 139.378,281.919 138.021 C 276.159 134.510,268.775 138.998,266.531 147.375 C 266.218 148.544,265.906 149.500,265.838 149.500 C 265.771 149.500,264.405 149.039,262.803 148.477 C 261.093 147.876,258.830 147.487,257.321 147.535 C 254.743 147.617,239.048 141.603,236.997 139.747 C 235.463 138.359,230.470 136.778,229.511 137.377 C 228.833 137.801,228.368 137.751,227.535 137.168 C 226.906 136.728,225.957 136.528,225.288 136.696 C 223.107 137.243,214.645 132.990,215.236 131.643 C 215.604 130.803,216.002 130.607,216.886 130.829 C 218.364 131.200,223.488 129.614,223.849 128.673 C 224.137 127.922,226.400 126.605,228.497 125.967 C 230.762 125.278,233.860 125.482,241.859 126.845 M231.547 145.274 C 233.027 146.024,234.456 146.423,235.021 146.243 C 236.292 145.840,253.856 153.624,255.395 155.273 C 256.025 155.948,256.956 156.500,257.465 156.500 C 260.811 156.500,260.632 158.248,257.119 159.875 C 255.217 160.756,252.109 162.609,250.213 163.991 C 246.010 167.055,247.768 168.201,237.067 155.426 C 226.407 142.699,226.384 142.658,231.547 145.274 M251.486 199.480 C 251.890 199.736,252.115 200.022,251.986 200.116 C 251.856 200.210,250.795 200.927,249.628 201.710 C 247.542 203.108,245.475 205.480,238.862 214.066 C 232.298 222.588,222.342 230.874,219.433 230.235 C 216.953 229.691,214.083 230.899,211.180 233.711 C 208.496 236.311,208.378 236.365,204.848 236.637 C 202.869 236.790,200.238 237.249,199.000 237.657 C 196.536 238.469,159.131 239.276,160.542 238.486 C 160.936 238.266,163.112 237.624,165.377 237.060 C 170.337 235.826,175.999 233.613,180.789 231.038 C 186.114 228.174,187.347 227.903,195.448 227.823 L 202.815 227.750 206.282 225.984 C 208.190 225.012,216.500 220.086,224.750 215.036 C 233.000 209.987,241.403 204.846,243.424 203.612 C 245.444 202.378,247.694 200.843,248.424 200.200 C 249.888 198.910,250.395 198.791,251.486 199.480 " stroke="none" fill="#fff" fill-rule="evenodd"></path></g></svg>