<?xml version="1.0" standalone="no"?>
<!DOCTYPE svg PUBLIC "-//W3C//DTD SVG 20010904//EN"
 "http://www.w3.org/TR/2001/REC-SVG-20010904/DTD/svg10.dtd">
<svg version="1.0" xmlns="http://www.w3.org/2000/svg"
 width="56" height="48" viewBox="0 0 700.000000 422.000000"
 preserveAspectRatio="xMidYMid meet">

<g transform="translate(0.000000,422.000000) scale(0.100000,-0.100000)"
fill="#ffffff" stroke="none">
<path d="M5070 3814 c-30 -8 -93 -33 -140 -56 -152 -74 -289 -236 -340 -400
-6 -21 -15 -40 -18 -42 -4 -2 -47 -1 -95 3 -81 6 -89 5 -107 -14 -26 -28 -25
-38 3 -29 22 6 22 6 -3 -21 l-25 -28 27 7 28 6 -20 -32 c-22 -36 -25 -49 -11
-45 10 2 11 -11 4 -30 -2 -6 -3 -26 -1 -43 l3 -32 39 48 c93 116 221 188 356
200 113 11 194 -16 95 -30 -43 -7 -56 -18 -35 -31 22 -14 8 -22 -36 -20 -54 1
-63 -7 -26 -26 26 -13 26 -14 -33 -19 -50 -4 -57 -7 -41 -16 17 -10 15 -12
-18 -18 -36 -7 -51 -26 -19 -26 15 0 10 -14 -5 -15 -4 -1 -24 -4 -45 -9 -32
-6 -36 -10 -27 -21 10 -12 5 -16 -29 -21 -23 -4 -41 -10 -41 -15 0 -10 75 -11
140 0 46 7 219 -12 255 -27 11 -5 38 -17 60 -26 45 -20 119 -76 111 -84 -3 -3
-24 3 -46 13 -46 21 -61 14 -35 -15 26 -29 10 -37 -25 -12 -34 26 -41 27 -34
7 8 -20 -6 -18 -36 5 -33 26 -42 25 -34 -5 7 -30 -6 -32 -31 -5 -10 11 -22 20
-27 20 -5 0 -6 -9 -3 -20 8 -26 -1 -25 -37 5 -30 25 -48 32 -48 17 0 -4 5 -13
12 -20 19 -19 0 -27 -20 -9 -25 23 -35 21 -27 -3 6 -20 6 -20 -39 0 -25 10
-48 15 -51 10 -3 -5 -1 -11 5 -15 19 -12 -1 -25 -21 -14 -11 5 -28 9 -37 7
-11 -2 1 -12 33 -28 93 -44 215 -138 215 -165 0 -3 9 -15 19 -27 33 -34 72
-128 77 -182 l5 -51 -23 37 c-27 44 -48 56 -48 28 0 -38 -18 -20 -25 25 -6 43
-25 54 -25 15 0 -34 -19 -32 -34 3 -17 42 -36 56 -36 28 0 -32 -17 -25 -24 10
-4 22 -10 29 -20 26 -10 -4 -16 5 -21 31 -9 54 -25 76 -25 35 0 -44 -17 -42
-26 3 -4 23 -9 31 -14 23 -5 -7 -6 -18 -3 -25 2 -6 0 -15 -6 -19 -6 -3 -11 2
-11 12 0 10 -9 36 -19 58 l-19 40 -1 -31 c-1 -48 -14 -49 -26 -3 -11 45 -35
65 -35 30 0 -12 -4 -21 -10 -21 -5 0 -10 9 -10 21 0 14 -5 19 -18 17 -11 -2
-27 3 -36 11 -19 16 -19 15 5 -79 20 -80 49 -327 59 -499 16 -291 12 -550 -15
-938 l-6 -83 89 0 90 0 42 -70 c91 -150 251 -249 425 -261 55 -4 159 13 210
34 110 46 224 147 274 243 l22 41 292 7 c160 3 348 7 417 7 69 1 133 6 143 11
21 11 23 61 2 82 -8 8 -15 32 -15 54 0 31 5 43 24 55 22 15 24 22 21 89 -1 40
-3 76 -4 79 -3 14 -57 29 -107 29 -49 0 -58 3 -85 32 -16 18 -29 37 -29 42 0
5 -9 28 -20 51 -11 22 -26 72 -34 110 -8 39 -17 80 -21 93 -7 22 -6 22 84 22
l91 0 0 34 c0 45 -36 96 -90 126 -35 19 -63 25 -130 28 l-85 4 -63 85 c-187
256 -629 682 -860 831 -34 22 -58 43 -52 47 5 3 33 4 62 1 29 -3 134 -8 233
-11 386 -13 967 -55 1239 -91 35 -4 47 -3 42 5 -9 14 -88 55 -159 81 -105 39
-347 97 -502 121 -27 4 -79 12 -115 17 -61 10 -134 19 -450 57 -69 8 -174 18
-233 21 -59 4 -110 11 -113 16 -8 13 14 142 38 223 24 82 93 218 138 275 l32
40 -69 -1 c-37 0 -93 -7 -123 -15z m334 -1130 c9 -8 16 -26 16 -40 0 -25 -31
-64 -52 -64 -7 0 -46 -16 -86 -36 -68 -34 -172 -121 -172 -145 0 -6 -4 -8 -9
-5 -4 3 -5 27 0 53 14 91 87 195 161 232 51 25 120 28 142 5z m48 -220 c32
-16 46 -57 28 -79 -17 -20 -36 -19 -106 6 -44 15 -77 19 -131 17 -70 -3 -71
-3 -55 15 54 60 187 80 264 41z m222 -244 c78 -23 112 -87 123 -236 5 -58 2
-82 -16 -130 -13 -32 -27 -73 -32 -90 -10 -32 -17 -37 -119 -75 -43 -15 -89
-24 -135 -25 l-70 -1 4 -120 c2 -67 0 -126 -3 -132 -10 -15 -66 38 -66 62 0
31 -25 13 -28 -20 -3 -30 -26 -51 -36 -34 -8 13 -10 480 -2 616 8 157 11 171
33 181 53 23 272 26 347 4z m-526 -46 c16 -3 44 -19 61 -35 l32 -28 -7 -83
c-7 -96 -37 -299 -61 -407 -21 -97 -59 -171 -98 -190 -16 -8 -39 -19 -50 -24
-10 -5 -63 -11 -116 -12 -95 -3 -96 -2 -128 27 -75 70 -95 184 -80 448 13 232
13 235 54 266 27 20 38 23 53 15 24 -13 42 -97 42 -197 0 -40 4 -75 9 -78 4
-3 6 -34 4 -68 -7 -92 14 -245 38 -285 26 -42 60 -44 85 -5 29 44 58 250 67
475 2 62 9 113 16 120 14 14 15 47 0 47 -5 0 -7 5 -4 10 7 11 38 13 83 4z"/>
<path d="M5462 2106 c-29 -6 -53 -13 -54 -16 -3 -13 14 -325 18 -332 5 -7 16
-2 92 46 82 52 127 259 66 303 -21 15 -48 15 -122 -1z"/>
<path d="M3070 3330 c-948 -25 -1726 -108 -2194 -235 -111 -30 -145 -43 -216
-78 -58 -30 -77 -44 -69 -51 4 -4 75 3 174 19 17 2 89 9 160 15 72 6 141 12
155 15 14 3 102 9 195 15 824 47 1415 69 1415 53 0 -6 -12 -28 -28 -49 -15
-21 -32 -48 -37 -60 -6 -12 -64 -112 -130 -223 l-119 -201 -106 0 c-129 0
-369 -17 -430 -30 -25 -6 -83 -17 -130 -26 -47 -9 -103 -22 -125 -29 -22 -7
-80 -25 -130 -40 -49 -15 -108 -36 -130 -46 -22 -9 -74 -32 -115 -49 -189 -78
-418 -248 -520 -386 -56 -75 -108 -213 -125 -329 l-11 -80 -36 -6 c-60 -9 -66
-20 -66 -110 0 -90 14 -109 75 -109 30 0 32 -2 38 -47 9 -74 14 -78 85 -76 86
2 169 44 244 123 32 33 59 60 60 60 2 0 6 -33 9 -72 5 -76 11 -96 56 -187 36
-74 141 -180 218 -218 67 -34 155 -59 218 -62 69 -3 197 27 264 61 80 41 177
136 216 210 l30 58 421 0 c231 0 752 3 1156 7 l736 6 6 26 c22 89 47 256 56
372 6 74 13 140 16 148 11 31 3 537 -11 686 -23 251 -36 325 -57 325 -13 0
-18 -8 -18 -26 0 -20 -4 -25 -16 -20 -14 5 -16 1 -11 -30 6 -36 6 -36 -15 -18
l-21 19 6 -55 6 -55 -21 25 -21 25 6 -55 c3 -30 4 -49 1 -42 -9 19 -24 14 -24
-8 0 -10 5 -31 12 -45 14 -31 1 -47 -18 -21 -19 27 -30 12 -15 -20 15 -33 5
-46 -15 -20 -23 33 -34 6 -17 -42 18 -55 11 -63 -22 -26 l-26 29 17 -40 c29
-71 29 -84 0 -52 -14 15 -28 27 -31 27 -9 0 -6 -57 5 -84 15 -41 -7 -31 -29
13 -28 53 -41 171 -29 251 15 97 70 199 157 292 40 43 67 78 60 78 -7 0 -26
-12 -42 -27 -31 -28 -31 -27 -10 25 10 24 -15 11 -46 -23 -27 -31 -61 -50 -46
-25 12 20 -12 9 -35 -15 -28 -30 -40 -32 -40 -5 0 30 -16 24 -30 -10 -7 -16
-16 -30 -21 -30 -5 0 -6 14 -2 30 8 41 -1 38 -37 -12 -29 -39 -30 -40 -30 -15
0 36 -11 34 -56 -13 -43 -44 -61 -52 -44 -19 7 11 9 23 6 26 -8 9 -44 -26 -51
-48 -9 -28 -28 -23 -23 6 7 32 -1 32 -28 -2 -18 -22 -25 -25 -35 -16 -18 18 4
56 76 129 73 74 189 133 310 159 98 21 137 35 75 27 -43 -5 -44 -4 -30 13 14
17 13 18 -27 12 -50 -8 -54 -4 -15 18 27 16 27 16 -20 11 -49 -6 -66 7 -27 19
36 12 2 24 -39 14 -42 -9 -54 -3 -29 16 24 17 2 26 -50 19 l-38 -5 25 22 25
22 -58 -5 c-53 -4 -56 -3 -42 12 23 26 19 30 -37 31 l-53 1 40 19 c92 43 314
15 447 -57 14 -7 28 -14 31 -14 2 0 0 23 -5 51 -6 36 -6 67 2 101 7 27 11 51
9 52 -9 9 -880 13 -1139 6z m218 -324 c34 -18 85 -72 105 -111 25 -50 38 -147
27 -198 l-6 -32 -32 61 c-32 63 -75 112 -156 178 -48 40 -60 78 -34 104 16 16
63 15 96 -2z m-191 -125 c73 -27 113 -53 167 -111 51 -54 90 -131 101 -195 l7
-40 -38 38 c-79 80 -161 124 -294 157 -55 13 -91 28 -102 41 -32 38 -19 87 30
113 37 20 68 20 129 -3z m80 -271 c33 -12 70 -31 82 -43 l21 -23 -35 4 c-54 6
-156 -15 -223 -48 -97 -47 -116 -48 -139 -6 -17 31 3 70 49 96 79 44 154 50
245 20z m285 -352 c12 -19 7 -79 -9 -105 -16 -28 -17 -55 -1 -71 13 -13 12
-82 -1 -95 -13 -13 -61 40 -61 68 0 16 -6 25 -15 25 -12 0 -14 -8 -9 -40 5
-31 3 -40 -8 -40 -21 0 -35 244 -16 267 15 18 107 11 120 -9z m-213 -85 c11
-26 11 -39 2 -62 -12 -28 -13 -28 -118 -34 -58 -3 -108 -8 -110 -11 -3 -3 -8
-32 -12 -66 -9 -73 -2 -80 86 -80 67 0 87 -9 77 -34 -6 -15 -3 -17 14 -11 31
9 27 -7 -5 -27 -25 -16 -26 -17 -7 -18 30 0 35 -9 19 -40 -18 -34 -24 -36
-110 -39 -38 -2 -75 -7 -82 -13 -9 -7 -13 -60 -15 -177 l-3 -166 -27 -3 c-16
-2 -28 1 -28 7 0 6 -12 11 -26 11 -36 0 -64 17 -58 35 4 8 10 12 15 9 5 -3 9
7 9 23 0 15 6 35 13 44 8 11 11 37 7 75 -5 60 -22 80 -28 34 -4 -30 -22 -52
-22 -27 0 9 5 28 12 42 9 20 8 31 -2 50 -10 18 -11 61 -6 187 14 345 21 366
111 353 63 -9 205 -6 225 5 18 10 51 -22 69 -67z m-1887 45 c75 -16 145 -69
154 -115 11 -59 -26 -69 -103 -27 -48 26 -91 28 -160 8 -13 -3 -23 -2 -23 3 0
5 17 14 38 20 29 8 33 11 19 17 -23 11 -58 1 -90 -25 -40 -31 -36 -67 13 -114
34 -33 46 -39 78 -37 34 3 124 -34 173 -71 25 -19 49 -77 61 -148 10 -60 9
-72 -13 -140 -13 -40 -32 -82 -41 -91 -10 -10 -18 -22 -18 -27 0 -4 -23 -20
-51 -35 -56 -29 -184 -45 -253 -32 -72 14 -146 130 -146 230 0 36 4 45 25 54
14 6 25 15 25 19 0 14 77 14 87 1 5 -7 18 -40 28 -73 25 -86 39 -105 78 -105
43 1 62 17 88 76 23 54 23 145 -1 197 -11 23 -19 27 -55 27 -177 0 -309 158
-235 283 29 49 128 93 262 116 3 0 30 -4 60 -11z m1164 -4 c87 -18 169 -57
186 -88 35 -65 24 -154 -29 -238 -24 -39 -90 -88 -118 -88 -24 0 -18 -14 16
-34 32 -19 91 -103 103 -146 3 -14 14 -52 22 -85 9 -33 30 -79 46 -103 37 -53
33 -74 -13 -86 -60 -15 -106 0 -133 42 -25 38 -31 55 -67 184 -25 88 -64 143
-110 153 -17 4 -35 3 -39 -1 -5 -5 -13 -59 -18 -121 -6 -61 -14 -118 -18 -125
-5 -7 -9 -17 -9 -22 0 -13 -63 -18 -70 -5 -5 7 -11 7 -20 -1 -9 -8 -14 -5 -18
12 -6 22 -7 22 -20 3 -14 -17 -15 -16 -18 21 -6 65 20 626 31 665 9 32 15 38
58 49 26 6 58 16 72 20 39 13 81 11 166 -6z m1434 -19 c44 -41 71 -97 72 -149
1 -54 -6 -66 -39 -66 -18 0 -38 13 -65 42 -21 23 -38 45 -38 50 0 13 -78 58
-100 58 -57 0 -100 -77 -100 -177 0 -89 33 -103 134 -58 68 30 109 31 164 5
62 -30 77 -60 77 -150 0 -74 -14 -124 -57 -209 -20 -38 -103 -93 -187 -122
-65 -23 -137 -17 -202 15 -35 18 -50 34 -73 81 -48 97 -46 185 5 185 13 0 19
-9 21 -32 2 -25 8 -34 25 -36 15 -2 25 -13 29 -28 8 -33 38 -33 32 0 -3 14 -2
30 2 37 11 17 31 0 29 -24 -2 -38 0 -46 32 -82 30 -33 61 -44 85 -27 6 4 23
27 39 51 32 53 45 144 25 191 -14 34 -52 49 -75 30 -20 -16 -110 -17 -158 -1
-20 7 -50 28 -68 48 -31 36 -31 36 -27 132 3 73 9 106 26 138 45 86 147 134
279 130 76 -2 84 -4 113 -32z m-1890 5 c10 -5 28 -25 39 -44 19 -29 21 -49 21
-167 0 -209 -45 -434 -103 -525 -67 -104 -254 -112 -344 -16 -68 73 -89 202
-80 495 5 159 8 192 24 220 25 42 63 48 98 13 24 -24 25 -30 25 -149 0 -223
32 -458 68 -500 28 -32 55 -17 73 39 19 57 38 225 46 391 5 112 6 112 24 89
11 -13 19 -34 19 -45 0 -12 4 -21 9 -21 15 0 24 109 14 167 -5 29 -7 55 -5 58
9 8 52 6 72 -5z m1534 -505 c-4 -8 -10 -15 -15 -15 -5 0 -9 7 -9 15 0 8 7 15
15 15 9 0 12 -6 9 -15z"/>
<path d="M2350 2087 c0 -8 3 -17 7 -20 8 -9 12 -39 19 -132 3 -38 9 -74 14
-78 11 -12 60 15 98 54 34 35 56 77 65 126 6 28 3 34 -25 47 -40 21 -178 22
-178 3z"/>
</g>
</svg>
