<?xml version="1.0" standalone="no"?>
<!DOCTYPE svg PUBLIC "-//W3C//DTD SVG 20010904//EN"
 "http://www.w3.org/TR/2001/REC-SVG-20010904/DTD/svg10.dtd">
<svg version="1.0" xmlns="http://www.w3.org/2000/svg"
 width="56" height="48" viewBox="0 0 524.000000 382.000000"
 preserveAspectRatio="xMidYMid meet">

<g transform="translate(0.000000,382.000000) scale(0.100000,-0.100000)"
fill="#ffffff" stroke="none">
<path d="M439 3610 c-77 -23 -112 -73 -129 -187 -12 -78 -11 -84 14 -161 15
-43 40 -101 57 -127 47 -73 128 -155 155 -155 24 0 81 45 191 150 34 33 68 60
76 60 16 0 27 21 27 51 0 10 -24 55 -52 98 -29 44 -69 106 -89 139 -20 33 -60
78 -89 101 -54 43 -96 51 -161 31z"/>
<path d="M2820 3256 c-131 -34 -200 -77 -200 -126 l0 -29 55 25 c35 15 74 24
107 24 50 0 51 -1 34 -19 -10 -11 -38 -22 -64 -26 -26 -3 -71 -18 -100 -32
l-53 -25 5 -186 c3 -103 8 -282 11 -398 l6 -212 44 -12 c37 -10 51 -10 91 4
80 27 172 17 117 -13 -26 -13 -141 -40 -188 -43 l-40 -3 -3 -63 c-4 -78 35
-207 73 -242 l24 -23 73 27 c133 48 224 28 249 -54 12 -39 34 -68 45 -58 5 6
40 143 55 223 18 89 30 245 39 490 11 285 22 435 33 453 14 21 37 13 48 -15 6
-16 8 -50 5 -77 -3 -32 0 -69 10 -104 15 -51 17 -53 30 -33 23 32 44 88 44
114 0 60 -111 214 -239 332 -146 136 -160 140 -311 101z m224 -187 c24 -11 52
-29 62 -40 16 -18 16 -19 -2 -19 -10 0 -43 9 -72 20 -29 11 -76 20 -107 20
-30 0 -55 4 -55 8 0 37 105 44 174 11z"/>
<path d="M803 3162 c-22 -15 -63 -55 -91 -89 -29 -34 -61 -64 -72 -68 -12 -4
-34 -25 -51 -47 l-29 -41 27 -46 c56 -98 117 -183 140 -198 23 -15 25 -14 81
47 58 65 101 124 159 219 l32 53 -26 52 c-34 68 -65 107 -101 128 -29 17 -30
17 -69 -10z"/>
<path d="M2305 3075 c-27 -8 -61 -14 -75 -15 -50 0 -186 -78 -168 -95 3 -3 31
7 64 21 45 20 81 28 152 32 65 3 92 1 92 -7 0 -6 -15 -11 -35 -11 -38 0 -218
-43 -277 -67 -51 -21 -49 -37 5 -29 76 10 181 10 184 -1 2 -6 -20 -13 -49 -17
-29 -4 -91 -25 -137 -47 l-83 -41 5 -121 c5 -125 13 -192 23 -209 4 -6 10 -38
15 -71 23 -158 29 -196 43 -257 20 -90 64 -227 89 -275 11 -22 48 -82 83 -133
35 -51 64 -97 64 -101 0 -5 17 -20 39 -34 l39 -26 28 31 c41 43 123 88 162 88
42 0 87 -23 134 -67 38 -37 68 -39 68 -7 0 36 -135 324 -152 324 -7 0 -35 -16
-63 -35 -58 -41 -129 -65 -197 -65 -39 0 -48 3 -48 18 0 17 34 29 142 52 20 4
62 18 92 31 51 22 56 27 56 56 0 17 -5 44 -11 60 -6 15 -12 87 -14 158 -11
376 -23 624 -33 660 -6 22 -9 50 -6 61 7 27 -15 71 -59 118 -30 31 -40 36 -78
35 -24 0 -66 -7 -94 -14z"/>
<path d="M4695 3071 c-11 -4 -41 -11 -66 -15 -27 -4 -79 -26 -125 -53 -43 -25
-104 -59 -134 -75 -93 -50 -107 -70 -70 -103 11 -10 20 -22 20 -26 0 -4 14
-28 30 -52 17 -25 30 -48 30 -52 0 -4 8 -19 18 -33 15 -23 96 -207 115 -264 4
-10 11 -18 18 -18 20 0 121 112 204 225 80 110 160 196 248 268 32 26 50 50
59 79 11 38 10 42 -11 59 -53 43 -281 84 -336 60z"/>
<path d="M998 2923 c-9 -10 -28 -44 -42 -75 -18 -38 -47 -76 -87 -111 -92 -83
-101 -156 -31 -238 20 -23 60 -76 87 -118 64 -97 78 -100 139 -28 25 30 46 62
46 73 0 12 3 15 10 8 12 -12 62 30 97 81 12 17 33 37 47 45 14 7 26 17 26 22
0 28 -61 131 -106 178 -28 30 -63 78 -78 107 -35 71 -76 92 -108 56z"/>
<path d="M1990 2890 c0 -5 5 -10 10 -10 6 0 10 5 10 10 0 6 -4 10 -10 10 -5 0
-10 -4 -10 -10z"/>
<path d="M1630 2826 c-19 -8 -45 -15 -56 -15 -32 -1 -119 -85 -138 -132 -23
-57 -31 -155 -17 -214 62 -276 186 -669 244 -779 62 -118 185 -218 314 -256
38 -12 45 -11 63 5 13 12 20 31 20 55 0 31 7 44 40 73 21 20 57 45 80 57 22
11 40 26 40 33 0 19 -70 127 -82 127 -6 0 -34 -22 -63 -48 -68 -62 -110 -82
-175 -82 -67 0 -57 16 37 55 38 16 94 45 126 64 67 42 69 50 31 148 -40 107
-151 568 -173 719 -6 40 -17 89 -23 110 -12 36 -18 40 -83 62 -92 30 -142 35
-185 18z m340 -938 c-1 -27 -26 -67 -57 -93 l-33 -26 -17 35 c-9 20 -15 38
-12 40 8 7 104 55 112 56 4 0 7 -6 7 -12z"/>
<path d="M4175 2821 c-82 -51 -173 -202 -189 -311 -12 -88 -11 -208 3 -305 7
-44 16 -183 20 -310 6 -172 12 -243 24 -280 9 -27 17 -62 17 -78 0 -15 12 -45
26 -67 32 -48 62 -52 116 -15 39 27 42 33 74 175 21 93 20 119 -4 167 -11 21
-22 63 -26 93 -4 30 -23 102 -42 161 -25 77 -34 124 -34 173 l0 66 44 22 c39
19 47 20 62 7 33 -27 54 -91 54 -166 0 -59 3 -73 16 -73 19 0 121 96 140 132
29 56 5 176 -61 308 -21 41 -49 106 -62 145 -18 54 -35 82 -75 122 -29 29 -57
53 -63 53 -5 0 -23 -9 -40 -19z m45 -291 c0 -82 -29 -140 -69 -140 -25 0 -29
5 -34 35 -11 67 39 165 84 165 17 0 19 -8 19 -60z"/>
<path d="M3355 2570 c-60 -75 -108 -168 -106 -203 1 -12 4 -77 7 -144 4 -75
10 -125 17 -131 25 -19 107 -34 149 -28 24 4 61 17 83 29 33 19 41 30 47 62 4
22 5 56 2 75 -7 47 -127 410 -136 410 -4 0 -32 -32 -63 -70z"/>
<path d="M1269 2506 c-19 -18 -53 -47 -76 -64 -23 -16 -72 -67 -109 -112 l-66
-83 5 -86 c6 -102 20 -179 43 -240 l17 -43 46 6 c25 4 71 11 101 17 30 5 106
13 168 16 78 3 112 9 112 17 0 7 -11 39 -24 72 -13 32 -31 91 -40 129 -9 39
-26 106 -37 150 -11 44 -26 108 -33 142 -14 66 -38 113 -60 113 -8 0 -29 -15
-47 -34z"/>
<path d="M3782 2267 c-72 -72 -110 -143 -96 -177 3 -8 10 -49 14 -91 5 -42 22
-117 39 -165 17 -49 34 -113 38 -141 5 -49 4 -53 -18 -61 -68 -26 -69 -26 -84
12 -8 19 -15 51 -15 70 0 19 -5 47 -11 63 -6 15 -11 73 -10 128 1 93 -9 168
-23 183 -4 3 -32 -6 -64 -21 -31 -14 -74 -31 -95 -37 -25 -8 -39 -19 -43 -35
-10 -40 2 -146 29 -264 15 -63 27 -132 27 -155 0 -23 5 -59 10 -81 5 -22 12
-60 15 -85 11 -96 18 -127 41 -184 13 -32 37 -113 54 -180 17 -66 35 -125 41
-131 7 -7 35 16 89 71 74 76 80 84 80 123 0 27 -9 58 -24 84 -33 56 -48 127
-40 188 6 44 9 49 31 49 14 0 37 -13 54 -29 25 -25 29 -37 29 -83 0 -64 26
-158 43 -158 19 0 117 101 124 128 8 34 -10 134 -38 207 -22 55 -24 82 -30
325 -8 285 -15 354 -48 442 -34 87 -37 87 -119 5z"/>
<path d="M1200 1865 c-73 -21 -98 -33 -108 -52 -21 -42 8 -275 43 -342 15 -30
17 -31 90 -31 59 0 93 7 167 34 93 33 197 83 231 109 28 23 20 55 -44 180
l-60 117 -137 -1 c-76 -1 -157 -7 -182 -14z"/>
<path d="M2818 1837 c-74 -39 -75 -45 -25 -146 28 -57 36 -66 62 -69 40 -5 91
11 148 47 39 26 47 36 47 61 0 35 -23 96 -47 122 -28 31 -110 24 -185 -15z"/>
<path d="M3220 1794 c-30 -31 -93 -82 -140 -114 -98 -66 -153 -128 -186 -209
-20 -48 -24 -74 -24 -174 0 -99 3 -123 18 -145 21 -31 52 -114 82 -222 11 -41
36 -115 55 -165 19 -49 43 -123 55 -162 l21 -73 67 0 c53 0 79 6 127 29 69 33
98 57 142 122 17 25 48 58 67 73 44 33 80 99 73 135 -9 48 -68 304 -94 406
-14 55 -29 143 -33 195 -11 127 -32 216 -71 295 -31 62 -35 65 -69 65 -30 0
-44 -9 -90 -56z m61 -316 c6 -24 15 -56 20 -72 5 -16 9 -57 9 -90 0 -76 39
-202 83 -265 16 -24 34 -62 37 -84 l8 -39 -67 -43 c-79 -50 -165 -95 -184 -95
-27 0 -40 31 -49 108 -32 291 -44 359 -73 429 -29 72 -31 93 -10 133 23 44 60
59 142 60 l72 0 12 -42z"/>
<path d="M2519 1637 c-37 -17 -109 -70 -109 -81 0 -4 17 -40 37 -78 l37 -70
50 7 c27 3 59 11 70 17 39 19 116 73 116 81 0 16 -73 117 -89 121 -45 13 -89
15 -112 3z"/>
<path d="M2183 1589 c-63 -31 -103 -81 -103 -128 0 -47 16 -62 74 -68 39 -5
49 -1 91 30 25 20 52 38 58 40 9 3 9 7 -1 19 -10 13 -9 16 9 21 21 6 21 6 2
37 -19 35 -59 70 -77 70 -6 0 -30 -9 -53 -21z"/>
<path d="M1590 1525 c-111 -60 -315 -125 -390 -125 -49 0 -50 -7 -14 -105 54
-148 64 -189 64 -272 0 -100 41 -273 92 -388 20 -44 51 -118 69 -165 56 -144
126 -237 198 -261 59 -20 247 7 239 34 -2 7 -26 23 -53 36 -61 29 -67 37 -105
133 -25 65 -30 91 -30 164 0 85 1 87 34 120 32 32 38 34 100 34 37 0 83 7 106
16 40 16 42 16 65 -6 28 -26 81 -185 91 -272 7 -56 8 -58 51 -79 41 -20 50
-20 120 -10 42 6 78 13 80 15 2 2 19 0 38 -4 19 -4 36 -5 39 -2 3 3 -6 21 -20
40 -21 26 -29 51 -34 106 -10 99 -62 275 -111 371 -51 100 -191 281 -249 319
-68 46 -243 215 -265 256 -26 48 -45 70 -59 70 -6 -1 -31 -12 -56 -25z m99
-460 c16 -8 55 -37 87 -65 33 -27 65 -50 72 -50 12 0 32 -39 32 -62 0 -7 -19
-8 -57 -4 -32 4 -100 7 -150 6 l-93 -1 0 34 c0 44 28 129 48 145 20 15 27 15
61 -3z"/>
<path d="M2302 1378 c-27 -17 -61 -23 -175 -30 -115 -8 -146 -13 -161 -28 -18
-18 -18 -19 27 -42 85 -43 268 -311 330 -483 50 -139 67 -202 67 -254 0 -28 7
-65 15 -81 24 -47 55 -51 295 -36 256 15 301 28 319 92 12 45 5 83 -49 251
-22 67 -40 138 -40 158 0 19 -2 35 -4 35 -2 0 -23 -7 -46 -15 -23 -8 -68 -15
-99 -15 -85 0 -87 -3 -63 -96 11 -44 23 -87 27 -96 6 -16 1 -18 -37 -18 -33 0
-50 6 -65 23 -31 33 -43 62 -43 101 0 87 -96 341 -125 330 -9 -4 -12 0 -8 14
2 11 -5 39 -17 63 -26 51 -97 149 -108 148 -4 0 -22 -10 -40 -21z"/>
</g>
</svg>
