<svg id="svg" xmlns="http://www.w3.org/2000/svg" xmlns:xlink="http://www.w3.org/1999/xlink" width="56" height="48" viewBox="0, 0, 400,318.22222222222223"><g id="svgg"><path id="path0" d="M191.989 23.953 C 141.018 33.639,106.159 59.948,93.911 97.975 C 90.651 108.096,90.345 110.702,92.273 111.894 C 94.630 113.351,119.128 116.323,119.813 115.236 C 120.010 114.923,123.257 108.304,127.028 100.527 C 148.212 56.844,200.400 30.329,261.189 32.365 C 282.783 33.088,284.710 32.918,279.437 30.756 C 258.892 22.330,217.480 19.109,191.989 23.953 M123.748 38.261 C 98.902 45.083,77.528 62.467,67.590 83.933 C 58.763 103.001,58.803 103.995,68.528 107.309 C 77.371 110.322,80.000 109.920,80.000 105.556 C 80.000 88.396,112.585 47.394,133.396 38.367 C 141.138 35.008,135.808 34.950,123.748 38.261 M212.707 65.487 C 210.140 68.324,209.567 71.294,210.050 79.259 L 210.667 89.414 198.222 95.818 C 187.130 101.526,185.241 103.285,180.834 112.000 C 178.114 117.378,174.914 122.036,173.723 122.352 C 172.531 122.668,169.891 123.731,167.857 124.713 C 162.786 127.164,84.926 117.112,61.333 110.961 C 27.260 102.078,6.547 104.869,17.701 116.841 C 22.948 122.473,31.902 123.511,56.369 121.323 C 82.974 118.944,160.650 126.619,166.207 132.176 C 169.612 135.580,172.160 135.807,178.764 133.296 C 183.885 131.349,213.333 134.475,213.333 136.966 C 213.333 137.689,215.323 138.781,217.755 139.391 L 222.176 140.501 216.209 148.917 C 203.872 166.320,204.789 169.411,226.215 182.636 C 237.379 189.527,239.524 194.975,232.900 199.614 C 229.303 202.134,229.827 204.444,233.995 204.444 C 235.255 204.444,239.148 202.502,242.646 200.129 C 246.144 197.755,249.926 195.506,251.050 195.131 C 252.174 194.757,249.287 190.940,244.633 186.651 C 234.174 177.010,228.742 167.855,234.351 169.322 C 236.797 169.961,239.516 168.622,242.861 165.131 C 249.485 158.216,250.306 158.604,249.654 168.344 C 249.160 175.733,249.793 177.459,255.184 183.426 C 265.070 194.369,281.264 219.852,280.582 223.394 C 280.236 225.191,276.763 228.199,272.865 230.078 L 265.778 233.496 272.000 234.862 C 277.949 236.169,298.569 230.359,298.641 227.356 C 298.655 226.757,296.358 223.362,293.537 219.812 C 290.047 215.420,287.684 209.525,286.146 201.373 C 283.809 188.988,277.368 179.556,271.248 179.556 C 267.304 179.556,267.741 177.817,273.089 172.235 C 284.109 160.733,287.114 135.172,278.667 124.794 C 275.489 120.889,269.289 111.904,264.889 104.825 C 254.335 87.846,253.488 87.111,244.463 87.111 C 234.111 87.111,231.310 85.846,232.404 81.663 C 232.899 79.771,234.067 78.222,235.001 78.222 C 235.935 78.222,235.441 76.965,233.905 75.429 C 230.570 72.094,230.283 69.333,233.270 69.333 C 238.335 69.333,229.336 63.662,222.901 62.799 C 217.438 62.066,215.291 62.632,212.707 65.487 M53.443 88.310 C 42.452 100.304,41.927 103.089,50.667 103.034 C 53.401 103.017,55.510 99.942,59.794 89.728 C 62.858 82.422,65.129 76.444,64.840 76.444 C 64.551 76.444,59.422 81.784,53.443 88.310 M213.896 110.908 C 217.009 113.241,222.857 116.807,226.892 118.832 C 233.413 122.106,236.444 125.527,236.444 129.614 C 236.444 132.649,183.165 129.505,183.079 126.465 C 183.010 124.011,201.974 107.069,205.008 106.874 C 206.784 106.760,210.784 108.575,213.896 110.908 M64.941 124.252 L 57.882 125.333 58.409 134.222 C 61.867 192.527,122.265 235.454,181.690 221.842 L 191.111 219.684 176.889 218.552 C 128.088 214.665,83.358 177.415,78.827 136.889 C 77.795 127.661,75.624 122.352,73.116 122.919 C 72.502 123.058,68.823 123.658,64.941 124.252 M21.193 137.803 C -36.093 264.145,104.704 342.955,237.704 258.994 L 245.187 254.270 238.039 243.912 L 230.891 233.554 212.779 237.863 C 123.172 259.183,49.917 216.188,49.067 141.778 L 48.889 126.223 37.666 126.223 L 26.444 126.222 21.193 137.803 M89.959 135.556 C 94.398 170.301,122.690 201.010,158.919 210.410 C 170.511 213.418,170.506 213.406,155.921 203.669 C 132.861 188.274,119.082 166.093,117.695 142.136 L 116.902 128.444 107.784 127.349 C 88.416 125.021,88.602 124.936,89.959 135.556 M299.380 168.703 L 283.204 176.932 286.777 181.717 L 290.349 186.502 295.109 183.112 C 298.939 180.385,318.249 159.378,316.137 160.236 C 315.817 160.366,308.276 164.176,299.380 168.703 M333.174 179.757 C 331.306 181.835,321.591 188.950,311.586 195.567 L 293.393 207.598 301.808 210.459 L 310.222 213.319 317.368 205.607 C 326.018 196.271,338.716 178.123,337.470 176.878 C 336.975 176.383,335.042 177.679,333.174 179.757 M222.222 199.766 C 222.222 209.458,249.958 247.382,267.825 262.120 C 306.217 293.788,380.388 306.025,392.846 282.747 C 399.541 270.237,372.684 242.337,336.495 224.208 C 320.023 215.956,320.911 217.487,338.693 228.000 C 386.535 256.283,393.009 282.733,352.068 282.640 C 310.590 282.547,260.485 253.038,231.344 211.543 C 226.327 204.399,222.222 199.099,222.222 199.766 " stroke="none" fill="#fff" fill-rule="evenodd"></path></g></svg>