<svg id="svg" xmlns="http://www.w3.org/2000/svg" xmlns:xlink="http://www.w3.org/1999/xlink" width="56" height="56" viewBox="0, 0, 400,400"><g id="svgg"><path id="path0" d="M191.989 52.397 C 141.018 62.083,106.159 88.393,93.911 126.420 C 90.651 136.541,90.345 139.147,92.273 140.338 C 94.630 141.795,119.128 144.768,119.813 143.680 C 120.010 143.367,123.257 136.748,127.028 128.971 C 148.212 85.289,200.400 58.774,261.189 60.809 C 282.783 61.533,284.710 61.363,279.437 59.200 C 258.892 50.775,217.480 47.553,191.989 52.397 M123.748 66.706 C 98.902 73.528,77.528 90.911,67.590 112.378 C 58.763 131.445,58.803 132.440,68.528 135.753 C 77.371 138.766,80.000 138.365,80.000 134.001 C 80.000 116.840,112.585 75.838,133.396 66.811 C 141.138 63.453,135.808 63.394,123.748 66.706 M212.707 93.932 C 210.140 96.768,209.567 99.738,210.050 107.703 L 210.667 117.858 198.222 124.262 C 187.130 129.971,185.241 131.729,180.834 140.444 C 178.114 145.822,174.914 150.481,173.723 150.797 C 172.531 151.113,169.891 152.175,167.857 153.158 C 162.786 155.608,84.926 145.556,61.333 139.405 C 27.260 130.522,6.547 133.313,17.701 145.286 C 22.948 150.918,31.902 151.956,56.369 149.768 C 82.974 147.388,160.650 155.063,166.207 160.620 C 169.612 164.024,172.160 164.252,178.764 161.741 C 183.885 159.794,213.333 162.920,213.333 165.410 C 213.333 166.134,215.323 167.225,217.755 167.835 L 222.176 168.945 216.209 177.361 C 203.872 194.765,204.789 197.855,226.215 211.080 C 237.379 217.971,239.524 223.419,232.900 228.059 C 229.303 230.578,229.827 232.889,233.995 232.889 C 235.255 232.889,239.148 230.947,242.646 228.573 C 246.144 226.199,249.926 223.951,251.050 223.576 C 252.174 223.201,249.287 219.385,244.633 215.095 C 234.174 205.455,228.742 196.299,234.351 197.766 C 236.797 198.406,239.516 197.067,242.861 193.575 C 249.485 186.661,250.306 187.049,249.654 196.788 C 249.160 204.177,249.793 205.904,255.184 211.870 C 265.070 222.813,281.264 248.296,280.582 251.838 C 280.236 253.635,276.763 256.643,272.865 258.523 L 265.778 261.940 272.000 263.306 C 277.949 264.613,298.569 258.803,298.641 255.800 C 298.655 255.201,296.358 251.806,293.537 248.256 C 290.047 243.865,287.684 237.970,286.146 229.817 C 283.809 217.432,277.368 208.000,271.248 208.000 C 267.304 208.000,267.741 206.262,273.089 200.680 C 284.109 189.178,287.114 163.616,278.667 153.238 C 275.489 149.334,269.289 140.348,264.889 133.269 C 254.335 116.290,253.488 115.556,244.463 115.556 C 234.111 115.556,231.310 114.290,232.404 110.107 C 232.899 108.215,234.067 106.667,235.001 106.667 C 235.935 106.667,235.441 105.410,233.905 103.873 C 230.570 100.539,230.283 97.778,233.270 97.778 C 238.335 97.778,229.336 92.107,222.901 91.243 C 217.438 90.511,215.291 91.077,212.707 93.932 M53.443 116.754 C 42.452 128.749,41.927 131.534,50.667 131.479 C 53.401 131.462,55.510 128.387,59.794 118.173 C 62.858 110.867,65.129 104.889,64.840 104.889 C 64.551 104.889,59.422 110.228,53.443 116.754 M213.896 139.352 C 217.009 141.685,222.857 145.251,226.892 147.277 C 233.413 150.550,236.444 153.972,236.444 158.058 C 236.444 161.093,183.165 157.949,183.079 154.909 C 183.010 152.456,201.974 135.514,205.008 135.319 C 206.784 135.205,210.784 137.020,213.896 139.352 M64.941 152.697 L 57.882 153.778 58.409 162.667 C 61.867 220.972,122.265 263.898,181.690 250.287 L 191.111 248.129 176.889 246.996 C 128.088 243.109,83.358 205.860,78.827 165.333 C 77.795 156.105,75.624 150.796,73.116 151.363 C 72.502 151.502,68.823 152.102,64.941 152.697 M21.193 166.248 C -36.093 292.589,104.704 371.399,237.704 287.438 L 245.187 282.715 238.039 272.357 L 230.891 261.999 212.779 266.308 C 123.172 287.627,49.917 244.633,49.067 170.223 L 48.889 154.668 37.666 154.667 L 26.444 154.667 21.193 166.248 M89.959 164.000 C 94.398 198.745,122.690 229.455,158.919 238.855 C 170.511 241.862,170.506 241.850,155.921 232.113 C 132.861 216.718,119.082 194.538,117.695 170.580 L 116.902 156.889 107.784 155.793 C 88.416 153.466,88.602 153.380,89.959 164.000 M299.380 197.147 L 283.204 205.377 286.777 210.162 L 290.349 214.946 295.109 211.557 C 298.939 208.830,318.249 187.823,316.137 188.681 C 315.817 188.811,308.276 192.621,299.380 197.147 M333.174 208.201 C 331.306 210.279,321.591 217.394,311.586 224.011 L 293.393 236.043 301.808 238.903 L 310.222 241.763 317.368 234.051 C 326.018 224.716,338.716 206.568,337.470 205.322 C 336.975 204.827,335.042 206.123,333.174 208.201 M222.222 228.210 C 222.222 237.903,249.958 275.827,267.825 290.565 C 306.217 322.232,380.388 334.469,392.846 311.191 C 399.541 298.682,372.684 270.781,336.495 252.652 C 320.023 244.400,320.911 245.932,338.693 256.444 C 386.535 284.727,393.009 311.177,352.068 311.085 C 310.590 310.991,260.485 281.483,231.344 239.987 C 226.327 232.843,222.222 227.543,222.222 228.210 " stroke="none" fill="#fff" fill-rule="evenodd"></path></g></svg>