<svg id="svg" xmlns="http://www.w3.org/2000/svg" xmlns:xlink="http://www.w3.org/1999/xlink" width="56" height="48" viewBox="0, 0, 400,264.54255803368227"><g id="svgg"><path id="path0" d="M164.588 0.465 C 164.338 0.602,163.451 0.998,162.618 1.344 C 156.740 3.787,153.300 9.142,153.306 15.840 C 153.308 18.227,154.900 24.719,156.030 26.946 C 156.616 28.102,156.964 29.377,157.018 30.570 C 157.090 32.141,157.556 32.590,159.114 32.590 C 160.497 32.590,160.644 32.774,160.553 34.395 C 160.414 36.850,160.155 36.955,146.563 40.053 C 139.198 41.732,136.326 42.794,132.441 45.275 C 128.409 47.850,127.042 48.415,123.469 48.982 C 120.394 49.470,118.424 49.971,116.340 50.796 C 111.923 52.544,110.577 52.393,104.870 49.510 C 98.266 46.174,97.215 45.073,97.736 42.036 C 98.342 38.498,97.658 37.032,93.897 33.812 C 91.364 31.644,90.258 30.506,89.484 29.273 C 88.410 27.561,86.484 27.395,82.476 28.667 C 78.830 29.824,78.814 29.894,81.395 33.208 C 82.482 34.605,83.182 35.662,83.123 35.818 C 83.067 35.961,83.022 36.154,83.022 36.246 C 83.022 36.901,81.273 35.973,79.132 34.183 C 77.663 32.955,76.832 32.760,76.832 33.644 C 76.832 34.621,86.123 45.163,88.608 47.007 C 90.960 48.751,91.814 49.656,94.489 53.236 C 101.971 63.249,107.180 65.979,114.247 63.593 C 116.637 62.786,123.666 61.183,126.758 60.739 C 127.832 60.586,129.020 60.300,129.398 60.105 C 129.777 59.911,130.496 59.539,130.997 59.280 C 133.874 57.791,137.917 57.480,141.924 58.437 C 146.316 59.487,147.023 60.103,149.680 65.193 C 150.643 67.038,153.010 71.571,154.940 75.266 C 158.725 82.512,158.873 82.863,159.119 85.237 C 159.320 87.172,159.585 87.711,160.750 88.548 C 161.898 89.372,162.293 90.096,162.144 91.102 C 161.759 93.704,161.789 94.178,162.386 94.927 C 163.096 95.819,163.099 96.416,162.399 97.382 C 162.097 97.800,161.658 98.570,161.424 99.094 C 161.190 99.617,160.815 100.209,160.590 100.409 C 159.433 101.439,159.369 102.677,160.411 103.881 C 160.839 104.375,161.107 104.846,161.048 104.999 C 160.992 105.145,160.947 105.339,160.947 105.431 C 160.947 105.523,160.843 105.599,160.715 105.599 C 159.845 105.599,158.684 107.230,158.059 109.333 C 157.576 110.961,156.982 111.935,153.984 116.019 C 146.954 125.597,144.730 129.721,142.273 137.733 C 141.120 141.493,140.148 143.800,137.731 148.507 C 134.685 154.440,134.370 155.981,135.145 161.129 C 135.409 162.883,138.353 191.544,138.932 197.997 C 139.149 200.420,139.091 200.846,137.790 206.327 C 137.556 207.313,137.059 207.554,134.919 207.720 C 133.470 207.832,132.960 207.947,132.537 208.256 C 132.240 208.471,131.768 208.816,131.487 209.020 C 130.499 209.740,128.098 210.102,120.075 210.740 C 112.973 211.305,111.191 211.128,106.600 209.404 C 100.533 207.126,94.942 205.798,87.028 204.752 C 80.686 203.915,78.868 203.818,71.188 203.907 C 56.061 204.083,50.674 204.027,48.885 203.672 C 44.377 202.779,42.183 201.735,38.509 198.732 C 30.089 191.851,17.698 184.270,10.287 181.468 C 2.390 178.481,0.973 178.455,0.341 181.281 C -0.417 184.666,1.614 188.068,6.186 191.074 C 17.338 198.405,29.551 203.203,48.612 207.741 C 51.165 208.349,53.365 208.956,53.499 209.090 C 53.704 209.293,53.015 209.704,49.314 211.585 C 44.535 214.014,44.060 214.386,44.060 215.692 C 44.060 218.799,51.605 223.496,63.814 227.991 C 101.664 241.923,128.126 249.146,161.311 254.604 C 195.338 260.201,214.702 262.099,257.078 263.991 C 272.929 264.698,293.230 264.698,322.622 263.989 C 350.786 263.310,369.220 261.216,390.689 256.255 C 395.439 255.158,396.783 254.634,398.167 253.339 C 399.698 251.908,400.494 249.600,399.761 248.717 C 399.630 248.559,399.381 247.962,399.208 247.390 C 397.987 243.355,395.075 242.602,383.523 243.331 C 353.188 245.246,331.393 245.473,305.143 244.148 C 296.798 243.726,259.120 240.271,227.674 237.043 C 221.779 236.438,222.065 236.564,222.542 234.776 C 223.040 232.907,222.994 232.717,221.355 229.889 C 217.644 223.483,217.662 223.519,216.894 221.009 C 216.484 219.668,215.779 217.383,215.328 215.931 C 214.430 213.042,213.962 210.885,212.834 204.441 C 209.556 185.708,207.876 180.089,203.561 173.418 C 202.849 172.317,201.532 169.941,200.635 168.138 L 199.004 164.861 198.819 162.645 C 198.261 155.957,198.813 150.731,200.602 145.744 C 201.842 142.290,201.927 141.621,202.992 126.991 C 203.842 115.310,203.851 114.757,203.382 101.684 C 203.189 96.316,202.486 93.795,200.293 90.608 C 198.091 87.407,197.060 83.558,196.701 77.196 C 196.570 74.894,196.710 74.514,197.386 75.330 C 198.039 76.118,201.071 82.836,202.008 85.571 C 203.329 89.426,204.559 92.133,206.642 95.770 C 210.925 103.249,214.101 112.488,215.904 122.713 C 216.768 127.615,217.940 129.742,221.430 132.746 C 222.513 133.678,222.774 133.819,223.424 133.819 L 224.171 133.819 224.078 132.993 C 224.019 132.468,223.751 131.816,223.343 131.201 C 222.725 130.270,222.024 128.576,222.188 128.411 C 222.401 128.198,224.052 129.304,228.155 132.406 C 233.488 136.438,233.818 136.553,236.358 135.257 C 237.417 134.717,237.251 134.363,235.139 132.645 C 233.571 131.370,233.222 130.983,232.629 129.856 C 232.151 128.950,231.648 128.309,230.990 127.770 C 223.643 121.747,219.464 113.100,216.930 98.680 C 215.326 89.555,213.877 85.079,209.824 76.741 C 206.298 69.484,205.213 66.733,203.993 61.955 C 202.456 55.935,198.335 46.842,195.818 43.918 C 193.858 41.641,191.778 40.194,188.668 38.944 C 185.914 37.838,181.349 35.560,181.222 35.229 C 181.161 35.072,181.443 34.106,181.849 33.083 C 183.070 30.004,183.331 27.119,182.700 23.696 C 182.475 22.478,182.419 21.570,182.502 20.509 C 182.825 16.409,182.831 15.186,182.539 13.508 C 181.594 8.068,177.877 3.419,172.739 1.248 C 172.011 0.941,171.286 0.575,171.128 0.436 C 170.723 0.079,165.248 0.103,164.588 0.465 M179.311 126.051 C 180.000 126.882,181.880 141.591,182.165 148.384 C 182.274 150.979,182.562 153.029,184.348 163.908 C 185.423 170.453,186.076 172.368,188.903 177.266 C 190.702 180.382,192.185 183.896,193.249 187.568 C 194.420 191.607,195.822 194.757,201.695 206.554 C 206.439 216.083,206.511 216.244,206.992 218.401 C 207.275 219.670,207.290 219.936,207.081 219.936 C 206.767 219.936,206.744 219.648,207.298 222.610 C 208.060 226.684,207.776 228.083,205.524 231.341 C 203.875 233.725,204.577 233.694,193.355 231.883 C 153.326 225.425,153.502 225.456,152.906 224.916 C 152.219 224.294,152.009 222.478,152.267 219.390 L 152.411 217.660 151.675 216.841 C 150.217 215.219,150.072 214.338,150.979 212.603 L 151.570 211.470 151.551 208.284 C 151.529 204.770,151.313 203.099,150.597 200.910 C 149.947 198.924,149.978 197.163,150.719 193.901 C 152.150 187.597,151.787 178.993,149.707 169.868 C 148.904 166.349,149.041 165.196,150.586 162.494 C 157.162 150.992,158.885 148.410,161.564 146.042 C 163.470 144.359,164.320 143.360,170.423 135.631 C 177.589 126.555,178.719 125.338,179.311 126.051 M7.699 181.722 C 16.788 185.213,28.080 192.030,38.425 200.271 C 44.131 204.818,44.195 204.829,64.360 205.006 C 76.868 205.116,80.778 205.206,82.946 205.437 C 91.512 206.348,98.113 207.776,105.690 210.357 C 111.107 212.202,114.347 212.438,122.622 211.590 C 128.876 210.949,135.985 211.461,137.161 212.638 C 137.716 213.193,137.404 213.892,136.459 214.213 C 135.744 214.455,134.988 215.159,133.597 216.879 C 132.138 218.682,128.946 220.271,126.445 220.439 C 124.436 220.573,114.763 218.980,91.761 214.728 C 85.002 213.478,74.597 211.563,68.639 210.471 C 38.892 205.018,27.959 201.632,11.380 192.735 C 2.814 188.138,-1.370 182.283,2.640 180.503 C 3.411 180.161,4.014 180.306,7.699 181.722 " stroke="none" fill="#fff" fill-rule="evenodd"></path></g></svg>