<svg id="svg" xmlns="http://www.w3.org/2000/svg" xmlns:xlink="http://www.w3.org/1999/xlink" width="56" height="48" viewBox="0, 0, 400,314.75409836065575"><g id="svgg"><path id="path0" d="M229.721 20.830 C 200.630 68.515,187.182 138.392,195.650 197.859 L 200.947 235.062 177.488 241.017 C 149.235 248.188,137.149 245.145,142.147 232.119 C 147.231 218.872,125.789 196.721,107.882 196.721 C 99.810 196.721,91.508 192.295,89.432 186.885 C 84.731 174.636,59.802 173.928,55.203 185.913 C 53.188 191.165,45.581 193.588,36.537 191.859 C 21.117 188.911,-7.627 217.130,6.127 221.714 C 10.168 223.061,10.201 229.761,6.218 240.236 C -3.431 265.615,5.148 292.745,18.575 279.317 C 27.961 269.931,29.514 270.918,35.758 290.237 C 45.831 321.400,62.295 318.139,62.295 284.981 C 62.295 254.956,80.043 222.951,96.692 222.951 C 105.710 222.951,105.056 224.898,93.262 233.159 C 71.697 248.264,73.391 314.754,95.342 314.754 C 100.123 314.754,105.823 309.119,108.009 302.232 C 110.195 295.344,116.721 285.777,122.511 280.971 C 131.726 273.324,132.494 273.952,128.667 286.011 C 122.750 304.652,138.792 318.143,155.953 308.959 C 164.718 304.268,170.701 304.472,175.867 309.637 C 181.264 315.035,187.492 315.089,199.018 309.837 C 210.609 304.556,216.778 304.647,222.310 310.179 C 227.972 315.841,233.042 315.702,242.787 309.616 C 252.888 303.308,258.506 303.257,268.320 309.386 C 278.155 315.528,283.054 315.458,290.757 309.065 C 298.640 302.523,303.306 302.569,314.077 309.295 C 324.208 315.623,329.405 315.841,335.067 310.179 C 340.675 304.571,346.719 304.534,358.790 310.033 C 372.871 316.449,376.551 315.340,386.960 301.541 C 407.226 274.673,380.260 248.018,323.639 238.949 L 298.361 234.900 298.361 158.434 C 298.361 46.131,260.540 -29.689,229.721 20.830 M274.133 50.820 C 290.152 85.001,291.803 95.662,291.803 164.898 L 291.803 241.271 326.028 248.929 C 367.388 258.185,389.487 274.116,383.306 290.221 C 378.336 303.173,366.672 305.032,356.183 294.544 C 351.094 289.454,345.311 289.806,335.732 295.788 C 324.879 302.566,320.434 302.517,312.008 295.524 C 303.451 288.422,299.828 288.422,291.271 295.524 C 282.929 302.447,278.342 302.530,267.806 295.950 C 257.345 289.417,252.727 289.417,244.855 295.950 C 236.960 302.503,232.232 302.400,221.077 295.433 C 211.084 289.193,206.452 288.841,204.669 294.189 C 201.506 303.679,179.225 303.908,173.417 294.511 C 170.245 289.377,167.016 289.377,161.883 294.511 C 147.443 308.950,137.709 301.998,137.432 277.049 L 137.159 252.459 114.629 277.971 C 97.059 297.866,91.237 301.236,88.183 293.279 C 79.859 271.585,88.225 246.142,106.557 237.396 C 127.793 227.265,129.586 218.863,111.723 213.193 C 83.054 204.094,49.476 242.480,53.789 279.422 C 55.216 291.642,54.025 301.639,51.142 301.639 C 48.260 301.639,45.902 290.062,45.902 275.913 C 45.902 232.098,87.928 193.724,118.181 209.915 C 136.058 219.483,132.297 237.718,111.441 242.593 C 98.468 245.625,94.659 251.115,93.038 269.110 L 90.994 291.803 110.701 270.492 C 130.730 248.833,141.417 244.183,145.355 255.414 C 146.631 259.052,159.832 257.588,177.049 251.900 L 206.557 242.152 206.557 165.338 C 206.557 87.022,227.252 13.115,249.180 13.115 C 253.186 13.115,264.415 30.082,274.133 50.820 M249.727 142.623 C 249.204 257.185,249.728 262.295,261.998 262.295 C 291.497 262.295,295.431 117.401,267.517 59.016 L 250.273 22.951 249.727 142.623 M230.645 50.820 C 202.664 122.777,204.436 262.295,233.330 262.295 C 240.995 262.295,242.623 242.191,242.623 147.541 C 242.623 27.149,241.953 21.738,230.645 50.820 M235.502 165.574 C 235.075 236.288,233.373 254.231,228.503 239.344 C 216.490 202.621,220.065 72.131,233.084 72.131 C 234.724 72.131,235.812 114.180,235.502 165.574 M276.577 163.934 C 276.479 194.590,273.480 228.525,269.911 239.344 C 265.025 254.158,263.422 235.534,263.422 163.934 C 263.422 90.987,264.974 73.432,270.088 88.525 C 273.754 99.344,276.674 133.279,276.577 163.934 M42.623 203.279 C 44.852 206.885,40.426 209.836,32.787 209.836 C 25.148 209.836,20.722 206.885,22.951 203.279 C 25.180 199.672,29.606 196.721,32.787 196.721 C 35.968 196.721,40.394 199.672,42.623 203.279 M39.344 235.339 C 39.344 238.546,33.541 248.136,26.448 256.651 L 13.551 272.131 13.333 255.191 C 13.213 245.874,15.082 236.284,17.486 233.880 C 23.866 227.501,39.344 228.534,39.344 235.339 M181.548 255.846 C 158.011 262.911,144.262 274.344,144.262 286.852 C 144.262 295.076,145.961 295.278,154.631 288.083 C 162.794 281.307,167.675 281.149,177.582 287.335 C 187.358 293.441,192.970 293.441,202.746 287.335 C 212.653 281.149,217.533 281.307,225.697 288.083 C 233.713 294.736,238.180 294.933,245.388 288.951 C 252.571 282.990,257.715 283.091,267.806 289.393 C 278.268 295.926,282.885 295.926,290.757 289.393 C 298.647 282.845,303.369 282.924,314.440 289.787 C 326.075 297.000,329.246 296.800,334.426 288.525 C 339.565 280.316,342.830 280.081,354.165 287.107 C 372.974 298.767,384.074 290.418,370.178 275.063 C 352.939 256.014,288.873 243.631,280.935 257.815 C 272.624 272.666,216.393 273.712,216.393 259.016 C 216.393 248.185,209.240 247.534,181.548 255.846 M209.836 268.151 C 209.836 277.064,193.202 281.534,176.393 277.138 C 162.221 273.432,162.091 272.920,174.122 268.212 C 191.978 261.224,209.836 261.193,209.836 268.151 M344.262 268.852 C 356.776 274.230,356.701 274.509,342.623 274.949 C 334.508 275.202,327.869 278.386,327.869 282.023 C 327.869 285.943,322.528 285.300,314.754 280.445 C 304.268 273.897,299.011 273.897,288.525 280.445 C 273.668 289.724,271.432 285.931,283.607 272.104 C 292.678 261.800,323.950 260.124,344.262 268.852 " stroke="none" fill="#fff" fill-rule="evenodd"></path></g></svg>