<svg xmlns="http://www.w3.org/2000/svg" width="400" height="368.571"><path d="M332.905.678c-.243.796-1.531 13.213-2.893 27.893-.451 4.872-1.126 16.315-1.498 25.429l-.677 16.571 1.488 8.286c.818 4.557 2.144 13.172 2.947 19.143 1.765 13.139 2.785 20.15 4.576 31.429.748 4.714 1.663 11.142 2.032 14.285.758 6.461 3.408 25.995 5.038 37.143.597 4.086 1.386 10 1.753 13.143 1.756 15.034 3.271 26.545 4.678 35.532.648 4.142 1.092 7.956.986 8.476-.179.881-2.494-13.161-4.993-30.294-.596-4.085-2.113-13.6-3.371-21.143a3392.406 3392.406 0 0 1-3.776-23.142c-.819-5.186-2.277-13.8-3.239-19.143-.962-5.343-1.985-11.669-2.275-14.057-.289-2.389-1.313-8.56-2.275-13.714a930.8 930.8 0 0 1-3.18-18.229c-.788-4.872-2.726-15.415-4.307-23.429-1.581-8.014-3-15.6-3.154-16.857-.425-3.472-3.389-17.443-5.326-25.108-.949-3.752-1.725-7.247-1.725-7.766 0-3.402-6.108-11.983-8.53-11.983-1.546 0-1.6.106-1.954 3.857-1.05 11.108-.096 48.41 1.661 65 .466 4.4 1.11 11.4 1.431 15.555.321 4.155 1.742 14.441 3.157 22.857 1.415 8.416 2.945 17.713 3.401 20.659.779 5.045 4.191 21.324 5.417 25.85.307 1.135.954 4.35 1.437 7.143.484 2.793 2.176 10.018 3.762 16.054 1.586 6.037 2.798 11.401 2.693 11.921-.182.911-5.291-13.98-5.796-16.896-.137-.786-1.41-5.672-2.831-10.857-1.421-5.186-2.896-10.972-3.278-12.857-.383-1.886-1.294-6.258-2.025-9.715-3.192-15.091-4.276-21.026-5.115-28-.492-4.085-1.141-8.843-1.442-10.571-4.058-23.298-6.156-87.256-3.115-95 .296-.754.106-1-.771-1-1.246 0-1.284.129-3.211 10.857-1.763 9.81-2.222 16.667-2.27 33.856-.027 9.664-.178 17.57-.335 17.568-.157-.001-2.857-.397-6-.879-12.153-1.864-21.553-3.126-29.5-3.961-7.859-.825-12.586-1.191-33.071-2.562-7.929-.531-12.682-.835-31.973-2.044-2.97-.186-5.553-.433-5.74-.548-.831-.514-47.034.886-56.287 1.705-23.726 2.1-32.623 3.721-40.572 7.393-.943.435-2.644 1.174-3.78 1.642-1.874.771-7.925 6.502-10.013 9.483-.536.766-1.462 1.204-2.543 1.204-1.843 0-2.751 1.262-1.764 2.45.644.777.736.623-8.9 14.942-2.907 4.32-5.286 7.985-5.286 8.144 0 .159-1.411 2.454-3.135 5.099-1.725 2.646-3.689 5.9-4.366 7.231-.677 1.331-2.188 3.834-3.358 5.563-6.196 9.154-7.352 13.27-7.928 28.223-.359 9.316-.637 11.974-1.335 12.771-2.686 3.063-3.479 7.565-1.874 10.642 1.641 3.146 1.134 7.834-1.112 10.286-5.627 6.143-6.764 19.039-2.302 26.107 1.875 2.969 2.075 8.259.293 7.693-.79-.251-1.75.224-3.268 1.615-2.279 2.089-2.258 2.011-3.386 12.663-.166 1.571-.736 3.757-1.265 4.857-1.397 2.899-1.701 15.182-.437 17.626.634 1.227.902 3.339.902 7.103 0 7.26.842 8.166 7.482 8.047 3.02-.053 4.981-.377 5.886-.97 1.775-1.163 2.061-.778 2.061 2.772 0 3.416.66 4.224 4.571 5.592 1.414.495 5.143 1.825 8.286 2.955 3.143 1.13 7.643 2.66 10 3.399 2.357.74 6.838 2.275 9.957 3.411 6.126 2.23 7.993 2.042 8.758-.883.2-.767.582-.995 1.217-.729 1.836.769 13.784 4.148 15.98 4.519 2.014.341 2.35.645 3.22 2.924 1.697 4.443 8.388 5.709 12.961 2.453 1.7-1.211 6.525-1.257 12.35-.12 9.672 1.889 44.475-.37 61.962-4.021l8.977-1.875.378 1.756c.379 1.764 1.81 4.937 2.466 5.469.193.158 1.052 1.226 1.908 2.375 3.718 4.991 16.884 6.799 26.437 3.631 10.229-3.392 20.815-24.42 20.86-41.434.023-8.395 1.262-10.054 5.926-7.929 1.205.55 2.063.338 5.884-1.454 7.554-3.541 38.81-18.852 43.044-21.086 8.558-4.514 10.889-5.532 11.102-4.846.128.409.392 1.884.589 3.279 1 7.096 7.4 11.46 14.452 9.854 2.944-.671 3.107-.119.919 3.102-2.395 3.525-5.947 11.483-5.567 12.473.768 2.002 5.213 1.597 11.171-1.019l2.094-.92 1.325 2.13c.729 1.172 1.425 2.387 1.547 2.702.596 1.539 4.445 4.857 5.636 4.857 3.045 0 4.61-7.23 2.66-12.286-.372-.964-.148-.897 1.431.429 2.443 2.05 3.699 1.982 5.317-.286 1.534-2.151 1.579-3.738.828-29.348l-.438-14.92 2.359-.316c4.449-.597 8.004-4.436 8.004-8.644 0-.741.386-2.27.857-3.398 1.663-3.979 1.161-8.81-1.139-10.979l-1.997-1.883.945-8.471c1.943-17.414 1.199-44.18-1.609-57.898a460.788 460.788 0 0 1-1.915-9.975c-1.805-10.201-7.336-19.74-11.446-19.74-1.677 0-.559 3.341 1.799 5.38l2.062 1.782-1.922-.009c-1.71-.009-1.904.147-1.771 1.419.083.786.165 1.814.184 2.286.018.471.52 5.614 1.115 11.428.594 5.814 1.265 13.272 1.49 16.572.225 3.3.448 6.385.495 6.857a79.9 79.9 0 0 1 .183 2.778c.094 1.841.175 1.906 1.955 1.586 5.931-1.066 6.714-1.093 6.714-.23 0 .618-1.178 1.042-4.286 1.543l-4.285.691-.075 4.673c-.06 3.826-.206 2.965-.805-4.756l-1.64-21.142c-.5-6.443-1.301-15.315-1.781-19.715S354 95.857 353.687 91.143c-.312-4.714-.935-11.143-1.384-14.286-.448-3.143-1.224-8.8-1.724-12.571a880.26 880.26 0 0 0-1.77-12.572c-.474-3.143-1.239-8.928-1.701-12.857-.935-7.941-4.414-25.607-5.774-29.319-.483-1.317-.859-3.25-.836-4.295.027-1.229-.198-1.819-.639-1.672-.374.125-1.211-.564-1.859-1.529-1.281-1.908-4.652-2.811-5.095-1.364m-3.608 5.751c-2.303 5.763-2.284 5.681-5.219 22.331l-1.695 9.617 1.083 5.526c.596 3.039 1.227 6.478 1.401 7.642.739 4.923 1.864 1.792 2.263-6.299.498-10.09 2.237-26.108 3.701-34.103 1.618-8.832.942-10.91-1.534-4.714M218.286 74.612c1.728.167 10.343.919 19.143 1.671 16.997 1.453 42.067 4.194 52.714 5.763l6.428.948v3.863h-4c-2.609 0-4 .226-4 .651 0 .86 6.164 8.884 7.834 10.198 2.175 1.71 1.606 2.294-2.234 2.294-2.755 0-3.39-.152-2.857-.686 1.678-1.678.779-4.016-3.555-9.251-3.109-3.755-4.355-4.244-13.317-5.231-4.329-.477-9.925-1.097-12.436-1.377-8.207-.918-7.994.274 1.945 10.909l3.665 3.922-2.808-.033c-4.037-.048-7.644-.756-6.379-1.253 3.501-1.375-2.531-10.125-9.396-13.628-4.261-2.173-33.695-3.899-35.218-2.065-1.192 1.437 6.682 10.094 11.806 12.979l1.522.857-2.286.203c-1.257.112-7.171-.076-13.143-.417-14.896-.852-22.891-1.128-61.143-2.113-18.228-.469-39.442-1.093-47.142-1.385-7.7-.293-15.535-.542-17.411-.553l-3.411-.021 3.28-3.314c7.234-7.311 25.363-11.949 51.827-13.26 9.695-.481 74.951-.214 80.572.329m-95.143 20.809c7.857.297 27.528.945 43.714 1.44 16.186.494 35.6 1.271 43.143 1.727 7.543.455 21.686 1.22 31.429 1.7 9.742.48 23.757 1.256 31.142 1.724 7.386.468 16.175 1.015 19.53 1.215 7.174.429 6.436-.629 7.315 10.487.601 7.602 2.726 20.85 5.406 33.715 1.691 8.115 2.171 11.412 1.506 10.347-.415-.667-2.104-.505-10.431 1-5.465.987-10.698 1.796-11.631 1.797-.932 0-8.766 1.309-17.409 2.908-8.643 1.599-17.643 3.148-20 3.443-2.357.295-11.228 1.919-19.714 3.609-8.486 1.689-17.743 3.504-20.572 4.031-2.828.528-6.878 1.437-9 2.019-3.775 1.036-3.857 1.036-3.857-.022 0-.801.556-1.179 2.143-1.459 1.179-.207 6.643-1.362 12.143-2.566 10.831-2.371 17.873-3.729 29.429-5.675 4.085-.688 11.8-2.106 17.142-3.15 5.343-1.044 12.158-2.186 15.143-2.537 2.986-.352 5.815-.752 6.286-.89.471-.138 5.486-1.05 11.143-2.026 5.657-.976 12.086-2.099 14.286-2.495l4-.72-.181-2.236c-.1-1.23-.367-2.426-.594-2.658-.345-.353-15.652 1.905-18.368 2.71-.472.14-3.172.512-6 .827-5.063.564-12.779 1.916-29.759 5.213-4.739.92-9.367 1.674-10.286 1.676-.918.002-5.27.746-9.67 1.653-8.981 1.853-8.828 1.86-7.28-.338.622-.882 1.302-2.156 1.511-2.83.448-1.445.726-1.504 13.341-2.84l9.286-.984.077-1.475c.071-1.345.1-1.362.326-.19.291 1.512 2.707 1.649 12.438.703 9.431-.917 8.902 1.045 6.313-23.417-2.472-23.341-4.457-27.954-12.079-28.065-5.269-.077-11.749-.323-22.632-.86-6.457-.318-7.891-.245-8.117.412-.15.439-.675 4.013-1.166 7.942-.49 3.928-1.268 10.004-1.728 13.502-.46 3.497-1.107 9.921-1.437 14.274-.551 7.259-1.104 9.592-2.048 8.647-.196-.196.434-7.636 1.401-16.533 2.058-18.938 2.892-28.043 2.612-28.514-.111-.186-4.313-.508-9.339-.715-10.109-.417-11.88-.068-12.359 2.437-.155.81-.795 3.53-1.422 6.045-.628 2.514-2.189 8.942-3.471 14.285a3778.904 3778.904 0 0 1-5.178 21.231c-3.822 15.45-3.566 16.049 6.579 15.409 5.114-.323 5.165-.314 2.317.414-5.84 1.491-9.945 4.807-9.945 8.035 0 1.07-.276 1.183-2.461 1.01-2.556-.204-3.521.387-3.906 2.395-.148.773-1.379 1.422-4.49 2.366-2.357.715-6.728 2.241-9.714 3.392-2.986 1.151-7.353 2.74-9.705 3.532-2.352.793-4.537 1.651-4.857 1.909-.319.257-2.895 1.415-5.724 2.572-2.828 1.158-6.759 2.986-8.734 4.063-2.915 1.589-3.48 1.75-3 .853 1.156-2.16-.257-2.527-2.034-.529-1.39 1.563-5.199 3.32-7.232 3.336-1.066.008-1.571.312-1.571.944 0 .755.4.867 2.101.591 1.838-.298 1.39.115-3.571 3.293-3.12 1.998-6.927 4.625-8.46 5.837-1.533 1.213-3.377 2.53-4.098 2.928-2.752 1.52-14.543 12.868-17.957 17.282-1.091 1.411-2.286 2.756-2.654 2.989-1.488.941-9.742 14.828-12.22 20.561l-2.648 6.127-.913-3.27A490.037 490.037 0 0 1 72.847 244c-.531-2.043-1.697-6.029-2.591-8.857-.894-2.829-2.405-8.14-3.357-11.802-.952-3.662-2.765-9.808-4.029-13.658-1.264-3.85-2.299-7.339-2.299-7.755 0-.415-1.518-5.583-3.373-11.484-3.57-11.356-8.339-30.368-8.975-35.78-.209-1.777-.701-3.671-1.093-4.207-.902-1.233.341-5.886 2.258-8.457.704-.943 2.274-3.514 3.491-5.714 1.217-2.2 3.382-5.844 4.81-8.097 1.428-2.254 4.525-7.266 6.882-11.138 2.358-3.872 5.099-8.108 6.093-9.414.994-1.305 2.151-2.98 2.572-3.722.42-.742 2.175-3.252 3.899-5.577l3.134-4.229 14.294.386c7.862.212 20.723.628 28.58.926M231 95.832c-.707.136-1.864.136-2.571 0-.708-.136-.129-.248 1.285-.248 1.415 0 1.993.112 1.286.248M80.033 98.25c-1.142 1.237-3.716 5.03-5.719 8.428-2.003 3.399-3.969 6.566-4.368 7.039C67.787 116.273 56 138.424 56 139.926c0 1.313.28 1.419 7.004 2.654l5.003.919 2.524-2.068c1.387-1.137 2.918-2.671 3.401-3.408.484-.737 1.725-1.937 2.759-2.666 1.304-.918.7-.015-1.97 2.945-4.895 5.427-4.896 5.817-.007 6.728 9.23 1.72 11.668 2.716 9.143 3.734-.393.159.278.309 1.49.334 1.735.035 2.134-.138 1.875-.812-.261-.681.18-.857 2.136-.857 2.781 0 3.099-.28 6.18-5.429 2.17-3.629 10.338-20.332 11.596-23.714.409-1.1 1.914-4.458 3.345-7.461 4.65-9.758 5.211-12.785 2.483-13.38C110.182 96.839 96.619 96 89.595 96H82.11l-2.077 2.25m158.681-1.856c-.55.144-1.45.144-2 0s-.1-.261 1-.261 1.55.117 1 .261m-116.223 3.012c-.987.659-2.102 2.027-2.477 3.039s-1.048 2.484-1.496 3.269c-1.564 2.744-8.918 18.353-15.38 32.642-4.984 11.022-5.108 10.909 13.92 12.599 15.403 1.369 15.017 1.433 13.594-2.272-.567-1.476-2.007-5.383-3.199-8.683-1.193-3.3-2.486-6.771-2.874-7.714-2.367-5.751-2.846-7.213-3.435-10.484-1.001-5.567-.448-4.749 2.361 3.495 1.416 4.158 3.151 9.232 3.855 11.274.704 2.043 1.283 4.1 1.286 4.572.003.471.945 3.116 2.092 5.878 2.401 5.781 1.358 5.264 12.405 6.141 35.654 2.828 35.408 2.857 37.06-4.388.491-2.154 2.157-8.16 3.703-13.345 1.546-5.186 2.998-10.329 3.228-11.429.23-1.1 1.419-5.446 2.642-9.658 3.503-12.061 2.992-13.417-5.263-13.983-31.48-2.16-59.568-2.591-62.022-.953m148.098 5.331c-1.06.809-1.085 1.118-.439 5.347 1.913 12.524 2.404 16.3 3.591 27.63 1.427 13.633 1.662 14.286 5.138 14.286 3.341 0 19.435-2.26 20.624-2.897 1.157-.619 1.613-7.711.568-8.846-.275-.298-.79-2.986-1.144-5.971-2.381-20.068-4.187-28.627-6.203-29.401-2.287-.878-21.015-1.003-22.135-.148m91.063 4.549c1.989 6.18 4.15 16.433 4.664 22.12.327 3.627.729 7.044.892 7.594.177.595-.007 1.003-.455 1.008-.414.004-1.291.152-1.949.329-1.142.306-1.213.051-1.561-5.579-.2-3.246-.858-8.729-1.462-12.187-.604-3.457-1.267-7.7-1.474-9.428-.206-1.729-.752-3.722-1.211-4.429-.788-1.21-.755-1.285.561-1.285 1.073 0 1.536.431 1.995 1.857m-255.298.872c-.299.558-2.066 2.34-3.928 3.959-1.861 1.619-7.154 6.715-11.762 11.326-4.608 4.61-8.378 7.971-8.378 7.469 0-.501-.432-.912-.96-.912-.623 0-.075-.754 1.556-2.143 1.384-1.178 4.306-3.75 6.494-5.714 2.187-1.964 4.251-3.58 4.586-3.59.335-.009 3.309-2.573 6.609-5.696 6.46-6.113 6.601-6.228 5.783-4.699m-41.783 24.128c0 .314-.385.571-.857.571-.471 0-.857-.257-.857-.571 0-.315.386-.572.857-.572.472 0 .857.257.857.572m153.182 15.747c2.143 1.089 3.711 4.876 3 7.247l-.558 1.863-.424-2.374c-.497-2.78-3.867-7.055-5.564-7.055-.638 0-.971-.259-.764-.594.39-.631 1.901-.311 4.31.913M91.09 151.424c-.312.312-1.89.693-3.508.847-4.416.421-7.867 1.303-10.99 2.809-2.246 1.083-2.869 1.197-3.111.566-.581-1.515-1.636-.847-1.301.824.242 1.21.033 1.817-.836 2.429-2.138 1.504-3.693 3.12-4.789 4.975-.598 1.012-1.268 1.84-1.49 1.84-.221 0-.572.772-.779 1.715-.207.942-.551 1.714-.764 1.714-.596 0-1.876 4.517-2.225 7.857-.255 2.431-.515 3-1.377 3-.585 0-1.063.386-1.063.857 0 .491.515.857 1.205.857 1.23 0 1.252.48.172 3.804-.26.803-.208.865.221.263.671-.941 1.576 2.095 1.38 4.628-.081 1.048.25 1.749 1.022 2.163.629.336 1.143.883 1.143 1.215 0 .332.514 1.258 1.143 2.057.628.799 1.143 1.829 1.143 2.29 0 1.063 3.375 4.252 4.055 3.832.281-.174.811.341 1.177 1.145.366.803.881 1.46 1.145 1.46s.48.378.48.84c0 .52.334.711.878.502.483-.186 1.361.099 1.95.632.993.898 2.105 1.302 3.886 1.411.393.024.714.414.714.865 0 .62.492.742 2 .497 1.762-.286 2-.179 2 .893 0 1.345.832 1.616 1.543.503.297-.463 1.961-.722 4.743-.736 6.526-.035 10.286-.446 10.286-1.127 0-.749 4.923-2.265 6.745-2.077.806.083 1.279-.152 1.218-.605-.204-1.534.07-2.103 1.188-2.457.633-.201 1.004-.604.823-.896-.321-.519.462-.758 1.883-.573.393.051.714-.393.714-.988 0-.955.489-1.728 2.869-4.541.333-.393.456-.714.274-.714-.316 0 .229-.743 1.913-2.606.423-.469.636-1.2.473-1.625-.163-.425-.045-1.024.262-1.331.307-.307.711-2.91.897-5.784.186-2.874.558-5.225.825-5.225.751 0 .576-2.161-.195-2.418-.386-.129-.697-1.331-.715-2.762-.017-1.394-.353-2.875-.746-3.29-.392-.415-.714-1.122-.714-1.571 0-.449-.195-.817-.434-.817-.988 0-1.93-2.359-1.264-3.162.957-1.153.166-2.118-1.155-1.411-.842.451-1.141.351-1.401-.469-.182-.573-.901-1.655-1.599-2.404-.698-.749-1.274-1.759-1.28-2.244-.005-.484-.395-.896-.867-.915-1.704-.067-3.419-.917-4.421-2.19-.562-.715-1.404-1.334-1.872-1.376-2.347-.211-4.716-.727-5.665-1.235-1.318-.705-4.15-.947-4.993-.426-.361.223-.761-.098-.93-.745-.326-1.244-1.006-1.45-1.886-.57m123.119 5.561c.705 1.26-.186 3.021-1.515 2.997-.916-.017-.914-.068.02-.777 1.352-1.026 1.263-2.062-.176-2.062-.647 0-1.018-.257-.824-.572.552-.893 1.887-.671 2.495.414m-5.961 7.302c2.327 2.195 2.264 2.274-2.248 2.848-2.937.373-11.276 2.217-12.927 2.857-1.144.444-.83-2.151.382-3.157.773-.642 10.888-4.428 12.036-4.506.349-.024 1.59.857 2.757 1.958M311.021 174c1.672 6.035 2.38 9.26 1.942 8.849-.613-.576-5.552-18.45-5.502-19.912.035-1.017 1.316 2.965 3.56 11.063m48.812-8.721c-.137.711-.254.264-.26-.993-.007-1.257.105-1.839.248-1.293.143.547.148 1.575.012 2.286m-28.547 7.054c-.545.545-1.637-.337-1.231-.994.241-.39.561-.38.971.03.337.337.453.771.26.964m-252.698 8.202c.662 4.704 1.439 8.331 1.812 8.456.663.22 3.717-4.657 6.946-11.092 2.56-5.101 4.27-5.497 4.929-1.14 1.058 6.998 2.762 15.241 3.15 15.241.679 0 2.235-2.542 5.771-9.429 1.817-3.539 3.634-6.366 4.158-6.47 1.476-.293 1.101 1.123-1.265 4.785-1.208 1.87-3.287 5.457-4.621 7.971-3.657 6.892-5.31 7.313-5.986 1.524-.737-6.32-2.661-13.315-3.609-13.127-.481.096-2.069 2.36-3.529 5.032-5.759 10.535-6.662 11.195-7.817 5.711-3.512-16.681-3.442-16.146-2.098-15.891.83.158 1.196 1.589 2.159 8.429m111.349-4.034c-.514 2.852-.578 2.91-2.594 2.332-2.334-.67-2.296-.604-1.873-3.252l.366-2.286 2.237.568c2.191.556 2.229.611 1.864 2.638m-148.731 6.376c-.495 1.241-.566 1.097-.598-1.21-.02-1.441.156-2.815.392-3.055.67-.681.833 2.694.206 4.265m136.05-.43c-2.419.89-7.227 2.614-10.685 3.832-7.124 2.51-24.087 9.724-26.784 11.391-.983.607-3.458 1.931-5.501 2.941-2.043 1.011-5.257 2.894-7.143 4.185-1.886 1.291-3.96 2.604-4.609 2.918-4.791 2.319-19.401 14.871-25.942 22.286-1.664 1.886-2.789 2.979-2.501 2.43 1.289-2.457 13.115-14.799 16.754-17.485 1.107-.817 2.589-2.034 3.294-2.705 1.703-1.619 13.55-9.593 16.754-11.275 1.395-.733 4.336-2.371 6.536-3.642 2.2-1.27 4.635-2.509 5.413-2.752.777-.244 4.222-1.822 7.656-3.507 3.433-1.685 6.533-3.064 6.888-3.064.355 0 3.467-1.17 6.915-2.6 3.449-1.431 7.942-3.077 9.985-3.659 2.043-.582 4.357-1.308 5.143-1.613.98-.381 1.553-.358 1.827.073.254.399-1.205 1.218-4 2.246m142.013 20.331c-.158.973-5.607-15.319-5.517-16.492.036-.472 1.321 2.871 2.854 7.428 1.534 4.557 2.732 8.636 2.663 9.064m46.67-11.587c.214.556.086.817-.331.678-.855-.285-1.325-1.583-.574-1.583.307 0 .714.407.905.905m-4.946 10.095c-.116 1.65-.21.3-.21-3s.094-4.65.21-3c.115 1.65.115 4.35 0 6m-195.239-5.551c9.876 5.107 3.553 19.51-7.394 16.845-8.262-2.012-10.097-12.917-2.849-16.936 1.882-1.043 8.157-.988 10.243.091m-9.542 1.119c-2.95 1.768-5.502 6.575-3.49 6.575.397 0 .975-.573 1.285-1.272 1.641-3.699 6.88-4.781 10.538-2.176 3.749 2.67 1.643 9.721-2.907 9.731-.513.001-1.068.517-1.232 1.145-.657 2.513 5.153.348 7.451-2.777 5.108-6.946-4.052-15.778-11.645-11.226m-112.306 3.055c3.747 8.71 2.778 26.948-1.431 26.948-.945 0-.984.291.46-3.428 2.661-6.854 2.037-18.841-1.214-23.329-1.689-2.332-1.685-2.957.018-2.957.624 0 1.408 1.001 2.167 2.766m324.205 1.504c-.996 2.186-1.816 1.762-1.1-.57.411-1.339.809-1.823 1.188-1.444.379.379.35 1.054-.088 2.014m-328.456-.127c2.297 3.586 2.92 13.746 1.204 19.648l-.947 3.26-1.37-1.669c-3.564-4.342-4.656-11.421-2.77-17.954 1.369-4.741 2.394-5.609 3.883-3.285m328.634 6.725c.526 1.655-1.191 5.069-2.87 5.707-2.079.79-2.838.738-2.13-.147.314-.392.762-1.334.995-2.093 1.514-4.927 3.105-6.304 4.005-3.467m-43.368 11.83c-.323.323-4.371-10.987-4.321-12.073.016-.344 1.044 2.182 2.285 5.614 1.241 3.431 2.157 6.338 2.036 6.459m-165.188 5.911c1.916 3.781 2.704 7.733 2.103 10.543-.443 2.073-.516 1.832-.811-2.694-.344-5.286-1.1-7.094-4.712-11.264l-1.742-2.011 1.873 1.316c1.03.723 2.511 2.573 3.289 4.11m-25.896-2.181c-.514 1.022-1.038 3.465-1.166 5.429l-.233 3.571 3.067.041c3.406.044 2.382.989-1.152 1.062-1.926.04-1.931.048-1.619 2.373.426 3.178.055 3.137 7.699.851 9.257-2.767 9.711-2.691 5.82.971-1.747 1.643-4.126 3.706-5.286 4.584-2.857 2.16-2.765 3.591.319 4.991 3.035 1.378 4.916 1.422 5.447.127 1.481-3.612 5.771-8.913 4.471-5.524-.191.497-.347 1.876-.347 3.065 0 4.849-11.563 6.919-18.571 3.324-10.372-5.321-10.536-18.617-.312-25.325 2.714-1.781 2.958-1.721 1.863.46m-97.951 16.33c.897.127 1.697.975 2.523 2.675.871 1.792 1.942 2.885 3.829 3.906 4.346 2.352 18.562 8.259 20.954 8.707 1.23.23 3.016.744 3.969 1.142 2.401 1.002 17.135 4.708 20.268 5.098 1.414.176 6.619 1.002 11.566 1.835l8.995 1.516 1.328-1.247c1.79-1.683 2.915-1.573 5.546.542 2.855 2.294 9.845 3.174 28.85 3.635 20.808.504 20.734.491 24.2 4.215 2.866 3.08 4.086 5.878 4.086 9.372 0 5.832 1.114 5.95 19.662 2.077 4.371-.913 8.496-1.66 9.166-1.66.67 0 3.607-.774 6.526-1.72 6.512-2.111 6.61-2.061 6.133 3.086-.596 6.43-2.669 9.873-7.337 12.187-4.055 2.009-14.239 5.136-18.214 5.592-1.379.159-7.265.848-13.079 1.531-13.072 1.537-39.338 1.819-49.262.529-5.577-.726-6.247-.712-7.571.156l-1.453.951.041-16.156.04-16.156 1.139 2.569c.626 1.413 1.394 3.763 1.708 5.223.313 1.46.875 3.06 1.249 3.556 1.559 2.068 20.845 3.965 37.538 3.692l11.143-.183-.062-4.742c-.074-5.693-1.741-8.697-5.987-10.783-3.192-1.568-46.074-2.421-46.647-.927-.167.433-.734.634-1.291.457-2.179-.692-2.339.648-2.173 18.217l.16 16.922-1.429-.019c-2.031-.026-3.499-1.332-3.944-3.511-.501-2.447-6.784-4.843-21.342-8.137-1.552-.351-1.571-.41-1.571-4.889 0-5.429-.711-7.26-3.091-7.964-.971-.287-5.76-1.92-10.642-3.629-4.881-1.708-9.874-3.294-11.095-3.523-1.221-.229-4.104-1.165-6.407-2.079-8.017-3.185-10.479-2.764-10.479 1.791 0 1.864-.194 2.245-1.143 2.245-.629 0-1.657.514-2.286 1.143-2.52 2.52-2.571 2.189-2.571-16.652 0-15.985-.097-17.856-.953-18.395-2.637-1.665-2.819-.367-2.642 18.85.091 9.852.058 17.912-.075 17.912-1.591-.003-2.33-2.2-2.33-6.931 0-4.029-.253-5.559-1.259-7.63-1.487-3.062-.868-10.061 1.251-14.125.739-1.418 1.15-3.312 1.15-5.299 0-1.7.27-3.258.599-3.461.359-.222.469-1.439.274-3.034l-.326-2.664.727 2c.499 1.375 1.137 2.059 2.041 2.187m3.811 10.242c1.318 8.998 6.104 13.108 21.16 18.175 3.143 1.057 8.692 2.941 12.331 4.187 3.639 1.245 7.625 2.433 8.857 2.641 1.232.207 3.784.859 5.669 1.447 1.886.589 5.615 1.611 8.286 2.271 2.671.661 5.814 1.452 6.984 1.758l2.128.557.158 8.125c.15 7.691.22 8.125 1.301 8.125 1.082 0 1.152-.434 1.302-8.143.087-4.479-.045-8.143-.293-8.143s-.383-2.797-.3-6.214c.178-7.259.212-7.206-4.994-7.686-3.321-.306-10.855-2.102-26.572-6.334-2.828-.762-6.428-1.948-8-2.635-1.571-.687-5.171-2.102-8-3.144-2.828-1.042-7.917-3.201-11.309-4.798-8.112-3.819-9.244-3.844-8.708-.189m207.274 0c1.583 1.692 3.558 5.233 3.148 5.643-.138.138-.561-.499-.941-1.415-1.254-3.027-3.79-4.929-6.49-4.866-1.727.04-2.081-.072-1.259-.399 2.247-.894 4.051-.556 5.542 1.037m-3.002 4.413c2.854 1.475 5.859 17.961 3.536 19.397-.417.258-.648-.112-.648-1.036 0-3.948-4.401-12.68-6.69-13.273-8.782-2.277-17.714 25.721-10.95 34.32 3.031 3.854 10.188-.389 15.92-9.439 2.875-4.54-.916 5.238-4.028 10.389-5.971 9.882-14.252 9.28-14.252-1.036 0-.424-.413-.93-.918-1.123-3.385-1.299 4.269-34.469 7.954-34.469.379 0 1.006-.507 1.393-1.127 1.682-2.693 6.004-3.989 8.683-2.603m-3.333 11.73l1.073 2.571-1.188-1.571c-1.957-2.589-5.19-.65-7.456 4.471-.638 1.443-1.286 2.498-1.44 2.344-.154-.154.594-2.172 1.662-4.485 1.984-4.292 5.574-8.262 6.044-6.681.127.429.714 1.936 1.305 3.351m-164.065 1.461c0 1.296-1.18 1.561-2.019.453-1.143-1.508-1.029-1.792.591-1.483.786.15 1.428.614 1.428 1.03m-24.695 7.371c1.797.47 6.61 2.018 10.695 3.442 4.086 1.423 9.1 3.001 11.143 3.506 2.043.505 4.55 1.305 5.572 1.777l1.857.859v5.935c0 3.264-.167 5.934-.37 5.934-.203 0-1.811-.484-3.571-1.076a352.526 352.526 0 0 0-6.059-1.967c-1.572-.49-5.043-1.695-7.714-2.678-2.672-.982-7.031-2.43-9.689-3.218-7.342-2.175-6.883-1.622-6.883-8.285 0-4.934.125-5.707.876-5.419.481.185 2.345.72 4.143 1.19m170.256 18.756c-.12 1.327-.217.097-.215-2.731.002-2.829.1-3.914.218-2.411.118 1.502.117 3.816-.003 5.142m10.792 13.555c1.088 0 3.061-.526 4.384-1.167l2.406-1.167-1.714 1.449c-2.997 2.535-7.754 2.009-10.028-1.109-.557-.763-.204-.623 1.072.428 1.262 1.039 2.566 1.566 3.88 1.566m-77.781 33.714c-.194.314-.231.571-.081.571.15 0 .68.156 1.177.347.593.228.904.031.904-.571 0-1.008-1.437-1.258-2-.347m5.238-.191c-.804.804-.315 1.126 1.34.883.947-.139 1.862-.48 2.034-.758.36-.582-2.8-.699-3.374-.125" fill-rule="evenodd"/></svg>