<svg id="svg" xmlns="http://www.w3.org/2000/svg" xmlns:xlink="http://www.w3.org/1999/xlink" width="52" height="48" viewBox="0, 0, 400,381.27925117004685"><g id="svgg"><path id="path0" d="M292.356 0.363 C 279.643 2.117,274.302 3.608,265.254 7.928 C 249.919 15.250,240.769 32.250,246.601 42.587 L 248.272 45.549 178.582 106.903 C 140.253 140.648,107.910 169.101,106.708 170.132 L 104.524 172.007 98.747 170.201 L 92.969 168.396 87.377 157.314 C 83.042 148.724,80.974 145.351,78.178 142.311 L 74.571 138.389 69.481 142.004 L 64.392 145.618 66.765 147.338 C 69.801 149.537,71.688 152.072,74.543 157.786 C 77.216 163.137,77.155 163.337,73.246 162.005 C 67.385 160.008,63.651 161.736,63.651 166.446 C 63.651 171.513,60.263 170.018,102.340 183.522 C 141.358 196.044,139.419 195.258,138.867 198.331 C 138.442 200.697,137.081 202.275,135.821 201.864 C 100.667 190.406,52.645 175.351,51.252 175.351 C 47.020 175.351,44.448 180.206,46.735 183.876 C 48.058 186.000,46.538 185.450,85.179 197.778 L 96.412 201.362 101.092 210.263 L 105.772 219.165 120.437 228.727 L 135.101 238.288 142.044 253.153 L 148.986 268.019 142.668 271.263 C 139.193 273.047,136.035 274.521,135.651 274.539 C 135.267 274.557,131.788 269.165,127.919 262.559 C 116.772 243.522,121.026 246.142,90.076 239.250 C 70.794 234.956,65.564 233.580,64.511 232.526 C 62.769 230.783,32.831 177.622,31.827 174.489 C 29.626 167.624,32.540 157.412,38.395 151.474 L 41.266 148.562 39.510 148.160 C 38.544 147.939,35.847 146.900,33.517 145.851 L 29.281 143.943 27.465 146.074 C 21.576 152.985,18.487 164.046,19.938 173.026 C 21.024 179.743,22.310 182.413,36.533 207.488 L 49.983 231.201 49.546 243.370 L 49.108 255.538 33.331 279.563 C 20.513 299.081,17.751 303.659,18.605 303.967 C 19.184 304.176,22.073 304.538,25.026 304.773 L 30.396 305.199 45.287 282.552 L 60.178 259.906 60.703 252.433 C 60.992 248.323,61.290 244.898,61.365 244.823 C 61.527 244.661,81.347 249.042,81.632 249.303 C 81.740 249.402,80.617 253.272,79.136 257.903 L 76.443 266.322 58.034 286.644 C 47.910 297.822,39.626 307.245,39.626 307.586 C 39.626 309.393,58.341 316.906,59.631 315.616 C 60.356 314.891,59.239 312.743,56.869 310.300 L 54.510 307.869 56.740 305.366 C 57.967 303.990,65.226 295.953,72.872 287.507 L 86.774 272.150 89.911 262.302 C 91.637 256.885,93.171 252.331,93.322 252.180 C 93.472 252.030,97.318 252.724,101.868 253.722 L 110.140 255.538 117.449 267.707 C 121.468 274.399,124.768 280.049,124.781 280.261 C 124.794 280.474,120.382 283.271,114.977 286.477 C 105.897 291.863,77.379 310.515,77.379 311.068 C 77.379 311.201,79.271 310.452,81.584 309.404 C 87.271 306.825,95.793 304.757,102.964 304.215 L 108.892 303.768 116.381 299.218 C 161.080 272.061,214.630 252.021,225.811 258.266 C 230.705 260.999,220.356 277.267,201.110 297.091 C 194.176 304.233,193.997 304.482,196.100 304.087 C 196.872 303.942,200.172 304.098,203.432 304.434 L 209.360 305.045 211.443 303.068 C 223.419 291.701,236.827 271.989,238.378 263.471 C 242.328 241.766,213.443 240.401,167.064 260.101 L 159.713 263.223 158.170 260.179 C 157.322 258.505,154.078 251.581,150.960 244.792 C 144.044 229.730,145.609 231.439,128.221 219.957 C 115.153 211.328,111.236 208.056,112.484 206.809 C 112.597 206.696,117.452 208.161,123.272 210.065 C 138.288 214.979,144.287 214.253,148.182 207.052 L 149.405 204.790 234.207 179.348 L 319.010 153.906 322.531 157.737 C 343.738 180.807,371.798 168.741,380.978 132.605 C 385.422 115.110,386.040 91.498,382.509 74.168 C 373.166 28.322,332.282 -5.148,292.356 0.363 M316.693 13.679 C 339.438 19.863,359.787 40.310,368.157 65.391 C 375.798 88.288,374.518 123.185,365.344 142.094 C 350.143 173.427,318.358 153.849,321.128 114.860 C 324.415 68.588,306.135 43.917,265.732 40.097 C 256.239 39.199,254.501 36.925,258.012 29.997 C 265.249 15.717,294.386 7.614,316.693 13.679 M325.401 42.717 C 323.061 45.057,323.248 48.914,325.806 51.086 C 334.740 58.671,338.321 63.180,340.794 69.962 C 343.024 76.080,347.728 77.951,351.080 74.054 C 358.379 65.569,333.233 34.885,325.401 42.717 M262.871 51.571 C 264.158 51.783,265.211 52.317,265.211 52.756 C 265.211 53.729,253.542 102.993,253.250 103.255 C 253.136 103.357,224.941 120.594,190.596 141.561 L 128.150 179.681 123.038 178.005 C 120.227 177.084,118.000 176.135,118.090 175.897 C 118.391 175.096,259.275 51.223,259.906 51.203 C 260.250 51.193,261.583 51.358,262.871 51.571 M285.676 56.523 C 292.805 60.018,303.957 71.332,302.101 73.187 C 301.272 74.017,267.470 94.750,267.244 94.568 C 267.162 94.502,269.197 85.903,271.767 75.461 C 274.338 65.018,276.595 55.810,276.784 54.998 C 277.232 53.071,279.389 53.441,285.676 56.523 M41.988 80.121 C 21.635 86.759,15.711 115.421,31.590 130.438 C 48.475 146.408,74.883 132.375,74.883 107.433 C 74.883 89.238,57.722 74.989,41.988 80.121 M309.138 89.047 C 310.171 93.674,310.544 108.265,309.663 109.573 C 309.175 110.298,279.598 102.415,279.371 101.499 C 279.203 100.823,307.244 83.683,307.734 84.163 C 307.954 84.379,308.586 86.576,309.138 89.047 M52.730 91.173 C 56.076 92.089,60.650 96.837,61.999 100.794 C 67.467 116.842,52.061 132.506,40.324 122.832 C 26.922 111.784,36.715 86.792,52.730 91.173 M283.808 115.170 C 294.344 118.108,304.399 120.925,306.153 121.430 L 309.343 122.347 309.682 127.476 C 309.878 130.439,310.728 134.816,311.695 137.839 C 312.816 141.345,313.149 143.209,312.703 143.484 C 308.920 145.822,150.180 192.286,149.612 191.221 C 149.259 190.558,147.608 188.716,145.945 187.127 L 142.920 184.238 203.597 147.096 C 236.970 126.669,264.359 109.927,264.463 109.892 C 264.566 109.857,273.272 112.232,283.808 115.170 M13.991 316.611 C 6.870 319.828,10.382 326.885,19.496 327.673 C 26.163 328.248,29.843 329.408,37.988 333.501 C 53.660 341.376,69.184 341.289,86.115 333.232 C 101.788 325.774,112.955 325.543,126.365 332.400 C 144.023 341.429,161.972 341.598,177.559 332.881 C 189.563 326.168,204.426 325.800,216.157 331.926 C 234.055 341.272,249.820 341.577,268.253 332.934 C 283.575 325.750,293.547 325.735,308.743 332.872 C 327.000 341.448,340.824 341.392,359.438 332.666 C 368.384 328.472,369.059 328.273,376.445 327.644 C 382.572 327.123,384.133 326.237,384.754 322.923 C 386.427 314.006,372.009 313.594,354.585 322.061 C 339.603 329.340,328.102 329.426,313.547 322.368 C 295.900 313.809,281.528 313.790,263.406 322.303 C 248.000 329.539,237.747 329.466,222.154 322.012 C 205.261 313.936,189.711 313.843,174.025 321.725 C 158.177 329.689,147.359 329.770,131.462 322.046 C 114.412 313.761,98.701 313.793,82.464 322.145 C 74.940 326.015,68.894 327.613,61.778 327.613 C 54.663 327.613,48.617 326.015,41.093 322.145 C 31.480 317.200,18.536 314.557,13.991 316.611 M12.224 353.246 C 8.621 357.528,11.506 362.550,17.581 362.569 C 23.169 362.588,29.300 364.252,35.569 367.453 C 45.251 372.397,52.848 374.415,61.778 374.415 C 70.709 374.415,78.306 372.397,87.988 367.453 C 100.899 360.860,113.063 360.885,126.409 367.532 C 144.802 376.691,158.767 376.851,177.271 368.116 C 192.858 360.757,202.685 360.688,217.764 367.832 C 235.999 376.470,251.152 376.524,268.046 368.008 C 282.160 360.894,293.270 360.871,308.404 367.927 C 326.705 376.458,341.460 376.440,359.101 367.862 C 366.599 364.216,372.429 362.588,378.051 362.569 C 384.125 362.550,387.011 357.528,383.408 353.246 C 380.109 349.325,367.984 350.925,355.070 356.983 C 339.007 364.521,328.847 364.582,313.183 357.237 C 295.787 349.081,281.484 349.094,263.902 357.285 C 248.310 364.549,237.574 364.520,222.409 357.174 C 205.537 349.002,189.730 349.019,173.128 357.228 C 158.348 364.536,147.244 364.673,132.917 357.724 C 114.722 348.898,100.142 348.837,81.747 357.511 C 66.513 364.694,57.051 364.695,41.810 357.513 C 28.020 351.016,15.607 349.226,12.224 353.246 " stroke="none" fill="#fff" fill-rule="evenodd"></path></g></svg>